<?xml version="1.0" encoding="UTF-8"?>
<svg id="Layer_1" data-name="Layer 1" xmlns="http://www.w3.org/2000/svg" viewBox="0 0 249.74 252.12">
  <defs>
    <style>
      .cls-1 {
        fill: #dbbf9c;
      }

      .cls-2 {
        fill: #cec6be;
      }

      .cls-3 {
        fill: #e2cfb5;
      }
    </style>
  </defs>
  <g>
    <ellipse class="cls-3" cx="124.46" cy="76.95" rx="50" ry="76.5"/>
    <path class="cls-3" d="M162.42,76.95c2.63-22.65,1.36-49.47-15.92-66.57-5.86-5.69-13.8-9.33-22.04-9.43-17.04-.2-30.25,14.18-35.61,29.22-7.48,20.64-6.93,48.67,1.9,68.64,5.73,13.41,22.19,34.77,37.54,30.45,6.76-2.21,11.83-6.56,17.52-13.16,8.93-10.55,14.82-24.94,16.61-39.15h0Zm24.09,0c2.8,30.16-.54,63.36-24.81,85.65-15.25,14-38.54,18.62-57.85,10.16-27.14-11.52-38.78-41.28-40.22-67.84-2.73-35.67,7.66-74.89,37.08-96.71,14.88-10.84,32.75-10.9,47.86-.42,22.2,15.63,34.95,42.09,37.94,69.16h0Z"/>
  </g>
  <g>
    <ellipse class="cls-1" cx="59.46" cy="149.95" rx="50" ry="76.5" transform="translate(-38.16 21.54) rotate(-15.61)"/>
    <path class="cls-1" d="M96.02,139.73c-2.32-15.23-6.83-30.63-15.7-43.61-8.8-13.2-24.93-23.83-41.32-19.37-7.99,2.18-14.8,7.7-19.12,14.69-15.76,24.69-4.53,67.42,13,88.62,9.13,11.37,30.73,27.51,44.35,19.22,5.92-3.95,9.63-9.5,13.33-17.39,5.76-12.56,7.56-28.01,5.46-42.17h0Zm23.2-6.48c10.81,28.3,16.53,61.16-.84,89.16-10.92,17.59-32.1,28.31-52.98,25.35-29.24-3.79-48.46-29.31-57-54.51C-3.83,159.63-4.38,119.07,18.07,90.14c11.42-14.45,28.6-19.31,45.98-13.29,25.58,9.08,44.99,31.13,55.16,56.4h0Z"/>
  </g>
  <g>
    <ellipse class="cls-2" cx="188.46" cy="153.95" rx="76.5" ry="50" transform="translate(-12.84 290.67) rotate(-73.43)"/>
    <path class="cls-2" d="M224.84,164.77c8.98-20.96,15.41-47.03,3.73-68.35-3.99-7.12-10.57-12.88-18.43-15.32-16.28-5.05-33.04,4.96-42.46,17.85-13.05,17.62-20.53,44.7-17.76,66.33,1.67,14.49,11.36,39.66,27.3,39.89,7.11-.19,13.21-2.91,20.54-7.62,11.56-7.56,21.32-19.68,27.08-32.78h0Zm23.08,6.87c-5.92,29.71-18.59,60.57-48.2,75.01-18.61,9.07-42.25,6.86-58.34-6.76-22.73-18.78-25.4-50.62-19.21-76.49,7.56-34.97,28.7-69.59,63.12-82.12,17.36-6.15,34.49-1.11,45.99,13.25,16.82,21.31,21.49,50.31,16.64,77.11h0Z"/>
  </g>
</svg>