<?xml version="1.0" encoding="UTF-8"?>
<svg id="Layer_1" data-name="Layer 1" xmlns="http://www.w3.org/2000/svg" viewBox="0 0 271 319">
  <defs>
    <style>
      .cls-1 {
        fill: none;
      }

      .cls-1, .cls-2, .cls-3, .cls-4 {
        stroke-miterlimit: 10;
      }

      .cls-1, .cls-4 {
        stroke: #c7b299;
      }

      .cls-2, .cls-3 {
        stroke: #736357;
        stroke-width: 3px;
      }

      .cls-2, .cls-4 {
        fill: #fff;
      }

      .cls-5 {
        font-family: HighTowerText-Reg, 'High Tower Text';
        font-size: 50px;
      }

      .cls-6 {
        fill: #a67c52;
      }

      .cls-7 {
        fill: #c69c6d;
      }

      .cls-3 {
        fill: #736357;
      }
    </style>
  </defs>
  <rect class="cls-4" x=".5" y="20.5" width="225" height="298" rx="12" ry="12"/>
  <rect class="cls-3" x="9.5" y="72.5" width="207" height="105" rx="9" ry="9"/>
  <rect class="cls-2" x="20.5" y="79.58" width="186" height="89.91" rx="9" ry="9"/>
  <text class="cls-5" transform="translate(27.62 138.74)"><tspan x="0" y="0">FLOUR</tspan></text>
  <path class="cls-4" d="M222.25,19.5H18.28c-1.75,0-2.14-2.46-.47-3L67.26,.57c.16-.05,.33-.08,.49-.07l192.88,2.86c1.72,.03,2.1,2.43,.47,2.99l-38.37,13.06c-.16,.05-.33,.08-.49,.08Z"/>
  <path class="cls-4" d="M261.89,6.2l-37.39,13.29,1,291,45-31-.97-267.92c-.01-3.95-3.92-6.69-7.64-5.37Z"/>
  <path class="cls-7" d="M36.65,276.51c38.53-3.33,78.44-16.56,104.64-46.22,3.83-4.07,7.19-8.56,10.29-13.21,.51-.78,1.56-.99,2.34-.48,.76,.5,.98,1.53,.5,2.3-3.06,4.87-6.41,9.59-10.24,13.9-2.64,3.22-5.86,6.55-8.88,9.46-.83,.9-2.23,2.12-3.18,2.93-17.27,15.41-38.68,25.62-60.86,31.77-11.1,3.13-22.47,5.17-33.91,6.52-1.92,.23-3.66-1.15-3.89-3.07-.23-1.96,1.22-3.74,3.18-3.9h0Z"/>
  <g>
    <path class="cls-6" d="M137.68,229.55c.05-2.29,.06-4.65,.02-7.07-.05-3.48-.19-6.83-.39-10.04"/>
    <path class="cls-6" d="M135.24,229.5c-1.96-4.09-.99-8.46-.11-12.69,.37-1.43,.86-2.89,1.59-4.36,.22-.48,.94-.51,1.21-.05,2.71,5.03,4.75,11.77,2.2,17.2-.97,1.97-4.01,1.88-4.89-.1h0Z"/>
  </g>
  <g>
    <path class="cls-6" d="M144.32,219.88c.36-2.26,.7-4.6,1-7,.43-3.45,.76-6.79,1-10"/>
    <path class="cls-6" d="M141.9,219.49c-1.02-2.93-.43-5.64,.28-8.48,.77-2.89,1.79-5.59,3.52-8.18,.28-.47,1.02-.41,1.22,.09,1.99,5.36,3.08,12.31-.19,17.34-1.24,1.82-4.23,1.31-4.83-.78h0Z"/>
  </g>
  <g>
    <path class="cls-6" d="M153.06,211.2c.36-2.26,.7-4.6,1-7,.43-3.45,.76-6.79,1-10"/>
    <path class="cls-6" d="M150.65,210.81c-1.02-2.93-.43-5.64,.28-8.48,.77-2.89,1.79-5.59,3.52-8.18,.28-.47,1.02-.41,1.22,.09,1.99,5.36,3.08,12.31-.19,17.34-1.24,1.82-4.23,1.31-4.83-.78h0Z"/>
  </g>
  <g>
    <path class="cls-6" d="M161.69,205.92c.73-2.17,1.44-4.42,2.13-6.74,.99-3.34,1.86-6.57,2.62-9.7"/>
    <path class="cls-6" d="M159.37,205.14c-.53-3.06,.5-5.64,1.67-8.32,1.23-2.73,2.67-5.23,4.81-7.49,.26-.29,.71-.31,.99-.04,.71,1.53,.65,3.36,.76,4.92,.01,2.95-.15,5.94-1.23,8.68-.55,1.35-1.21,2.66-2.36,3.8-1.52,1.59-4.39,.6-4.64-1.56h0Z"/>
  </g>
  <g>
    <path class="cls-6" d="M157.22,215.84c1.89-1.3,3.81-2.67,5.75-4.11,2.8-2.07,5.44-4.14,7.92-6.18"/>
    <path class="cls-6" d="M155.84,213.83c2.17-3.98,6.29-5.75,10.23-7.5,1.38-.53,2.85-.99,4.47-1.25,.52-.1,.96,.47,.75,.95-2.48,5.11-6.81,10.75-12.68,11.83-2.17,.36-3.87-2.16-2.77-4.03h0Z"/>
  </g>
  <g>
    <path class="cls-6" d="M152.68,227.02c2.03-1.07,4.09-2.21,6.19-3.42,3.02-1.74,5.88-3.48,8.58-5.23"/>
    <path class="cls-6" d="M151.53,224.86c1.72-2.58,4.25-3.74,6.94-4.88,2.77-1.13,5.54-1.95,8.65-2.11,.54-.06,.94,.57,.66,1.03-3.05,4.79-8.01,9.89-13.96,10.29-2.2,.11-3.6-2.59-2.29-4.33h0Z"/>
  </g>
  <g>
    <path class="cls-6" d="M143.94,236.39c2.2-.63,4.46-1.31,6.77-2.06,3.31-1.07,6.47-2.18,9.48-3.32"/>
    <path class="cls-6" d="M143.27,234.03c2.22-2.16,4.93-2.78,7.8-3.33,2.94-.53,5.82-.75,8.9-.27,.54,.05,.8,.75,.43,1.14-3.98,4.05-9.89,8.01-15.8,7.16-2.17-.35-2.98-3.28-1.34-4.71h0Z"/>
  </g>
  <line class="cls-1" x1="67.5" y1=".5" x2="123.5" y2="10.5"/>
  <line class="cls-1" x1="18.5" y1="19.5" x2="123.5" y2="10.5"/>
  <line class="cls-1" x1="260.5" y1="3.5" x2="139.5" y2="10.5"/>
  <line class="cls-1" x1="222.5" y1="19.5" x2="139.5" y2="10.5"/>
</svg>