<?xml version="1.0" encoding="UTF-8"?>
<svg id="Layer_1" data-name="Layer 1" xmlns="http://www.w3.org/2000/svg" viewBox="0 0 45 115">
  <defs>
    <style>
      .cls-1 {
        fill: #fff;
      }

      .cls-2 {
        fill: #999;
      }
    </style>
  </defs>
  <rect class="cls-2" x="21" y="32" width="4" height="83" rx="1.47" ry="1.47"/>
  <path class="cls-2" d="M22.5,45C10.09,45,0,34.91,0,22.5S10.09,0,22.5,0s22.5,10.09,22.5,22.5-10.09,22.5-22.5,22.5Zm0-39C13.4,6,6,13.4,6,22.5s7.4,16.5,16.5,16.5,16.5-7.4,16.5-16.5S31.6,6,22.5,6Z"/>
  <rect class="cls-2" x="24" y="96" width="6" height="3"/>
  <rect class="cls-2" x="21" y="104" width="15" height="3"/>
  <rect class="cls-2" x="23" y="108" width="9" height="3"/>
  <rect class="cls-2" x="23" y="102" width="12" height="3"/>
  <g>
    <polyline class="cls-1" points="32.37 101.38 33.02 104.46 29.63 103 26.23 104.46 26.88 101.38"/>
    <polygon class="cls-1" points="25.55 105.3 26.39 101.28 27.37 101.48 26.92 103.62 29.63 102.46 32.33 103.62 31.88 101.48 32.86 101.28 33.71 105.29 29.63 103.55 25.55 105.3"/>
  </g>
</svg>