<?xml version="1.0" encoding="UTF-8"?>
<svg id="Layer_1" data-name="Layer 1" xmlns="http://www.w3.org/2000/svg" viewBox="0 0 177.51 290.17">
  <defs>
    <style>
      .cls-1 {
        fill: #fff;
      }

      .cls-2 {
        fill: #006837;
      }

      .cls-3 {
        fill: #39b54a;
      }
    </style>
  </defs>
  <path class="cls-3" d="M124.51,290H.51V66H124.51v224Zm-123-1H123.51V67H1.51v222Z"/>
  <path class="cls-3" d="M124.35,65H0L39.76,13h104.98l-20.39,52Zm-122.33-1H123.67l19.61-50H40.26L2.02,64Z"/>
  <path class="cls-3" d="M123.51,290.17l.03-225.86,20.31-51.79,33.66,40.79v220.55l-54,16.3Zm1-225.58v224.23l52-15.7V53.68L144.17,14.47l-19.66,50.12Z"/>
  <path class="cls-3" d="M144.51,14H38.51V0h106V14Zm-105-1h104V1H39.51V13Z"/>
  <g>
    <rect class="cls-2" x="1.01" y="126.5" width="123" height="77"/>
    <path class="cls-3" d="M124.51,204H.51V126H124.51v78Zm-123-1H123.51V127H1.51v76Z"/>
  </g>
  <g>
    <polygon class="cls-2" points="124.01 203 177.01 185.47 177.01 110.5 124.01 126.08 124.01 203"/>
    <path class="cls-3" d="M123.51,203.69V125.71l54-15.87v76l-54,17.86Zm1-77.24v75.85l52-17.2V111.17l-52,15.29Z"/>
  </g>
  <g>
    <path class="cls-1" d="M48.92,185.13c0,.33-.07,.54-.21,.62-.14,.08-.5,.11-1.07,.08-3.48-.15-6.19-.15-8.11,0-.6,.04-.9-.19-.9-.7,0-.28,.3-.48,.9-.6,1.19-.27,1.9-.49,2.14-.66,.29-.23,.43-.73,.4-1.52l-.7-17.1c-.01-.35-.11-.52-.28-.52-.13,0-.26,.12-.38,.36-2.38,4.78-4.04,8.17-5,10.19-1.94,4.02-3.3,7.07-4.1,9.15-.36,.97-.55,1.47-.56,1.5-.13,.24-.33,.4-.58,.48-.13,.04-.25,.06-.34,.06-.27,0-.51-.39-.72-1.18-.84-3.02-3.74-9.71-8.69-20.08-.15-.31-.31-.46-.48-.46-.21,0-.33,.21-.34,.62-.19,3.96-.41,9.24-.66,15.84-.08,1.76,.81,2.81,2.66,3.14,.73,.13,1.1,.39,1.1,.78,0,.33-.07,.54-.21,.62-.14,.08-.49,.11-1.05,.08-3.07-.12-5.45-.12-7.15,0-.6,.04-.9-.19-.9-.7,0-.28,.3-.48,.9-.6,1.07-.23,1.77-.58,2.1-1.06,.27-.37,.41-1.05,.44-2.02l.7-17.72c.03-.77-.13-1.37-.46-1.78-.29-.36-.89-.75-1.78-1.16-.64-.29-.94-.61-.9-.94,.03-.36,.31-.5,.86-.42,2.04,.29,3.83,.35,5.37,.16,.59-.07,.99-.05,1.2,.04,.21,.09,.4,.33,.56,.7l8.37,19.16c.11,.27,.2,.4,.28,.4s.2-.18,.36-.54c.53-1.15,3.52-7.33,8.95-18.56,.33-.68,.75-1.02,1.26-1.02,1.24,0,2.98-.18,5.21-.54,.51-.08,.82-.11,.94-.08,.23,.07,.34,.31,.34,.74,0,.32-.35,.59-1.06,.82-1.67,.52-2.49,1.15-2.46,1.88l.74,19.48c.03,.77,.22,1.32,.58,1.64,.29,.28,.83,.49,1.62,.64,.75,.15,1.12,.41,1.12,.78Z"/>
    <path class="cls-1" d="M64.54,159.88c0,.33-.36,.61-1.08,.82-1.62,.48-2.42,1.11-2.42,1.88v19.48c0,1.25,.74,2.02,2.22,2.28,.73,.13,1.1,.39,1.1,.78,0,.33-.06,.54-.19,.62-.13,.08-.47,.11-1.03,.08-3.52-.15-6.25-.15-8.17,0-.49,.04-.78-.05-.86-.28-.03-.09-.04-.23-.04-.42,0-.27,.3-.47,.9-.6,1.12-.25,1.77-.43,1.94-.54,.43-.27,.64-.81,.64-1.64v-19.64c0-1.11-.75-1.79-2.24-2.04-.63-.11-.94-.3-.94-.58,0-.39,.05-.62,.15-.71,.1-.09,.34-.11,.71-.07,2.6,.28,5.29,.25,8.07-.08,.52-.07,.83-.09,.92-.06,.21,.07,.32,.31,.32,.72Z"/>
    <path class="cls-1" d="M89.82,180.78c-.45,1.71-.68,3.31-.68,4.8,0,.25-.43,.36-1.28,.32-2.11-.11-4.72-.16-7.83-.16-3.31,0-6.26,.07-8.85,.2-.39,.03-.63,0-.72-.09-.09-.09-.14-.29-.14-.61,0-.35,.29-.55,.86-.6,1.31-.13,1.96-.83,1.96-2.1v-18.48c0-.93-.13-1.63-.38-2.08-.31-.53-.89-.95-1.76-1.24-.52-.19-.75-.49-.68-.9,.04-.29,.13-.47,.26-.52,.13-.05,.48-.05,1.04,.02,1.95,.21,4.27,.2,6.97-.04,.48-.04,.75-.05,.82-.04,.27,.04,.42,.22,.46,.54,.04,.36-.05,.61-.26,.74-.08,.05-.35,.13-.82,.24-.93,.21-1.52,.46-1.76,.73s-.36,.85-.36,1.73v17.92c0,1.12,.38,1.89,1.13,2.29,.75,.41,2.12,.61,4.11,.61s3.3-.24,4.21-.73c.91-.49,1.66-1.4,2.23-2.75,.21-.53,.54-.71,.98-.54,.43,.11,.59,.35,.48,.74Z"/>
    <path class="cls-1" d="M119.39,185.09c0,.32-.04,.52-.13,.6s-.3,.11-.65,.1c-3.46-.15-6.21-.08-8.25,.2-.49,.07-.78-.04-.86-.32-.08-.32,.19-.62,.82-.9,.37-.16,.56-.47,.56-.94s-.21-.92-.64-1.36c-1.87-1.92-5.08-5.05-9.63-9.39v9.43c0,.76,.79,1.36,2.38,1.8,.71,.2,1.06,.46,1.06,.78s-.06,.54-.18,.62-.43,.11-.92,.08c-2.36-.11-4.97-.05-7.83,.16-.55,.04-.82-.19-.82-.7,0-.35,.27-.55,.82-.6,1.25-.15,1.88-.86,1.88-2.14v-19.22c0-1.24-.7-2.02-2.1-2.34-.49-.12-.79-.21-.9-.27-.11-.06-.16-.2-.16-.43,0-.32,.06-.52,.18-.61s.46-.12,1.02-.09c3.35,.19,6.01,.19,7.99,0,.57-.05,.86,.18,.86,.7,0,.25-.29,.45-.86,.58-1.03,.23-1.64,.41-1.84,.56-.39,.27-.58,.8-.58,1.6v8.75c3.76-3.15,6.8-5.77,9.11-7.85,.68-.6,1.02-1.17,1.02-1.7s-.37-.93-1.1-1.2c-.43-.15-.65-.23-.68-.26-.2-.12-.27-.32-.22-.6,.04-.31,.12-.49,.24-.54,.13-.07,.45-.05,.94,.04,2.59,.27,4.96,.29,7.13,.08,.33-.03,.55,0,.64,.06,.09,.07,.17,.25,.22,.56,.05,.27,.02,.45-.1,.55-.12,.1-.41,.22-.88,.35-1.25,.39-2.84,1.36-4.74,2.92-1.42,1.15-4.38,3.62-8.91,7.41,4.88,4.66,8.71,8.23,11.49,10.71,1.21,1.09,2.46,1.82,3.72,2.16,.6,.17,.9,.39,.9,.66Z"/>
  </g>
  <g>
    <path d="M15.6,138.71c-.1,.28-.18,.68-.24,1.21-.01,.11-.07,.17-.18,.17-.09,0-.15-.05-.18-.15-.06-.25-.12-.42-.18-.51-.09-.14-.23-.22-.44-.26-.16-.03-.74-.05-1.73-.05-.12,0-.19,.02-.22,.06-.02,.02-.03,.08-.04,.16l-.29,2.25c0,.06,0,.1,.02,.12,.02,.01,.06,.02,.13,.02,.31,0,.77-.03,1.36-.07,.16-.02,.3-.22,.42-.6,.04-.15,.13-.2,.26-.17,.11,.03,.15,.08,.12,.17-.17,.54-.28,1.18-.33,1.9,0,.09-.07,.14-.18,.16-.11,.01-.17-.04-.17-.18,0-.23,0-.38-.03-.44-.04-.15-.15-.24-.31-.26-.26-.04-.68-.05-1.26-.05-.07,0-.1,.02-.1,.08-.03,.29-.13,1.07-.3,2.34,0,.06,0,.11,0,.16,0,.25,.19,.4,.56,.46,.09,.01,.38,.02,.89,.02,.83,0,1.4-.31,1.71-.93,.07-.14,.16-.19,.26-.15,.11,.02,.15,.09,.11,.2-.14,.38-.25,.81-.34,1.29-.01,.07-.12,.1-.33,.09-.53-.03-1.19-.04-1.99-.04-.91,0-1.71,.02-2.39,.05-.09,0-.15,0-.18-.02s-.04-.08-.04-.17c.02-.09,.1-.15,.25-.16,.21-.02,.36-.07,.43-.13,.07-.06,.12-.21,.15-.44l.6-4.95c.03-.18,.04-.32,.04-.4,0-.16-.05-.28-.16-.35-.12-.05-.25-.11-.37-.16-.09-.04-.12-.13-.09-.25,.04-.1,.17-.13,.38-.09,.2,.04,.75,.05,1.65,.05,.94,0,1.75-.02,2.43-.06,.21-.01,.32,0,.32,.04,0,.01,0,.03-.01,.06Z"/>
    <path d="M23.35,138.8c0,.08-.03,.13-.09,.17,0,0-.07,.02-.2,.06-.35,.11-.79,.37-1.3,.78-.29,.23-1.11,.91-2.47,2.02,.56,.66,1.4,1.63,2.53,2.91,.28,.3,.57,.49,.88,.58,.15,.05,.22,.11,.21,.18-.01,.13-.09,.19-.23,.19-.8-.03-1.49-.01-2.07,.05-.12,.03-.19,0-.19-.09-.01-.09,.07-.17,.24-.24,.11-.05,.17-.15,.17-.3,0-.11-.04-.22-.12-.32-.49-.61-1.22-1.47-2.18-2.56l-.32,2.57c-.03,.2,.15,.37,.54,.48,.17,.05,.25,.12,.24,.21-.01,.1-.04,.16-.09,.18-.03,.01-.1,.02-.22,.01-.6-.03-1.26-.01-1.99,.04-.09,0-.15,0-.17-.02-.02-.02-.03-.08-.02-.16,.01-.09,.09-.15,.23-.16,.33-.04,.51-.23,.55-.57l.63-5.16s0-.08,0-.11c0-.27-.15-.45-.46-.52l-.18-.04s-.07-.07-.06-.15c0-.09,.03-.14,.07-.16,.04-.02,.12-.03,.26-.02,.83,.05,1.51,.05,2.02,0,.09,0,.14,0,.17,.02,.03,.02,.04,.08,.04,.16,0,.06-.09,.12-.25,.16-.28,.06-.46,.13-.53,.18-.08,.06-.13,.2-.16,.4l-.29,2.35c.6-.5,1.46-1.22,2.59-2.16,.2-.18,.31-.34,.31-.48,0-.13-.08-.23-.24-.3-.1-.05-.17-.08-.19-.1-.02-.02-.03-.07,0-.14,.02-.08,.05-.13,.08-.14,.03-.01,.11-.01,.23,0,.63,.09,1.24,.09,1.81,.02,.09-.01,.15,0,.17,.01,.03,.02,.04,.07,.04,.16Z"/>
    <path d="M31.71,141.53c0,1.22-.42,2.26-1.25,3.09-.81,.81-1.79,1.22-2.93,1.22-.96,0-1.73-.27-2.32-.82-.61-.56-.91-1.32-.91-2.27,0-1.22,.43-2.25,1.28-3.08,.81-.79,1.76-1.19,2.83-1.19,1,0,1.8,.27,2.4,.82,.6,.55,.9,1.29,.9,2.23Zm-1.05,.24c0-.82-.22-1.48-.66-1.98-.46-.53-1.1-.79-1.89-.79s-1.42,.32-1.95,.97c-.55,.67-.82,1.53-.82,2.57,0,.85,.23,1.52,.7,2.03,.46,.5,1.09,.75,1.87,.75s1.47-.34,1.99-1.03c.5-.67,.76-1.51,.76-2.52Z"/>
    <path d="M37.76,144.35c-.18,.5-.29,.93-.33,1.29,0,.07-.12,.1-.33,.09-.52-.03-1.16-.04-1.92-.04-.87,0-1.65,.02-2.35,.05-.1,0-.16,0-.19-.02-.02-.02-.04-.08-.03-.17,.02-.09,.11-.15,.25-.16,.34-.04,.53-.22,.57-.56l.6-4.96c.02-.12,.03-.21,.03-.29,0-.29-.15-.49-.45-.6-.12-.05-.17-.13-.16-.24,.02-.08,.05-.13,.09-.14,.04-.01,.13,0,.26,0,.49,.06,1.08,.05,1.77-.01,.13-.01,.21-.02,.22-.02,.07,.01,.1,.06,.1,.15s-.02,.14-.05,.17-.12,.06-.26,.09c-.25,.06-.41,.12-.48,.2-.07,.07-.12,.23-.15,.46-.07,.52-.26,2.12-.59,4.81,0,.07,0,.13,0,.19,0,.23,.09,.38,.27,.47s.53,.12,1.05,.12c.47,0,.83-.06,1.06-.19s.44-.38,.63-.74c.05-.1,.1-.16,.13-.17,.03-.01,.07,0,.15,.03,.1,.03,.14,.09,.1,.2Z"/>
    <path d="M46.44,141.53c0,1.22-.42,2.26-1.25,3.09-.81,.81-1.79,1.22-2.93,1.22-.96,0-1.73-.27-2.32-.82-.61-.56-.91-1.32-.91-2.27,0-1.22,.43-2.25,1.28-3.08,.81-.79,1.76-1.19,2.83-1.19,1,0,1.8,.27,2.4,.82,.6,.55,.9,1.29,.9,2.23Zm-1.05,.24c0-.82-.22-1.48-.66-1.98-.46-.53-1.1-.79-1.89-.79s-1.42,.32-1.95,.97c-.55,.67-.82,1.53-.82,2.57,0,.85,.23,1.52,.7,2.03,.46,.5,1.09,.75,1.87,.75s1.47-.34,1.99-1.03c.5-.67,.76-1.51,.76-2.52Z"/>
    <path d="M54.99,142.48c-.02,.12-.11,.2-.27,.22-.26,.04-.43,.08-.5,.12-.07,.04-.11,.12-.13,.23l-.19,1.44c-.04,.3-.32,.59-.84,.87-.59,.32-1.27,.48-2.04,.48-.98,0-1.78-.28-2.4-.83-.64-.56-.96-1.3-.96-2.21,0-1.23,.42-2.26,1.26-3.09s1.88-1.24,3.13-1.24c.73,0,1.32,.08,1.77,.23,.37,.13,.55,.26,.56,.4,0,.27-.02,.67-.09,1.21-.01,.11-.09,.17-.24,.18-.15,.01-.24-.03-.27-.13-.14-.53-.36-.9-.63-1.11-.29-.21-.75-.32-1.36-.32-.92,0-1.65,.33-2.2,.98-.56,.67-.84,1.57-.84,2.71,0,.8,.22,1.44,.65,1.93,.46,.51,1.08,.77,1.87,.77,.47,0,.87-.08,1.2-.24,.33-.16,.51-.36,.56-.62,.02-.11,.06-.44,.13-.97,.01-.09,.02-.16,.02-.23,0-.29-.19-.49-.58-.61-.19-.06-.27-.13-.25-.21,.03-.09,.06-.15,.09-.17,.04-.02,.12-.03,.25-.01,.82,.09,1.52,.09,2.09,.01,.1-.01,.16-.01,.19,0,.03,.02,.04,.08,.03,.18Z"/>
    <path d="M59.02,138.74c-.01,.09-.11,.16-.3,.22-.2,.06-.33,.11-.38,.15-.1,.07-.16,.19-.18,.35l-.65,5.23c-.04,.31,.18,.52,.67,.61,.18,.04,.27,.11,.25,.21-.01,.1-.05,.16-.11,.18-.02,.01-.1,.01-.23,0-.92-.04-1.63-.04-2.14,0-.14,.01-.21-.02-.21-.1,0-.02,0-.05,0-.09,.02-.07,.1-.13,.25-.16,.23-.06,.38-.11,.45-.17,.08-.07,.14-.21,.16-.41l.65-5.27c.02-.18-.03-.3-.16-.39-.09-.06-.27-.11-.54-.16-.17-.03-.25-.08-.23-.16,.02-.1,.04-.16,.07-.19,.03-.03,.09-.03,.18-.02,.68,.08,1.4,.07,2.13-.02,.2-.02,.31,0,.31,.09,0,.02,0,.05,0,.09Z"/>
    <path d="M66.73,139.13c0,.32-.05,.77-.11,1.33,0,.11-.11,.17-.28,.18-.13,0-.2-.04-.22-.13-.12-.54-.31-.94-.58-1.18-.28-.25-.69-.37-1.22-.37-.87,0-1.6,.35-2.2,1.05-.61,.72-.92,1.63-.92,2.72,0,.8,.21,1.44,.62,1.91,.43,.49,1.02,.74,1.77,.74,1.08,0,1.87-.6,2.36-1.82,.05-.12,.12-.18,.21-.18,.04,0,.08,0,.13,.02,.15,.02,.2,.09,.17,.22-.14,.63-.29,1.1-.43,1.41-.09,.2-.35,.38-.77,.54-.5,.19-1.1,.28-1.81,.28-1.06,0-1.88-.26-2.46-.79s-.87-1.26-.87-2.2c0-1.24,.45-2.28,1.34-3.13,.88-.83,1.94-1.24,3.18-1.24,.58,0,1.08,.07,1.48,.21,.42,.14,.62,.28,.61,.42Z"/>
  </g>
  <path d="M62.51,289c.11-4.69,.84-11.89,4-20,.77-1.97,4.04-10.07,12-19,3.46-3.89,18.67-20.96,27-17,5.3,2.52,5.79,12.59,6,17,.53,10.84-3.78,14.85-2,23,1.32,6.07,5.14,10.39,8,13"/>
  <path d="M10.01,75.5c1.47,1.05,4.55-3.6,10-4,3.16-.23,7.44,.95,9,4,2.27,4.43-2.47,10.36-3,11-3.32,4.05-6.29,3.4-7,6-1.05,3.83,5.14,6.07,7,14,.39,1.67,1.56,6.65-1,9-2.73,2.51-8.2,.64-11-1-4.19-2.46-5.91-6.47-7-9-1.53-3.56-1.8-6.58-2-9-.51-6.25,1.48-6.78,1-12-.55-5.97-3.21-7.46-2-11,1.17-3.44,4.93-5.69,6-5,1.31,.84-1.49,5.93,0,7Z"/>
  <path d="M20.01,223.5c-5.78,6.3-9.68,4.8-13,10-3.57,5.6-2.17,12.25-2,13,1.65,7.31,6.91,7.22,9,14,2.7,8.76-4.39,14.4-1,19,2.76,3.75,10.56,4.19,15,1,6.07-4.37,5.75-15.47,2-22-3.08-5.36-7.44-5.83-9-12-.26-1.05-1.45-5.74,1-9,1.77-2.35,3.66-1.61,7-4,.93-.67,6.51-4.66,6-10-.41-4.3-4.66-8.4-8-8-2.74,.33-2.81,3.43-7,8Z"/>
  <path d="M100.51,80c-4.68,2.61-10.34-4.47-15-2-3.68,1.95-5.23,9.08-3,14,2.38,5.27,7.47,4.44,18,11,10.14,6.32,11.73,11.01,15,10,2.97-.92,4.02-9.29,6-26,1.24-10.48,1.24-13.52-1-16-3.31-3.66-10.17-4.68-14-2-4.31,3.01-2.12,8.83-6,11Z"/>
</svg>