<?xml version="1.0" encoding="UTF-8"?>
<svg id="Layer_1" data-name="Layer 1" xmlns="http://www.w3.org/2000/svg" viewBox="0 0 261.12 156.9">
  <defs>
    <style>
      .cls-1 {
        fill: #333;
        stroke: #4d4d4d;
        stroke-width: .25px;
      }

      .cls-1, .cls-2 {
        stroke-miterlimit: 10;
      }

      .cls-3 {
        fill: #fff;
      }

      .cls-4 {
        fill: #4d4d4d;
      }

      .cls-2 {
        fill: #999;
        stroke: gray;
        stroke-width: 2px;
      }

      .cls-5 {
        fill: #909090;
      }
    </style>
  </defs>
  <path class="cls-2" d="M259.28,102.72c-.63-5.23-2.81-17.13-19-38-8.72-11.24-21.96-28.3-45-42-7.55-4.49-67.24-38.7-125-11-25.39,12.18-39.51,31.09-46,40C11.49,69.27-3.51,89.86,2.28,112.72c6.53,25.81,36.15,41.11,59,43,15.03,1.24,18.18-4.06,48-10,23.94-4.77,42.23-5.39,60-6,53.91-1.84,73.9,7.53,85-6,7.63-9.3,5.95-23.2,5-31Z"/>
  <circle class="cls-1" cx="155.78" cy="70.22" r="3.5"/>
  <circle class="cls-1" cx="96.78" cy="75.22" r="4.5"/>
  <path class="cls-3" d="M95.43,74.64c1.93,0,1.93-3,0-3s-1.93,3,0,3h0Z"/>
  <path class="cls-3" d="M154.66,70.22c1.93,0,1.93-3,0-3s-1.93,3,0,3h0Z"/>
  <g>
    <path class="cls-5" d="M223.07,98.37c.08-.03,.24-.15,.17-.18l-.3,.15,.13,.03Z"/>
    <path class="cls-5" d="M223.38,97.71c-.17,.03-.46,.08-.71,.27,.32-.09,.21,0,.57-.13,.06,.03-.04,.14-.15,.2,.08-.03,0,.12,.18,.03,.17-.2,.14-.28-.09-.26,.05-.05,.14-.08,.19-.11Z"/>
    <path class="cls-5" d="M222.44,92.88v.05s.01-.04,0-.05Z"/>
    <path class="cls-5" d="M219.77,92.59s.07-.04,.11-.07c-.04,.02-.08,.04-.11,.07Z"/>
    <path class="cls-5" d="M220.02,92.22l-.02,.02s.07-.05,.02-.02Z"/>
    <path class="cls-5" d="M222.44,92.88l-.04-.13c-.07,.09,0,.09,.04,.13Z"/>
    <path class="cls-5" d="M222.32,97.31s.06,.02,.1,.03c-.02-.01-.04-.02-.05-.04h-.05Z"/>
    <polygon class="cls-5" points="223.09 94.18 223.1 94.18 223.11 94.17 223.09 94.18"/>
    <path class="cls-5" d="M223.77,95.25s-.26-.08-.38-.11c.11,.04,.16,.06,.18,.08,.05,0,.12,.02,.2,.03Z"/>
    <path class="cls-5" d="M223.34,96.73l.05,.02s-.03-.01-.05-.02Z"/>
    <path class="cls-5" d="M223.22,93.23s.06-.06,.08-.07c-.03,.02-.05,.05-.08,.07Z"/>
    <path class="cls-5" d="M214.26,94.32s0-.03-.01-.05c0,.03,0,.05,.01,.05Z"/>
    <polygon class="cls-5" points="212.65 93.33 212.67 93.31 212.63 93.16 212.65 93.33"/>
    <path class="cls-5" d="M220.43,91.85s0,0-.01,0c.07-.03,.06-.03,.01,0Z"/>
    <path class="cls-5" d="M223.75,89.31c-.21-.17,0-.36-.28-.53,.06,.09,.09,.45,.28,.53Z"/>
    <path class="cls-5" d="M222.35,97.26s-.02-.03-.02-.05c0,.03,0,.04,.02,.05Z"/>
    <path class="cls-5" d="M223.47,88.77h0s-.03-.02-.03-.02c.01,0,.02,.01,.03,.02Z"/>
    <path class="cls-5" d="M220.1,91.77c-.1,.02-.19,.04-.26,.06,.06-.01,.13-.03,.26-.06Z"/>
    <path class="cls-5" d="M218.88,92.44l.08-.04c-.06,.03-.08,.04-.08,.04Z"/>
    <path class="cls-5" d="M219.61,91.64s.11-.01,.06-.02c-.02,0-.04,0-.06,0,.06,0,.08,0,0,.02Z"/>
    <path class="cls-5" d="M219.97,91.34s-.05,0-.08-.01h0s.07,.01,.07,.01Z"/>
    <path class="cls-5" d="M216.98,93.25c-.05-.07-.09-.14-.13-.22,.09,.18-.02,.3,.13,.22Z"/>
    <path class="cls-5" d="M222.47,97.25c-.07,.02-.11,.02-.13,0l.03,.03s.08-.02,.1-.04Z"/>
    <path class="cls-5" d="M216.15,91.7l.24-.17c-.09,.05-.18,.11-.24,.17Z"/>
    <path class="cls-5" d="M223.13,90.17v.05s0-.01,0-.05Z"/>
    <path class="cls-5" d="M216.89,91.02c.16-.01,.27-.03,.36-.05-.02-.01-.03-.02-.07-.04l-.29,.09Z"/>
    <path class="cls-5" d="M216.85,93.02h0s0,0,0,0Z"/>
    <path class="cls-5" d="M216.14,94c.14-.04-.06-.36-.1-.57,.13-.16,.17,.23,.29,.39,.07-.13,.03-.48,.11-.49,.03,.06,.05,.07,.06,.15,0-.31,.31-.14,.31-.53,.02,.03,.04,.05,.05,.08-.09-.17-.16-.34-.2-.47,.06-.03,.03-.26,.14-.04-.04,0,0,.1,0,.18l.02-.12c.18,.3-.04,.14,.05,.38,.08-.15,.12-.48,.25-.42,.15,.31-.18,.19,.06,.42l-.19-.06c.31,.46-.1,0,.21,.49,.23,.02,.16-.24,.38-.23-.03-.19-.12-.25-.15-.45,.14-.42,.54,.7,.57,.2-.04-.23-.18-.63,.05-.48l.1,.37c.2-.04-.11-.55,.18-.4,.03,.15-.09,.18-.05,.21,.24,.22,0-.24,.1-.28l.16,.3c.17-.14,.29-.45,.48-.61,.03,.1,.04,.21,.13,.28,.2-.28,.59-.23,.94-.18l-.03-.31s.1,.1,.1,.16c.15,.05-.08-.17-.08-.3,.05-.05,.15,.11,.15,.21,.07-.31,.26-.73,.59-.55v.1c.2,.03-.11-.62,.15-.45v.06c.37-.05,.58-.47,1.03-.22-.16-.39,.4,0,.12-.53,.32,.15,.32,.27,.67,.3,.08-.02-.09-.37-.04-.47l.16,.26-.06-.34,.25,.28,.03-.11s-.14-.08-.18-.16c.05-.19,.4,0,.48,.14l.14-.39c.06,.11,.04,.17,.04,.26-.02-.36,.2,.26,.18-.07-.06-.05-.09-.16-.12-.22,.17,.11,.32,.02,.39-.12l.09,.19c.23-.09,.37-.37,.6-.51-.14-.03-.32-.35-.28-.42l.21,.25c-.07-.19-.14-.06-.19-.32,.1-.02,.26,.27,.28,.39l.04-.16c.06,.08,.07,.13,.13,.24-.07-.2,.36,.15,.22-.18l.06,.08c.23-.15,.26-.32,.43-.46-.16-.23-.05-.23-.14-.45,.18-.02,.46,.05,.6-.09,.03-.19-.11-.21-.16-.38,.08,.1,.16,.12,.21,.13l4.42,1.26-5.44-3.02c-.05-.03-.09-.06-.08-.16-.2,.13-.26,.17-.44,.48,.07,.08,.12,.11,.14,.2-.03,.06-.16-.05-.2-.16v-.03c-.13,.49-1.02-.35-1.03,.26v-.03s-.12,.37-.12,.37c-.13,.02-.02-.21-.18-.3-.07,.51-.45,.17-.53,.53-.53-.57-.56,.37-1.03,.08l.1,.15c.03,.18-.12-.05-.18-.06,.08,.12,.14,.1,.16,.21-.37,.47-1.13,.38-1.71,.58-.21,.08,.41,.83-.04,.63l-.12-.32c-.15,.58-.64,.42-1.07,1.18-.03-.07-.1-.14-.05-.18-.31-.07-.46,.35-.27,.45-.1,.05-.18-.08-.32-.09-.26,.03,0,.39-.3,.33-.05,0-.05-.06-.04-.09,.04,.11-.4,.29-.02,.33-.35,.12-.21,.35-.56,.43,.31,.14-.52,.26,.05,.34-.61-.07-.83,.27-.61,.36-.17-.03-.31,.09-.55,.06-.12,.13-.11,.23,.28,.19-.54,.14-.49,.24-.44,.32,.05,.08,.1,.13-.57,.29,.05,.29,.06,.52-.02,.74-.9,.26,.24-.3-.69-.04,.03,.23,.68,.13,.17,.48-.21,.12-.38,.11-.52,.13,.04,.09-.12,.24-.27,.38,.12,.03,.39,.01,.82-.09-.09,.04-.23,.08-.34,.11,.11-.01,.04,.06,.46-.12l-.19,.05c.54-.26,1.56-.55,1.87-.69-1.29,.52,.01,.13-1.62,.79,.13-.03,.37-.12,.63-.24-.01,.04-.14,.11-.51,.25,.48-.1,.79-.29,1-.29-.18,.09-.29,.12-.53,.23,.47-.17,.91-.35,.95-.27-.11,.05-.22,.13-.27,.12,.4-.02,1.32-.47,1.36-.3-.68,.4-.08,.13-.54,.48l.34-.1,.15-.17c.16,0,.61-.25,.6-.13l-.29,.14,.38-.07s-.01-.09-.02-.13c.35-.18,.49-.44,.55-.35-.07,.04,.12,0,0,.21h0c.18-.11,.35-.23,.37-.14-.07,.11-.35,.39-.4,.47,.32-.3,.44-.08,.75-.4-.08,.08-.21,.26-.22,.3l.22-.24c.02,.08,0,.12-.1,.27,.19,.05,.2-.46,.33-.26-.03,.02-.04,.06-.1,.09,.21,.1,.53-.16,.71-.04-.02,.37-.23,.09-.24,.4,.2-.03,.41-.14,.6-.23,.09-.05,.18-.09,.26-.11,.04-.03,.09-.03,.13-.01l-.03-.04c.09-.53,.1,.26,.22,0-.03,.04-.1,.3-.08,.24,.07,.09,.22-.14,.52-.27l-.11,.13c-.01,.13,.11,.11,.11,.21,.13-.11,.14-.06,.29-.25-.25,.43-.16,.4-.04,.44,.11,.02,.23,.12-.05,.32,0-.02-.12,0-.12,0,.02-.03,.14,.22,.29,.33,.17-.17,.07-.14,.19-.3,.15,0,.28,0,.32,.04-.2,0-.29,.24-.28,.42,.03-.06,.11-.1,.15-.16-.03,.47,.26-.35,.37-.03l-.04,.12c.16-.04,.22-.23,.29-.26,.24,.15,0,.18,.05,.38,.11-.05,.15-.17,.14-.27l-.5-.27c.1,.11,.23,.22,.04,.23-.06-.06-.04-.13-.09-.2-.33,0-.26,.05-.33,.12h0s-.19,.16-.19,.16l.1-.03c.64,.29,.06,.32,.49,.57-.41-.23-.24-.06-.54-.11-.09,.04-.19,.11-.28,.08,.23,.12-.21,.16,.14,.32-.1,0-.01,.1-.26,.08,.08,.13,.17-.03,.29-.01,.33,.18-.4,.48,.09,.72,.22,.21,.55,.18,.76,.32-.14,.1-.36,.03-.36,.03-.12,.14-.06,.22,.07,.29-.09,0-.15,.05-.24,.11,.05,.08,.36-.06,.26,.09-.11,.02-.28,.06-.4,.05,.12,.08,.33,.11,.45,.17-.14,.09-.26,.04-.38,.05,.12,.09,.27,.24,.53,.15l.05-.11s-.2,.12-.26,.11c-.24,0,.02-.18,.11-.22l.09,.04c.49-.3-.19-.22-.21-.39l.41-.08c-.12,0-.25-.01-.37-.03,.09-.06,.31-.15,.39-.1,.17-.15-.17-.04,.03-.18,.03-.02,.05-.02,.07-.02l-.14-.06c.09,0,.28-.08,.24-.02,.2-.19-.36-.18-.06-.3h.03c-.17-.19-.31,.04-.68-.1,.25-.07,.49-.13,.74-.18h-.31s.03-.07,.15-.07c-.21-.07-.13,.02-.33-.02,.27-.12-.13-.32,.36-.33-.23-.05-.19,.1-.34-.03,.53,0-.08-.15,.17-.23,.26,.06,.11,.13,.36,.07-.45-.11,.12-.17,.05-.25-.36-.07-.11-.2-.19-.36,.06,.02,.13-.03,.21-.09l-.65-.31c.09,.09,.01,.03,.05-.07h0s.04-.11,.04-.09c-.03,.03-.04,.02-.09,.02,.07-.06,.12-.1,.17-.14h-.01s.02,0,0,0c0,0-.02,.02-.07,.04h.02s-.02,0-.02,0h0s.3-.13,.3-.13h0s0,0,0,0h0s0,0,0,0h0s0,0,0,0c0,.02,0,.02-.02-.02l-.1-.12c-.07-.08-.1-.16-.03-.31-.23,.14-.67,.5-.83,.42,.13-.08,.35-.22,.4-.2-.02,0-.11,0-.06-.06l.22-.05c.08-.15-.18,.06-.17-.02,.18-.11,.12-.13,.26-.21,.02,0-.06,.11,.01,.09,.02-.1,.09-.27,.2-.4-.09,.08-.22,.16-.26,.12-.08-.14,.17-.2,.19-.36-.13,.05-.1-.14-.31,.07-.03-.04,.06-.14,.1-.21-.15,.01-.38-.21-.49,.09v.03s0,0-.01,0h0s0,0,0,0c-.39,.15-.45-.29-.79-.19l.03-.1c-.2,.11-.41,.07-.53,.28-.04,0-.11-.18-.09-.3-.1,.08-.1,.19-.19,.02,.09-.17,0-.15,.08-.13-.08-.08-.04-.24-.19,.03,.09-.25,.04-.32-.01-.24,0,.06-.01,.12,0,.18-.05,.04-.08,.02-.11,0l.15-.33c.04-.2-.06-.03-.21,.11-.13,.14-.3,.25-.06-.1-.23,.24-.06,.16-.3,.44-.06-.04,.31-.53,.31-.53,.14-.19-.56,.49-.53,.37-.13,.12-.46,.44-.71,.56-.07-.04,.52-.5,.68-.6,.03-.01-.01,.03-.06,.07,.08-.04,.16-.1,.29-.23l-.15,.12c.12-.12,.03-.11,.31-.31-.18,.12-.28,.2-.33,.26,.16-.17-.11,0,0-.12-.09,.07-.3,.21-.31,.21,.11-.15-.42,.23-.62,.29,.25-.18,.77-.44,.41-.29,.17-.12,.57-.32,.75-.42-.47,.24,.2-.15,.29-.2l.2-.1c-.12,.06-.12,.06-.12,.06l-.47,.24c.07-.04,.06-.04,.27-.14-.34,.16-.8,.41-1.29,.62,.23-.12-.39,.13,.3-.19-.15,.11,.7-.33,.85-.38-.09,.04-.1,.04-.01,0,.08-.04,.14-.06,.19-.09,.61-.29-.81,.37-.87,.36,.43-.18,.79-.35,.7-.31,0,0-.7,.31-1.06,.45,.29-.14-.32,.11-.31,.09l-.13,.07c-.46,.18-.44,.16-.65,.22,.36-.14,.3-.1,.44-.16-.88,.32,.69-.31,.22-.16,.36-.13,.86-.32,1.12-.42-.57,.18,.66-.24,.19-.1-.61,.2-.47,.17-1.02,.32,.11-.02,.23-.04,.35-.07l-.83,.25s.32-.07,.2-.01c-.48,.15-.32,.09-.86,.29,.97-.36-.42,.07,.25-.2l1.45-.45c.67-.22-.63,.13-.2-.05l-.25,.08c-.51,.12-.01-.04-.19-.02,.42-.1,.58-.13,.86-.2-.31,.06,.07-.04-.72,.09l.56-.12c.25-.07-.99,.06-.75-.05,.36,0,.64-.05,.87-.04,.02-.02,.1-.04-.14-.02,.22-.02-.39-.03-.05-.07-.13,0-.47,0-.4-.04,.07,0,.16,0,.16,0-.16,0-.15-.05-.53-.03,.55-.04,.58-.09,.62-.15,.03-.06,.07-.13,.44-.08-.03-.07-.02-.15,.03-.21,.06,.03,.1,.05,.07,.05,.26,.03-.51-.32-.19-.31,.34,.14,.1,.14,.24,.18,.59,.37,.03-.14,.4,.07l.02,.03c.2,.13-.12-.22,.05-.29,0,0,.03,.05,.06,.08-.11-.33,0-.54,.08-.71,.11,.24,.02,.15,.19,.35,.04-.07-.25-.33-.18-.47,.12,.09,.27,.13,.43,.35l-.1,.09c.26,.26,.13-.11,.22-.09l.08,.13c.13-.15-.08-.48,.11-.57l-.08-.09c-.12-.39,.2,.13,.14-.18l.24,.31c.01-.12,.02-.47,.1-.6,.09,.29,.03,.5,.04,.7,.07-.04,.2-.16,.13-.35,0,.05,.01,.15-.04,.12-.09-.31-.06-.51,.07-.58,.38,.66,.44-.04,.84,.41,.08-.38,.52-.16,.76-.35-.38-.47,.07-.06-.24-.59,.05-.07,.08-.07,.1-.04l.37,.22c.13,.13,0,.15,.07,.27,.16-.03,.18,.2,.35,.29-.12-.18-.1-.3,.02-.27l-.24-.19c.04-.39,.4,.37,.45-.02l.03,.2c.05-.15,.37-.18,.26-.67,.05,.05,.15,.19,.12,.26,.27-.05,.32-.74,.65-.54l.04,.14c.03-.06-.03-.29,.09-.18,.02,.06,.04,.14,.07,.14,0-.06,.02-.29,.11-.24v.18c.1,.02,.16-.01,.19-.07l-1.24-2.13c-.06,.18,.04,.52-.04,.68-.26-.35-.51-.35-.64-.34l-.03-.05c-.28,.14-.22,.6-.36,.91-.41-.29-.62,.17-1,.11,.08,.04,.18,.29,.16,.36-.1-.04,0,.36-.2,.01h.02c-.26-.31-.32-.15-.41-.1l.27,.46c-.64-.5-.49,.64-.98,.13,0,.15-.06,.19-.06,.34l-.14-.25c-.2,.03-.3,.05-.47,.22l-.06-.2c-.12,.05,.26,.79,.16,.87l-.24-.35c-.2,.12-.58-.09-.6,.35-.03-.06-.08-.17-.05-.2-.1,.04-.5-.06-.2,.44-.18-.33-.23,.08-.26,.28l-.11-.26c.07,.36,.11,.45,.02,.61-.05-.02-.13-.19-.05-.14-.17-.08,.04,.28-.16,.21l-.03-.18c-.12,.03-.07,.12-.03,.33-.02,.14-.24,.04-.36-.18,.05,.15,.08,.36-.02,.32-.05-.08-.05-.15-.05-.18-.26-.09-.13,.42-.38,.23-.04-.08-.07-.12-.09-.14,.15-.06,.27-.1,.27-.08-.11-.23-.24-.22-.3-.58,0,.22,0,.68-.16,.62-.02-.02-.03-.04-.05-.07v-.03s-.05,.02-.06,.07c-.05-.02-.09-.04-.13-.03-.1-.19-.18-.05-.24-.03,.12,.25,.02,.25,.19,.43-.02-.01,0-.04,.03-.06,0-.01,.01-.02,.01-.04v.02s.09-.05,.14-.08c.01,.15,.01,.28-.12,.17,.04,.18,.08,.36,.1,.45-.24-.32-.48-.45-.6-.66-.11,.23-.38,.27-.29,.81-.03,.08-.12-.12-.17-.18,0-.06,.05-.07,.04-.15-.05,.17-.29,.17-.17,.53-.19-.1-.05-.35-.21-.22l-.02-.11c-.57-.41-.24,1.11-.91,.55,.04,.03,.06,.05,.09,.1-.57-.15-.84,.63-1.46,.28-.16-.06-.1,.17-.13,.37l-.12-.28-.03,.37c-.12,.3-.55-.61-.65-.07l.09,.19c-.1,0-.25,.2-.3-.03,0,.04,.03,.21-.03,.12l-.05-.15-.14,.32c-.2-.06-.14-.61-.39-.57-.07,.08-.14,.52-.08,.61,.04,0,.12,.07,.16,.22l-.06,.1c.1,.45,.16,.93,.45,1.19l.07-.32,.11,.2-.12,.05c.13,.19,.12,0,.14-.15,.04,.11,.09,.19,.13,.22l.03-.47c.07,.17,.03,.37,.16,.44,.01-.22-.18-.38-.1-.54,.13,.18,.16,.36,.19,.16,.04,.11,.05,.19,.03,.25,.04-.16,.18-.11,.15-.36,.15,.23,.23-.14,.35,.28,0-.11,.03-.37,.09-.41,.03,.54,.26-.05,.4,.5-.05-.48,.27-.31,.35-.61,0,.04,0,.12-.01,.1,.1,0,.17,.13,.26,.2-.11-.38,0-.51,0-.76,.23,.32,.08,.46,.23,.79-.11-.3,.09-.36-.03-.6,.16,.19,.11,.08,.26,.37-.15-.47,.05-.11,.02-.42,.2,.18,.18,.42,.27,.23,.11,.12,.05,.32,.05,.32Zm2.83-2.06h0s-.04,.04-.06,.05c.01-.01,.03-.02,.05-.05Zm.25-.12s-.08,.02-.12,.04c-.05-.08-.08-.18-.05-.19,.01,.07,.1,.09,.17,.14Zm-1.34-1.53c.02-.05,.06,0,.09,.04-.02,.01-.03,.03-.05,.06v.03c0-.05-.03-.1-.03-.14Z"/>
    <path class="cls-5" d="M217.96,90.66s0,.02,0,.03c.02,.02,.04,.03,.05,.05l-.02-.09h-.02Z"/>
    <path class="cls-5" d="M222.46,92.94h0s0,.01-.01,.03c0-.01,0-.02,.01-.03Z"/>
    <polygon class="cls-5" points="222.93 90.45 222.9 90.39 222.91 90.46 222.93 90.45"/>
    <path class="cls-5" d="M222.41,95s-.02,.05-.01,.08c0-.02,.01-.05,.01-.08Z"/>
    <path class="cls-5" d="M222.48,94.66l-.12,.08c.07-.03,.1-.06,.12-.08Z"/>
    <path class="cls-5" d="M222.22,95.22s.08,.02,.12,.03h0s-.12-.03-.12-.03Z"/>
    <path class="cls-5" d="M214.54,94.22s-.03,0-.06,.01c-.19,.05-.09,.03,.06-.01Z"/>
    <path class="cls-5" d="M218.87,93.64c-.08,.05-.16,.1-.22,.13,.03,.02,.07,.03,.22-.13Z"/>
    <polygon class="cls-5" points="216.12 91.72 216.13 91.72 216.15 91.7 216.12 91.72"/>
    <path class="cls-5" d="M218.51,93.76c0,.05,.06,.04,.14,0-.03-.02-.05-.05-.14,0Z"/>
    <path class="cls-5" d="M222.51,97.83v.03s.03-.01,.05-.02l-.05-.02Z"/>
    <path class="cls-5" d="M222.55,97.85l.04,.02s-.01-.02-.04-.02Z"/>
    <path class="cls-5" d="M222.69,97.89l-.09-.03s.02,.05,.09,.03Z"/>
    <path class="cls-5" d="M222.35,97.02l-.1,.02s.05,0,.1-.02Z"/>
    <path class="cls-5" d="M222.26,96.79c0,.06-.18,.19-.1,.26h.08c-.16-.02,.2-.25,.02-.26Z"/>
    <path class="cls-5" d="M223.42,95.79s-.06,.1-.08,.15c.11-.03,.25-.07,.28,0,.32-.18-.24,.05-.2-.15Z"/>
    <path class="cls-5" d="M223.61,95.35c.04,.08,.16,.02,.22,.04-.09-.06-.11-.08-.22-.04Z"/>
    <path class="cls-5" d="M221.02,92.57v-.26s0,.1,0,.26Z"/>
    <polygon class="cls-5" points="220.04 93.89 220.08 94.05 220.2 93.82 220.04 93.89"/>
    <polygon class="cls-5" points="220.67 92.08 220.7 92.04 220.6 92.13 220.67 92.08"/>
    <path class="cls-5" d="M220.23,91.46l-.42-.07c.05,.03,.53,.11,.42,.07Z"/>
    <path class="cls-5" d="M221.48,90.16c.11,.12,.23,.16,.18,0-.06,.02-.18-.05-.18,0Z"/>
    <polygon class="cls-5" points="222.24 87.92 222.23 87.8 222.19 87.93 222.24 87.92"/>
  </g>
  <g>
    <path class="cls-5" d="M65.27,102.9c.3-.31,.89-1.09,.68-1l-1.07,1.26,.39-.26Z"/>
    <path class="cls-5" d="M66.55,100.04c-.58,.57-1.5,1.64-2.32,2.92,1.01-1.23,.64-.68,1.87-2.13,.2-.09-.16,.54-.54,1.02,.29-.32-.09,.38,.59-.41,.67-1.1,.53-1.27-.24-.52,.18-.32,.47-.65,.65-.89Z"/>
    <path class="cls-5" d="M57.43,92.6l-.02,.21c.03-.11,.03-.17,.02-.21Z"/>
    <path class="cls-5" d="M52.63,88.55c.06,0,.18-.11,.29-.22-.1,.06-.2,.11-.29,.22Z"/>
    <path class="cls-5" d="M53.27,86.62s-.03,.08-.05,.11c.1-.12,.15-.19,.05-.11Z"/>
    <path class="cls-5" d="M57.43,92.6l.06-.55c-.24,.48-.09,.4-.06,.55Z"/>
    <path class="cls-5" d="M63.16,102.57c.07-.05,.17-.17,.3-.32-.06,.05-.11,.08-.16,.11-.05,.08-.09,.14-.14,.22Z"/>
    <path class="cls-5" d="M60.77,92.61l.05,.02c.09-.17,.19-.37,.31-.6l-.37,.58Z"/>
    <path class="cls-5" d="M63.14,93.38c-.03-.08-.63,1.19-.9,1.74,.27-.51,.42-.75,.51-.83,.11-.24,.24-.54,.39-.92Z"/>
    <path class="cls-5" d="M65.65,97.42l.16-.13s-.1,.08-.16,.13Z"/>
    <path class="cls-5" d="M59.34,91.66c.07-.19,.14-.36,.18-.47-.07,.16-.13,.32-.18,.47Z"/>
    <path class="cls-5" d="M38.95,31.19c.07,.07,.11,.12,.17,.19-.08-.12-.14-.2-.17-.19Z"/>
    <path class="cls-5" d="M45.82,34.82v.09c.12,.24,.24,.47,.36,.7l-.36-.79Z"/>
    <path class="cls-5" d="M53.7,84.32s-.01,.01-.02,.02c.15-.06,.12-.06,.02-.02Z"/>
    <path class="cls-5" d="M46.19,68.18c-1.17,.51-1.65,.03-2.93,.68,.53-.16,2.2-.23,2.93-.68Z"/>
    <path class="cls-5" d="M63.22,102.38s-.06,0-.08-.03c0,.06,.03,.07,.08,.03Z"/>
    <path class="cls-5" d="M43.26,68.86h-.01s-.12,.07-.12,.07c.05-.03,.09-.04,.13-.07Z"/>
    <path class="cls-5" d="M51.01,81.35c-.22,.12-.38,.21-.53,.31,.13-.06,.28-.15,.53-.31Z"/>
    <path class="cls-5" d="M50.8,85.12l.12-.17c-.09,.1-.11,.14-.12,.17Z"/>
    <path class="cls-5" d="M48.46,80.54c.08-.09,.25-.18,.05-.17-.06,.03-.1,.06-.15,.09,.19-.05,.28-.06,.1,.08Z"/>
    <path class="cls-5" d="M47.7,78.74c-.09,.05-.17,.09-.25,.14,.03,0,.06,.02,.09,.03l.16-.17Z"/>
    <path class="cls-5" d="M34.39,39.03c.39,.09,.81,.22,1.22,.36-.94-.33-1.11-.86-1.22-.36Z"/>
    <path class="cls-5" d="M63.57,101.89c-.19,.3-.3,.44-.36,.49,.03,0,.05-.02,.09-.03,.11-.18,.22-.34,.27-.46Z"/>
    <path class="cls-5" d="M38.26,84.89l.05-.41c-.09,.15-.1,.29-.05,.41Z"/>
    <path class="cls-5" d="M32.78,56.17l-.17-.07s.01,.06,.17,.07Z"/>
    <path class="cls-5" d="M37.71,83.58c.43-.25,.67-.42,.82-.56-.11,.03-.2,.05-.35,.1l-.47,.46Z"/>
    <path class="cls-5" d="M35.63,39.39h-.01s.01,0,.01,0Z"/>
    <path class="cls-5" d="M33.98,35.19c-.27,.4,1.46,1.09,2.34,1.69,.22,.69-1.31-.45-2.23-.74,.27,.55,1.67,1.53,1.5,1.7-.28-.12-.4-.12-.72-.34,1.18,.93-.37,.96,1.2,2.02-.16-.04-.31-.08-.44-.13,.88,.29,1.75,.65,2.37,.91-.03,.16,.97,.7-.17,.31,.07-.08-.38-.26-.72-.45l.43,.35c-1.67-.48-.47-.44-1.66-.92,.39,.56,1.6,1.41,1.06,1.48-1.63-.49-.33-.78-1.88-.94l.76-.18c-2.63-.63,.27-.2-2.52-.91-.69,.44,.57,.95-.08,1.36,.86,.41,1.34,.38,2.2,.79,1.41,1.2-4.29-.58-2.26,.62,1.06,.44,3.12,1.01,1.93,1.12l-1.84-.58c-.31,.5,2.62,.91,1.24,1.17-.72-.25-.54-.54-.78-.51-1.56,.04,1.01,.48,.96,.74l-1.68-.27c.15,.63,1.26,1.43,1.49,2.05-.5-.1-1.01-.28-1.54-.2,.74,.88-.39,1.59-1.45,2.27l1.45,.37c-.02,.06-.67,.08-.95,0-.57,.25,.93,.07,1.5,.24,.09,.16-.85,.16-1.29,.03,1.21,.58,2.62,1.46,1.04,1.91l-.43-.11c-.6,.38,3,.47,1.63,.8l-.26-.07c-.65,.82,.72,1.67-1.49,2.33,2.11,.07-.93,.83,2.03,.8-1.44,.5-1.97,.39-2.93,1.09-.13,.18,1.85,.18,2.17,.38l-1.54,.08,1.63,.21-1.83,.25,.41,.18c.09-.09,.68-.21,1.12-.22,.72,.27-1.02,.83-1.81,.89l1.35,.66c-.62,.03-.84-.08-1.24-.15,1.6,.29-1.61,.19-.15,.46,.35-.08,.92-.04,1.23-.06-.92,.25-.88,.68-.47,.95l-1.06,.03c-.21,.59,.61,1.14,.66,1.77,.47-.28,2.3-.42,2.5-.26l-1.61,.25c1.01,0,.59-.25,1.84-.15-.16,.25-1.82,.36-2.37,.29l.6,.22c-.48,.07-.74,.03-1.36,.09,1.02,0-1.56,.69,.2,.65l-.48,.07c.06,.64,.65,.85,.81,1.35,1.39-.18,1.11,.06,2.26,.04-.39,.43-1.43,1-1.24,1.43,.74,.2,1.19-.1,2.04-.09-1.26,.23-1.07,.65-2.01,.57,.3,.5,.37,.64,1.51,1.13,.5-.17,.71-.29,1.15-.32,.23,.08-.48,.37-1.09,.46h-.14c2.03,.36-3.33,2.45-.58,2.52h-.14s1.5,.32,1.5,.32c-.15,.33-.98,.04-1.71,.42,2.24,.2-.07,1.13,1.45,1.35-3.56,1.33,.62,1.44-1.55,2.61l.85-.26c.88-.08-.44,.31-.61,.48,.66-.2,.73-.37,1.22-.41,1.36,.95-.52,2.91-.86,4.47-.07,.55,4.46-1.17,2.63,.07l-1.62,.36c2.18,.3,.6,1.94,2.51,2.27-.38,.08-.84,.25-.87,.16-1.06,.61,.21,.73,1.13,.38-.05,.18-.81,.35-1.25,.61-.59,.45,1.61-.08,.54,.46-.17,.09-.38,.09-.48,.09,.59-.09,.09,.64,1.33,0-.48,.58,.82,.41,.18,.98,1.5-.42-.45,.86,1.59,.06-2.1,.85-1.43,1.3-.37,1.08-.66,.2-.57,.46-1.48,.76,.14,.23,.62,.29,1.66-.23-2.27,1.56,2.38-.02-.65,1.69,1.44,.22,2.51,.52,3.32,.91-2.01,1.03-.57-.61-2.66,.5,1.16,.23,3.05-.35,2.91,.52-.18,.31-.9,.4-1.27,.53,1.15,.16,.55,1.35,1.95,1.24-.18,.11-.41,.18-.59,.22,.13,.07-.11,.44,.74-.14l-.3,.05c1.14-.97,2.86-1.31,3.51-1.75-2.54,1.49-.26,.91-3.5,2.77,.21-.04,.67-.23,1.22-.64-.09,.22-.39,.49-1.1,.83,.73,.07,1.51-.72,1.74-.37-.4,.3-.6,.35-1.1,.66,.91-.4,1.79-.83,1.68-.3-.25,.17-.52,.45-.59,.36,.53,.41,2.62-.88,2.35,.21-1.71,1.33-.36,.65-1.68,1.97l.67-.11,.54-.75c.21,.26,1.35-.53,1.12,.09l-.7,.4c.23,.06,.46,.1,.69,.14l.23-.74c.88-.51,1.57-1.76,1.51-1.13-.18,.1,.19,.19-.41,1.13h0c.5-.35,.99-.75,.86-.26-.33,.5-1.32,1.58-1.54,1.92,1.09-1.13,.85,.1,1.98-1.13-.28,.28-.86,1.07-.96,1.24l.85-.95c-.13,.41-.23,.58-.7,1.2,.21,.44,1.26-2.01,1.07-.89-.09,.06-.18,.23-.36,.34,.11,.72,1.22-.16,1.25,.6-.87,1.67-.58,.18-1.28,1.6,.78,.08,2.31-1.24,2.62-.57v-.23c1.32-2.3-.23,1.36,.63,.4-.15,.14-.76,1.26-.61,1.01,.18,.58,1.06-.2,1.96-.69l-.36,.58c-.04,.66,.42,.58,.52,.97,.35-.59,.44-.43,.77-1.37-.87,3.87,2.16-1.32,1.48,1.91-.08-.02-.41,.47-.35,.5l.77-.35c.42-1.08,.21-.67,.46-1.54,.34-.6,.69-1.02,.82-.97-.54,.6-.73,1.7-.89,2.34,.12-.33,.31-.68,.45-1.01-.55,2,.97-2.11,.79-.68l-.26,.55c.26-.22,.71-.9,.79-.68-.48,1.25-.4,.51-.85,1.51,.23,.02,1.43-2.14,1.08-.84-.24,.3-.37,.25-.6,.55-.43,1.53-.25,1.17-.2,1.46v-.04s.04,.8,.04,.8l.09-.43c1.68-3.06,.77-.35,2.06-2.27-1.24,1.81-.58,1.11-1.24,2.47-.09,.42-.17,.91-.38,1.27,.67-1.03-.17,.99,.81-.52-.2,.44,.14,.12-.43,1.2,.36-.25,.33-.78,.61-1.33,1.06-1.34-.23,2.14,1.23,.33,.81-.64,1.66-2.03,2.44-2.53-.27,.74-.98,1.48-.98,1.48-.17,.73,.02,.69,.48,.31-.26,.34-.4,.67-.64,1.17,.19-.03,1.02-1.46,.81-.73-.32,.44-.82,1.15-1.16,1.58,.37-.29,1.01-.96,1.41-1.23-.43,.73-.8,1.02-1.15,1.45,.37-.22,.85-.37,1.67-1.43l.16-.47c.1,0-.62,.97-.8,1.15-.74,.78,.05-.52,.3-.94l.29-.18c1.46-2.46-.74,.07-.86-.21l1.19-1.7-1.16,1.32c.23-.49,.78-1.52,1.07-1.71,.33-.99-.55,.54-.13-.54,.07-.16,.13-.25,.19-.31l-.5,.43c.26-.36,.7-1.29,.67-.96,.23-1.25-1.32,1.03-.7-.41l.09-.1c-.82,.36-.78,1.32-1.96,2.72l1.5-3.47-.75,1.33c-.02-.07-.07-.23,.22-.76-.66,.84-.27,.61-.82,1.43,.38-1.37-.93,.27,.07-1.95-.59,1-.16,.92-.76,1.52,1.06-2.39-.49,.26-.19-.93,.64-1.19,.55-.44,.83-1.64-1.1,2-.23-.65-.6-.35-.76,1.65-.72,.5-1.28,.92,.27-.55-.19-1.17-.22-1.9l.13-.28c-.79,1.66-.95,1.21-1.31,1.47,.45-1.01,.66-1.39,.97-1.79l-.21-.08c-.28,.52-.47,.78-.68,.91l.6-1.24c-.3-.05-1.19,1.25-1.16,.26-.53,1.16-1.15,3.39-1.86,4.01,.26-.64,.73-1.73,.93-1.95-.07,.07-.34,.48-.29,.18l.61-1c.05-.54-.47,.86-.55,.7,.4-.9,.19-.69,.52-1.39,.07-.07-.06,.42,.15,.09-.07-.22,0-.83,.25-1.54-.22,.52-.54,1.22-.69,1.29-.29-.05,.39-1.13,.45-1.65-.34,.6-.21-.12-.82,1.22-.07-.04,.2-.67,.34-1.05-.4,.53-.69-.11-1.2,1.38v.11s-.04,.02-.06,.05h0s0,0,0,0c-1.06,1.11-.54-1.18-1.22-.82l.23-.44c-.5,.37-.69,.02-1.38,.86-.08-.04,.26-.89,.58-1.38-.35,.22-.66,.69-.5-.16,.61-.64,.32-.7,.49-.44-.01-.5,.35-1.2-.58-.18,.73-1.04,.67-1.45,.38-1.19l-.34,.86c-.21,.08-.25-.08-.29-.23l.95-1.37c.36-.97-.27-.35-.83,.1-.54,.46-1.02,.75-.14-.71-.8,.85-.29,.8-1.19,1.83-.03-.16,.27-.75,.58-1.3,.31-.55,.63-1.05,.61-1.07,.4-.87-1.73,1.72-1.56,1.03-.36,.47-1.36,1.7-1.94,1.94-.06-.34,1.46-2.02,1.88-2.29,.07,0-.04,.15-.17,.3,.2-.11,.43-.25,.8-.78l-.42,.42c.32-.51,.09-.65,.81-1.31-.49,.31-.72,.66-.85,.96,.42-.79-.27-.29-.03-.89-.21,.25-.69,.77-.71,.73,.26-.79-.95,.64-1.35,.58,.56-.73,1.66-1.38,.9-1.1,.35-.53,1.18-1.04,1.58-1.32-1.02,.57,.31-.81,.41-1.01l.44-.21c-.26,.13-.29,.08-.32,.04l-.89,.78c.12-.18,.09-.23,.48-.53-.66,.41-1.52,1.26-2.47,1.77,.42-.45-.73,.11,.52-.85-.24,.59,1.26-.95,1.62-.9-.18,.08-.21,.02-.08-.16,.14-.11,.27-.18,.35-.22,.98-1.05-1.52,.94-1.68,.65,.75-.47,1.35-1.01,1.17-.95,.05,.11-1.19,.89-1.82,1.16,.45-.56-.56,.09-.56-.06l-.2,.29c-.77,.45-.74,.28-1.06,.29,.58-.38,.48-.13,.71-.34-1.42,.67,1.15-1.2,.13-.86,.46-.41,1.43-.86,1.73-1.15-1.13,.35,.92-.85-.05-.61-1,.65-.74,.53-1.86,.91h.97s-1.66,.59-1.66,.59c.06,.14,.81-.09,.68,.09-.92,.36-.66,.22-1.48,.78,1.45-1.07-1.12,.13-.19-.68l2.6-1.4c1-.91-1.63,.16-1.19-.61l-.39,.37c-1.08,.47-.28-.19-.77-.13,.89-.42,1.17-.66,1.7-.99-.66,.33-.09-.34-1.89,.46l1.09-.75c.32-.57-2.75,.76-2.61,.25,1.03-.33,1.6-.77,2.4-.85-.04-.12,.08-.3-.55-.02,.54-.32-1.36,.21-.55-.28-.42,.12-1.38,.52-1.36,.34,.18-.09,.45-.19,.45-.19-.45,.19-.7,.04-1.65,.6,2.68-1.59-.66-.99,1.65-2.33-.41-.14-.83-.35-1-.57,.28-.09,.46-.18,.38-.09,.72-.67-2.72,.82-1.92,.05,1.41-.77,.89-.1,1.4-.44,3.02-1.21-.6-.31,1.09-1.23h.2c.97-.58-1.33-.06-1.23-.47,0,0,.28-.08,.46-.16-1.64,.34-2.32,.09-2.86-.09,1.24-.31,.68-.07,1.89-.55-.22-.08-1.95,.72-2.39,.54,.63-.32,1.13-.72,2.43-1.19l.16,.24c1.64-.71-.17-.32,.08-.56l.75-.23c-.37-.32-2.24,.28-2.26-.21l-.55,.23c-1.93,.34,.98-.54-.47-.35l1.86-.66c-.5-.02-1.99,0-2.44-.19,1.45-.25,2.27-.13,3.16-.18-.03-.16-.3-.49-1.26-.29,.2,0,.69-.05,.42,.1-1.54,.26-2.36,.21-2.42-.13,3.69-1.01,.69-1.11,3.49-2.13-1.52-.18,.29-1.24-.08-1.82-2.83,.95-.13-.17-3.09,.6-.23-.11-.19-.18,0-.24l1.66-.89c.84-.31,.69-.01,1.36-.18,.15-.38,1.23-.43,1.97-.83-1.06,.29-1.55,.24-1.18-.04l-1.32,.58c-1.69-.1,2.42-.96,.74-1.06l.97-.06c-.61-.11-.17-.85-2.62-.6,.34-.11,1.15-.33,1.38-.28,.26-.62-2.82-.77-1.41-1.5l.74-.09c-.23-.07-1.41,.06-.7-.21,.31-.05,.74-.09,.78-.14-.26-.01-1.34-.06-.93-.28l.85-.02c.88-.71-2.17-.52-2.75-.93,2.18-.33,2.82-.87,3.14-1.14l.31-.04c.17-.67-1.96-.85-2.89-1.37,2.32-.65,.84-1.4,2.13-2.13-.39,.13-1.71,.14-1.94,.05,.43-.18-1.56-.27,.45-.42l-.03,.05c1.96-.27,1.41-.51,1.45-.74l-2.64,.16c3.8-.86-1.52-1.51,1.91-2.03-.67-.11-.67-.29-1.33-.41l1.42-.05c.35-.41,.51-.61,.16-1.09l1.01,.07c.09-.27-4.09-.25-4.17-.52l2.11-.12c-.04-.5,1.8-.99-.11-1.46,.31,0,.92,.03,1.01,.1,.05-.23,1.44-.83-1.46-.8,1.89,.02,.19-.48-.63-.77l1.39,.08c-1.77-.27-2.26-.3-2.74-.63,.18-.07,1.12-.01,.76,.07,.74-.2-1.31-.25-.55-.51l.88,.16c.12-.24-.36-.24-1.38-.45-.55-.2,.38-.46,1.64-.38-.76-.09-1.77-.32-1.4-.43,.48,.02,.77,.1,.91,.14,.98-.3-1.55-.77-.16-.89,.46,.05,.69,.06,.83,.06-.08,.3-.17,.54-.27,.51,1.28,.13,1.53-.08,3.27,.29-.95-.27-2.99-.85-2.36-1.02,.13,0,.26,.02,.44,.03l.14,.04c.13-.03,.02-.1-.18-.17,.22-.04,.38-.06,.41-.13,1.05,.13,.61-.16,.68-.26-1.39-.23-1.14-.35-2.31-.4,.1,0,.16,.05,.21,.14,.04,.02,.05,.05,.13,.07-.04,0-.08-.02-.12-.03,.03,.08,.04,.19,.05,.31-.69-.2-1.27-.41-.48-.41-.88-.21-1.78-.45-2.2-.56,1.96,.15,3.06,.06,4.25,.27-.71-.5-.34-.85-2.83-1.77-.3-.2,.76,.08,1.17,.16,.24,.13,.18,.18,.54,.31-.6-.37-.09-.63-1.83-1.24,.88,0,1.57,.66,1.4,.23l.52,.22c1.5,.16,.46-.41-.42-1.1-.89-.65-1.61-1.43,.26-.93-.23-.06-.34-.08-.62-.21,.95-.03,.8-.57,.82-1.1,.01-.51,.2-1.03,1.47-.48,.54,.18-.34-.6-.9-1.31l1.15,.98c-.38-.45-.75-.91-1.1-1.37-.32-.58,.46-.06,1.11,.41,.66,.47,1.15,.87,.54-.18l-.69-.75c.24,.05,.05-.81,.73,.15-.1-.16-.58-.88-.22-.49l.46,.64c-.16-.44-.32-.89-.44-1.34,.56,.32,1.67,2.65,2.01,2.62-.08-.3-.78-2.2-1.05-2.65-.07,0-.38-.35-.76-1.04l-.03-.45c-1.06-2.07-1.87-4.34-3.3-5.42,.08,.5,.16,.99,.27,1.48l-.72-.88c.11-.1,.22-.19,.34-.28-.76-.8-.42,.11-.22,.74-.35-.49-.64-.81-.85-.94,.25,.72,.52,1.42,.82,2.12-.57-.71-.83-1.62-1.4-1.84,.41,.98,1.34,1.55,1.44,2.32-.79-.73-1.26-1.46-.94-.57-.39-.46-.58-.79-.64-1.07,.22,.72-.35,.66,.33,1.7-1.03-.85-.37,.77-1.83-.88,.29,.45,.85,1.56,.77,1.77-1.56-2.17-.69,.46-2.65-1.56,1.51,1.85,0,1.56,.7,2.81-.13-.14-.39-.42-.27-.38-.34,.1-.95-.26-1.43-.37,1.54,1.21,1.63,1.83,2.51,2.7-1.74-.8-1.78-1.48-3.32-2.44,1.3,.9,.95,1.43,2.12,2.06-1.12-.43-.6-.13-2.04-.88,2.04,1.35,.21,.44,1.38,1.42-1.23-.3-2.03-1.09-1.6-.33-.76-.18-1.31-.97-1.31-.97Zm.97,10.41s-.02,0-.03,0c-.02-.08-.04-.14-.06-.18,.01,.04,.03,.09,.08,.18Zm-.06,.69c.06-.08,.09-.18,.09-.29,.48,.03,.98,.12,.94,.19-.32-.08-.62,.05-1.03,.11Zm9.81,.09c.19,.1-.09,.09-.38,.05-.02-.04-.06-.09-.15-.16-.05-.01-.11-.02-.17-.04,.26,.05,.5,.1,.69,.14Z"/>
    <path class="cls-5" d="M42.91,45.95s-.09-.03-.1-.05c-.12,0-.22,0-.32,0,.15,.03,.29,.07,.43,.1,0-.02,0-.03-.01-.05Z"/>
    <path class="cls-5" d="M57.41,92.84v-.03c-.01,.06-.03,.11-.06,.19,.03-.07,.04-.1,.06-.16Z"/>
    <polygon class="cls-5" points="32.05 55.47 32.4 55.46 32.09 55.41 32.05 55.47"/>
    <path class="cls-5" d="M58.53,98.61c-.04,.12-.08,.24-.1,.35,.03-.09,.07-.21,.1-.35Z"/>
    <path class="cls-5" d="M59.72,99.47l-.02,.54c.04-.29,.04-.44,.02-.54Z"/>
    <path class="cls-5" d="M60.4,100.55c.11-.23,.2-.39,.27-.54h0s-.27,.54-.27,.54Z"/>
    <path class="cls-5" d="M42.95,90.29s-.04-.02-.08-.01c-.3,.04-.16,.06,.08,.01Z"/>
    <path class="cls-5" d="M49.57,92.96c-.21,.15-.42,.3-.58,.38,.01,.15,.06,.23,.58-.38Z"/>
    <path class="cls-5" d="M38.25,84.93h.02s-.01-.03-.02-.05v.05Z"/>
    <path class="cls-5" d="M48.79,93.13c-.1,.28,.01,.3,.2,.21,0-.13,0-.31-.2-.21Z"/>
    <path class="cls-5" d="M63.76,103.11v.07c.06-.07,.1-.13,.14-.18l-.14,.11Z"/>
    <path class="cls-5" d="M63.9,103l.13-.11s-.04-.01-.13,.11Z"/>
    <path class="cls-5" d="M64.31,102.65l-.28,.23s.04,.08,.28-.23Z"/>
    <path class="cls-5" d="M63.08,101.92l-.27,.43c.06-.09,.15-.23,.27-.43Z"/>
    <path class="cls-5" d="M62.67,101.85c.02,.15-.34,1.06-.08,.84l.22-.34c-.43,.63,.37-1.2-.14-.5Z"/>
    <path class="cls-5" d="M63.98,95.43l.18,.54c.18-.52,.42-1.21,.65-1.24,.26-1.68-.45,1.13-.82,.71Z"/>
    <path class="cls-5" d="M63.2,94.18c.3-.14,.33-.72,.47-.99-.33,.39-.41,.49-.47,.99Z"/>
    <path class="cls-5" d="M55.73,90.74l.64-1.11c-.2,.09-.24,.43-.64,1.11Z"/>
    <polygon class="cls-5" points="50.93 95.56 50.65 96.33 51.35 95.38 50.93 95.56"/>
    <polygon class="cls-5" points="55.33 87.54 55.48 87.42 55.06 87.69 55.33 87.54"/>
    <path class="cls-5" d="M48.98,78.59l-1.44,.64c.3-.01,1.95-.67,1.44-.64Z"/>
    <path class="cls-5" d="M45.5,73.71c.73-.3,1.17-.61,.4-.47-.07,.16-.61,.47-.4,.47Z"/>
    <polygon class="cls-5" points="44.76 56.34 45.29 56.42 44.84 56.24 44.76 56.34"/>
  </g>
  <g>
    <path class="cls-5" d="M195.74,94.68c.07,.43,.36,1.36,.42,1.14l-.36-1.62-.05,.47Z"/>
    <path class="cls-5" d="M197.35,97.4c-.08-.81-.34-2.2-.86-3.64,.33,1.56,.11,.93,.49,2.79-.06,.22-.35-.45-.5-1.04,.08,.42-.28-.3-.06,.72,.5,1.19,.72,1.18,.62,.11,.15,.34,.23,.76,.3,1.06Z"/>
    <path class="cls-5" d="M209.76,94.71l-.17-.13c.08,.08,.13,.12,.17,.13Z"/>
    <path class="cls-5" d="M216.78,90.74c-.02,.07,.07,.21,.16,.33-.03-.12-.06-.23-.16-.33Z"/>
    <path class="cls-5" d="M219.1,91.12c-.06-.02-.1-.01-.14-.02,.13,.09,.21,.13,.14,.02Z"/>
    <path class="cls-5" d="M209.76,94.71l.45,.33c-.27-.47-.3-.29-.45-.33Z"/>
    <path class="cls-5" d="M197.68,93.12c-.01,.09,0,.25,.04,.45,0-.08,.02-.14,.03-.2-.03-.09-.05-.16-.08-.25Z"/>
    <path class="cls-5" d="M207.32,97.62l-.06,.03c.07,.18,.16,.39,.26,.62l-.2-.66Z"/>
    <path class="cls-5" d="M204.94,99.04c.08,.03-.47-1.26-.7-1.83,.21,.54,.28,.81,.27,.93,.11,.24,.25,.53,.43,.9Z"/>
    <path class="cls-5" d="M200.05,98.32v.21c0-.06,0-.13,0-.21Z"/>
    <path class="cls-5" d="M209.21,96.94c.11,.18,.21,.33,.27,.42-.09-.15-.18-.29-.27-.42Z"/>
    <path class="cls-5" d="M200.63,39.37c.06-.08,.09-.13,.14-.21-.09,.11-.15,.19-.14,.21Z"/>
    <path class="cls-5" d="M202.03,32.03l.07-.04c.14-.23,.27-.45,.4-.68l-.47,.72Z"/>
    <path class="cls-5" d="M222.47,90.19s-.02,0-.03,0c.07,.17,.08,.11,.03,0Z"/>
    <path class="cls-5" d="M228,64.67c-1.23,.37-1.65-.31-3,.21,.54-.09,2.22,.2,3-.21Z"/>
    <path class="cls-5" d="M197.8,93.27s.05-.05,.09-.05c-.06-.03-.08-.01-.09,.05Z"/>
    <path class="cls-5" d="M225,64.88h-.01s-.13,.05-.13,.05c.06-.02,.09-.03,.14-.05Z"/>
    <path class="cls-5" d="M225.64,83.43c-.23-.08-.42-.13-.59-.17,.13,.05,.3,.11,.59,.17Z"/>
    <path class="cls-5" d="M221.37,87h.23c-.13-.03-.19-.02-.23,0Z"/>
    <path class="cls-5" d="M224.65,80.34c.12-.03,.31,0,.16-.13-.07,0-.12-.02-.17-.03,.17,.09,.25,.15,.01,.15Z"/>
    <path class="cls-5" d="M225.3,77.93c-.1,0-.19-.01-.29-.02,.02,.03,.04,.06,.05,.09l.23-.07Z"/>
    <path class="cls-5" d="M205.38,42.39c.25-.31,.53-.65,.82-.97-.68,.74-1.12,.81-.82,.97Z"/>
    <path class="cls-5" d="M197.93,93.87c-.1-.34-.14-.51-.14-.59-.02,.02-.03,.06-.04,.09,.06,.2,.12,.39,.17,.5Z"/>
    <path class="cls-5" d="M214.1,76.95l.27-.19c-.15,.03-.25,.1-.27,.19Z"/>
    <path class="cls-5" d="M213.29,53.32h-.18s.03,.05,.18,0Z"/>
    <path class="cls-5" d="M214.38,75.95c.49,.08,.78,.1,.98,.09-.1-.04-.19-.07-.34-.12l-.64,.03Z"/>
    <path class="cls-5" d="M206.21,41.41h0s0,0,0,0Z"/>
    <path class="cls-5" d="M202.52,42.59c.17,.21,1.28-1.28,2.02-2.04,.6-.16-.78,1.13-1.32,1.91,.47-.24,1.73-1.39,1.8-1.23-.2,.23-.25,.33-.53,.59,1.16-.93,.54,.38,2.02-.77-.1,.13-.2,.25-.29,.35,.61-.7,1.26-1.38,1.73-1.85,.12,.07,1-.65,.19,.25-.03-.09-.38,.26-.67,.5l.47-.27c-1.12,1.33-.56,.29-1.45,1.21,.58-.21,1.82-.99,1.62-.48-1.18,1.22-.75,.04-1.62,1.31l.24-.69c-1.72,2.08,0-.27-1.86,1.93-.08,.63,.92-.29,.84,.35,.74-.59,.98-.99,1.73-1.58,1.66-.72-2.79,3.26-.85,2.02,.91-.69,2.54-2.09,1.91-1.1l-1.5,1.2c.13,.4,2.22-1.66,1.53-.48-.62,.43-.68,.17-.81,.37-.97,1.21,.94-.57,1.08-.4l-1.26,1.14c.46,.15,1.71-.27,2.27-.08-.41,.29-.88,.56-1.22,.97,1.06-.08,.62,1.13,.1,2.17l1.32-.67c.02,.05-.49,.46-.75,.58-.33,.5,.77-.53,1.3-.77,.16,.05-.6,.62-1,.81,1.23-.4,2.91-.57,1.79,.65l-.41,.16c-.34,.59,2.74-1.28,1.74-.28l-.25,.08c-.18,.94,1.41,.98-.26,2.52,1.91-.91-.53,1.06,2.11-.26-1.11,1.04-1.63,1.18-2.27,2.11-.06,.19,1.75-.61,2.12-.57l-1.39,.67,1.58-.46-1.61,.9h.44c.05-.11,.56-.43,.97-.61,.77-.04-.7,1.06-1.42,1.38l1.44,.08c-.58,.23-.81,.21-1.21,.29,1.58-.3-1.47,.69-.03,.41,.31-.17,.86-.33,1.15-.45-.8,.5-.68,.83-.21,.92l-1.01,.34c-.07,.52,.85,.72,.98,1.23,.41-.34,2.16-.92,2.38-.82l-1.52,.59c.98-.23,.53-.36,1.76-.56-.11,.26-1.71,.73-2.25,.79l.61,.05c-.46,.17-.72,.2-1.31,.38,.99-.22-1.43,.89,.29,.48l-.46,.16c.14,.49,.76,.55,.96,.93,1.35-.38,1.09-.13,2.22-.3-.35,.44-1.34,1.07-1.13,1.4,.74,.1,1.18-.2,2.02-.28-1.24,.32-1.03,.67-1.97,.68,.3,.4,.41,.5,1.53,.88,.5-.17,.72-.29,1.15-.34,.22,.07-.48,.36-1.09,.46h-.14c1,.15,.15,.72-.62,1.21-.77,.5-1.45,.92-.08,.99h-.14c.49,.1,.99,.22,1.46,.35-.2,.28-.97-.03-1.74,.25,2.17,.33-.23,.93,1.23,1.27-1.87,.34-1.77,.64-1.5,.96,.28,.31,.66,.66-.53,.94l.89-.06c.87,.1-.51,.17-.71,.26,.69-.03,.8-.16,1.28-.09,.54,.53,.22,1.11-.33,1.65-.57,.54-1.43,1.04-1.85,1.52-.26,.35,4.57,.6,2.42,.93l-1.63-.3c.97,.49,.91,.91,.78,1.3-.12,.4-.27,.77,.5,1.31-.37-.11-.86-.2-.84-.27-1.21-.04-.15,.58,.81,.78-.13,.1-.87-.14-1.37-.16-.71,.02,1.43,.71,.24,.56-.19-.03-.37-.12-.46-.17,.55,.23-.25,.45,1.13,.65-.71,.14,.47,.69-.38,.72,1.46,.53-.84,.28,1.26,.89-2.18-.61-1.88-.03-.92,.45-.64-.26-.72-.07-1.6-.41-.02,.19,.32,.48,1.43,.81-1.34-.25-.88,.07-.51,.37,.37,.3,.64,.57-1.01,.03,.94,.93,1.47,1.76,1.69,2.47-1.99-1.05,.05-.61-2.09-1.61,.67,.76,2.23,1.94,1.51,2.09-.33-.06-.8-.56-1.12-.78,.57,.86-.58,.55,.18,1.58-.17-.13-.33-.3-.44-.43,.01,.11-.37-.06,.45,.55l-.17-.23c1.29,.77,2.26,2.16,2.85,2.68-2.2-1.95-.88-.08-3.6-2.63,.12,.16,.45,.52,.98,.95-.21-.06-.53-.3-1.08-.86,.24,.58,1.13,1.22,.92,1.42-.37-.33-.47-.5-.89-.91,.63,.74,1.24,1.52,.76,1.42-.21-.22-.51-.46-.45-.51-.17,.4,1.3,2.36,.26,2.06-1.37-1.67-.62-.4-1.9-1.75l.18,.59,.69,.6c-.19,.13,.54,1.3-.03,.98l-.37-.7-.12,.57,.66,.36c.43,.9,1.57,1.77,.96,1.6-.07-.19-.22,.16-1.03-.6h0c.28,.54,.57,1.11,.12,.87-.42-.43-1.27-1.63-1.55-1.91,.89,1.29-.2,.71,.71,2.11-.2-.34-.8-1.11-.94-1.26l.7,1.06c-.35-.24-.48-.39-.94-1.02-.42,.04,1.54,1.8,.58,1.26-.04-.1-.16-.24-.22-.44-.67-.17-.19,1.15-.89,.89-1.2-1.45,0-.57-1.04-1.78-.24,.59,.36,2.52-.36,2.46l.2,.11c1.42,2.24-1.08-.86-.61,.34-.05-.2-.73-1.28-.59-1.02-.54-.15-.28,.95-.34,1.98l-.3-.62c-.51-.4-.68,0-1.05-.14,.29,.62,.11,.6,.68,1.41-1.3-1.48-1.34-.87-1.35-.17,0,.7,0,1.46-1.04,.18,.07-.04-.11-.61-.17-.59l-.2,.82c.57,1.01,.38,.59,.91,1.33,.25,.64,.35,1.19,.21,1.26-.11-.8-.85-1.65-1.23-2.18,.18,.31,.32,.67,.49,.99-1.19-1.7,1,2.1,0,1.05l-.25-.55c0,.35,.22,1.13-.01,1.05-.64-1.17-.12-.63-.59-1.63-.17,.17,.67,2.48-.09,1.37-.07-.38,.06-.45,0-.82-.88-1.32-.73-.95-.99-1.11l.03,.03-.64-.48,.26,.35c1.18,3.3-.27,.81,.29,3.07-.5-2.14-.44-1.17-1.01-2.57-.26-.35-.57-.72-.7-1.13,.32,1.2-.64-.77-.18,.97-.2-.45-.19,.03-.62-1.12-.06,.44,.37,.77,.59,1.34,.28,1.68-1.51-1.56-1.17,.74-.09,1.04,.39,2.62,.24,3.53-.4-.69-.48-1.71-.48-1.71-.46-.6-.57-.42-.6,.18-.09-.42-.25-.74-.49-1.24-.12,.18,.45,1.72,0,1.11-.13-.53-.36-1.37-.45-1.91-.05,.49,.04,1.41-.03,1.9-.31-.79-.27-1.27-.37-1.82-.1,.43-.34,.92-.02,2.23l.29,.41c-.07,.09-.38-1.09-.39-1.35-.12-1.07,.42,.36,.58,.82l-.05,.34c1.01,2.68,.46-.63,.79-.56l.53,2.02-.24-1.74c.24,.49,.66,1.57,.61,1.92,.55,.9-.05-.77,.52,.25,.08,.16,.1,.26,.11,.34v-.66c.11,.43,.54,1.37,.3,1.14,.81,.99,.1-1.69,.79-.27v.13c.31-.86-.46-1.45-.71-3.28l1.62,3.41-.5-1.44c.08,.03,.22,.09,.43,.67-.18-1.06-.28-.6-.52-1.57,.78,1.19,.46-.89,1.45,1.33-.35-1.11-.59-.72-.62-1.58,1.09,2.38,.15-.55,.85,.46,.46,1.27-.05,.72,.67,1.72-.76-2.16,.67,.25,.71-.24-.73-1.66,.13-.89,.21-1.6,.24,.56,1.06,.61,1.67,1.03l.13,.28c-.75-1.68-.28-1.53-.22-1.98,.49,.98,.65,1.39,.74,1.89l.22-.12c-.21-.55-.29-.86-.24-1.12l.58,1.25c.27-.23-.16-1.74,.65-1.14-.6-1.13-1.99-2.98-2.03-3.93,.35,.6,.93,1.63,.97,1.93-.01-.1-.16-.57,.05-.35l.41,1.11c.41,.35-.38-.9-.2-.88,.48,.86,.44,.56,.8,1.26,.01,.1-.32-.29-.18,.08,.24,.07,.71,.48,1.14,1.09-.29-.48-.65-1.16-.61-1.33,.25-.22,.69,.98,1.11,1.32-.27-.63,.27-.13-.47-1.41,.09-.04,.45,.54,.69,.87-.18-.65,.6-.58-.38-1.82l-.09-.07s0-.04,0-.07h0s0,0,0,0c-.3-1.53,1.41,.1,1.55-.73l.27,.41c-.03-.66,.43-.69,.03-1.7,.08-.05,.7,.62,1,1.13,0-.45-.3-.92,.47-.46,.29,.85,.51,.57,.15,.67,.51,.16,1.04,.75,.55-.55,.64,1.1,1.14,1.14,1.05,.74l-.72-.59c.04-.25,.23-.26,.42-.27l.92,1.39c1.81,1.18-1.09-3.49,1.41-1.15-.58-1.02-.81-.41-1.52-1.58,.38-.01,2.14,1.64,2.23,1.57,.94,.42-1.22-2.14-.47-1.95-.43-.41-1.48-1.59-1.6-2.23,.37-.03,1.92,1.63,2.08,2.13-.03,.09-.18-.03-.31-.18,.06,.23,.12,.52,.64,.92l-.35-.48c.52,.36,.83,0,1.39,.8-.18-.6-.56-.8-.91-.91,.89,.36,.52-.43,1.24-.31-.28-.19-.8-.66-.74-.7,.98,.08-.56-1.01-.44-1.5,.81,.47,1.45,1.6,1.24,.75,.63,.23,1.16,1.06,1.42,1.49-.51-1.11,1.12-.07,1.47-.14l.18,.51c-.1-.31-.02-.38,.07-.48l-.97-.7c.25,.04,.33-.05,.7,.28-.48-.63-1.53-1.25-2.14-2.16,.57,.27-.14-.82,1.09,.16-.78,.09,1.25,.98,1.1,1.53-.08-.2,0-.29,.26-.26,.15,.1,.23,.23,.28,.32,1.47,.44-1.18-1.36-.79-1.79,.64,.62,1.41,.94,1.32,.74-.17,.19-1.23-.83-1.64-1.41,.78,.12-.17-.63,0-.73l-.39-.02c-.67-.59-.47-.65-.56-1.01,.58,.38,.26,.45,.56,.56-1.12-1.1,1.69,.4,1.04-.53,.61,.17,1.42,.88,1.85,.95-.73-1,1.32,.18,.76-.75-1.11-.46-.86-.31-1.71-1.16,.12,.36,.24,.72,.33,1.09-.4-.44-.82-.88-1.25-1.3-.12,.18,.41,.79,.16,.8-.71-.7-.48-.52-1.37-.95,1.7,.66-.62-1.01,.59-.7l2.59,1.42c1.44,.09-.88-1.58,.07-1.87h-.56c-1.03-.59,.02-.46-.32-.85,.9,.41,1.28,.42,1.89,.57-.68-.27,.27-.46-1.55-1.24l1.32,.19c.7-.35-2.43-1.55-1.95-1.88,.97,.49,1.71,.49,2.32,1.07,.07-.16,.29-.26-.36-.48,.62,.09-1.12-.86-.18-.72-.39-.2-1.38-.52-1.24-.67,.2,.04,.47,.14,.47,.14-.47-.14-.55-.46-1.65-.62,1.54,.2,1.59-.16,1.57-.51-.02-.36-.11-.7,1.23-.61-.24-.42-.46-.9-.47-1.23,.29,.08,.48,.1,.37,.14,.99-.25-2.73-.82-1.64-1.09,1.61,.05,.81,.42,1.43,.37,3.2,.53-.34-.67,1.58-.68l.17,.11c1.13-.09-1.11-.84-.82-1.21,0,0,.28,.06,.49,.07-1.6-.52-2.06-1.11-2.46-1.54,1.25,.26,.64,.25,1.94,.32-.16-.2-2.06-.19-2.39-.57,.7-.04,1.32-.23,2.7-.13l.05,.35c1.79,0-.03-.45,.29-.6l.77,.09c-.21-.56-2.17-.72-1.99-1.26l-.59,.02c-1.92-.41,1.11-.18-.31-.56h1.98c-.47-.22-1.84-.78-2.22-1.12,1.48,.23,2.18,.68,3.03,.99,.03-.21-.09-.71-1.07-.84,.19,.09,.67,.2,.36,.27-1.53-.3-2.31-.62-2.28-1,3.83,.1,.95-1.01,3.92-1.35-1.42-.69,.6-1.48,.27-2.35-2.94,.51-.11-.24-3.15,.04-.21-.17-.17-.25,.03-.28l1.77-.74c.87-.23,.69,.12,1.37,.04,.19-.46,1.27-.31,2.05-.69-1.08,.17-1.57,0-1.18-.3l-1.37,.51c-1.67-.42,2.5-.82,.84-1.26l.97,.08c-.58-.25-.17-1.21-2.64-1.14,.34-.11,1.15-.31,1.39-.21,.23-.84-2.85-1.2-1.47-2.05l.74-.09c-.23-.1-1.42,.05-.73-.28,.3-.06,.74-.1,.77-.17-.27-.02-1.37-.08-.99-.36l.86-.03c.77-.95-2.27-.64-2.9-1.07,2.13-.55,2.68-1.3,2.95-1.69l.3-.07c.03-.94-2.2-.91-3.25-1.37,2.1-1.22,.46-1.9,1.38-3.1-.33,.26-1.61,.6-1.87,.55,.34-.34-1.61,.1,.28-.62v.07c1.77-.87,1.13-1.04,1.07-1.34l-2.45,.98c1.62-1.1,1.1-1.45,.55-1.71-.57-.25-1.16-.42,.3-1.36-.68,.12-.78-.09-1.45,.03l1.27-.62c.09-.63,.12-.96-.47-1.39l.95-.35c-.1-.38-3.8,1.51-4.03,1.28l1.8-1.11c-.34-.51,.92-2.02-1.05-1.58,.27-.15,.8-.45,.93-.41-.1-.28,.61-1.77-1.79-.13,1.59-1.01-.18-.67-1.07-.47l1.19-.72c-1.65,.75-2.06,1.01-2.69,.97,.1-.18,.88-.69,.65-.39,.43-.66-1.22,.55-.82-.17l.81-.39c-.09-.32-.47-.03-1.42,.43-.57,.17-.05-.68,.94-1.46-.65,.42-1.57,.89-1.38,.52,.37-.3,.64-.43,.78-.48,.46-1.01-1.75,.35-.89-.76,.36-.29,.53-.45,.62-.56,.24,.35,.4,.66,.29,.7,1.03-.78,.98-1.19,2.58-2.04-.96,.35-2.92,1.28-2.66,.64,.09-.09,.17-.18,.32-.31l.14-.06c.05-.14-.09-.12-.3-.04,.1-.22,.17-.37,.12-.46,.8-.7,.18-.68,.11-.85-1.07,.91-1.04,.59-1.8,1.5,.06-.09,.15-.08,.27-.03,.05,0,.08,0,.16-.04-.03,.02-.07,.05-.1,.07,.1,.06,.22,.15,.34,.27-.64,.34-1.19,.62-.71-.02-.74,.5-1.51,1.02-1.89,1.27,1.37-1.43,1.88-2.47,2.75-3.31-.92,.09-1.24-.6-3.4,.96-.35,.13,.44-.63,.71-.96,.25-.12,.29-.02,.6-.24-.7,.25-.8-.46-2.17,.78,.35-.84,1.36-1.03,.8-1.19l.45-.34c.7-1.4-.44-.89-1.47-.41-1.06,.49-2.01,.94-1.14-.82-.1,.22-.14,.33-.34,.57,.1-1.03-.65-1.18-1.3-1.39-.66-.21-1.25-.44-.95-1.88,.04-.64-.7,.28-1.4,.87l.83-1.26-1.31,1.19c-.57,.37-.2-.52,.04-1.31,.24-.77,.37-1.46-.58-.63l-.49,.89c-.09-.29-.94,.11-.28-.85-.12,.14-.63,.85-.42,.36l.42-.67-1.2,.84c-.08-.72,1.7-2.64,1.2-3.13-.38,.12-1.76,1.61-1.94,2.12,.06,.09-.04,.56-.43,1.24l-.38,.24c-1.2,1.99-2.48,4-2.94,5.64l.98-1.06-.5,1.02-.25-.07c-.42,.99,.13,.23,.55-.27-.29,.53-.47,.91-.54,1.13l1.42-1.73c-.45,.79-1.07,1.46-1.17,1.99,.67-.8,.97-1.8,1.53-2.25-.44,.97-.94,1.68-.31,1.01-.3,.52-.54,.82-.74,1.01,.51-.53,.5-.05,1.25-1.04-.59,1.17,.63,0-.62,1.81,.34-.42,1.2-1.29,1.37-1.27-1.72,2,.33,.45-1.38,2.7,1.54-1.81,1.14-.46,2.2-1.3-.13,.14-.39,.42-.34,.3,.03,.27-.37,.87-.55,1.29,1.23-1.53,1.74-1.7,2.63-2.54-1,1.61-1.56,1.7-2.64,3.16,.98-1.25,1.31-1,2.09-2.07-.61,1.02-.24,.54-1.21,1.85,1.59-1.86,.38-.21,1.46-1.26-.59,1.09-1.44,1.79-.75,1.41-.4,.65-1.14,1.15-1.14,1.15Zm7.62,1.86s-.02,.01-.02,.02c-.06-.03-.12-.05-.15-.06,.03,.01,.08,.03,.18,.05Zm.39,.44c0-.09-.05-.16-.12-.23,.37-.31,.78-.6,.8-.54-.28,.17-.41,.46-.68,.77Zm6.73-7.15c.23-.03,.04,.17-.17,.36-.05-.03-.13-.05-.26-.05-.04,.03-.09,.07-.14,.1,.21-.16,.42-.31,.57-.41Z"/>
    <path class="cls-5" d="M215.71,38.75s-.09,.04-.11,.03c-.07,.09-.14,.18-.2,.25,.12-.08,.25-.17,.36-.25l-.06-.03Z"/>
    <path class="cls-5" d="M209.56,94.57l.03,.02s-.08-.08-.13-.16c.04,.06,.07,.09,.1,.14Z"/>
    <polygon class="cls-5" points="212.38 53.05 212.7 52.9 212.4 52.99 212.38 53.05"/>
    <path class="cls-5" d="M204.11,92.08c-.06-.11-.13-.22-.2-.3,.04,.08,.12,.19,.2,.3Z"/>
    <path class="cls-5" d="M202.66,92.43l-.39-.37c.2,.22,.31,.32,.39,.37Z"/>
    <path class="cls-5" d="M201.37,92.24c.09,.24,.16,.4,.22,.56h0s-.23-.56-.23-.56Z"/>
    <path class="cls-5" d="M213.74,81.52s0-.03-.03-.06c-.18-.22-.12-.12,.03,.06Z"/>
    <path class="cls-5" d="M212.81,87.11c-.12-.23-.24-.46-.3-.62-.14-.02-.21,0,.3,.62Z"/>
    <path class="cls-5" d="M214.06,76.97h.02s0-.01,0-.02l-.03,.02Z"/>
    <path class="cls-5" d="M212.71,86.36c-.25-.15-.27-.06-.2,.14,.12,.02,.28,.07,.2-.14Z"/>
    <path class="cls-5" d="M196.72,93.29l-.07-.04c.02,.09,.04,.16,.06,.22v-.18Z"/>
    <path class="cls-5" d="M196.72,93.47v.18s.04-.03,0-.18Z"/>
    <path class="cls-5" d="M196.7,94.02v-.38s-.09-.02,0,.38Z"/>
    <path class="cls-5" d="M198.3,93.46l-.15-.49c.03,.1,.07,.26,.15,.49Z"/>
    <path class="cls-5" d="M198.66,93.17c-.14-.07-.61-.94-.64-.59l.12,.39c-.19-.74,.71,1.05,.52,.2Z"/>
    <path class="cls-5" d="M202.75,98.35l-.54-.22c.27,.48,.63,1.12,.5,1.31,1.11,1.3-.55-1.09,.04-1.09Z"/>
    <path class="cls-5" d="M204.27,98.56c-.11,.32,.32,.72,.43,1.01-.06-.51-.08-.64-.43-1.01Z"/>
    <path class="cls-5" d="M212.66,93.9l.71,1.07c.05-.25-.28-.41-.71-1.07Z"/>
    <polygon class="cls-5" points="210.2 87.52 209.61 86.98 210.25 87.96 210.2 87.52"/>
    <polygon class="cls-5" points="216.55 94.14 216.6 94.33 216.56 93.78 216.55 94.14"/>
    <path class="cls-5" d="M226.4,78.65l-1.54-.32c.25,.19,1.95,.65,1.54,.32Z"/>
    <path class="cls-5" d="M225.9,71.19c.79-.02,1.31-.2,.55-.37-.12,.16-.74,.28-.55,.37Z"/>
    <polygon class="cls-5" points="224.59 49.41 225.13 49.34 224.62 49.25 224.59 49.41"/>
  </g>
  <g>
    <path class="cls-5" d="M162.33,8.49c-.41-.15-1.37-.34-1.21-.14l1.59,.48-.37-.33Z"/>
    <path class="cls-5" d="M159.11,8.81c.74,.36,2.06,.89,3.57,1.13-1.5-.55-.85-.44-2.65-1.06-.15-.19,.58-.14,1.17,.02-.4-.15,.41-.15-.58-.47-1.29-.09-1.4,.14-.43,.64-.37-.03-.78-.18-1.07-.26Z"/>
    <path class="cls-5" d="M150.89,20.15l.19,.1c-.09-.07-.15-.1-.19-.1Z"/>
    <path class="cls-5" d="M142.93,23.22c.05-.06,.01-.23-.04-.37-.02,.12-.03,.24,.04,.37Z"/>
    <path class="cls-5" d="M140.83,22.11s.08,.05,.12,.07c-.09-.13-.15-.19-.12-.07Z"/>
    <path class="cls-5" d="M150.89,20.15l-.48-.28c.33,.43,.33,.25,.48,.28Z"/>
    <path class="cls-5" d="M162.48,11.83c-.06-.07-.2-.16-.38-.25,.06,.06,.1,.12,.14,.17,.09,.03,.16,.05,.25,.07Z"/>
    <path class="cls-5" d="M152.01,16.87l.03-.05c-.16-.12-.34-.26-.54-.41l.51,.46Z"/>
    <path class="cls-5" d="M152.98,14.53c-.08,.03,1.19,.62,1.74,.9-.51-.27-.75-.43-.82-.52-.24-.11-.54-.23-.92-.38Z"/>
    <path class="cls-5" d="M156.79,11.05l-.17-.13c.05,.04,.1,.09,.17,.13Z"/>
    <path class="cls-5" d="M150.76,17.99c-.15-.13-.29-.25-.38-.32,.13,.12,.26,.23,.38,.32Z"/>
    <path class="cls-5" d="M67.09,16.41c.1-.01,.16-.02,.25-.04-.14-.01-.24,0-.25,.04Z"/>
    <path class="cls-5" d="M74.21,11.97l.06,.07c.25,.08,.5,.16,.75,.23l-.81-.3Z"/>
    <path class="cls-5" d="M137.7,21.38s.01,.01,.02,.02c0-.17-.02-.13-.02-.02Z"/>
    <path class="cls-5" d="M114.08,23.88c.22,1.27-.58,1.58-.22,3,0-.55,.54-2.16,.22-3Z"/>
    <path class="cls-5" d="M162.28,11.87s0,.1-.02,.14c.06-.05,.07-.09,.02-.14Z"/>
    <path class="cls-5" d="M113.86,26.88h0s.04,.15,.04,.15c-.02-.06-.02-.09-.04-.15Z"/>
    <path class="cls-5" d="M132.45,23.74c.06,.24,.12,.42,.17,.59-.03-.14-.08-.31-.17-.59Z"/>
    <path class="cls-5" d="M137.16,24.57l-.17-.15c.08,.11,.13,.14,.17,.15Z"/>
    <path class="cls-5" d="M130.59,26.03c-.07-.1-.11-.29-.17-.1,.02,.06,.03,.11,.04,.17,0-.19,.04-.29,.13-.07Z"/>
    <path class="cls-5" d="M128.19,26.21c.02,.1,.04,.19,.06,.28l.07-.08-.13-.2Z"/>
    <path class="cls-5" d="M73.67,26.86c.2-.35,.45-.71,.71-1.06-.62,.79-1.29,.66-.71,1.06Z"/>
    <path class="cls-5" d="M161.71,11.63c.34,.11,.5,.17,.56,.24,0-.04-.03-.07-.05-.11-.2-.06-.39-.11-.52-.12Z"/>
    <path class="cls-5" d="M131.69,37.06l-.53-.15c.16,.12,.35,.17,.53,.15Z"/>
    <path class="cls-5" d="M94.97,33.77l-.12,.15s.08,0,.12-.15Z"/>
    <path class="cls-5" d="M129.68,37.23c-.12-.49-.23-.77-.34-.95-.01,.11-.03,.2-.04,.37l.37,.59Z"/>
    <path class="cls-5" d="M74.38,25.79h0s0,0,0,0Z"/>
    <path class="cls-5" d="M69.12,24.88c.36,.56,1.64-.83,2.57-1.36,.82,.22-.88,1.08-1.47,1.87,.69,.07,2.2-.78,2.35-.5-.21,.22-.25,.34-.58,.54,1.38-.66,1.02,.98,2.67-.04-.08,.15-.17,.27-.26,.39,.56-.74,1.18-1.45,1.64-1.93,.18,.12,1.05-.62,.33,.35-.07-.11-.4,.25-.7,.49l.51-.24c-.96,1.46-.63,.25-1.48,1.21,.76-.07,2.07-.89,2.04-.29-.94,1.43-1.03-.08-1.55,1.43-.03-.3-.05-.59-.07-.88-1.33,2.37-.19-.39-1.66,2.1,.2,.48,.54,.47,.86,.45,.32-.03,.63-.08,.82,.36,.68-.68,.74-1.18,1.41-1.87,.9-.42,.48,.57,.11,1.52-.37,.94-.7,1.83,.23,1.05,.75-.88,1.84-2.72,1.77-1.48l-1.07,1.61c.59,.51,1.62-2.26,1.7-.79-.44,.63-.78,.33-.78,.58-.22,1.59,.79-.83,1.11-.68l-.64,1.58c.83,.09,2.05-.75,2.87-.78-.21,.46-.52,.91-.52,1.47,1.24-.46,1.97,.86,2.66,2.08l.71-1.33c.08,.04,0,.68-.17,.94,.23,.63,.24-.9,.55-1.42,.22-.05,.07,.88-.16,1.28,.93-1.06,2.29-2.23,2.6-.58l-.21,.4c.38,.68,1.1-2.85,1.29-1.43l-.13,.24c.93,.82,2.24-.34,2.67,1.97,.47-2.06,.87,1.08,1.36-1.82,.36,1.53,.12,2.03,.8,3.12,.2,.16,.58-1.78,.89-2.05l-.2,1.53,.58-1.55-.05,1.85,.31-.36c-.09-.1-.12-.71-.05-1.15,.48-.64,.82,1.19,.73,1.97l1.09-1.18c-.09,.61-.28,.8-.45,1.18,.69-1.5-.1,1.62,.53,.25-.02-.35,.14-.91,.19-1.22,.12,.95,.64,1.02,1.06,.67l-.19,1.05c.67,.35,1.52-.34,2.3-.25-.23-.52,.03-2.35,.27-2.5l-.07,1.63c.25-.99-.17-.64,.25-1.83,.27,.22,0,1.86-.21,2.37l.41-.53c-.03,.49-.14,.73-.22,1.35,.24-.99,.45,1.69,.83-.04l-.03,.48c.78,.09,1.18-.43,1.82-.46,.14-1.4,.35-1.07,.64-2.18,.42,.49,.84,1.63,1.41,1.56,.45-.67,.21-1.18,.45-2-.07,1.28,.49,1.2,.13,2.1,.68-.15,.87-.19,1.79-1.16-.05-.53-.14-.77-.05-1.2,.17-.2,.31,.56,.24,1.17l-.05,.13c1.07-1.84,1.92,3.88,2.85,1.26l-.05,.13,.87-1.34c.34,.24-.28,.95-.06,1.76,.97-2.08,1.3,.39,2.08-.99,.31,3.8,1.9-.15,2.48,2.29v-.89c.24-.86,.2,.52,.33,.73,.02-.69-.16-.81-.01-1.29,1.63-.98,3.14,1.48,4.73,2.37,.6,.27,.57-4.58,1.23-2.42l-.3,1.64c1.31-1.92,2.57,.18,3.87-1.49-.08,.38-.09,.88-.21,.87,.25,1.21,1.01,.06,1-.92,.2,.11,.05,.88,.17,1.38,.29,.71,.67-1.54,.84-.35,.03,.19-.07,.39-.12,.48,.17-.58,.86,.13,.64-1.25,.51,.65,.91-.65,1.34,.15,.16-1.56,.91,.69,.83-1.5,.13,2.26,1.04,1.75,1.25,.65-.04,.69,.35,.68,.33,1.63,.37-.07,.67-.54,.45-1.68,.51,1.3,.8,.71,1.02,.22,.24-.49,.43-.88,.92,.8,.89-1.39,1.66-2.4,2.43-3.14,.51,2.2-.95,.47-.39,2.76,.72-1.12,.71-3.12,1.69-2.82,.3,.24,.14,.98,.17,1.37,.61-1.13,1.73-.29,2.09-1.7,.06,.2,.06,.44,.03,.63,.12-.12,.44,.2,.1-.77l-.05,.31c-.68-1.34-.42-3.14-.66-3.89,.71,2.86,.93,.46,1.77,4.1,.03-.22-.01-.72-.26-1.36,.2,.14,.38,.5,.5,1.29,.33-.71-.22-1.67,.24-1.81,.17,.47,.14,.68,.3,1.25-.1-.99-.21-1.99,.31-1.73,.08,.29,.26,.64,.15,.67,.61-.39,.16-2.82,1.19-2.23,.6,2.08,.5,.56,1.24,2.28l.16-.67-.49-.78c.34-.11,.1-1.48,.61-1.03l.06,.81,.47-.58-.61-.51c-.05-1.02-.95-2.16-.33-1.86-.01,.21,.32-.11,.92,.83h0c-.08-.61-.16-1.25,.25-.93,.3,.52,.77,1.92,.96,2.27-.46-1.5,.57-.72,.1-2.33,.09,.39,.48,1.29,.58,1.46l-.38-1.22c.31,.31,.41,.48,.7,1.2,.53,.02-1.09-2.11-.16-1.4,0,.11,.1,.28,.09,.49,.75,.25,.69-1.19,1.45-.85,.95,1.63-.24,.62,.6,1.98,.62-.67,.54-2.76,1.44-2.76l-.23-.11c-1.22-2.36,1.17,.84,.91-.46,.02,.22,.66,1.32,.53,1.06,.74,.04,.71-1.22,.87-2.41l.33,.6c.66,.26,.95-.33,1.45-.38-.37-.58-.14-.64-.92-1.27,1.75,1.01,1.84,.16,1.72-.63-.1-.81-.37-1.56,1.23-1.04-.06,.1,.31,.59,.37,.51,0-.37,.02-.73,0-1.09-1-.58-.64-.29-1.49-.65-.5-.47-.84-.94-.74-1.09,.46,.7,1.56,1.01,2.2,1.2-.31-.16-.62-.42-.93-.6,1.98,.71-1.94-1.27-.48-1.02l.51,.33c-.17-.34-.78-.89-.52-.99,1.22,.55,.44,.49,1.4,1.03,.1-.34-1.94-1.73-.64-1.37,.27,.28,.2,.46,.46,.75,1.54,.44,1.2,.21,1.54,.1h-.04s.9-.21,.9-.21l-.45-.05c-2.99-1.83-.23-1.04-2.13-2.41,1.8,1.29,1.12,.56,2.51,1.16,.44,.03,.96,0,1.33,.21-1.04-.7,1.07-.09-.47-1.07,.47,.15,.14-.25,1.27,.22-.24-.46-.83-.21-1.39-.45-1.4-1.03,2.33-.53,.37-1.95-.72-.88-2.27-1.44-2.91-2.18,.8,.03,1.67,.62,1.67,.62,.77-.1,.71-.37,.24-.79,.4,.16,.76,.2,1.31,.25-.06-.26-1.68-.6-.91-.71,.51,.19,1.34,.47,1.84,.71-.37-.38-1.18-.87-1.54-1.25,.84,.13,1.21,.48,1.72,.71-.29-.41-.55-.99-1.84-1.4l-.51,.08c-.04-.13,1.14,.21,1.36,.35,.96,.51-.54,.27-1.02,.17l-.26-.27c-2.83-.49,.26,.87,0,1.23l-1.97-.68,1.57,.83c-.55-.05-1.68-.3-1.93-.57-1.06,0,.65,.43-.52,.36-.18-.02-.27-.06-.35-.1l.53,.42c-.41-.17-1.43-.35-1.09-.43-1.28,.12,1.29,1.17-.28,.9l-.11-.07c.48,.83,1.45,.5,3,1.52l-3.69-.83,1.43,.53c-.07,.05-.22,.14-.79-.08,.91,.57,.64,.17,1.53,.62-1.43-.14,.31,1.1-2,.33,1.04,.52,.95,.02,1.58,.63-2.48-.83,.27,.54-.96,.39-1.22-.59-.46-.57-1.68-.76,2.06,1.03-.68,.31-.36,.68,1.66,.75,.48,.78,.85,1.4-.53-.28-1.24,.21-1.97,.16l-.26-.16c1.56,.98,1.05,1.12,1.23,1.56-.92-.61-1.25-.88-1.6-1.26l-.11,.2c.46,.37,.69,.6,.77,.85l-1.1-.82c-.1,.25,.97,1.46-.02,1.19,.96,.85,3.03,1.93,3.35,2.89-.55-.42-1.47-1.17-1.61-1.45,.04,.09,.35,.48,.07,.36l-.78-.89c-.52-.18,.68,.7,.49,.76-.75-.64-.61-.37-1.19-.9-.05-.09,.39,.16,.13-.13-.24,.02-.81-.22-1.4-.69,.42,.37,.99,.89,1,1.07-.16,.27-.94-.74-1.41-.98,.44,.53-.17,.15,.85,1.21-.07,.05-.56-.43-.85-.7,.34,.57-.37,.59,.77,1.67l.1,.05s0,.04,.02,.07h0s0,0,0,0c.26,.74-.13,.78-.55,.7-.43-.08-.89-.27-.96,.14l-.26-.42c.02,.66-.46,.67-.17,1.72-.1,.05-.65-.67-.89-1.21-.05,.45,.17,.96-.55,.41-.15-.89-.42-.64-.04-.69-.5-.22-.9-.91-.65,.47-.43-1.19-.92-1.33-.9-.92l.6,.72c-.09,.25-.29,.21-.49,.19l-.61-1.55c-1.45-1.56,.18,3.69-1.72,.82,.28,1.15,.71,.58,1.09,1.9-.42-.06-1.7-2.11-1.8-2.07-.8-.66,.55,2.41-.17,2.03,.29,.52,.97,1.95,.83,2.62-.42-.06-1.36-2.13-1.34-2.65,.06-.08,.17,.08,.24,.27,.02-.24,.06-.53-.32-1.07l.19,.56c-.39-.49-.81-.25-1.08-1.19-.02,.62,.27,.94,.57,1.15-.74-.63-.65,.24-1.29-.12,.19,.28,.51,.9,.44,.92-.89-.43,.15,1.15-.19,1.57-.57-.75-.7-2.04-.85-1.17-.48-.47-.62-1.45-.7-1.94,.04,1.21-.97-.43-1.24-.56l.02-.52c-.01,.31-.11,.34-.21,.37l.52,1.07c-.19-.15-.28-.12-.45-.58,.15,.77,.78,1.82,.9,2.91-.36-.51-.27,.78-.85-.68,.67,.33-.58-1.47-.26-1.85-.01,.2-.11,.23-.29,.07-.08-.16-.09-.31-.09-.41-.92-1.17,.39,1.76-.11,1.89-.23-.86-.65-1.56-.67-1.35,.19-.05,.57,1.37,.6,2.08-.53-.55-.18,.6-.37,.58l.29,.25c.21,.87,.01,.81-.13,1.14-.23-.65,.06-.52-.11-.78,.22,1.56-1.03-1.36-1.06-.26-.33-.53-.49-1.59-.73-1.95-.05,1.21-.72-1.05-.83-.04,.42,1.12,.37,.83,.39,2.03l.42-.98,.05,1.79c.21-.04,.22-.84,.39-.68,.07,.99,0,.7,.37,1.63-.76-1.64-.28,1.16-.93,.08l-.73-2.86c-.76-1.17-.44,1.68-1.22,1.08l.3,.46c.17,1.16-.34,.24-.44,.75-.18-.97-.37-1.3-.57-1.89,.15,.72-.43,.01-.14,1.96l-.49-1.23c-.55-.46-.12,2.87-.68,2.6,0-1.08-.3-1.75-.09-2.55-.15,0-.31-.15-.23,.53-.16-.6-.28,1.38-.53,.46-.02,.44,.06,1.47-.13,1.41-.04-.2-.05-.48-.05-.48,.05,.49-.23,.69,.04,1.76-.41-1.51-.75-1.42-1.1-1.29-.34,.14-.69,.31-.97-1-.35,.35-.78,.68-1.12,.75,.02-.3,0-.49,.06-.39-.47-.91-.25,2.84-.81,1.82-.28-1.6,.28-.86,.11-1.47-.08-3.25-.64,.44-.98-1.46l.09-.19c-.25-1.1-.68,1.22-1.13,.98,0,0,.03-.29,.02-.49-.35,1.65-.97,2.17-1.44,2.62,.19-1.26,.23-.66,.2-1.96-.21,.17-.02,2.08-.44,2.42-.1-.7-.36-1.32-.33-2.7l.38-.06c-.11-1.79-.48,.04-.67-.28l.06-.78c-.58,.22-.69,2.19-1.31,2.01l.03,.59c-.45,1.92-.23-1.11-.65,.32v-1.98c-.25,.46-.9,1.86-1.32,2.21,.31-1.45,.83-2.17,1.17-3.02-.22-.03-.77,.1-.94,1.07,.1-.19,.24-.66,.32-.35-.36,1.53-.77,2.28-1.21,2.22,.29-3.82-1.12-1.03-1.27-4.01-.87,1.37-1.53-.69-2.46-.52,.15,2.99-.27,.07-.4,3.12-.23,.18-.31,.13-.31-.07l-.54-1.86c-.1-.9,.24-.66,.27-1.35-.45-.26-.12-1.3-.38-2.13,0,1.1-.26,1.55-.5,1.12l.29,1.43c-.75,1.58-.4-2.6-1.16-1.03l.27-.95c-.37,.55-1.24-.1-1.73,2.33-.04-.36-.06-1.2,.1-1.41-.77-.42-1.97,2.48-2.48,.93l.12-.74c-.16,.2-.36,1.38-.5,.62,.03-.31,.12-.74,.05-.79-.1,.25-.5,1.28-.66,.83l.23-.83c-.7-1.04-1.36,1.95-2.06,2.4,.18-2.19-.36-2.96-.64-3.34l.04-.31c-.87-.35-1.69,1.68-2.61,2.46-.28-2.43-1.65-1.17-2.33-2.6,.08,.41-.21,1.7-.38,1.91-.14-.46-.71,1.46-.45-.55l.06,.05c.08-1.98-.37-1.5-.68-1.6l-.37,2.62c-.34-3.91-2.32,1.13-2.31-2.34-.28,.63-.52,.59-.81,1.22l.21-1.4c-.48-.44-.72-.65-1.43-.41l.29-.98c-.35-.14-1.09,3.97-1.45,3.99l.22-2.1c-.66-.07-1.01-2.01-1.95-.23,.06-.3,.19-.9,.31-.97-.3-.11-.86-1.61-1.29,1.26,.35-1.86-.59-.3-1.1,.44l.34-1.35c-.64,1.68-.76,2.16-1.26,2.55-.05-.2,.17-1.11,.21-.73-.14-.78-.54,1.23-.75,.42l.35-.83c-.28-.18-.37,.29-.8,1.25-.34,.49-.52-.5-.22-1.72-.24,.73-.69,1.67-.78,1.27,.11-.46,.26-.73,.33-.86-.21-1.05-1.23,1.32-1.15-.1,.14-.44,.19-.67,.21-.81,.36,.16,.65,.33,.59,.41,.37-1.23,.16-1.53,.91-3.16-.49,.87-1.57,2.72-1.66,2.05,.03-.12,.06-.24,.12-.43l.08-.12c-.02-.14-.11-.05-.24,.13-.01-.23-.01-.4-.09-.44,.35-1-.08-.65-.19-.75-.53,1.3-.63,1.02-.91,2.16,.02-.1,.09-.14,.21-.16,.04-.03,.07-.04,.12-.11-.02,.03-.04,.07-.06,.11,.11,0,.24,.02,.39,.05-.37,.63-.72,1.13-.59,.34-.42,.81-.87,1.62-1.09,2,.53-1.9,.63-3.03,1.11-4.14-.73,.53-1.06,.04-2.67,2.16-.3,.22,.26-.73,.44-1.11,.2-.19,.25-.1,.48-.41-.56,.45-.75-.16-1.84,1.32,.2-.88,1.12-1.29,.58-1.3l.38-.43c.25-.72,.2-.86-.07-.77-.27,.1-.75,.43-1.24,.71-.96,.59-2.03,.88-.92-.73-.13,.2-.19,.3-.41,.51,.26-.96-.34-1.12-.88-1.47-.51-.32-.96-.86,.12-1.79,.4-.43-.71-.04-1.62,.04l1.42-.5c-.58,.08-1.17,.15-1.76,.18-.67-.08,.18-.52,.92-.83,.76-.33,1.35-.5,.15-.64l-1.01,.14c.18-.2-.63-.64,.55-.59-.18-.02-1.05-.09-.52-.15l.79,.03c-.44-.16-.9-.35-1.31-.58,.31-.16,1.08-.02,1.81,.08,.73,.11,1.39,.19,1.49,.07-.13-.08-.67-.28-1.24-.52-.56-.24-1.15-.5-1.41-.54-.05,.06-.52,.07-1.29-.12l-.34-.34c-1.11-.35-2.22-.76-3.27-1.05-1.05-.29-2.05-.44-2.97-.1,.4,.36,.8,.69,1.23,1l-1.15,.03c0-.21,.02-.42,.05-.63-1.13,.14-.23,.57,.37,.9-.6-.03-1.03,.01-1.28,.14,.7,.35,1.4,.66,2.13,.93-.91,.02-1.78-.47-2.31,0,1.01,.39,2.05-.16,2.7,.38-1.07,.25-1.93,.17-1.04,.57-.6,.05-.98-.03-1.24-.2,.7,.37,.33,.97,1.57,1.06-1.3,.45,.46,1.05-1.73,1.32,.54,.05,1.79,.34,1.95,.59-2.7,0,.09,1.14-2.65,1.72,1.21-.09,1.57,.19,1.82,.55,.27,.34,.44,.77,1.17,.84-.19,.04-.57,.11-.48,0-.03,.45-.62,.84-.91,1.29,1.8-.78,2.45-.43,3.66-.77-1.43,1.31-2.15,.86-3.69,1.84,1.39-.76,1.82,0,2.87-.82-.83,.91-.34,.55-1.61,1.57,2.11-1.25,.55,.08,1.96-.5-.71,1.11-1.81,1.43-.86,1.47-.43,.68-1.46,.74-1.46,.74Zm12.9,4.25s0,.02,0,.03c-.1,0-.19,0-.24,0,.05,0,.12,0,.25-.02Zm.87,.27c-.09-.09-.22-.14-.36-.18,.12-.47,.32-.93,.39-.88-.15,.29-.04,.62-.04,1.06Zm1.78-9.7c.16-.15,.08,.12,0,.39-.05,0-.12,.03-.22,.09-.02,.05-.05,.1-.07,.16,.11-.25,.21-.48,.3-.64Z"/>
    <path class="cls-5" d="M83.82,21.35s-.06,.07-.08,.08c-.02,.12-.04,.22-.06,.32,.07-.13,.14-.27,.2-.39-.02,0-.04,0-.06,0Z"/>
    <path class="cls-5" d="M151.11,20.26h-.03s.09,.05,.15,.12c-.06-.05-.08-.08-.12-.12Z"/>
    <polygon class="cls-5" points="93.97 34.34 94.01 33.98 93.9 34.28 93.97 34.34"/>
    <path class="cls-5" d="M157.61,19.97c.11,.06,.23,.11,.34,.13-.08-.05-.2-.09-.34-.13Z"/>
    <path class="cls-5" d="M158.95,18.2l.59-.06c-.32,0-.48,.03-.59,.06Z"/>
    <path class="cls-5" d="M160.27,16.96c-.22-.11-.39-.19-.54-.26h-.01s.55,.26,.55,.26Z"/>
    <path class="cls-5" d="M140.16,33.48s-.03,.04-.04,.08c-.06,.3,0,.17,.04-.08Z"/>
    <path class="cls-5" d="M145.77,27.82c.03,.26,.06,.52,.05,.7,.16,.05,.26,.04-.05-.7Z"/>
    <path class="cls-5" d="M131.75,37.08v-.02s-.04,0-.06,0l.06,.02Z"/>
    <path class="cls-5" d="M145.51,28.62c.23,.21,.3,.11,.31-.1-.13-.05-.3-.13-.31,.1Z"/>
    <path class="cls-5" d="M162.94,10.53l.07-.06c-.09-.02-.16-.04-.22-.06l.14,.12Z"/>
    <path class="cls-5" d="M162.79,10.41l-.14-.12s0,.07,.14,.12Z"/>
    <path class="cls-5" d="M162.35,10.04l.3,.25c.02-.06,.08-.12-.3-.25Z"/>
    <path class="cls-5" d="M161.8,12.35l.49,.16c-.1-.04-.25-.09-.49-.16Z"/>
    <path class="cls-5" d="M161.77,12.99c.15-.11,1.15-.08,.9-.36l-.39-.13c.71,.3-1.3,.12-.51,.49Z"/>
    <path class="cls-5" d="M155.02,13.45l.53-.3c-.54-.1-1.26-.24-1.32-.47-1.71,0,1.19,.28,.79,.77Z"/>
    <path class="cls-5" d="M153.79,14.44c-.14-.31-.73-.3-1.01-.43,.4,.32,.5,.4,1.01,.43Z"/>
    <path class="cls-5" d="M148.08,20.92l-.58-1.14c-.06,.24,.23,.44,.58,1.14Z"/>
    <polygon class="cls-5" points="149.09 27.77 149.62 28.4 149.22 27.3 149.09 27.77"/>
    <polygon class="cls-5" points="144.26 19.95 144.27 19.74 144.15 20.3 144.26 19.95"/>
    <path class="cls-5" d="M128.56,24.95l.14,1.57c.11-.29,.03-2.06-.14-1.57Z"/>
    <path class="cls-5" d="M121.04,26.44c-.04-.79-.24-1.31-.42-.54,.17,.12,.32,.74,.42,.54Z"/>
    <polygon class="cls-5" points="97.69 22.08 97.91 21.58 97.57 21.98 97.69 22.08"/>
  </g>
  <path class="cls-4" d="M80.49,53.9c6.1,1.88,11.8,4.79,17.31,7.98,2.67,1.55,5.28,3.2,7.94,4.76,2.25,1.32,5.13,2.12,7.2,.04,1.02-1.03-.57-2.62-1.59-1.59-2.01,2.01-5.59-1.07-7.36-2.14-2.45-1.49-4.91-2.96-7.42-4.35-4.94-2.75-10.07-5.19-15.49-6.86-1.39-.43-1.98,1.74-.6,2.17h0Z"/>
  <path class="cls-4" d="M144.06,57.11c1.68,.21,3.01-.88,4.23-1.89,1.49-1.23,3.18-2.01,5.04-2.52,3.94-1.07,8.1-.98,12.01-2.2,1.38-.43,.79-2.6-.6-2.17-3.8,1.18-7.83,1.14-11.68,2.11-1.69,.43-3.37,1.06-4.84,2.02-1.25,.82-2.54,2.6-4.17,2.4-1.43-.18-1.42,2.08,0,2.25h0Z"/>
  <path class="cls-4" d="M141.2,87.84c-1.74,2.2-3.65,4.27-5.72,6.17-1.95,1.79-4.42,3.85-7.26,3.15-.94-.23-1.34,1.22-.4,1.45,3.06,.75,5.79-.94,8-2.88,2.35-2.07,4.5-4.37,6.44-6.82,.59-.75-.46-1.82-1.06-1.06h0Z"/>
</svg>