<?xml version="1.0" encoding="utf-8"?>
<!-- Generator: Adobe Illustrator 26.5.0, SVG Export Plug-In . SVG Version: 6.00 Build 0)  -->
<svg version="1.1" xmlns="http://www.w3.org/2000/svg" xmlns:xlink="http://www.w3.org/1999/xlink" x="0px" y="0px"
	 viewBox="0 0 776.1 502" style="enable-background:new 0 0 776.1 502;" xml:space="preserve">
<style type="text/css">
	.st0{fill:#C69C6D;}
	.st1{fill:#754C24;}
	.st2{fill:#603813;}
	.st3{fill:#A67C52;}
	.st4{fill:#754C24;stroke:#42210B;stroke-width:5;stroke-miterlimit:10;}
	.st5{fill:none;stroke:#603813;stroke-width:5;stroke-miterlimit:10;}
	.st6{fill:none;}
	.st7{fill:none;stroke:#754C24;stroke-width:3;stroke-miterlimit:10;}
	.st8{fill:none;stroke:#754C24;stroke-miterlimit:10;}
	.st9{fill:none;stroke:#603813;stroke-width:3;stroke-miterlimit:10;}
	.st10{fill:none;stroke:#42210B;stroke-width:5;stroke-miterlimit:10;}
	.st11{fill:#C7B299;stroke:#42210B;stroke-width:3;stroke-miterlimit:10;}
	.st12{fill:none;stroke:#42210B;stroke-width:2;stroke-linecap:round;stroke-miterlimit:10;}
	.st13{stroke:#000000;stroke-width:2;stroke-linecap:round;stroke-miterlimit:10;}
	.st14{fill:none;stroke:#000000;stroke-width:2;stroke-linecap:round;stroke-miterlimit:10;}
	.st15{fill:#534741;stroke:#000000;stroke-width:2;stroke-linecap:round;stroke-miterlimit:10;}
	.st16{fill:#B3B3B3;}
	.st17{font-family:'ArialMT';}
	.st18{font-size:18px;}
	.st19{fill:#B3B3B3;stroke:#808080;stroke-miterlimit:10;}
	.st20{fill:none;stroke:#808080;stroke-miterlimit:10;}
	.st21{fill:#998675;}
	.st22{fill:#C7B299;}
	.st23{fill:#736357;}
	.st24{fill:#C69C6D;stroke:#C69C6D;stroke-miterlimit:10;}
	.st25{fill:none;stroke:#684523;stroke-miterlimit:10;}
	.st26{fill:none;stroke:#684523;stroke-width:0.75;stroke-miterlimit:10;}
	.st27{fill:none;stroke:#72563B;stroke-miterlimit:10;}
	.st28{fill:#FFFFFF;stroke:#000000;stroke-width:0.25;stroke-miterlimit:10;}
	.st29{fill:#FFCE61;}
	.st30{fill:none;stroke:#000000;stroke-width:0.25;stroke-miterlimit:10;}
	.st31{fill:#A80800;stroke:#000000;stroke-width:0.25;stroke-miterlimit:10;}
	.st32{display:none;}
</style>
<g id="Layer_1">
	<g>
		<rect x="0.6" y="1.5" class="st0" width="775.9" height="499"/>
		<path class="st0" d="M775.9,2v498H1.1V2H775.9 M777.1,1H0v500h777.1V1L777.1,1z"/>
	</g>
	<g>
		<polygon class="st1" points="127.9,501.5 161.3,418.5 319,418.5 350,501.5 		"/>
		<path class="st2" d="M318.5,419l30.7,82H128.7l33-82H318.5 M319.4,418H160.9L127,502h223.8L319.4,418L319.4,418L319.4,418z"/>
	</g>
	<g>
		<polygon class="st1" points="482.4,501.5 515.8,418.5 673.5,418.5 704.6,501.5 		"/>
		<path class="st2" d="M673.1,419l30.7,82H483.3l33-82H673.1 M674,418H515.4l-33.8,84h223.8L674,418L674,418z"/>
	</g>
	<g>
		<polygon class="st3" points="533.4,446.5 536.6,436.5 646.5,435.5 651.9,446.5 		"/>
		<path class="st2" d="M646.1,436l4.8,10H534.2l2.9-9L646.1,436 M646.9,435l-110.7,1l-3.5,11h120.1L646.9,435L646.9,435z"/>
	</g>
	<g>
		<polygon class="st3" points="538.1,481.5 541.3,470.5 648.8,470.5 654.2,481.5 		"/>
		<path class="st2" d="M648.5,471l4.9,10H538.8l2.9-10H648.5 M649.2,470H540.8l-3.5,12h117.7L649.2,470L649.2,470z"/>
	</g>
	<g>
		<polygon class="st3" points="187.9,444.5 191.1,433.5 298.6,433.5 303.9,444.5 		"/>
		<path class="st2" d="M298.2,434l4.9,10H188.6l2.9-10H298.2 M299,433H190.6l-3.5,12h117.7L299,433L299,433z"/>
	</g>
	<g>
		<polygon class="st3" points="186.7,477.5 189.9,467.5 299.8,466.5 305.1,477.5 		"/>
		<path class="st2" d="M299.4,467l4.8,10H187.5l2.9-9L299.4,467 M300.2,466l-110.7,1l-3.5,11H306L300.2,466L300.2,466z"/>
	</g>
	<g id="Layer_2_00000156548377366746710000000002594511831330207135_">
		<rect x="149.7" y="163.9" class="st4" width="567" height="251"/>
		<polygon class="st4" points="653.7,92.2 86.7,92.2 86.8,78.2 653.8,80.2 		"/>
		<rect x="239.7" y="181.9" class="st2" width="176.5" height="177"/>
		<line class="st5" x1="149.7" y1="410.9" x2="239.7" y2="358.9"/>
		<line class="st5" x1="149.7" y1="167.9" x2="245.7" y2="184.9"/>
		<line class="st5" x1="716.7" y1="414.9" x2="640.7" y2="355.9"/>
		<line class="st5" x1="716.7" y1="166.9" x2="638.7" y2="184.9"/>
		<line class="st5" x1="428.7" y1="410.9" x2="410.7" y2="352.9"/>
		<line class="st5" x1="471.7" y1="353.9" x2="442.7" y2="410.9"/>
		<rect x="468.1" y="180.2" class="st2" width="176.5" height="177"/>
		<line class="st6" x1="430.2" y1="174.4" x2="416.2" y2="182.4"/>
		<line class="st6" x1="444.2" y1="170.4" x2="468.2" y2="180.4"/>
		<line class="st7" x1="411.7" y1="185.9" x2="433.2" y2="169.4"/>
		<line class="st8" x1="467.7" y1="179.9" x2="433.7" y2="168.9"/>
		<line class="st9" x1="467.6" y1="182.1" x2="435.7" y2="166.9"/>
		<line class="st9" x1="430.7" y1="167.9" x2="412.5" y2="182.5"/>
		<line class="st10" x1="433.7" y1="410.9" x2="433.7" y2="163.9"/>
		<rect x="105.8" y="15.2" class="st11" width="148" height="55"/>
		<line class="st12" x1="123.3" y1="26.7" x2="123.3" y2="62.7"/>
		<line class="st12" x1="135.3" y1="26.7" x2="135.3" y2="62.7"/>
		<line class="st12" x1="129.3" y1="25.7" x2="129.3" y2="61.7"/>
		<line class="st12" x1="117.3" y1="25.7" x2="117.3" y2="61.7"/>
		<line class="st12" x1="141.3" y1="25.7" x2="141.3" y2="61.7"/>
		<line class="st12" x1="146.3" y1="26.7" x2="146.3" y2="62.7"/>
		<rect x="117.3" y="71.7" class="st13" width="13" height="3"/>
		<rect x="228.3" y="71.7" class="st13" width="13" height="3"/>
		<line class="st14" x1="202.3" y1="12.7" x2="243.3" y2="3.7"/>
		<rect x="241.3" y="1.7" transform="matrix(0.9767 -0.2144 0.2144 0.9767 5.002 52.5498)" class="st13" width="7" height="3"/>
		<circle class="st15" cx="200.8" cy="43.2" r="17.5"/>
		<text transform="matrix(1 0 0 1 188.5786 49.753)" class="st16 st17 st18">F</text>
		<text transform="matrix(1 0 0 1 197.0186 49.753)" class="st16 st17 st18">M</text>
		<circle class="st19" cx="236.8" cy="39.2" r="4"/>
		<circle class="st19" cx="236.8" cy="51.2" r="5"/>
		<line class="st20" x1="238.8" y1="32.2" x2="237.8" y2="35.2"/>
		<line class="st20" x1="238.8" y1="47.2" x2="239.8" y2="44.2"/>
	</g>
	<g id="hen">
		<g>
			<ellipse class="st21" cx="318.6" cy="376" rx="64" ry="17.5"/>
			<path class="st21" d="M318.6,359c38,0,63.5,8.8,63.5,17s-25.5,17-63.5,17s-63.5-8.8-63.5-17S280.6,359,318.6,359 M318.6,358
				c-35.6,0-64.5,8.1-64.5,18s28.9,18,64.5,18s64.5-8.1,64.5-18S354.2,358,318.6,358L318.6,358z"/>
		</g>
		<g>
			<ellipse class="st22" cx="319.6" cy="358" rx="64" ry="17.5"/>
			<path class="st22" d="M319.6,341c38,0,63.5,8.8,63.5,17s-25.5,17-63.5,17s-63.5-8.8-63.5-17S281.6,341,319.6,341 M319.6,340
				c-35.6,0-64.5,8.1-64.5,18s28.9,18,64.5,18s64.5-8.1,64.5-18S355.2,340,319.6,340L319.6,340z"/>
		</g>
		<path class="st21" d="M383,362.5c-0.7,1.6-2,2.7-3.7,3.4c-1.9,0.8-4.3,1-6.4,1.2c-0.8,0.1-1.5,0.6-1.5,1.5c0,0.8,0.7,1.6,1.5,1.5
			c2.7-0.2,5.4-0.5,7.8-1.5c2-0.9,3.9-2.5,4.8-4.5c0.3-0.7,0.2-1.6-0.5-2C384.4,361.6,383.3,361.8,383,362.5L383,362.5L383,362.5z"
			/>
		<path class="st0" d="M254.1,350.5c1.4,3.5,3.2,7.3,7,8.7c3.4,1.2,7.1,0.5,10.5,1.5c0.9,0.3,1.3-1.2,0.4-1.5
			c-3.1-1-6.5-0.5-9.6-1.3c-1.6-0.4-3-1.3-4-2.6c-1.2-1.6-2.1-3.5-2.8-5.3C255.2,349.2,253.7,349.6,254.1,350.5L254.1,350.5
			L254.1,350.5z"/>
		<path class="st0" d="M252.6,356.7c-2,8.2,7.8,11.9,14,13.4c8.2,2,16.7,1.8,25.1,1.4c1,0,1-1.5,0-1.5c-7.5,0.3-15.1,0.5-22.5-0.9
			c-3.5-0.7-7-1.6-10.1-3.3s-5.9-4.9-5-8.7C254.3,356.1,252.9,355.7,252.6,356.7L252.6,356.7L252.6,356.7z"/>
		<path class="st0" d="M387.4,349.2c0.9,3.1,1.9,7.3-0.7,9.8c-1.4,1.3-3.5,2.1-5.2,2.8c-1.9,0.8-3.8,1.6-5.7,2.3
			c-7.5,2.7-15.3,4.2-23.3,4.7c-1,0-1,1.5,0,1.5c8.8-0.5,17.6-2.3,25.8-5.5c2-0.8,4-1.6,6-2.6c1.6-0.8,3.2-1.6,4.3-3.1
			c2-3,1.1-7,0.3-10.2C388.6,347.9,387.1,348.3,387.4,349.2L387.4,349.2L387.4,349.2z"/>
		<path class="st0" d="M350.7,372.3c6.9,2.5,14.6,2.7,21.6,0.6c3.5-1,6.8-2.5,9.8-4.6c1.4-0.9,3-1.9,3.9-3.3
			c1.1-1.6,0.7-3.7,1.8-5.3c0.5-0.8-0.8-1.5-1.3-0.8c-0.9,1.4-0.8,3-1.4,4.4c-0.6,1.7-2.7,2.9-4.1,3.8c-2.9,1.9-6.1,3.4-9.5,4.3
			c-6.7,1.9-13.9,1.6-20.5-0.7C350.2,370.5,349.8,372,350.7,372.3L350.7,372.3L350.7,372.3z"/>
		<path class="st0" d="M370.2,376.4c3,0.6,6.1,0.7,9.1,0.2c1.2-0.2,2.6-0.5,3.6-1.2s1.7-1.9,2.4-3c3.1-4.9,5.1-10.4,5.9-16.1
			c0.1-0.9-1.3-1.4-1.5-0.4c-0.7,5.1-2.4,10.1-5.1,14.6c-0.6,1.1-1.3,2.2-2.1,3.2s-2.1,1.3-3.3,1.5c-2.9,0.5-5.9,0.4-8.7-0.2
			C369.6,374.7,369.2,376.2,370.2,376.4L370.2,376.4L370.2,376.4z"/>
		<path class="st0" d="M371.1,385.1c3.3,0.3,6.6,0.3,9.4-1.8c2.5-1.9,4.4-4.8,6.3-7.3c4-5.4,7.6-11.2,8.3-18.1c0.1-1-1.4-1-1.5,0
			c-0.6,6.2-4,11.7-7.6,16.6c-1.7,2.4-3.5,4.9-5.6,6.9c-2.7,2.5-5.8,2.5-9.3,2.2C370.1,383.6,370.1,385.1,371.1,385.1L371.1,385.1
			L371.1,385.1z"/>
		<path class="st0" d="M343.8,362.8c-8.6,3.8-18.2,4.4-27.5,4.8c-4.8,0.2-9.6,0.1-14.1-1.6c-4.3-1.6-8.2-4.2-11.9-6.7
			c-0.8-0.5-1.5,0.8-0.8,1.3c6.2,4.2,12.3,7.9,19.9,8.5c4,0.3,8,0,12-0.2c3.7-0.2,7.4-0.6,11.1-1.2c4.2-0.7,8.2-1.8,12.1-3.6
			C345.4,363.7,344.6,362.4,343.8,362.8L343.8,362.8z"/>
		<path class="st0" d="M259.9,346.2c-1,3.7-2,7.7-0.4,11.4c1.3,3,4.2,5,7.1,6.5c7.1,3.5,15.2,4.6,23,5c4.7,0.2,9.4,0.2,14.1,0.1
			c1,0,1-1.5,0-1.5c-9.5,0.1-19.3,0.2-28.6-2.2c-4.1-1.1-8.7-2.5-11.9-5.4c-1.8-1.6-2.9-3.6-3-6c-0.2-2.5,0.5-5,1.2-7.5
			C261.6,345.7,260.2,345.3,259.9,346.2L259.9,346.2L259.9,346.2z"/>
		<path class="st0" d="M250,363.7c-0.9,3,0,6.2,1.8,8.6c2,2.6,4.9,4.3,8,5.2c3.7,1.1,7.6,1.5,11.4,2c4.2,0.5,8.4,0.7,12.6,0.8
			c4.9,0.1,9.7-0.1,14.5-0.5c1-0.1,1-1.6,0-1.5c-9.8,0.8-19.6,0.6-29.3-0.6c-4.3-0.5-9-1.1-12.8-3.4c-3.4-2.1-6-6.2-4.8-10.2
			C251.8,363.2,250.3,362.8,250,363.7L250,363.7L250,363.7z"/>
		<path class="st0" d="M263.9,381.4c5.3,3.3,11.3,5,17.3,6.2c6.6,1.4,13.4,2.5,20.1,3.4c13.7,1.9,27.5,3,41.3,2.8
			c6.9-0.1,14-0.2,20.3-3.2c0.9-0.4,0.1-1.7-0.8-1.3c-5.6,2.7-12,2.9-18.1,3c-6.7,0.1-13.5,0-20.2-0.5c-13.4-0.8-26.7-2.6-39.8-5.2
			c-6.7-1.3-13.5-2.9-19.3-6.5C263.9,379.6,263.1,380.9,263.9,381.4L263.9,381.4L263.9,381.4z"/>
		<path class="st0" d="M369.3,372.4c-3,8.2-11.5,12.5-19.6,14.1c-4.7,0.9-9.6,1.2-14.5,1.3s-9.8-0.2-14.3-2.2
			c-0.9-0.4-1.6,0.9-0.8,1.3c7.3,3.2,15.8,2.6,23.5,2s14.8-2.4,20.6-7.2c2.9-2.4,5.1-5.4,6.4-8.9
			C371.1,371.9,369.6,371.5,369.3,372.4L369.3,372.4L369.3,372.4z"/>
		<path class="st0" d="M346.4,374.1c4,0.8,8,1.1,12,0.8c2-0.1,3.9-0.4,5.9-0.7c1.6-0.3,3.3-0.7,4.5-1.8s1.8-2.6,2.4-4.1
			c0.7-1.8,1.2-3.6,1.3-5.5c0.3-3.3-0.6-6.7-2.9-9.1c-0.7-0.7-1.7,0.4-1.1,1.1c2.1,2.2,2.8,5.3,2.5,8.3c-0.2,1.7-0.7,3.4-1.3,5.1
			c-0.6,1.5-1.3,3-2.7,3.7c-1.3,0.7-3,0.9-4.5,1.1c-1.7,0.3-3.5,0.4-5.2,0.5c-3.5,0.1-7-0.2-10.5-0.8
			C345.9,372.4,345.5,373.9,346.4,374.1L346.4,374.1L346.4,374.1z"/>
		<path class="st0" d="M373.7,348.7c2,4.9,0.1,10.6-3.5,14.2c-4,4-9.7,5.7-15.2,6.2c-1,0.1-1,1.6,0,1.5c6-0.5,12.2-2.4,16.5-6.8
			c3.9-4,5.8-10.1,3.7-15.5C374.8,347.4,373.4,347.8,373.7,348.7L373.7,348.7z"/>
		<path class="st0" d="M383.3,360.7c0.7-5.2,3.7-10.2,2.2-15.6c-0.3-0.9-1.7-0.5-1.5,0.4c1.4,5.1-1.6,10.2-2.2,15.2
			C381.6,361.7,383.1,361.6,383.3,360.7L383.3,360.7z"/>
		<path class="st0" d="M280.1,341.9c-1.5-0.9-3.7-0.7-5.4-0.8c-2.3-0.1-4.6-0.1-7-0.1c-4.5,0.1-8.9,0.6-13.4,1.3
			c-0.9,0.2-0.6,1.6,0.4,1.5c4.1-0.7,8.3-1.1,12.5-1.2c2-0.1,4-0.1,6,0c1,0,1.9,0.1,2.9,0.1s2.3,0,3.2,0.5
			C280.2,343.6,281,342.4,280.1,341.9L280.1,341.9L280.1,341.9z"/>
		<path class="st0" d="M251.6,346.5c-2.1,1.8-3.3,4-1.6,6.6c1.6,2.3,4.5,4,6.9,5.4c5.6,3.1,11.8,4.7,17.9,6.3
			c0.9,0.2,1.3-1.2,0.4-1.5c-5.2-1.4-10.4-2.7-15.3-5c-2.4-1.1-4.7-2.5-6.8-4.1c-1-0.8-2.1-1.7-2.5-3c-0.5-1.6,0.8-2.7,1.9-3.6
			C253.4,346.9,252.4,345.9,251.6,346.5L251.6,346.5L251.6,346.5z"/>
		<path class="st0" d="M259.5,368.9c-4-2.4-8.5-5.2-9.4-10.2c-0.2-1-1.6-0.5-1.4,0.4c1.1,5.3,5.9,8.4,10.1,11.1
			C259.6,370.7,260.3,369.4,259.5,368.9L259.5,368.9L259.5,368.9z"/>
		<path class="st0" d="M244.7,359.4c-0.3,5.1,1.9,9.9,5.2,13.6c3.5,4,8.3,6.5,13.2,8.2c5.7,2,11.7,3.3,17.7,4.3s12.1,1.6,18.3,1.8
			c7.2,0.2,14.3-0.1,21.5-1c1-0.1,1-1.6,0-1.5c-11.9,1.5-23.9,1.4-35.8-0.2c-5.8-0.8-11.5-1.9-17.1-3.5c-5.1-1.5-10.3-3.5-14.4-7
			c-4.3-3.7-7.4-9-7.1-14.8C246.2,358.4,244.7,358.4,244.7,359.4L244.7,359.4L244.7,359.4z"/>
		<path class="st0" d="M302.7,378.3c7.5,2.5,15.3,4.2,23.2,5.1c4,0.5,8,0.8,12,0.8c3.2,0.1,6.8,0.3,9.5-1.7s4-5.5,7-7.1
			c0.9-0.5,0.1-1.8-0.8-1.3c-3.2,1.7-4.5,5.4-7.4,7.4c-2,1.3-4.4,1.3-6.7,1.2c-2.4,0-4.9-0.1-7.3-0.3c-9.9-0.7-19.7-2.6-29.1-5.6
			C302.2,376.6,301.8,378,302.7,378.3L302.7,378.3L302.7,378.3z"/>
		<path class="st0" d="M328.4,372.1c-4.3-0.5-8.5-1-12.8-1.5l-6.4-0.7c-2-0.2-4.1-0.4-6-1.3c-0.9-0.4-1.6,0.9-0.8,1.3
			c1.7,0.8,3.5,1.1,5.3,1.4c2.3,0.3,4.5,0.5,6.8,0.8c4.6,0.5,9.2,1.1,13.8,1.6C329.4,373.7,329.4,372.2,328.4,372.1L328.4,372.1
			L328.4,372.1z"/>
		<path class="st0" d="M320,372.3c7.9-0.4,15.7-1.4,23.5-2.8c3.7-0.7,7.4-1.4,11-2.5c2.6-0.8,5.2-2,6.6-4.4c0.5-0.8-0.8-1.6-1.3-0.8
			c-1.5,2.6-4.4,3.4-7.1,4.1c-3.5,0.9-7.1,1.6-10.6,2.3c-7.3,1.4-14.7,2.2-22.1,2.6C319.1,370.9,319.1,372.4,320,372.3L320,372.3
			L320,372.3z"/>
		<path class="st0" d="M357.6,360.1c2.8,0.7,5.7,0.8,8.6,0.7c2.7-0.1,5.4-0.2,8-0.6c2.4-0.3,4.8-1,6.8-2.3s3.6-3.5,5-5.5
			c0.6-0.8-0.7-1.5-1.3-0.8c-1.4,1.9-2.8,3.9-4.8,5.2s-4.4,1.8-6.7,2c-4.9,0.6-10.3,1-15.2-0.2C357.1,358.5,356.7,359.9,357.6,360.1
			L357.6,360.1L357.6,360.1z"/>
		<path class="st0" d="M386.3,346.8c-2.2,3.9-6.2,6.1-10.2,7.6c-5,1.9-10.2,2.9-15.4,3.3c-1,0.1-1,1.6,0,1.5
			c5.6-0.4,11.3-1.5,16.5-3.6c4.1-1.6,8.2-4,10.4-8C388.1,346.7,386.8,346,386.3,346.8L386.3,346.8L386.3,346.8z"/>
		<path class="st0" d="M361.5,365.2c5.2,1.9,10.4,3.9,15.9,5c4.2,0.9,9.7,1.5,12.3-2.8c0.5-0.8-0.8-1.6-1.3-0.8
			c-2.6,4.3-9,2.6-12.9,1.6c-4.6-1.1-9.1-2.8-13.6-4.5C361,363.4,360.6,364.9,361.5,365.2L361.5,365.2L361.5,365.2z"/>
		<path class="st0" d="M367.9,367.9c0.3,2.4,2.3,3.8,4.5,4.3c3,0.6,6.2,0.5,9.2,0.2c4.6-0.5,11.5-1.6,12-7.4c0.1-1-1.4-1-1.5,0
			c-0.5,4.7-6.9,5.5-10.5,5.9c-2.3,0.2-4.6,0.2-6.9,0c-2-0.2-5.1-0.6-5.3-3.1C369.3,366.9,367.8,366.9,367.9,367.9L367.9,367.9
			L367.9,367.9z"/>
		<path class="st0" d="M389.1,369.3c-13.6,8.7-30.2,8.9-45.9,8.9c-1,0-1,1.5,0,1.5c15.9,0,32.8-0.2,46.6-9.1
			C390.7,370.1,389.9,368.8,389.1,369.3L389.1,369.3L389.1,369.3z"/>
		<path class="st0" d="M327.6,376.5c2,4.3,7.2,5.9,11.4,6.8c5.4,1.1,10.9,0.9,16.2-0.5c0.9-0.2,0.5-1.7-0.4-1.5
			c-4.9,1.3-10,1.6-15,0.6c-4-0.8-9.1-2.1-11-6.2C328.5,374.8,327.2,375.6,327.6,376.5L327.6,376.5L327.6,376.5z"/>
		<path class="st0" d="M374.2,377c-8.8,0.6-17.6,0.9-26.4,0.8c-4.1,0-8.5,0.3-12.3-1.8c-3-1.6-5.6-4-8.9-5.1
			c-0.9-0.3-1.3,1.1-0.4,1.5c3.4,1.1,6,3.8,9.3,5.3c3.7,1.8,7.9,1.6,11.9,1.6c9,0,17.9-0.2,26.8-0.8
			C375.2,378.5,375.2,377,374.2,377L374.2,377L374.2,377z"/>
		<path class="st0" d="M329.8,374.7c2.6,1.9,5.3,3.9,8.3,5.2s6.2,1.8,9.5,1.6c6.9-0.3,13.6-2.7,20.5-2.6c1,0,1-1.5,0-1.5
			c-6.7-0.1-13,2.2-19.6,2.6c-3.3,0.2-6.6-0.1-9.7-1.4s-5.6-3.2-8.2-5.1C329.7,372.8,329,374.1,329.8,374.7L329.8,374.7L329.8,374.7
			z"/>
		<path class="st0" d="M382.5,374.2c-0.1,3.7-5.6,4.1-8.3,4.6c-3.6,0.8-7.2,1.5-10.9,2.1c-7,1.2-14.3,1.8-21.1-0.8
			c-0.9-0.3-1.3,1.1-0.4,1.5c7.5,2.9,15.6,2,23.2,0.6c4.1-0.8,8.2-1.6,12.3-2.5c3-0.6,6.5-1.9,6.6-5.5
			C384.1,373.2,382.6,373.2,382.5,374.2L382.5,374.2L382.5,374.2z"/>
		<path class="st0" d="M338.3,387c1.6,2.7,4.5,4,7.5,4.6c3.8,0.8,7.7,0.7,11.5,0.7c4.2-0.1,8.4-0.4,12.5-1.1
			c3.4-0.6,6.8-1.6,9.2-4.2c0.7-0.7-0.4-1.8-1.1-1.1c-2.2,2.4-5.4,3.3-8.5,3.8c-3.8,0.6-7.8,0.9-11.6,1c-3.5,0.1-7.2,0.1-10.7-0.5
			c-2.9-0.5-5.9-1.5-7.5-4.1C339.1,385.4,337.8,386.2,338.3,387L338.3,387L338.3,387z"/>
		<path class="st0" d="M366,380.7c-18.6,5-38.3,4.9-56.8-0.2c-0.9-0.3-1.3,1.2-0.4,1.5c18.8,5.2,38.8,5.3,57.6,0.2
			C367.3,381.9,366.9,380.5,366,380.7L366,380.7L366,380.7z"/>
		<path class="st0" d="M315.6,370.9c1.9-0.4,3.8-0.8,5.6-1.2c0.4-0.1,0.6-0.5,0.5-0.9c-0.1-0.4-0.5-0.6-0.9-0.5
			c-1.9,0.4-3.8,0.8-5.6,1.2c-0.4,0.1-0.6,0.5-0.5,0.9C314.8,370.8,315.3,371,315.6,370.9L315.6,370.9z"/>
		<path class="st0" d="M330.9,363.4c-4,6.6-11.8,9.3-18.8,11.3c-8.5,2.4-17.8,4.3-26.3,1c-0.9-0.4-1.3,1.1-0.4,1.5
			c6.8,2.7,14.3,2,21.3,0.5c6.3-1.4,12.9-3.1,18.5-6.5c2.9-1.8,5.3-4,7.1-6.9C332.7,363.3,331.4,362.6,330.9,363.4L330.9,363.4z"/>
		<path class="st0" d="M289.2,380.1c14.1,3.5,29.6,7.1,43.4,0.3c0.9-0.4,0.1-1.7-0.8-1.3c-13.4,6.6-28.6,3-42.2-0.5
			C288.6,378.5,288.2,379.9,289.2,380.1L289.2,380.1L289.2,380.1z"/>
		<path class="st0" d="M339.6,374c-12.6,3.4-26.1,2.9-38.5-1.5c-0.9-0.3-1.3,1.1-0.4,1.5c12.6,4.5,26.4,5,39.3,1.5
			C340.9,375.2,340.5,373.8,339.6,374L339.6,374z"/>
		<path class="st0" d="M297.6,372.7c16.9,2.3,34.1,2.3,51-0.3c4.9-0.7,9.8-1.7,14.6-2.8c0.9-0.2,0.5-1.7-0.4-1.5
			c-16.4,3.9-33.3,5.4-50.1,4.5c-4.9-0.3-9.7-0.7-14.6-1.4C297.1,371.1,296.7,372.6,297.6,372.7L297.6,372.7L297.6,372.7z"/>
		<path class="st0" d="M372.8,361.1c-2.6,2.4-5.8,4-9,5.5s-6.9,2.8-10.4,3.8c-7.1,2.1-14.4,3.1-21.8,3.3c-1,0-1,1.5,0,1.5
			c7.7-0.1,15.3-1.3,22.7-3.5c6.8-2,14.3-4.7,19.7-9.5C374.6,361.5,373.5,360.5,372.8,361.1L372.8,361.1L372.8,361.1z"/>
		<path class="st0" d="M341.4,375c3.9,1.9,7.9,3.8,12.1,4.6c3.1,0.6,7.5,1.1,9.7-1.8c0.6-0.8-0.5-1.8-1.1-1.1
			c-2.1,2.7-6.5,1.8-9.4,1.1c-3.7-0.9-7.2-2.6-10.7-4.2C341.3,373.3,340.6,374.6,341.4,375L341.4,375L341.4,375z"/>
		<path class="st0" d="M341.6,382.2c-11.4,2.4-23.1,3.3-34.8,2.6c-1-0.1-1,1.4,0,1.5c11.8,0.7,23.7-0.2,35.2-2.7
			C342.9,383.4,342.5,382,341.6,382.2L341.6,382.2L341.6,382.2z"/>
		<path class="st0" d="M283,377.5c5.8,0.1,11.6-0.9,17.1-2.9c0.9-0.3,0.5-1.8-0.4-1.5c-5.4,2-11,3-16.7,2.9
			C282.1,376,282.1,377.5,283,377.5L283,377.5L283,377.5z"/>
		<path class="st0" d="M297.7,372.4c-10.5,4.5-22.3,6-33.7,4.1c-0.9-0.1-1.4,1.3-0.4,1.5c11.8,1.9,23.9,0.4,34.8-4.3
			C299.4,373.3,298.6,372,297.7,372.4L297.7,372.4L297.7,372.4z"/>
		<path class="st0" d="M261.6,375.4c5.5,0.9,11.1,1.2,16.7,1c2.5-0.1,5.1-0.3,7.6-0.7c2-0.3,4-1,5.3-2.6c0.6-0.7-0.5-1.8-1.1-1.1
			c-1.4,1.7-3.5,2.1-5.5,2.4c-2.4,0.3-4.8,0.5-7.3,0.6c-5.1,0.2-10.2-0.1-15.3-0.9C261.1,373.8,260.7,375.2,261.6,375.4L261.6,375.4
			L261.6,375.4z"/>
		<path class="st0" d="M288.7,369.9c-2.7,0.7-5.4,1.3-8.1,1.9s-5.7,1.2-8.6,1.4c-2.7,0.2-5.4-1.2-7.9-2.1c-2.7-1-5.3-2.2-7.9-3.4
			c-0.9-0.4-1.6,0.9-0.8,1.3c2.6,1.2,5.2,2.3,7.8,3.4s5.5,2.4,8.3,2.4s5.7-0.8,8.5-1.3c3-0.6,6.1-1.3,9.1-2
			C290,371.1,289.6,369.7,288.7,369.9L288.7,369.9L288.7,369.9z"/>
		<path class="st0" d="M255.7,367.9c5.5,0.8,11.1,0.5,16.5-0.6c0.9-0.2,0.5-1.6-0.4-1.5c-5.1,1.1-10.5,1.4-15.7,0.6
			C255.2,366.3,254.8,367.8,255.7,367.9L255.7,367.9L255.7,367.9z"/>
		<path class="st0" d="M285.3,361.7c-5.6,1.5-11.3,2.6-17.1,3.4c-2.9,0.4-5.8,0.7-8.7,0.9s-5.9,0.5-8.8-0.3
			c-0.9-0.2-1.3,1.2-0.4,1.5c2.8,0.8,5.6,0.6,8.4,0.4c3.1-0.2,6.1-0.5,9.2-0.9c6-0.8,11.9-2,17.8-3.5
			C286.7,362.9,286.3,361.4,285.3,361.7L285.3,361.7L285.3,361.7z"/>
		<path class="st0" d="M254.2,368.2c14,1.3,28,1.1,41.9-0.5c1-0.1,1-1.6,0-1.5c-13.9,1.6-28,1.8-41.9,0.5
			C253.2,366.6,253.2,368.1,254.2,368.2L254.2,368.2L254.2,368.2z"/>
		<path class="st0" d="M291.1,373.3c-2.9,5.5-9.7,5.8-15.2,5.9c-6.4,0.1-12.8,0.1-19.2,0.2c-1,0-1,1.5,0,1.5c7-0.1,14,0,21.1-0.2
			c5.5-0.1,11.8-1.3,14.6-6.6C292.9,373.2,291.6,372.4,291.1,373.3L291.1,373.3L291.1,373.3z"/>
		<path class="st0" d="M255.4,382c7.2,3.7,15.2,5.4,23.3,4.6s16.4-3.6,24.8-4.2c1-0.1,1-1.6,0-1.5c-8.1,0.5-15.8,3.2-23.9,4.1
			c-8.1,0.9-16.2-0.6-23.4-4.4C255.3,380.2,254.5,381.5,255.4,382L255.4,382L255.4,382z"/>
		<path class="st0" d="M307,379.7c-19,4.7-38.8,5.5-58.1,2c-0.9-0.2-1.4,1.3-0.4,1.5c19.5,3.5,39.7,2.8,58.9-2
			C308.4,380.9,308,379.5,307,379.7L307,379.7z"/>
		<path class="st0" d="M246.1,376.7c3.4,6,9.7,9.6,16.2,11.2c8.4,2.1,17.2,1.1,25.8,1.4c1,0,1-1.5,0-1.5c-8.2-0.3-16.6,0.7-24.7-1.1
			c-6.4-1.5-12.7-4.8-16.1-10.7C246.9,375.1,245.6,375.9,246.1,376.7L246.1,376.7L246.1,376.7z"/>
		<path class="st0" d="M289,388.4c1.7,2.6,4.8,3.4,7.7,3.6c4.2,0.3,8.5,0.3,12.7,0.4c9.1,0.2,18.3,0.3,27.4-0.1c1,0,1-1.5,0-1.5
			c-8.5,0.4-17,0.3-25.4,0.1c-4.1-0.1-8.3-0.2-12.5-0.4c-3-0.1-6.9-0.2-8.7-3C289.8,386.8,288.5,387.6,289,388.4L289,388.4
			L289,388.4z"/>
		<path class="st0" d="M334.1,388.7c-9,1.1-17.9-0.5-26.6-2.2c-0.9-0.2-1.4,1.3-0.4,1.5c8.9,1.7,17.9,3.4,27,2.2
			C335.1,390.1,335.1,388.6,334.1,388.7L334.1,388.7z"/>
		<path class="st0" d="M310.3,389.8c10,1.1,20.1,1.9,30.2,2.4c5.1,0.2,10.2,0.4,15.4,0.5c4.9,0.1,9.8,0.3,14.7-0.1s8.5-3.3,12-6.6
			c0.7-0.7-0.4-1.7-1.1-1.1c-3.2,3.1-6.5,5.9-11.2,6.2s-9.6,0.2-14.4,0.1c-9.7-0.1-19.3-0.5-29-1.3c-5.5-0.4-11-0.9-16.5-1.5
			C309.4,388.2,309.4,389.7,310.3,389.8L310.3,389.8L310.3,389.8z"/>
		<path class="st0" d="M368.2,379.8c-2.2,1.1-4.6,1.7-7.1,1.8c-1,0-1,1.5,0,1.5c2.7-0.1,5.4-0.8,7.8-2c0.4-0.2,0.5-0.7,0.3-1
			C369,379.7,368.6,379.6,368.2,379.8L368.2,379.8L368.2,379.8z"/>
		<path class="st0" d="M361,386.2c13.5,2.2,27.5,0.8,40.2-4.4c0.9-0.4,0.5-1.8-0.4-1.5c-12.5,5-26.2,6.6-39.4,4.4
			C360.4,384.6,360,386,361,386.2L361,386.2L361,386.2z"/>
		<path class="st0" d="M379.5,378.9c3.5-0.1,6.9-0.4,10.3-1c1.7-0.3,3.4-0.7,5-1.2c1.2-0.3,2.4-0.8,2.8-2c0.3-0.9-1.1-1.3-1.5-0.4
			c-0.3,1-2.5,1.2-3.3,1.4c-1.5,0.4-2.9,0.7-4.4,0.9c-3,0.5-5.9,0.8-8.9,0.8C378.6,377.4,378.6,378.9,379.5,378.9L379.5,378.9z"/>
		<path class="st0" d="M396.5,373.1c-4,1.6-8.4,2-12.7,2.3s-9,0.5-13.6,0.7c-9.1,0.4-18.3,0.7-27.5,0.9c-1,0-1,1.5,0,1.5
			c9.3-0.2,18.6-0.5,28-1c4.6-0.2,9.2-0.5,13.8-0.8c4.2-0.3,8.5-0.7,12.4-2.3C397.8,374.2,397.4,372.7,396.5,373.1L396.5,373.1
			L396.5,373.1z"/>
		<path class="st0" d="M334.7,378.7c-2,2.9-5.7,3.9-8.9,4.8c-3.8,1.1-7.6,1.9-11.5,2.6c-7.8,1.3-15.8,1.5-23.7,0.9
			c-1-0.1-1,1.4,0,1.5c8.4,0.7,16.8,0.3,25-1.1c4.1-0.7,8.2-1.7,12.2-2.9c3.1-1,6.1-2.3,8.1-5C336.6,378.7,335.3,377.9,334.7,378.7
			L334.7,378.7z"/>
		<path class="st0" d="M293,386.6c-8.3,3.8-18.2,3.3-26.1-1.4c-0.8-0.5-1.6,0.8-0.8,1.3c8.4,4.9,18.8,5.4,27.6,1.4
			C294.6,387.5,293.8,386.2,293,386.6L293,386.6L293,386.6z"/>
		<path class="st0" d="M245.7,355.5c1.4,3.9,5.4,5.2,9.2,5.7c5,0.6,10.1,0.6,15.1,0c1-0.1,1-1.6,0-1.5c-4.3,0.5-8.6,0.6-12.9,0.2
			c-3.6-0.3-8.5-0.9-9.9-4.8C246.9,354.2,245.4,354.6,245.7,355.5L245.7,355.5L245.7,355.5z"/>
		<path class="st0" d="M256.9,346.8c4-2.8,9-1.8,13.4-0.7c0.9,0.2,1.3-1.2,0.4-1.5c-4.7-1.3-10.2-2.2-14.5,0.8
			C255.4,346,256.1,347.3,256.9,346.8L256.9,346.8L256.9,346.8z"/>
		<path class="st0" d="M276.1,341.9c6.2,0.7,12.4,1.4,18.6,2.1c1,0.1,1-1.4,0-1.5c-6.2-0.7-12.4-1.4-18.6-2.1
			C275.2,340.3,275.2,341.8,276.1,341.9L276.1,341.9z"/>
		<path class="st0" d="M282,346.1c-1.8-0.5-3.7-0.8-5.6-1c-1.7-0.1-3.6-0.3-5.2,0.3s-3.3,1.6-4.9,2.4c-1.8,0.9-3.5,1.8-5.2,2.7
			c-0.9,0.4-0.1,1.7,0.8,1.3c3.1-1.6,6.2-3.3,9.3-4.7c1.5-0.7,3.2-0.6,4.8-0.5c1.9,0.1,3.8,0.5,5.6,0.9
			C282.5,347.8,282.9,346.4,282,346.1L282,346.1L282,346.1z"/>
		<path class="st0" d="M354,344.6c4.1,0.2,8.2-1.1,12.3-0.4c3.6,0.6,6.7,3,10.4,3.2c1,0.1,1-1.4,0-1.5c-3.8-0.3-6.9-2.8-10.6-3.3
			c-4-0.5-8,0.6-12.1,0.5C353,343,353,344.5,354,344.6L354,344.6L354,344.6z"/>
		<path class="st0" d="M360.4,346.6c3.9,0.3,7.9-1.3,11.7-0.3c1.7,0.5,3.4,1.3,4.9,2.2s2.9,1.9,3.5,3.5c0.3,0.9,1.8,0.5,1.5-0.4
			c-1.2-3.4-5.2-5.2-8.4-6.4c-4.3-1.6-8.7,0.2-13.2-0.1C359.4,345,359.4,346.5,360.4,346.6L360.4,346.6L360.4,346.6z"/>
		<path class="st0" d="M337.8,343.7c4-2.9,8.9-3.8,13.8-4c5.5-0.1,11,0.7,16.4,2.1c0.9,0.2,1.3-1.2,0.4-1.5
			c-5.6-1.5-11.4-2.3-17.2-2.1c-5,0.2-10,1.2-14.1,4.1C336.2,343,337,344.3,337.8,343.7L337.8,343.7L337.8,343.7z"/>
		<path class="st0" d="M319.5,344.3c9.7-1.9,19.6-2.3,29.4-1.4c1,0.1,1-1.4,0-1.5c-10-0.9-20-0.4-29.8,1.5
			C318.1,343,318.5,344.5,319.5,344.3L319.5,344.3L319.5,344.3z"/>
		<path class="st0" d="M302.4,339.9c-9.2-2.9-19.1-3.3-28.5-1.3c-0.9,0.2-0.5,1.6,0.4,1.5c9.2-2,18.7-1.5,27.7,1.3
			C302.9,341.7,303.3,340.2,302.4,339.9L302.4,339.9L302.4,339.9z"/>
		<path class="st0" d="M311.9,343.4c0.6-4-4.4-4.4-7.2-4.6c-4.4-0.4-8.9-0.5-13.3-0.3c-8.8,0.5-17.4,2.3-25.6,5.4
			c-0.9,0.3-0.5,1.8,0.4,1.5c7.2-2.7,14.8-4.5,22.5-5.1c3.8-0.3,7.6-0.4,11.4-0.2c1.8,0.1,3.7,0.2,5.5,0.4c1.5,0.2,5.2,0.3,4.8,2.6
			C310.3,343.9,311.7,344.3,311.9,343.4L311.9,343.4L311.9,343.4z"/>
		<path class="st0" d="M321.2,343.5c8.7-1.3,17.4-2.3,26.1-3.1c6.8-0.6,14.8-1.4,20.5,3.2c0.7,0.6,1.8-0.5,1.1-1.1
			c-5.8-4.7-13.5-4.4-20.5-3.8c-9.2,0.8-18.4,1.9-27.5,3.2C319.9,342.2,320.3,343.6,321.2,343.5L321.2,343.5L321.2,343.5z"/>
		<path class="st0" d="M269,348.3c-3.5,0.9-7.2,0-10.6,1.2c-2.8,1-5.1,3.7-4.4,6.8c0.2,0.9,1.7,0.5,1.4-0.4
			c-0.7-2.9,2.3-4.9,4.7-5.4c3-0.6,6.2-0.1,9.2-0.8C270.4,349.5,270,348,269,348.3L269,348.3L269,348.3z"/>
		<path class="st0" d="M263.5,356.5c-1.8-1.8-4.4-2.7-6.9-2.5s-4.9,1.5-5.4,4c-0.2,0.9,1.2,1.3,1.4,0.4c0.4-2,2.5-2.9,4.4-2.9
			c2,0,4.1,0.7,5.5,2.1C263.1,358.2,264.2,357.2,263.5,356.5L263.5,356.5L263.5,356.5z"/>
		<path class="st0" d="M370,362.5c2.2,1,4.8,0.2,6.5-1.5c1.9-1.9,2.6-4.5,3.1-7c0.2-0.9-1.2-1.3-1.5-0.4c-0.5,2.1-1,4.4-2.5,6.1
			c-1.2,1.3-3.2,2.3-5,1.5c-0.4-0.2-0.8-0.1-1,0.3C369.5,361.8,369.6,362.3,370,362.5L370,362.5L370,362.5z"/>
		<path class="st0" d="M379,346.6c3.6-0.4,7.3-0.2,10.8,0.8c0.9,0.3,1.3-1.2,0.4-1.5c-3.6-1-7.4-1.3-11.2-0.9
			c-0.4,0-0.8,0.3-0.8,0.8C378.3,346.2,378.6,346.6,379,346.6L379,346.6z"/>
		<path class="st0" d="M349.8,348.6c10.6-2.1,21.7-4.2,32.3-1.3c0.9,0.2,1.3-1.2,0.4-1.5c-10.9-2.9-22.2-0.8-33.1,1.3
			C348.5,347.3,348.9,348.8,349.8,348.6L349.8,348.6z"/>
		<path class="st0" d="M379.5,358.4c6.3,0,12.6,0.2,18.9,0.8c1,0.1,1-1.4,0-1.5c-6.3-0.6-12.6-0.8-18.9-0.8
			C378.6,356.9,378.6,358.4,379.5,358.4L379.5,358.4L379.5,358.4z"/>
		<path class="st0" d="M371.6,368.9c4,0.5,8.5,0.6,12-2s3.4-6.5,4.7-10.2c0.3-0.9-1.1-1.3-1.5-0.4c-1.1,3.2-1.2,7.2-4.2,9.4
			c-3.2,2.3-7.3,2-11,1.6C370.6,367.3,370.7,368.8,371.6,368.9L371.6,368.9z"/>
		<path class="st0" d="M244.5,345.6c0,1.3-0.6,2.5-0.7,3.8c-0.1,1.2,0.2,2.5,0.6,3.6c0.7,1.9,1.8,3.7,3.1,5.2
			c2.8,3.1,6.6,5,10.7,5.5c1,0.1,1-1.4,0-1.5c-3.7-0.4-7.2-2.2-9.6-5c-1.2-1.4-2.2-3-2.8-4.8c-0.4-1.1-0.6-2.3-0.4-3.5
			s0.6-2.1,0.6-3.2C246,344.7,244.5,344.7,244.5,345.6L244.5,345.6z"/>
		<path class="st0" d="M258.2,349c-0.8,3.6,1.5,6.9,4.3,9.1c3,2.3,6.6,3.5,10.2,4.1c8.3,1.2,17.1-0.6,24.9-3.4
			c0.9-0.3,0.5-1.8-0.4-1.5c-7,2.5-14.8,4.2-22.3,3.6c-3.4-0.3-6.8-1.1-9.7-2.8s-6.3-4.9-5.5-8.7C259.8,348.4,258.4,348,258.2,349
			L258.2,349L258.2,349z"/>
		<path class="st0" d="M281,366.2c8,1.8,16.2,2.7,24.4,2.4c6.7-0.2,13.8-1.1,19.2-5.6c0.7-0.6-0.3-1.7-1.1-1.1
			c-5.3,4.4-12.5,5-19.1,5.2c-7.8,0.2-15.5-0.6-23.1-2.4C280.4,364.5,280,366,281,366.2L281,366.2L281,366.2z"/>
		<path class="st0" d="M317.8,380.6c12.6,5.2,27.3,4.3,39.3-2c3.4-1.8,6.6-4,9.4-6.7c0.7-0.7-0.4-1.7-1.1-1.1
			c-9.7,9-23.6,13.1-36.7,11.2c-3.6-0.5-7.2-1.5-10.6-2.9C317.3,378.8,316.9,380.2,317.8,380.6L317.8,380.6L317.8,380.6z"/>
		<path class="st0" d="M349.2,380.9c7.7,1.9,15.6,3.2,23.5,3.9c3.5,0.3,7.1,0.3,10.3-1.3c3-1.5,5.3-4,7.5-6.5
			c0.6-0.7-0.4-1.8-1.1-1.1c-2.1,2.4-4.3,4.8-7.2,6.2c-3.3,1.6-7,1.3-10.5,1c-7.5-0.7-14.9-2-22.1-3.8
			C348.6,379.2,348.2,380.7,349.2,380.9L349.2,380.9L349.2,380.9z"/>
		<path class="st0" d="M259.1,372.3c-4.4,0.8-8.8,1.4-13.2,1.6c-3.5,0.2-9,0.5-10.2-3.8c-0.3-0.9-1.7-0.5-1.4,0.4
			c1.2,4.3,6,5,9.8,4.9c5.2-0.1,10.4-0.8,15.5-1.7C260.4,373.6,260,372.2,259.1,372.3L259.1,372.3L259.1,372.3z"/>
		<path class="st0" d="M242.9,374.3c5.1,3.6,10.1,6.8,16.5,7.4c6.6,0.7,13.5,0.1,20.1-0.5c1-0.1,1-1.6,0-1.5
			c-6.3,0.6-12.8,1.1-19.2,0.6c-3.2-0.2-6.2-1-9-2.4s-5.2-3.1-7.6-4.9C242.8,372.4,242.1,373.7,242.9,374.3L242.9,374.3L242.9,374.3
			z"/>
		<path class="st0" d="M278.4,381.2c-4.6,2.2-9.7,3.3-14.8,3.1c-1,0-1,1.5,0,1.5c5.4,0.2,10.7-0.9,15.5-3.3
			C280,382.1,279.3,380.8,278.4,381.2L278.4,381.2L278.4,381.2z"/>
		<path class="st23" d="M245.6,349.2c0.2,5,4.6,8,8.5,10.3c0.3,0.2,0.6-0.3,0.3-0.5c-3.6-2.2-8-5-8.2-9.8
			C246.2,348.8,245.6,348.8,245.6,349.2L245.6,349.2z"/>
		<path class="st23" d="M258,345.1c-0.4,0-0.7,0.3-0.8,0.6c-0.2,0.5-0.1,1,0,1.5c0.2,1.4,0.5,2.8,0.8,4.2c0.1,0.4,0.6,0.2,0.6-0.2
			c-0.2-1.1-0.4-2.2-0.6-3.4c0-0.3-0.6-2.2,0.1-2.1C258.4,345.7,258.4,345.1,258,345.1L258,345.1L258,345.1z"/>
		<path class="st23" d="M280.6,369.7c-2.3,1.1-5.1,0.9-7.6,0.8c-2.7,0-5.3-0.2-8-0.4s-5.2-0.4-7.8-1s-4.9-1.7-5.9-4.2
			c-0.1-0.4-0.7-0.2-0.6,0.2c1.8,5,8.4,5.1,12.8,5.5c3.1,0.3,6.3,0.5,9.4,0.5c2.6,0,5.4,0.2,7.9-0.9
			C281.3,370.1,281,369.5,280.6,369.7L280.6,369.7L280.6,369.7z"/>
		<path class="st23" d="M249.5,373.9c4.6,6.3,13.2,4.4,19.6,2.5c0.4-0.1,0.2-0.7-0.2-0.6c-6,1.7-14.4,3.8-18.9-2.2
			C249.8,373.3,249.3,373.6,249.5,373.9L249.5,373.9z"/>
		<path class="st23" d="M279.7,375.4c3.2,2,6.8,3.2,10.6,3.6c2.8,0.3,6.5,0.3,8.3-2.3c0.2-0.3-0.3-0.6-0.5-0.3
			c-1.8,2.6-5.8,2.3-8.5,1.9c-3.4-0.5-6.6-1.6-9.5-3.4C279.7,374.7,279.4,375.2,279.7,375.4L279.7,375.4L279.7,375.4z"/>
		<path class="st23" d="M300.7,367c2.7,3.4,7.1,4.8,11.3,4.8c5.6,0,10.9-2.1,16.3-3c0.4-0.1,0.2-0.6-0.2-0.6
			c-5.1,0.8-10.1,2.8-15.4,3c-4.3,0.1-8.9-1-11.6-4.6C300.9,366.3,300.5,366.7,300.7,367L300.7,367L300.7,367z"/>
		<path class="st23" d="M328.4,374.4c2.5,0.5,5.1,0.7,7.6,0.7c1.2,0,2.5,0,3.7-0.2c1-0.1,2-0.3,2.8-0.9c0.3-0.2,0-0.8-0.3-0.5
			c-0.9,0.6-1.9,0.8-3,0.8c-1.2,0.1-2.3,0.1-3.5,0.1c-2.4,0-4.8-0.2-7.2-0.7C328.1,373.7,328,374.3,328.4,374.4L328.4,374.4
			L328.4,374.4z"/>
		<path class="st23" d="M377.9,370.1c5-1.1,9.7-3.3,13.7-6.4c3.5-2.7,7.1-6.5,6.9-11.2c0-0.4-0.6-0.4-0.6,0
			c0.2,4.9-3.8,8.7-7.4,11.3s-8.2,4.7-12.8,5.7C377.3,369.6,377.5,370.2,377.9,370.1L377.9,370.1L377.9,370.1z"/>
		<path class="st23" d="M395.7,351.4c-2.3,2-4.7,3.8-7.3,5.4c-1.3,0.8-2.6,1.5-3.9,2.1c-0.7,0.3-1.3,0.6-2,0.9
			c-0.6,0.3-1.7,0.9-2.3,0.3c-0.3-0.3-0.7,0.1-0.4,0.4c0.9,1,2.3,0.1,3.3-0.3c1.6-0.7,3.2-1.5,4.7-2.4c3-1.7,5.8-3.7,8.3-6
			C396.4,351.5,396,351.1,395.7,351.4L395.7,351.4L395.7,351.4z"/>
		<path class="st23" d="M392,356.5c4.2-4.4,3.2-10.9,2.1-16.3c-0.1-0.4-0.7-0.2-0.6,0.2c1,5.2,2.1,11.5-1.9,15.7
			C391.3,356.3,391.8,356.7,392,356.5L392,356.5L392,356.5z"/>
		<path class="st23" d="M373.4,342.7c4,0,7.9,1.2,11.1,3.5c0.3,0.2,0.6-0.3,0.3-0.5c-3.3-2.3-7.3-3.6-11.4-3.5
			C373,342.1,373,342.7,373.4,342.7L373.4,342.7L373.4,342.7z"/>
		<path class="st23" d="M364.2,344.5c3.2-0.1,6.4-0.1,9.6-0.2c1.6,0,3.1-0.1,4.7-0.1c0.5,0,1.1-0.1,1.5,0.2c0.4,0.2,0.6,0.7,0.9,1.1
			c0.5,0.7,1,1.4,1.4,2.1c0.2,0.3,0.7,0,0.5-0.3c-0.5-0.8-1.1-1.6-1.6-2.4c-0.3-0.5-0.6-0.9-1.2-1.1c-0.6-0.3-1.4-0.2-2.1-0.1
			l-2.7,0.1c-3.7,0.1-7.4,0.2-11.1,0.2C363.8,343.9,363.8,344.5,364.2,344.5L364.2,344.5L364.2,344.5z"/>
		<path class="st23" d="M374.1,362.5c0,1.2,1.8,1.1,2.6,1.1c1.6,0,3.2-0.2,4.8-0.5c2.1-0.4,6.6-1.1,6.2-4.2c0-0.4-0.6-0.4-0.6,0
			c0.3,2.6-3.5,3.2-5.3,3.5c-0.7,0.1-7.1,1.2-7.2,0.1C374.8,362.1,374.2,362.1,374.1,362.5L374.1,362.5L374.1,362.5z"/>
		<path class="st23" d="M374.1,370.9c0.2,2.4,1.9,4.9,4.6,4.2c1.6-0.4,3-1.7,4.3-2.6c1.5-1.1,3-2.1,4.6-3.2c0.3-0.2,0-0.7-0.3-0.5
			c-1.2,0.9-2.5,1.8-3.7,2.6s-2.4,1.8-3.6,2.5c-1.2,0.7-2.6,1.1-3.8,0.1c-0.9-0.8-1.3-2-1.4-3.1C374.6,370.5,374,370.5,374.1,370.9
			L374.1,370.9L374.1,370.9z"/>
		<path class="st23" d="M360.8,378.4c0.4,1.5,2,1.8,3.3,1.9c2.5,0.2,5.2,0.3,7.7,0.1c4-0.4,8.1-1.9,10.6-5.2
			c0.2-0.3-0.3-0.6-0.5-0.3c-2.2,3.1-6,4.5-9.7,4.9c-2,0.2-4,0.2-6,0.1c-1.4-0.1-4.3,0.2-4.8-1.6
			C361.2,377.9,360.7,378.1,360.8,378.4L360.8,378.4z"/>
		<path class="st23" d="M362.2,372.5c4.6,0.3,9.4,0.6,14,0c1.7-0.2,3.9-0.4,5.4-1.3c1.4-0.9,1.3-2.4,1-3.9c-0.1-0.4-0.7-0.2-0.6,0.2
			c0.2,1.1,0.5,2.4-0.6,3.1c-0.6,0.4-1.4,0.6-2.1,0.8c-1.9,0.4-3.8,0.7-5.8,0.8c-3.8,0.2-7.6,0-11.3-0.2
			C361.8,371.9,361.8,372.5,362.2,372.5L362.2,372.5L362.2,372.5z"/>
		<path class="st23" d="M363.6,368.9c-6,2.2-12.4,3.3-18.8,3.4c-0.4,0-0.4,0.6,0,0.6c6.5-0.1,12.9-1.2,19-3.5
			C364.2,369.3,364,368.8,363.6,368.9L363.6,368.9z"/>
		<path class="st23" d="M343.5,373.1c1.8,3.6,6.2,5,9.9,5.7c4.8,1,9.7,0.8,14.4-0.4c0.4-0.1,0.2-0.7-0.2-0.6
			c-4.5,1.1-9.1,1.3-13.7,0.5c-3.7-0.7-8.1-1.9-10-5.5C343.9,372.5,343.3,372.8,343.5,373.1L343.5,373.1L343.5,373.1z"/>
		<path class="st23" d="M347.1,378.8c-4.8,0.2-9.6,0-14.3-0.6c-0.4,0-0.4,0.5,0,0.6c4.8,0.6,9.5,0.8,14.3,0.6
			C347.5,379.3,347.5,378.7,347.1,378.8L347.1,378.8z"/>
		<path class="st23" d="M327.1,373c5.2,0.8,10.6-2.2,12.5-7.1c0.1-0.4-0.4-0.5-0.6-0.2c-1.8,4.6-6.9,7.5-11.8,6.7
			C326.9,372.3,326.7,372.9,327.1,373L327.1,373L327.1,373z"/>
		<path class="st23" d="M334.3,370.6c-3.3,3.5-7.8,5.2-12.4,6.2s-10.1,2-14.2-0.6c-0.3-0.2-0.6,0.3-0.3,0.5
			c4.2,2.7,9.7,1.7,14.3,0.8s9.6-2.8,13-6.5C335,370.8,334.6,370.4,334.3,370.6L334.3,370.6L334.3,370.6z"/>
		<path class="st23" d="M296,372.6c1.5,3.5,4.4,6.3,7.9,7.7c0.4,0.1,0.5-0.4,0.2-0.6c-3.4-1.4-6.1-4.1-7.6-7.5
			C296.3,372,295.8,372.3,296,372.6L296,372.6z"/>
		<path class="st23" d="M305.5,372c2.3,2.2,4.6,4.4,6.9,6.6c0.3,0.3,0.7-0.2,0.4-0.4l-6.9-6.6C305.6,371.3,305.2,371.7,305.5,372
			L305.5,372z"/>
		<path class="st23" d="M319.1,380c4.7,2.1,10.2,2.2,15,0.3c0.4-0.1,0.2-0.7-0.2-0.6c-4.6,1.9-9.9,1.9-14.5-0.2
			C319.1,379.4,318.8,379.9,319.1,380L319.1,380L319.1,380z"/>
		<path class="st23" d="M335.4,380.8c-7,4.2-15.1,6.3-23.3,5.8c-0.4,0-0.4,0.6,0,0.6c8.3,0.5,16.5-1.6,23.6-5.9
			C336,381.1,335.7,380.6,335.4,380.8L335.4,380.8L335.4,380.8z"/>
		<path class="st23" d="M307.5,383.7c4.7,4.5,11.3,6.5,17.7,5.5c0.4-0.1,0.2-0.6-0.2-0.6c-6.2,1-12.6-1-17.1-5.4
			C307.6,383,307.2,383.5,307.5,383.7L307.5,383.7L307.5,383.7z"/>
		<path class="st23" d="M325.9,386c-11.7-1.1-23-4.6-33.4-10.1c-0.3-0.2-0.6,0.3-0.3,0.5c10.4,5.6,21.9,9.1,33.6,10.2
			C326.3,386.6,326.3,386,325.9,386L325.9,386L325.9,386z"/>
		<path class="st23" d="M289.8,373.1c-7.3-3-13.7-7.7-18.7-13.8c-0.2-0.3-0.7,0.1-0.4,0.4c5.1,6.1,11.6,10.9,18.9,13.9
			C289.9,373.9,290.1,373.3,289.8,373.1L289.8,373.1L289.8,373.1z"/>
		<path class="st23" d="M270.6,363.1c2,3.3,4.7,6.2,7.8,8.4c0.3,0.2,0.6-0.3,0.3-0.5c-3.1-2.2-5.7-5-7.6-8.2
			C270.9,362.4,270.4,362.7,270.6,363.1L270.6,363.1L270.6,363.1z"/>
		<path class="st23" d="M268.5,368.3c-9.1-2.6-17.1-8.6-22.1-16.6c-0.2-0.3-0.7,0-0.5,0.3c5.1,8.2,13.1,14.3,22.4,16.9
			C268.7,369,268.9,368.4,268.5,368.3L268.5,368.3L268.5,368.3z"/>
		<path class="st23" d="M247.4,353.3c0.9,4.9,2.6,10.4,7.4,12.7c0.4,0.2,0.6-0.4,0.3-0.5c-4.7-2.3-6.2-7.6-7.1-12.4
			C247.9,352.8,247.4,352.9,247.4,353.3L247.4,353.3L247.4,353.3z"/>
		<path class="st23" d="M259,366.1c-2.7-0.4-5.4,0.4-8.2,0.2c-2.1-0.2-4.4-1.1-5.3-3.2c-0.1-0.4-0.7,0-0.5,0.3
			c0.9,2.1,3.1,3.1,5.2,3.4c2.9,0.4,5.9-0.5,8.8-0.1C259.4,366.8,259.4,366.2,259,366.1L259,366.1L259,366.1z"/>
		<path class="st23" d="M243.8,366.8c0.1,1.2,1,2,1.8,2.8c1,1,2.1,1.9,3.2,2.8c2.2,1.8,4.5,3.3,6.9,4.8c0.3,0.2,0.6-0.3,0.3-0.5
			c-2.2-1.3-4.4-2.8-6.4-4.4c-1-0.8-1.9-1.6-2.9-2.5c-0.9-0.8-2.2-1.7-2.3-3C244.4,366.4,243.8,366.4,243.8,366.8L243.8,366.8
			L243.8,366.8z"/>
		<path class="st23" d="M269.8,377.3c-0.3,2-2.6,3.1-4.2,3.9c-2.2,1.1-4.4,2.1-6.6,3c-0.4,0.1-0.2,0.7,0.2,0.6c2.5-1,5-2.1,7.3-3.3
			c1.7-0.9,3.7-2,3.9-4.1C270.4,376.9,269.8,376.9,269.8,377.3L269.8,377.3L269.8,377.3z"/>
		<path class="st23" d="M284,384.5c5.8,1.5,10.8-2.3,16-4.1c0.4-0.1,0.2-0.7-0.2-0.6c-5,1.7-10.1,5.5-15.7,4.1
			C283.8,383.9,283.6,384.4,284,384.5L284,384.5L284,384.5z"/>
		<path class="st23" d="M277.7,374.9c-1.3,2.7,1.1,4.8,3.3,5.9c3.2,1.5,6.7,2.6,10.1,3.3c7.2,1.5,14.6,1.7,22,1.9
			c0.4,0,0.4-0.6,0-0.6c-6.4-0.1-12.8-0.3-19.2-1.3c-3-0.5-6-1.2-8.8-2.2c-2.5-0.9-8.8-2.8-6.9-6.6
			C278.4,374.9,277.9,374.6,277.7,374.9L277.7,374.9L277.7,374.9z"/>
		<path class="st23" d="M325.9,387.7c5.1,0.5,10.3,0.7,15.5,0.5c4.4-0.2,9-0.4,12.8-2.6c0.3-0.2,0-0.7-0.3-0.5
			c-4,2.3-8.9,2.5-13.5,2.6c-4.8,0.1-9.7,0-14.5-0.5C325.5,387,325.5,387.6,325.9,387.7L325.9,387.7L325.9,387.7z"/>
		<path class="st23" d="M358.7,382.1c-11.2,6.6-25.8,6.3-36.8-0.7c-0.3-0.2-0.6,0.3-0.3,0.5c11.1,7.1,26,7.4,37.4,0.7
			C359.3,382.5,359,381.9,358.7,382.1L358.7,382.1L358.7,382.1z"/>
		<path class="st23" d="M277.5,342.6l-8.1-2.1c-1.4-0.4-5-1.8-5.2,0.8c0,0.4,0.6,0.4,0.6,0c0.1-1.5,2.1-0.8,3-0.6l3.2,0.8l6.4,1.6
			C277.7,343.2,277.9,342.7,277.5,342.6L277.5,342.6L277.5,342.6z"/>
		<path class="st23" d="M291.5,343.5c-5.7-1.5-11.6-2.3-17.5-2.5c-0.4,0-0.4,0.6,0,0.6c5.8,0.2,11.6,1.1,17.3,2.5
			C291.7,344.2,291.9,343.6,291.5,343.5L291.5,343.5L291.5,343.5z"/>
		<path class="st23" d="M293,353.3c-0.1-3-1.6-5.9-3.9-7.9s-5.6-2.8-8.7-2.3c-0.4,0.1-0.2,0.6,0.2,0.6c2.9-0.5,6,0.3,8.3,2.3
			c2.1,1.8,3.4,4.5,3.6,7.3C292.4,353.7,293,353.7,293,353.3L293,353.3z"/>
		<path class="st23" d="M277.2,349.4c-3-0.7-5.9-1.4-8.8-2.1c-1.9-0.4-5.2-1.7-6.2,0.7c-0.1,0.4,0.4,0.7,0.5,0.3
			c0.6-1.3,2.1-1.2,3.2-1c1.2,0.3,2.5,0.6,3.7,0.9l7.4,1.8C277.5,350.1,277.6,349.5,277.2,349.4L277.2,349.4L277.2,349.4z"/>
		<path class="st23" d="M275.2,353.1c-0.7-1.4-2-2.5-3.2-3.5c-1.2-1.1-2.5-2.2-4-3c-2.6-1.5-5.9-2.2-8.7-0.8c-0.3,0.2,0,0.7,0.3,0.5
			c2.8-1.4,6-0.5,8.5,1.1c1.3,0.8,2.4,1.8,3.5,2.8s2.3,2,3,3.3C274.9,353.7,275.4,353.4,275.2,353.1L275.2,353.1L275.2,353.1z"/>
		<path class="st23" d="M261.8,354.3c-1.5-0.1-3,0.5-4,1.7c-0.2,0.3,0.2,0.7,0.4,0.4c0.9-1,2.2-1.6,3.6-1.5c0.2,0,0.3-0.1,0.3-0.3
			C262.1,354.4,262,354.3,261.8,354.3L261.8,354.3L261.8,354.3z"/>
		<path class="st23" d="M344.3,350.5c-0.7-0.6,2.1-1.9,2.4-2c0.9-0.5,1.7-0.9,2.6-1.4c0.7-0.4,1.5-0.8,2.2-1.2
			c0.9-0.5,1.8-1.1,2.8-1.4c0.9-0.3,1.9-0.1,2.8,0c0.9,0.1,1.7,0.2,2.5,0.2c1.8,0.2,3.8,0.1,5.3,1.2c0.3,0.2,0.6-0.3,0.3-0.5
			c-1.6-1.2-3.9-1.1-5.8-1.3c-1.2-0.1-2.5-0.3-3.7-0.4c-1.1-0.1-1.9,0.2-2.8,0.8c-2.3,1.2-4.6,2.5-6.8,3.7c-0.7,0.4-3.6,1.5-2.1,2.8
			C344.1,351.2,344.6,350.7,344.3,350.5L344.3,350.5L344.3,350.5z"/>
		<path class="st23" d="M361,351.5c-0.4-0.6,2-0.9,2.2-0.9c0.8-0.1,1.6-0.2,2.4-0.4c1.5-0.2,3-0.5,4.4-0.7s2.7-0.4,3.8,0.7
			c0.9,0.8,1.4,1.9,1.9,2.9c0.2,0.4,0.7,0,0.5-0.3c-0.6-1.2-1.2-2.5-2.4-3.4c-1.4-1-2.9-0.7-4.5-0.5c-2.1,0.3-4.1,0.7-6.2,1
			c-0.7,0.1-3.7,0.3-2.7,1.8C360.7,352.2,361.2,351.9,361,351.5L361,351.5L361,351.5z"/>
		<path class="st23" d="M370.1,356.7c6.2,0.3,12.4,0.3,18.6,0.2c0.4,0,0.4-0.6,0-0.6c-6.2,0.1-12.4,0.1-18.6-0.2
			C369.7,356.1,369.7,356.7,370.1,356.7L370.1,356.7L370.1,356.7z"/>
		<path class="st23" d="M337.6,346.8c-0.6-1.2,0.2-2.4,1-3.2s1.7-1.6,2.7-2.1c1-0.6,2.1-0.7,3.2-0.3c1,0.3,2,0.8,3.1,0.7
			c0.4,0,0.4-0.6,0-0.6c-1.4,0.1-2.5-0.7-3.8-0.9s-2.4,0.3-3.4,1c-1.7,1.2-4.5,3.4-3.3,5.8C337.3,347.4,337.8,347.1,337.6,346.8
			L337.6,346.8L337.6,346.8z"/>
		<path class="st23" d="M316.8,353.5c-0.3-2-0.7-4-1.9-5.7c-1.1-1.5-2.9-2.3-4.7-2.6c-4.7-0.9-9.9-0.4-14.5,0.7
			c-0.4,0.1-0.2,0.7,0.2,0.6c4.3-1,9-1.4,13.4-0.8c2,0.3,4.1,0.9,5.3,2.7c1,1.5,1.4,3.5,1.6,5.3C316.3,354,316.9,353.8,316.8,353.5
			L316.8,353.5L316.8,353.5z"/>
		<path class="st23" d="M326.4,354.2c-0.8-2.3-1.4-5.4,0.8-7.1c1.8-1.4,4.3-1.4,6.4-1.5c5.8-0.2,11.6-0.4,17.4-0.5
			c0.4,0,0.4-0.6,0-0.6c-3.5,0.1-7,0.2-10.4,0.3c-3.1,0.1-6.4,0-9.5,0.4c-1.9,0.2-3.9,0.8-5.1,2.4c-1.5,2-0.9,4.7-0.1,6.9
			C326,354.8,326.5,354.6,326.4,354.2L326.4,354.2L326.4,354.2z"/>
		<g>
			<ellipse class="st21" cx="564.6" cy="372" rx="64" ry="17.5"/>
			<path class="st21" d="M564.6,355c38,0,63.5,8.8,63.5,17s-25.5,17-63.5,17s-63.5-8.8-63.5-17S526.6,355,564.6,355 M564.6,354
				c-35.6,0-64.5,8.1-64.5,18s28.9,18,64.5,18s64.5-8.1,64.5-18S600.2,354,564.6,354L564.6,354z"/>
		</g>
		<g>
			<ellipse class="st22" cx="565.6" cy="354" rx="64" ry="17.5"/>
			<path class="st22" d="M565.6,337c38,0,63.5,8.8,63.5,17s-25.5,17-63.5,17s-63.5-8.8-63.5-17S527.6,337,565.6,337 M565.6,336
				c-35.6,0-64.5,8.1-64.5,18s28.9,18,64.5,18s64.5-8.1,64.5-18S601.2,336,565.6,336L565.6,336z"/>
		</g>
		<path class="st21" d="M629,358.5c-0.7,1.6-2,2.7-3.7,3.4c-1.9,0.8-4.3,1-6.4,1.2c-0.8,0.1-1.5,0.6-1.5,1.5c0,0.8,0.7,1.6,1.5,1.5
			c2.7-0.2,5.3-0.5,7.8-1.5c2-0.9,3.9-2.5,4.8-4.5c0.3-0.7,0.2-1.6-0.5-2C630.4,357.6,629.3,357.8,629,358.5L629,358.5L629,358.5z"
			/>
		<path class="st0" d="M500.1,346.5c1.4,3.5,3.2,7.3,7,8.7c3.4,1.2,7.1,0.5,10.5,1.5c0.9,0.3,1.3-1.2,0.4-1.5
			c-3.1-1-6.5-0.5-9.6-1.3c-1.6-0.4-3-1.3-4-2.6c-1.2-1.6-2.1-3.5-2.8-5.3C501.2,345.2,499.7,345.6,500.1,346.5L500.1,346.5
			L500.1,346.5z"/>
		<path class="st0" d="M498.6,352.7c-2,8.2,7.8,11.9,14,13.4c8.2,2,16.7,1.8,25.1,1.4c1,0,1-1.5,0-1.5c-7.5,0.3-15.1,0.5-22.5-0.9
			c-3.5-0.7-7-1.6-10.1-3.3s-5.9-4.9-5-8.7C500.3,352.1,498.8,351.7,498.6,352.7L498.6,352.7L498.6,352.7z"/>
		<path class="st0" d="M633.4,345.2c0.8,3.1,1.9,7.3-0.7,9.8c-1.4,1.3-3.5,2.1-5.2,2.8c-1.9,0.8-3.8,1.6-5.7,2.3
			c-7.5,2.7-15.3,4.2-23.3,4.7c-1,0-1,1.5,0,1.5c8.8-0.5,17.6-2.3,25.8-5.5c2-0.8,4-1.6,6-2.6c1.6-0.8,3.2-1.6,4.3-3.1
			c2-3,1.1-7,0.3-10.2C634.6,343.9,633.1,344.3,633.4,345.2L633.4,345.2L633.4,345.2z"/>
		<path class="st0" d="M596.7,368.3c6.9,2.5,14.6,2.7,21.6,0.6c3.5-1,6.8-2.5,9.8-4.6c1.3-0.9,3-1.9,3.9-3.3
			c1.1-1.6,0.7-3.7,1.8-5.3c0.5-0.8-0.8-1.5-1.3-0.8c-0.9,1.4-0.8,3-1.4,4.4c-0.6,1.7-2.7,2.9-4.1,3.8c-2.9,1.9-6.2,3.4-9.5,4.3
			c-6.7,1.9-13.9,1.6-20.5-0.7C596.2,366.5,595.8,368,596.7,368.3L596.7,368.3L596.7,368.3z"/>
		<path class="st0" d="M616.2,372.4c3,0.6,6.1,0.7,9.1,0.2c1.2-0.2,2.6-0.5,3.6-1.2s1.7-1.9,2.4-3c3.1-4.9,5.1-10.4,5.9-16.1
			c0.1-0.9-1.3-1.4-1.5-0.4c-0.7,5.1-2.4,10.1-5.1,14.6c-0.6,1.1-1.3,2.2-2.1,3.2s-2.1,1.3-3.3,1.5c-2.9,0.5-5.8,0.4-8.7-0.2
			C615.6,370.7,615.2,372.2,616.2,372.4L616.2,372.4L616.2,372.4z"/>
		<path class="st0" d="M617.1,381.1c3.3,0.3,6.6,0.3,9.3-1.8c2.5-1.9,4.4-4.8,6.3-7.3c4-5.4,7.7-11.2,8.3-18.1c0.1-1-1.4-1-1.5,0
			c-0.6,6.2-4,11.7-7.6,16.6c-1.7,2.4-3.5,4.9-5.6,6.9c-2.7,2.5-5.8,2.5-9.3,2.2C616.1,379.6,616.1,381.1,617.1,381.1L617.1,381.1
			L617.1,381.1z"/>
		<path class="st0" d="M589.8,358.8c-8.6,3.8-18.2,4.4-27.5,4.8c-4.8,0.2-9.6,0.1-14.1-1.6s-8.2-4.2-11.9-6.7
			c-0.8-0.5-1.5,0.8-0.8,1.3c6.2,4.2,12.3,7.9,19.9,8.5c4,0.3,8,0,12-0.2c3.7-0.2,7.4-0.6,11.1-1.2c4.2-0.7,8.2-1.8,12.1-3.6
			C591.4,359.7,590.6,358.4,589.8,358.8L589.8,358.8L589.8,358.8z"/>
		<path class="st0" d="M505.9,342.2c-1,3.7-2,7.7-0.4,11.4c1.3,3,4.2,5,7.1,6.5c7.1,3.5,15.2,4.6,23,5c4.7,0.2,9.4,0.2,14.1,0.1
			c1,0,1-1.5,0-1.5c-9.5,0.1-19.3,0.2-28.6-2.2c-4.1-1.1-8.7-2.5-11.9-5.4c-1.8-1.6-2.9-3.6-3-6c-0.2-2.5,0.5-5,1.2-7.5
			C507.6,341.7,506.2,341.3,505.9,342.2L505.9,342.2L505.9,342.2z"/>
		<path class="st0" d="M496,359.7c-0.9,3,0,6.2,1.8,8.6c2,2.6,4.9,4.3,8,5.2c3.7,1.1,7.6,1.5,11.4,2c4.2,0.5,8.4,0.7,12.6,0.8
			c4.8,0.1,9.7-0.1,14.5-0.5c1-0.1,1-1.6,0-1.5c-9.8,0.8-19.6,0.6-29.3-0.6c-4.3-0.5-9-1.1-12.8-3.4c-3.4-2.1-6-6.2-4.8-10.2
			C497.8,359.2,496.3,358.8,496,359.7L496,359.7L496,359.7z"/>
		<path class="st0" d="M509.9,377.4c5.3,3.3,11.3,5,17.3,6.2c6.7,1.4,13.4,2.5,20.1,3.4c13.7,1.9,27.5,3,41.3,2.8
			c6.8-0.1,14-0.2,20.3-3.2c0.9-0.4,0.1-1.7-0.8-1.3c-5.6,2.7-12,2.9-18.1,3c-6.7,0.1-13.5,0-20.2-0.5c-13.4-0.8-26.7-2.6-39.8-5.2
			c-6.7-1.3-13.5-2.9-19.3-6.5C509.9,375.6,509.1,376.9,509.9,377.4L509.9,377.4L509.9,377.4z"/>
		<path class="st0" d="M615.3,368.4c-3,8.2-11.5,12.5-19.7,14.1c-4.7,0.9-9.6,1.2-14.5,1.3s-9.8-0.2-14.3-2.2
			c-0.9-0.4-1.6,0.9-0.8,1.3c7.3,3.2,15.8,2.6,23.5,2s14.8-2.4,20.7-7.2c2.9-2.4,5.1-5.4,6.4-8.9
			C617.1,367.9,615.6,367.5,615.3,368.4L615.3,368.4L615.3,368.4z"/>
		<path class="st0" d="M592.4,370.1c4,0.8,8,1.1,12,0.8c2-0.1,3.9-0.4,5.9-0.7c1.6-0.3,3.3-0.7,4.5-1.8s1.8-2.6,2.4-4.1
			c0.7-1.8,1.2-3.6,1.3-5.5c0.3-3.3-0.6-6.7-2.9-9.1c-0.7-0.7-1.7,0.4-1.1,1.1c2.1,2.2,2.8,5.3,2.5,8.3c-0.2,1.7-0.7,3.4-1.3,5.1
			c-0.6,1.5-1.3,3-2.7,3.7c-1.3,0.7-3,0.9-4.5,1.1c-1.7,0.3-3.5,0.4-5.2,0.5c-3.5,0.1-7-0.2-10.5-0.8
			C591.9,368.4,591.5,369.9,592.4,370.1L592.4,370.1L592.4,370.1z"/>
		<path class="st0" d="M619.7,344.7c2,4.9,0.1,10.6-3.5,14.2c-4,4-9.7,5.7-15.2,6.2c-1,0.1-1,1.6,0,1.5c6-0.5,12.2-2.4,16.5-6.8
			c3.8-4,5.8-10.1,3.7-15.5C620.8,343.4,619.4,343.8,619.7,344.7L619.7,344.7z"/>
		<path class="st0" d="M629.3,356.7c0.7-5.2,3.7-10.2,2.2-15.6c-0.3-0.9-1.7-0.5-1.5,0.4c1.4,5.1-1.6,10.2-2.2,15.2
			C627.6,357.7,629.1,357.6,629.3,356.7L629.3,356.7z"/>
		<path class="st0" d="M526.2,337.9c-1.5-0.9-3.7-0.7-5.4-0.8c-2.3-0.1-4.7-0.1-7-0.1c-4.5,0.1-8.9,0.6-13.4,1.3
			c-1,0.2-0.5,1.6,0.4,1.5c4.1-0.7,8.3-1.1,12.5-1.2c2-0.1,4-0.1,6,0c1,0,1.9,0.1,2.9,0.1s2.3,0,3.2,0.5
			C526.2,339.6,527,338.4,526.2,337.9L526.2,337.9L526.2,337.9z"/>
		<path class="st0" d="M497.6,342.5c-2.1,1.8-3.3,4-1.5,6.6c1.6,2.3,4.5,4,7,5.4c5.6,3.1,11.8,4.7,17.9,6.3c0.9,0.2,1.3-1.2,0.4-1.5
			c-5.2-1.4-10.4-2.7-15.3-5c-2.4-1.1-4.7-2.5-6.8-4.1c-1-0.8-2.1-1.7-2.5-3c-0.5-1.6,0.8-2.7,1.9-3.6
			C499.4,342.9,498.4,341.9,497.6,342.5L497.6,342.5L497.6,342.5z"/>
		<path class="st0" d="M505.5,364.9c-4-2.4-8.5-5.2-9.5-10.2c-0.2-1-1.6-0.5-1.5,0.4c1.1,5.3,5.9,8.4,10.1,11.1
			C505.5,366.7,506.3,365.4,505.5,364.9L505.5,364.9z"/>
		<path class="st0" d="M490.7,355.4c-0.3,5.1,1.9,9.9,5.2,13.6c3.5,4,8.3,6.5,13.2,8.2c5.7,2,11.7,3.3,17.7,4.3s12.1,1.6,18.3,1.8
			c7.2,0.2,14.3-0.1,21.5-1c1-0.1,1-1.6,0-1.5c-11.9,1.5-23.9,1.4-35.8-0.2c-5.8-0.8-11.5-1.9-17.2-3.5c-5.1-1.5-10.3-3.5-14.4-7
			c-4.3-3.7-7.4-9-7-14.8C492.2,354.4,490.7,354.4,490.7,355.4L490.7,355.4L490.7,355.4z"/>
		<path class="st0" d="M548.7,374.3c7.5,2.5,15.3,4.2,23.2,5.1c4,0.5,8,0.8,12,0.8c3.2,0.1,6.8,0.3,9.5-1.7s4-5.5,7-7.1
			c0.8-0.5,0.1-1.8-0.8-1.3c-3.2,1.7-4.5,5.4-7.4,7.4c-2,1.3-4.4,1.3-6.7,1.2c-2.4,0-4.9-0.1-7.3-0.3c-9.9-0.7-19.7-2.6-29.1-5.6
			C548.2,372.6,547.8,374,548.7,374.3L548.7,374.3L548.7,374.3z"/>
		<path class="st0" d="M574.4,368.1c-4.3-0.5-8.5-1-12.8-1.5l-6.4-0.7c-2-0.2-4.1-0.4-6-1.3c-0.9-0.4-1.6,0.9-0.8,1.3
			c1.7,0.8,3.5,1.1,5.3,1.4c2.3,0.3,4.5,0.5,6.8,0.8c4.6,0.5,9.2,1.1,13.8,1.6C575.4,369.7,575.4,368.2,574.4,368.1L574.4,368.1
			L574.4,368.1z"/>
		<path class="st0" d="M566,368.3c7.9-0.4,15.7-1.4,23.5-2.8c3.7-0.7,7.4-1.4,11-2.5c2.6-0.8,5.2-2,6.6-4.4c0.5-0.8-0.8-1.6-1.3-0.8
			c-1.5,2.6-4.4,3.4-7.1,4.1c-3.5,0.9-7.1,1.6-10.6,2.3c-7.3,1.4-14.7,2.2-22.1,2.6C565.1,366.9,565.1,368.4,566,368.3L566,368.3
			L566,368.3z"/>
		<path class="st0" d="M603.6,356.1c2.8,0.7,5.7,0.8,8.6,0.7c2.7-0.1,5.4-0.2,8-0.6c2.4-0.3,4.8-1,6.8-2.3s3.6-3.5,5-5.5
			c0.6-0.8-0.7-1.5-1.3-0.8c-1.4,1.9-2.8,3.9-4.8,5.2s-4.4,1.8-6.7,2c-4.9,0.6-10.3,1-15.2-0.2C603.1,354.5,602.7,355.9,603.6,356.1
			L603.6,356.1L603.6,356.1z"/>
		<path class="st0" d="M632.3,342.8c-2.2,3.9-6.2,6.1-10.2,7.6c-5,1.9-10.2,2.9-15.4,3.3c-1,0.1-1,1.6,0,1.5
			c5.7-0.4,11.3-1.5,16.5-3.6c4.2-1.6,8.2-4,10.4-8C634.1,342.7,632.8,342,632.3,342.8L632.3,342.8z"/>
		<path class="st0" d="M607.5,361.2c5.2,1.9,10.4,3.9,15.9,5c4.2,0.9,9.7,1.5,12.3-2.8c0.5-0.8-0.8-1.6-1.3-0.8
			c-2.6,4.3-9,2.6-12.9,1.6c-4.6-1.1-9.1-2.8-13.6-4.5C607,359.4,606.6,360.9,607.5,361.2L607.5,361.2L607.5,361.2z"/>
		<path class="st0" d="M613.8,363.9c0.3,2.4,2.3,3.8,4.5,4.3c3,0.6,6.2,0.5,9.2,0.2c4.7-0.5,11.5-1.6,12-7.4c0.1-1-1.4-1-1.5,0
			c-0.5,4.7-6.9,5.5-10.5,5.9c-2.3,0.2-4.6,0.2-6.9,0c-2-0.2-5.1-0.6-5.3-3.1C615.2,362.9,613.8,362.9,613.8,363.9L613.8,363.9
			L613.8,363.9z"/>
		<path class="st0" d="M635.1,365.3c-13.6,8.7-30.2,8.9-45.8,8.9c-1,0-1,1.5,0,1.5c15.9,0,32.8-0.2,46.6-9.1
			C636.7,366.1,635.9,364.8,635.1,365.3L635.1,365.3L635.1,365.3z"/>
		<path class="st0" d="M573.6,372.5c2,4.3,7.2,5.9,11.4,6.8c5.4,1.1,10.9,0.9,16.2-0.5c0.9-0.2,0.5-1.7-0.4-1.5
			c-4.9,1.3-10,1.6-15,0.6c-4-0.8-9.1-2.1-11-6.2C574.5,370.8,573.2,371.6,573.6,372.5L573.6,372.5L573.6,372.5z"/>
		<path class="st0" d="M620.2,373c-8.8,0.6-17.6,0.9-26.3,0.8c-4.1,0-8.5,0.3-12.3-1.8c-3-1.6-5.6-4-8.9-5.1
			c-0.9-0.3-1.3,1.1-0.4,1.5c3.4,1.1,6,3.8,9.3,5.3c3.7,1.8,7.9,1.6,11.9,1.6c9,0,17.9-0.2,26.8-0.8
			C621.2,374.5,621.2,373,620.2,373L620.2,373L620.2,373z"/>
		<path class="st0" d="M575.8,370.7c2.6,1.9,5.3,3.9,8.3,5.2s6.2,1.8,9.5,1.6c6.9-0.3,13.6-2.7,20.5-2.6c1,0,1-1.5,0-1.5
			c-6.7-0.1-13,2.2-19.6,2.6c-3.3,0.2-6.6-0.1-9.7-1.4s-5.6-3.2-8.2-5.1C575.7,368.8,575,370.1,575.8,370.7L575.8,370.7L575.8,370.7
			z"/>
		<path class="st0" d="M628.5,370.2c-0.1,3.7-5.6,4.1-8.3,4.6c-3.6,0.8-7.2,1.5-10.9,2.1c-7,1.2-14.3,1.8-21.1-0.8
			c-0.9-0.3-1.3,1.1-0.4,1.5c7.5,2.9,15.6,2,23.2,0.6c4.1-0.8,8.2-1.6,12.3-2.5c3-0.6,6.5-1.9,6.6-5.5
			C630.1,369.2,628.6,369.2,628.5,370.2L628.5,370.2L628.5,370.2z"/>
		<path class="st0" d="M584.3,383c1.7,2.7,4.5,4,7.5,4.6c3.8,0.8,7.7,0.7,11.5,0.7c4.2-0.1,8.4-0.4,12.5-1.1
			c3.4-0.6,6.8-1.6,9.2-4.2c0.7-0.7-0.4-1.8-1.1-1.1c-2.2,2.4-5.4,3.3-8.5,3.8c-3.8,0.6-7.8,0.9-11.7,1c-3.5,0.1-7.2,0.1-10.7-0.5
			c-2.9-0.5-5.9-1.5-7.5-4.1C585.1,381.4,583.8,382.2,584.3,383L584.3,383L584.3,383z"/>
		<path class="st0" d="M612,376.7c-18.6,5-38.3,4.9-56.8-0.2c-0.9-0.3-1.3,1.2-0.4,1.5c18.8,5.2,38.8,5.3,57.6,0.2
			C613.3,377.9,612.9,376.5,612,376.7L612,376.7L612,376.7z"/>
		<path class="st0" d="M561.7,366.9c1.9-0.4,3.8-0.8,5.6-1.2c0.4-0.1,0.6-0.5,0.5-0.9c-0.1-0.4-0.5-0.6-0.9-0.5
			c-1.9,0.4-3.8,0.8-5.6,1.2c-0.4,0.1-0.6,0.5-0.5,0.9C560.8,366.8,561.3,367,561.7,366.9L561.7,366.9z"/>
		<path class="st0" d="M576.8,359.4c-4,6.6-11.8,9.3-18.8,11.3c-8.5,2.4-17.8,4.3-26.3,1c-0.9-0.4-1.3,1.1-0.4,1.5
			c6.8,2.7,14.3,2,21.3,0.5c6.3-1.4,12.9-3.1,18.5-6.5c2.8-1.8,5.3-4,7.1-6.9C578.7,359.3,577.4,358.6,576.8,359.4L576.8,359.4
			L576.8,359.4z"/>
		<path class="st0" d="M535.2,376.1c14.1,3.5,29.7,7.1,43.4,0.3c0.9-0.4,0.1-1.7-0.8-1.3c-13.3,6.6-28.6,3-42.2-0.5
			C534.6,374.5,534.2,375.9,535.2,376.1L535.2,376.1L535.2,376.1z"/>
		<path class="st0" d="M585.6,370c-12.7,3.4-26.1,2.9-38.5-1.5c-0.9-0.3-1.3,1.1-0.4,1.5c12.6,4.5,26.4,5,39.3,1.5
			C586.9,371.2,586.5,369.8,585.6,370L585.6,370L585.6,370z"/>
		<path class="st0" d="M543.6,368.7c16.9,2.3,34.1,2.3,51-0.3c4.9-0.7,9.8-1.7,14.6-2.8c0.9-0.2,0.5-1.7-0.4-1.5
			c-16.4,3.9-33.3,5.4-50.2,4.5c-4.9-0.3-9.7-0.7-14.6-1.4C543.1,367.1,542.7,368.6,543.6,368.7L543.6,368.7L543.6,368.7z"/>
		<path class="st0" d="M618.8,357.1c-2.7,2.4-5.8,4-9,5.5s-6.9,2.8-10.4,3.8c-7.1,2.1-14.4,3.1-21.8,3.3c-1,0-1,1.5,0,1.5
			c7.7-0.1,15.3-1.3,22.7-3.5c6.8-2,14.3-4.7,19.7-9.5C620.6,357.5,619.5,356.5,618.8,357.1L618.8,357.1L618.8,357.1z"/>
		<path class="st0" d="M587.4,371c3.9,1.9,7.9,3.8,12.1,4.6c3.1,0.6,7.5,1.1,9.7-1.8c0.6-0.8-0.5-1.8-1.1-1.1
			c-2.1,2.7-6.5,1.8-9.3,1.1c-3.7-0.9-7.2-2.6-10.7-4.2C587.3,369.3,586.6,370.6,587.4,371L587.4,371L587.4,371z"/>
		<path class="st0" d="M587.6,378.2c-11.4,2.4-23.2,3.3-34.8,2.6c-1-0.1-1,1.4,0,1.5c11.8,0.7,23.7-0.2,35.2-2.7
			C588.9,379.4,588.5,378,587.6,378.2L587.6,378.2L587.6,378.2z"/>
		<path class="st0" d="M529,373.5c5.8,0.1,11.7-0.9,17.1-2.9c0.9-0.3,0.5-1.8-0.4-1.5c-5.3,2-11,3-16.7,2.9
			C528,372,528,373.5,529,373.5L529,373.5L529,373.5z"/>
		<path class="st0" d="M543.7,368.4c-10.5,4.5-22.3,6-33.7,4.1c-0.9-0.1-1.4,1.3-0.4,1.5c11.8,1.9,23.9,0.4,34.8-4.3
			C545.4,369.3,544.6,368,543.7,368.4L543.7,368.4L543.7,368.4z"/>
		<path class="st0" d="M507.6,371.4c5.5,0.9,11.1,1.2,16.7,1c2.5-0.1,5.1-0.3,7.6-0.7c2-0.3,4-1,5.3-2.6c0.6-0.7-0.5-1.8-1.1-1.1
			c-1.3,1.7-3.5,2.1-5.5,2.4c-2.4,0.3-4.8,0.5-7.3,0.6c-5.1,0.2-10.2-0.1-15.3-0.9C507.1,369.8,506.7,371.2,507.6,371.4L507.6,371.4
			L507.6,371.4z"/>
		<path class="st0" d="M534.7,365.9c-2.7,0.7-5.4,1.3-8.1,1.9s-5.7,1.2-8.6,1.4c-2.7,0.2-5.4-1.2-7.9-2.1c-2.7-1-5.3-2.2-7.9-3.4
			c-0.9-0.4-1.6,0.9-0.8,1.3c2.6,1.2,5.1,2.3,7.8,3.4s5.4,2.4,8.3,2.4s5.7-0.8,8.5-1.3c3-0.6,6.1-1.3,9.1-2
			C536,367.1,535.6,365.7,534.7,365.9L534.7,365.9L534.7,365.9z"/>
		<path class="st0" d="M501.7,363.9c5.5,0.8,11.1,0.5,16.5-0.6c0.9-0.2,0.5-1.6-0.4-1.5c-5.2,1.1-10.5,1.4-15.7,0.6
			C501.2,362.3,500.8,363.8,501.7,363.9L501.7,363.9L501.7,363.9z"/>
		<path class="st0" d="M531.3,357.7c-5.6,1.5-11.3,2.6-17.1,3.4c-2.9,0.4-5.8,0.7-8.7,0.9s-5.9,0.5-8.8-0.3
			c-0.9-0.2-1.3,1.2-0.4,1.5c2.8,0.8,5.6,0.6,8.4,0.4c3.1-0.2,6.1-0.5,9.2-0.9c6-0.8,11.9-2,17.8-3.5
			C532.7,358.9,532.3,357.4,531.3,357.7L531.3,357.7L531.3,357.7z"/>
		<path class="st0" d="M500.2,364.2c13.9,1.3,28,1.1,41.9-0.5c1-0.1,1-1.6,0-1.5c-13.9,1.6-28,1.8-41.9,0.5
			C499.2,362.6,499.2,364.1,500.2,364.2L500.2,364.2L500.2,364.2z"/>
		<path class="st0" d="M537.1,369.3c-2.9,5.5-9.7,5.8-15.2,5.9c-6.4,0.1-12.8,0.1-19.2,0.2c-1,0-1,1.5,0,1.5c7-0.1,14,0,21.1-0.2
			c5.5-0.1,11.8-1.3,14.6-6.6C538.9,369.2,537.6,368.4,537.1,369.3L537.1,369.3L537.1,369.3z"/>
		<path class="st0" d="M501.4,378c7.1,3.7,15.2,5.4,23.3,4.6s16.4-3.6,24.8-4.2c1-0.1,1-1.6,0-1.5c-8.1,0.5-15.8,3.2-23.9,4.1
			c-8.1,0.9-16.2-0.6-23.4-4.4C501.3,376.2,500.5,377.5,501.4,378L501.4,378L501.4,378z"/>
		<path class="st0" d="M553,375.7c-19,4.7-38.8,5.5-58.1,2c-0.9-0.2-1.4,1.3-0.4,1.5c19.5,3.5,39.6,2.8,58.9-2
			C554.4,376.9,554,375.5,553,375.7L553,375.7L553,375.7z"/>
		<path class="st0" d="M492.1,372.7c3.4,6,9.7,9.6,16.2,11.2c8.4,2.1,17.3,1.1,25.8,1.4c1,0,1-1.5,0-1.5c-8.2-0.3-16.6,0.7-24.7-1.1
			c-6.4-1.5-12.7-4.8-16.1-10.7C492.9,371.1,491.6,371.9,492.1,372.7L492.1,372.7L492.1,372.7z"/>
		<path class="st0" d="M535,384.4c1.7,2.6,4.8,3.4,7.7,3.6c4.2,0.3,8.5,0.3,12.7,0.4c9.1,0.2,18.3,0.3,27.4-0.1c1,0,1-1.5,0-1.5
			c-8.5,0.4-17,0.3-25.4,0.1c-4.2-0.1-8.3-0.2-12.5-0.4c-3-0.1-6.9-0.2-8.7-3C535.8,382.8,534.5,383.6,535,384.4L535,384.4
			L535,384.4z"/>
		<path class="st0" d="M580.1,384.7c-9,1.1-17.8-0.5-26.6-2.2c-0.9-0.2-1.3,1.3-0.4,1.5c8.9,1.7,17.9,3.4,27,2.2
			C581.1,386.1,581.1,384.6,580.1,384.7L580.1,384.7z"/>
		<path class="st0" d="M556.3,385.8c10,1.1,20.1,1.9,30.2,2.4c5.1,0.2,10.2,0.4,15.4,0.5c4.8,0.1,9.8,0.3,14.7-0.1s8.5-3.3,12-6.6
			c0.7-0.7-0.4-1.7-1.1-1.1c-3.2,3.1-6.5,5.9-11.2,6.2s-9.7,0.2-14.4,0.1c-9.7-0.1-19.3-0.5-29-1.3c-5.5-0.4-11-0.9-16.5-1.5
			C555.4,384.2,555.4,385.7,556.3,385.8L556.3,385.8L556.3,385.8z"/>
		<path class="st0" d="M614.2,375.8c-2.2,1.1-4.6,1.7-7.1,1.8c-1,0-1,1.5,0,1.5c2.7-0.1,5.4-0.8,7.8-2c0.4-0.2,0.5-0.7,0.3-1
			C615,375.7,614.6,375.6,614.2,375.8L614.2,375.8L614.2,375.8z"/>
		<path class="st0" d="M607,382.2c13.5,2.2,27.5,0.8,40.2-4.4c0.9-0.4,0.5-1.8-0.4-1.5c-12.5,5-26.2,6.6-39.4,4.4
			C606.4,380.6,606,382,607,382.2L607,382.2L607,382.2z"/>
		<path class="st0" d="M625.5,374.9c3.5-0.1,6.9-0.4,10.3-1c1.7-0.3,3.4-0.7,5-1.2c1.2-0.3,2.4-0.8,2.8-2c0.3-0.9-1.1-1.3-1.5-0.4
			c-0.3,1-2.5,1.2-3.3,1.4c-1.5,0.4-2.9,0.7-4.4,0.9c-3,0.5-5.9,0.8-8.9,0.8C624.6,373.4,624.6,374.9,625.5,374.9L625.5,374.9z"/>
		<path class="st0" d="M642.5,369.1c-4,1.6-8.4,2-12.7,2.3s-9,0.5-13.6,0.7c-9.2,0.4-18.3,0.7-27.5,0.9c-1,0-1,1.5,0,1.5
			c9.3-0.2,18.7-0.5,28-1c4.6-0.2,9.2-0.5,13.8-0.8c4.2-0.3,8.5-0.7,12.4-2.3C643.8,370.2,643.4,368.7,642.5,369.1L642.5,369.1
			L642.5,369.1z"/>
		<path class="st0" d="M580.7,374.7c-2,2.9-5.7,3.9-8.9,4.8c-3.8,1.1-7.6,1.9-11.5,2.6c-7.8,1.3-15.8,1.5-23.7,0.9
			c-1-0.1-1,1.4,0,1.5c8.3,0.7,16.8,0.3,25-1.1c4.1-0.7,8.2-1.7,12.2-2.9c3.1-1,6.1-2.3,8.1-5C582.6,374.7,581.3,373.9,580.7,374.7
			L580.7,374.7z"/>
		<path class="st0" d="M539,382.6c-8.3,3.8-18.2,3.3-26.1-1.4c-0.8-0.5-1.6,0.8-0.8,1.3c8.3,4.9,18.8,5.4,27.6,1.4
			C540.6,383.5,539.8,382.2,539,382.6L539,382.6L539,382.6z"/>
		<path class="st0" d="M491.7,351.5c1.4,3.9,5.4,5.2,9.2,5.7c5,0.6,10.1,0.6,15.1,0c1-0.1,1-1.6,0-1.5c-4.3,0.5-8.6,0.6-12.9,0.2
			c-3.6-0.3-8.5-0.9-9.9-4.8C492.9,350.2,491.4,350.6,491.7,351.5L491.7,351.5L491.7,351.5z"/>
		<path class="st0" d="M502.9,342.8c4-2.8,9-1.8,13.4-0.7c0.9,0.2,1.3-1.2,0.4-1.5c-4.7-1.3-10.2-2.2-14.5,0.8
			C501.4,342,502.1,343.3,502.9,342.8L502.9,342.8L502.9,342.8z"/>
		<path class="st0" d="M522.1,337.9c6.2,0.7,12.4,1.4,18.6,2.1c1,0.1,1-1.4,0-1.5c-6.2-0.7-12.4-1.4-18.6-2.1
			C521.2,336.3,521.2,337.8,522.1,337.9L522.1,337.9z"/>
		<path class="st0" d="M528,342.1c-1.8-0.5-3.7-0.8-5.6-1c-1.7-0.1-3.6-0.3-5.2,0.3s-3.3,1.6-4.9,2.4c-1.8,0.9-3.5,1.8-5.2,2.7
			c-0.9,0.4-0.1,1.7,0.8,1.3c3.1-1.6,6.2-3.3,9.3-4.7c1.5-0.7,3.2-0.6,4.8-0.5c1.9,0.1,3.8,0.5,5.6,0.9
			C528.5,343.8,528.9,342.4,528,342.1L528,342.1L528,342.1z"/>
		<path class="st0" d="M600,340.6c4.1,0.2,8.2-1.1,12.3-0.4c3.6,0.6,6.7,3,10.4,3.2c1,0.1,1-1.4,0-1.5c-3.8-0.3-6.9-2.8-10.6-3.3
			c-4-0.5-8,0.6-12.1,0.5C599,339,599,340.5,600,340.6L600,340.6L600,340.6z"/>
		<path class="st0" d="M606.4,342.6c3.9,0.3,7.9-1.3,11.7-0.3c1.7,0.5,3.4,1.3,4.9,2.2s2.9,1.9,3.5,3.5c0.3,0.9,1.8,0.5,1.5-0.4
			c-1.2-3.4-5.2-5.2-8.4-6.4c-4.3-1.6-8.7,0.2-13.2-0.1C605.4,341,605.4,342.5,606.4,342.6L606.4,342.6L606.4,342.6z"/>
		<path class="st0" d="M583.8,339.7c4-2.9,8.9-3.8,13.8-4c5.5-0.1,11,0.7,16.3,2.1c0.9,0.2,1.3-1.2,0.4-1.5
			c-5.6-1.5-11.4-2.3-17.2-2.1c-5,0.2-10,1.2-14.1,4.1C582.2,339,583,340.3,583.8,339.7L583.8,339.7L583.8,339.7z"/>
		<path class="st0" d="M565.5,340.3c9.7-1.9,19.6-2.3,29.4-1.4c1,0.1,1-1.4,0-1.5c-10-0.9-20-0.4-29.8,1.5
			C564.1,339,564.5,340.5,565.5,340.3L565.5,340.3L565.5,340.3z"/>
		<path class="st0" d="M548.4,335.9c-9.2-2.9-19.1-3.3-28.5-1.3c-0.9,0.2-0.5,1.6,0.4,1.5c9.2-2,18.7-1.5,27.7,1.3
			C548.9,337.7,549.3,336.2,548.4,335.9L548.4,335.9L548.4,335.9z"/>
		<path class="st0" d="M557.9,339.4c0.6-4-4.4-4.4-7.2-4.6c-4.4-0.4-8.8-0.5-13.3-0.3c-8.8,0.5-17.4,2.3-25.6,5.4
			c-0.9,0.3-0.5,1.8,0.4,1.5c7.2-2.7,14.8-4.5,22.5-5.1c3.8-0.3,7.6-0.4,11.4-0.2c1.8,0.1,3.7,0.2,5.5,0.4c1.5,0.2,5.2,0.3,4.8,2.6
			C556.3,339.9,557.7,340.3,557.9,339.4L557.9,339.4L557.9,339.4z"/>
		<path class="st0" d="M567.2,339.5c8.7-1.3,17.4-2.3,26.1-3.1c6.8-0.6,14.8-1.4,20.5,3.2c0.7,0.6,1.8-0.5,1.1-1.1
			c-5.8-4.7-13.5-4.4-20.5-3.8c-9.2,0.8-18.4,1.9-27.5,3.2C565.8,338.2,566.2,339.6,567.2,339.5L567.2,339.5L567.2,339.5z"/>
		<path class="st0" d="M515,344.3c-3.5,0.9-7.2,0-10.6,1.2c-2.8,1-5.1,3.7-4.4,6.8c0.2,0.9,1.7,0.5,1.5-0.4
			c-0.7-2.9,2.3-4.9,4.7-5.4c3-0.6,6.2-0.1,9.2-0.8C516.4,345.5,516,344,515,344.3L515,344.3L515,344.3z"/>
		<path class="st0" d="M509.5,352.5c-1.8-1.8-4.4-2.7-6.9-2.5s-4.9,1.5-5.5,4c-0.2,0.9,1.2,1.3,1.5,0.4c0.4-2,2.5-2.9,4.4-2.9
			c2,0,4.1,0.7,5.5,2.1C509.1,354.2,510.2,353.2,509.5,352.5L509.5,352.5L509.5,352.5z"/>
		<path class="st0" d="M616,358.5c2.2,1,4.8,0.2,6.5-1.5c1.9-1.9,2.6-4.5,3.2-7c0.2-0.9-1.2-1.3-1.5-0.4c-0.5,2.1-1,4.4-2.5,6.1
			c-1.2,1.3-3.2,2.3-5,1.5c-0.4-0.2-0.8-0.1-1,0.3C615.5,357.8,615.6,358.3,616,358.5L616,358.5L616,358.5z"/>
		<path class="st0" d="M625,342.6c3.6-0.4,7.3-0.2,10.8,0.8c0.9,0.3,1.3-1.2,0.4-1.5c-3.6-1-7.4-1.3-11.2-0.9
			c-0.4,0-0.8,0.3-0.8,0.8C624.3,342.2,624.6,342.6,625,342.6L625,342.6L625,342.6z"/>
		<path class="st0" d="M595.8,344.6c10.6-2.1,21.7-4.2,32.3-1.3c0.9,0.2,1.3-1.2,0.4-1.5c-10.9-2.9-22.2-0.8-33.1,1.3
			C594.5,343.3,594.9,344.8,595.8,344.6L595.8,344.6L595.8,344.6z"/>
		<path class="st0" d="M625.5,354.4c6.3,0,12.6,0.2,18.9,0.8c1,0.1,1-1.4,0-1.5c-6.3-0.6-12.6-0.8-18.9-0.8
			C624.6,352.9,624.6,354.4,625.5,354.4L625.5,354.4z"/>
		<path class="st0" d="M617.6,364.9c4,0.5,8.5,0.6,12-2s3.4-6.5,4.7-10.2c0.3-0.9-1.1-1.3-1.5-0.4c-1.1,3.2-1.2,7.2-4.2,9.4
			c-3.2,2.3-7.3,2-11,1.6C616.6,363.3,616.7,364.8,617.6,364.9L617.6,364.9L617.6,364.9z"/>
		<path class="st0" d="M490.5,341.6c0,1.3-0.6,2.5-0.7,3.8c-0.1,1.2,0.2,2.5,0.6,3.6c0.7,1.9,1.8,3.7,3.1,5.2
			c2.8,3.1,6.6,5,10.7,5.5c1,0.1,1-1.4,0-1.5c-3.7-0.4-7.2-2.2-9.6-5c-1.2-1.4-2.2-3-2.8-4.8c-0.4-1.1-0.6-2.3-0.4-3.5
			s0.6-2.1,0.6-3.2C492,340.7,490.5,340.7,490.5,341.6L490.5,341.6z"/>
		<path class="st0" d="M504.2,345c-0.8,3.6,1.5,6.9,4.3,9.1c3,2.3,6.6,3.5,10.2,4.1c8.3,1.2,17.1-0.6,24.9-3.4
			c0.9-0.3,0.5-1.8-0.4-1.5c-7,2.5-14.8,4.2-22.3,3.6c-3.4-0.3-6.8-1.1-9.7-2.8s-6.3-4.9-5.5-8.7C505.8,344.4,504.4,344,504.2,345
			L504.2,345L504.2,345z"/>
		<path class="st0" d="M527,362.2c8,1.8,16.2,2.7,24.4,2.4c6.7-0.2,13.8-1.1,19.2-5.6c0.7-0.6-0.3-1.7-1.1-1.1
			c-5.3,4.4-12.5,5-19.1,5.2c-7.8,0.2-15.5-0.6-23.1-2.4C526.4,360.5,526,362,527,362.2L527,362.2L527,362.2z"/>
		<path class="st0" d="M563.8,376.6c12.6,5.2,27.3,4.3,39.3-2c3.4-1.8,6.6-4,9.4-6.7c0.7-0.7-0.3-1.7-1.1-1.1
			c-9.7,9-23.6,13.1-36.7,11.2c-3.6-0.5-7.2-1.5-10.6-2.9C563.3,374.8,562.9,376.2,563.8,376.6L563.8,376.6L563.8,376.6z"/>
		<path class="st0" d="M595.2,376.9c7.7,1.9,15.6,3.2,23.5,3.9c3.5,0.3,7.1,0.3,10.3-1.3c3-1.5,5.3-4,7.5-6.5
			c0.7-0.7-0.4-1.8-1.1-1.1c-2.1,2.4-4.3,4.8-7.2,6.2c-3.3,1.6-7,1.3-10.5,1c-7.5-0.7-14.8-2-22.1-3.8
			C594.6,375.2,594.2,376.7,595.2,376.9L595.2,376.9L595.2,376.9z"/>
		<path class="st0" d="M505.1,368.3c-4.4,0.8-8.8,1.4-13.2,1.6c-3.5,0.2-9,0.5-10.2-3.8c-0.3-0.9-1.7-0.5-1.5,0.4
			c1.2,4.3,6,5,9.8,4.9c5.2-0.1,10.4-0.8,15.5-1.7C506.4,369.6,506,368.2,505.1,368.3L505.1,368.3L505.1,368.3z"/>
		<path class="st0" d="M488.9,370.3c5.1,3.6,10.1,6.8,16.5,7.4c6.6,0.7,13.5,0.1,20.1-0.5c1-0.1,1-1.6,0-1.5
			c-6.3,0.6-12.8,1.1-19.2,0.6c-3.2-0.2-6.2-1-9-2.4s-5.2-3.1-7.6-4.9C488.8,368.4,488.1,369.7,488.9,370.3L488.9,370.3L488.9,370.3
			z"/>
		<path class="st0" d="M524.4,377.2c-4.6,2.2-9.7,3.3-14.8,3.1c-1,0-1,1.5,0,1.5c5.4,0.2,10.7-0.9,15.5-3.3
			C526,378.1,525.3,376.8,524.4,377.2L524.4,377.2L524.4,377.2z"/>
		<path class="st23" d="M491.6,345.2c0.2,5,4.6,8,8.5,10.3c0.3,0.2,0.6-0.3,0.3-0.5c-3.6-2.2-8-5-8.2-9.8
			C492.1,344.8,491.5,344.8,491.6,345.2L491.6,345.2L491.6,345.2z"/>
		<path class="st23" d="M504,341.1c-0.4,0-0.7,0.3-0.8,0.6c-0.2,0.5-0.1,1,0,1.5c0.2,1.4,0.5,2.8,0.8,4.2c0.1,0.4,0.6,0.2,0.6-0.2
			c-0.2-1.1-0.4-2.2-0.6-3.4c0-0.3-0.6-2.2,0.1-2.1C504.4,341.7,504.4,341.1,504,341.1L504,341.1L504,341.1z"/>
		<path class="st23" d="M526.6,365.7c-2.3,1.1-5.1,0.9-7.6,0.8c-2.7,0-5.3-0.2-8-0.4s-5.2-0.4-7.8-1s-4.9-1.7-5.9-4.2
			c-0.1-0.4-0.7-0.2-0.6,0.2c1.8,5,8.4,5.1,12.8,5.5c3.1,0.3,6.3,0.5,9.4,0.5c2.6,0,5.4,0.2,7.9-0.9
			C527.3,366.1,527,365.5,526.6,365.7L526.6,365.7L526.6,365.7z"/>
		<path class="st23" d="M495.5,369.9c4.6,6.3,13.2,4.4,19.6,2.5c0.4-0.1,0.2-0.7-0.2-0.6c-6,1.7-14.4,3.8-18.9-2.2
			C495.8,369.3,495.3,369.6,495.5,369.9L495.5,369.9L495.5,369.9z"/>
		<path class="st23" d="M525.7,371.4c3.2,2,6.8,3.2,10.6,3.6c2.8,0.3,6.5,0.3,8.3-2.3c0.2-0.3-0.3-0.6-0.5-0.3
			c-1.8,2.6-5.8,2.3-8.5,1.9c-3.4-0.5-6.6-1.6-9.5-3.4C525.7,370.7,525.4,371.2,525.7,371.4L525.7,371.4L525.7,371.4z"/>
		<path class="st23" d="M546.7,363c2.7,3.4,7.1,4.8,11.3,4.8c5.6,0,10.9-2.1,16.3-3c0.4-0.1,0.2-0.6-0.2-0.6
			c-5.2,0.8-10.2,2.8-15.4,3c-4.3,0.1-8.9-1-11.6-4.6C546.9,362.3,546.5,362.7,546.7,363L546.7,363L546.7,363z"/>
		<path class="st23" d="M574.4,370.4c2.5,0.5,5.1,0.7,7.6,0.7c1.2,0,2.5,0,3.7-0.2c1-0.1,2-0.3,2.8-0.9c0.3-0.2,0-0.8-0.3-0.5
			c-0.9,0.6-1.9,0.8-3,0.8c-1.2,0.1-2.3,0.1-3.5,0.1c-2.4,0-4.8-0.2-7.2-0.7C574.1,369.7,574,370.3,574.4,370.4L574.4,370.4
			L574.4,370.4z"/>
		<path class="st23" d="M623.9,366.1c5-1.1,9.7-3.3,13.7-6.4c3.5-2.7,7.1-6.5,6.9-11.2c0-0.4-0.6-0.4-0.6,0
			c0.2,4.9-3.8,8.7-7.4,11.3s-8.2,4.7-12.8,5.7C623.3,365.6,623.5,366.2,623.9,366.1L623.9,366.1L623.9,366.1z"/>
		<path class="st23" d="M641.7,347.4c-2.3,2-4.7,3.8-7.3,5.4c-1.3,0.8-2.6,1.5-3.9,2.1c-0.7,0.3-1.3,0.6-2,0.9
			c-0.6,0.3-1.7,0.9-2.3,0.3c-0.3-0.3-0.7,0.1-0.4,0.4c0.9,1,2.3,0.1,3.3-0.3c1.6-0.7,3.2-1.5,4.7-2.4c3-1.7,5.8-3.7,8.3-6
			C642.4,347.5,642,347.1,641.7,347.4L641.7,347.4L641.7,347.4z"/>
		<path class="st23" d="M638,352.5c4.2-4.4,3.2-10.9,2.1-16.3c-0.1-0.4-0.7-0.2-0.6,0.2c1,5.2,2.2,11.5-1.9,15.7
			C637.3,352.3,637.8,352.7,638,352.5L638,352.5L638,352.5z"/>
		<path class="st23" d="M619.4,338.7c4,0,7.8,1.2,11.1,3.5c0.3,0.2,0.6-0.3,0.3-0.5c-3.3-2.3-7.3-3.6-11.4-3.5
			C619,338.1,619,338.7,619.4,338.7L619.4,338.7L619.4,338.7z"/>
		<path class="st23" d="M610.2,340.5c3.2-0.1,6.4-0.1,9.6-0.2c1.6,0,3.1-0.1,4.7-0.1c0.5,0,1.1-0.1,1.5,0.2c0.4,0.2,0.7,0.7,0.9,1.1
			c0.5,0.7,1,1.4,1.4,2.1c0.2,0.3,0.7,0,0.5-0.3c-0.5-0.8-1.1-1.6-1.6-2.4c-0.3-0.5-0.7-0.9-1.2-1.1c-0.7-0.3-1.4-0.2-2.1-0.1
			l-2.7,0.1c-3.7,0.1-7.4,0.2-11.1,0.2C609.8,339.9,609.8,340.5,610.2,340.5L610.2,340.5L610.2,340.5z"/>
		<path class="st23" d="M620.1,358.5c0,1.2,1.8,1.1,2.6,1.1c1.6,0,3.2-0.2,4.8-0.5c2.2-0.4,6.6-1.1,6.2-4.2c0-0.4-0.7-0.4-0.6,0
			c0.3,2.6-3.5,3.2-5.3,3.5c-0.7,0.1-7.2,1.2-7.2,0.1C620.8,358.1,620.2,358.1,620.1,358.5L620.1,358.5L620.1,358.5z"/>
		<path class="st23" d="M620.1,366.9c0.2,2.4,1.9,4.9,4.6,4.2c1.6-0.4,3-1.7,4.3-2.6c1.5-1.1,3-2.1,4.6-3.2c0.3-0.2,0-0.7-0.3-0.5
			c-1.2,0.9-2.5,1.8-3.7,2.6s-2.4,1.8-3.6,2.5c-1.2,0.7-2.6,1.1-3.8,0.1c-0.9-0.8-1.3-2-1.4-3.1C620.6,366.5,620,366.5,620.1,366.9
			L620.1,366.9L620.1,366.9z"/>
		<path class="st23" d="M606.8,374.4c0.4,1.5,2,1.8,3.3,1.9c2.5,0.2,5.2,0.3,7.7,0.1c4-0.4,8.1-1.9,10.6-5.2
			c0.2-0.3-0.3-0.6-0.5-0.3c-2.2,3.1-6,4.5-9.7,4.9c-2,0.2-4,0.2-6,0.1c-1.4-0.1-4.3,0.2-4.8-1.6
			C607.2,373.9,606.7,374.1,606.8,374.4L606.8,374.4L606.8,374.4z"/>
		<path class="st23" d="M608.2,368.5c4.7,0.3,9.3,0.6,14,0c1.7-0.2,3.9-0.4,5.4-1.3c1.4-0.9,1.3-2.4,1-3.9c-0.1-0.4-0.7-0.2-0.6,0.2
			c0.2,1.1,0.5,2.4-0.6,3.1c-0.6,0.4-1.4,0.6-2.1,0.8c-1.9,0.4-3.8,0.7-5.8,0.8c-3.8,0.2-7.6,0-11.3-0.2
			C607.8,367.9,607.8,368.5,608.2,368.5L608.2,368.5L608.2,368.5z"/>
		<path class="st23" d="M609.6,364.9c-6,2.2-12.4,3.3-18.8,3.4c-0.4,0-0.4,0.6,0,0.6c6.5-0.1,12.9-1.2,19-3.5
			C610.2,365.3,610,364.8,609.6,364.9L609.6,364.9z"/>
		<path class="st23" d="M589.5,369.1c1.8,3.6,6.2,5,9.9,5.7c4.8,1,9.7,0.8,14.4-0.4c0.4-0.1,0.2-0.7-0.2-0.6
			c-4.5,1.1-9.1,1.3-13.7,0.5c-3.7-0.7-8.1-1.9-10-5.5C589.9,368.5,589.3,368.8,589.5,369.1L589.5,369.1L589.5,369.1z"/>
		<path class="st23" d="M593.1,374.8c-4.8,0.2-9.6,0-14.3-0.6c-0.4,0-0.4,0.5,0,0.6c4.8,0.6,9.5,0.8,14.3,0.6
			C593.5,375.3,593.5,374.7,593.1,374.8L593.1,374.8z"/>
		<path class="st23" d="M573.1,369c5.2,0.8,10.6-2.2,12.5-7.1c0.1-0.4-0.4-0.5-0.6-0.2c-1.8,4.6-6.9,7.5-11.8,6.7
			C572.9,368.3,572.7,368.9,573.1,369L573.1,369L573.1,369z"/>
		<path class="st23" d="M580.3,366.6c-3.3,3.5-7.8,5.2-12.4,6.2s-10.1,2-14.2-0.6c-0.3-0.2-0.6,0.3-0.3,0.5
			c4.2,2.7,9.7,1.7,14.3,0.8s9.6-2.8,13-6.5C581,366.8,580.6,366.4,580.3,366.6L580.3,366.6L580.3,366.6z"/>
		<path class="st23" d="M542,368.6c1.5,3.5,4.4,6.3,7.9,7.7c0.4,0.1,0.5-0.4,0.2-0.6c-3.4-1.4-6.1-4.1-7.6-7.5
			C542.3,368,541.8,368.3,542,368.6L542,368.6L542,368.6z"/>
		<path class="st23" d="M551.5,368c2.3,2.2,4.6,4.4,6.9,6.6c0.3,0.3,0.7-0.2,0.4-0.4c-2.3-2.2-4.6-4.4-6.9-6.6
			C551.6,367.3,551.2,367.7,551.5,368L551.5,368z"/>
		<path class="st23" d="M565.2,376c4.7,2.1,10.2,2.2,15,0.3c0.3-0.1,0.2-0.7-0.2-0.6c-4.6,1.9-9.9,1.9-14.5-0.2
			C565.1,375.4,564.8,375.9,565.2,376L565.2,376L565.2,376z"/>
		<path class="st23" d="M581.4,376.8c-7,4.2-15.1,6.3-23.3,5.8c-0.4,0-0.4,0.6,0,0.6c8.3,0.5,16.5-1.6,23.6-5.9
			C582,377.1,581.7,376.6,581.4,376.8L581.4,376.8z"/>
		<path class="st23" d="M553.5,379.7c4.7,4.5,11.3,6.5,17.7,5.5c0.4-0.1,0.2-0.6-0.2-0.6c-6.2,1-12.6-1-17.2-5.4
			C553.6,379,553.2,379.5,553.5,379.7L553.5,379.7L553.5,379.7z"/>
		<path class="st23" d="M571.9,382c-11.7-1.1-23-4.6-33.3-10.1c-0.3-0.2-0.6,0.3-0.3,0.5c10.4,5.6,21.9,9.1,33.7,10.2
			C572.3,382.6,572.3,382,571.9,382L571.9,382L571.9,382z"/>
		<path class="st23" d="M535.8,369.1c-7.3-3-13.7-7.7-18.7-13.8c-0.2-0.3-0.7,0.1-0.4,0.4c5.1,6.1,11.6,10.9,18.9,13.9
			C536,369.9,536.1,369.3,535.8,369.1L535.8,369.1L535.8,369.1z"/>
		<path class="st23" d="M516.6,359.1c2,3.3,4.7,6.2,7.8,8.4c0.3,0.2,0.6-0.3,0.3-0.5c-3.1-2.2-5.7-5-7.6-8.2
			C516.9,358.4,516.4,358.7,516.6,359.1L516.6,359.1L516.6,359.1z"/>
		<path class="st23" d="M514.5,364.3c-9.1-2.6-17-8.6-22-16.6c-0.2-0.3-0.7,0-0.5,0.3c5.1,8.2,13.1,14.3,22.4,16.9
			C514.7,365,514.9,364.4,514.5,364.3L514.5,364.3L514.5,364.3z"/>
		<path class="st23" d="M493.4,349.3c0.9,4.9,2.6,10.4,7.4,12.7c0.4,0.2,0.6-0.4,0.3-0.5c-4.7-2.3-6.2-7.6-7.1-12.4
			C493.9,348.8,493.4,348.9,493.4,349.3L493.4,349.3L493.4,349.3z"/>
		<path class="st23" d="M505,362.1c-2.7-0.4-5.5,0.4-8.2,0.2c-2.1-0.2-4.4-1.1-5.3-3.2c-0.1-0.4-0.7,0-0.5,0.3
			c0.9,2.1,3.1,3.1,5.2,3.4c2.9,0.4,5.9-0.5,8.8-0.1C505.4,362.8,505.4,362.2,505,362.1L505,362.1L505,362.1z"/>
		<path class="st23" d="M489.8,362.8c0.1,1.2,1,2,1.8,2.8c1,1,2.1,1.9,3.2,2.8c2.2,1.8,4.5,3.3,6.9,4.8c0.3,0.2,0.6-0.3,0.3-0.5
			c-2.2-1.3-4.4-2.8-6.4-4.4c-1-0.8-2-1.6-2.9-2.5c-0.9-0.8-2.2-1.7-2.3-3C490.4,362.4,489.8,362.4,489.8,362.8L489.8,362.8
			L489.8,362.8z"/>
		<path class="st23" d="M515.8,373.3c-0.3,2-2.6,3.1-4.2,3.9c-2.2,1.1-4.4,2.1-6.6,3c-0.4,0.1-0.2,0.7,0.2,0.6c2.5-1,5-2.1,7.3-3.3
			c1.7-0.9,3.7-2,3.9-4.1C516.4,372.9,515.8,372.9,515.8,373.3L515.8,373.3L515.8,373.3z"/>
		<path class="st23" d="M530,380.5c5.8,1.5,10.8-2.3,16-4.1c0.4-0.1,0.2-0.7-0.2-0.6c-5,1.7-10.1,5.5-15.7,4.1
			C529.8,379.9,529.6,380.4,530,380.5L530,380.5L530,380.5z"/>
		<path class="st23" d="M523.7,370.9c-1.3,2.7,1.1,4.8,3.3,5.9c3.2,1.5,6.7,2.6,10.1,3.3c7.2,1.5,14.6,1.7,22,1.9
			c0.4,0,0.4-0.6,0-0.6c-6.4-0.1-12.8-0.3-19.2-1.3c-3-0.5-6-1.2-8.8-2.2c-2.5-0.9-8.8-2.8-6.9-6.6
			C524.4,370.9,523.9,370.6,523.7,370.9L523.7,370.9L523.7,370.9z"/>
		<path class="st23" d="M571.9,383.7c5.1,0.5,10.3,0.7,15.5,0.5c4.4-0.2,9-0.4,12.8-2.6c0.3-0.2,0-0.7-0.3-0.5
			c-4,2.3-8.9,2.5-13.5,2.6c-4.8,0.1-9.7,0-14.5-0.5C571.5,383,571.5,383.6,571.9,383.7L571.9,383.7L571.9,383.7z"/>
		<path class="st23" d="M604.7,378.1c-11.2,6.6-25.8,6.3-36.8-0.7c-0.3-0.2-0.6,0.3-0.3,0.5c11.1,7.1,26,7.4,37.4,0.7
			C605.3,378.5,605,377.9,604.7,378.1L604.7,378.1L604.7,378.1z"/>
		<path class="st23" d="M523.5,338.6c-2.7-0.7-5.4-1.4-8.1-2.1c-1.4-0.4-5-1.8-5.2,0.8c0,0.4,0.6,0.4,0.6,0c0.1-1.5,2.2-0.8,3-0.6
			l3.2,0.8l6.4,1.6C523.7,339.2,523.8,338.7,523.5,338.6L523.5,338.6L523.5,338.6z"/>
		<path class="st23" d="M537.5,339.5c-5.7-1.5-11.6-2.3-17.5-2.5c-0.4,0-0.4,0.6,0,0.6c5.8,0.2,11.6,1.1,17.3,2.5
			C537.7,340.2,537.9,339.6,537.5,339.5L537.5,339.5L537.5,339.5z"/>
		<path class="st23" d="M539,349.3c-0.2-3-1.6-5.9-3.9-7.9s-5.6-2.8-8.7-2.3c-0.4,0.1-0.2,0.6,0.2,0.6c2.9-0.5,6,0.3,8.3,2.3
			c2.1,1.8,3.4,4.5,3.6,7.3C538.4,349.7,539,349.7,539,349.3L539,349.3z"/>
		<path class="st23" d="M523.2,345.4c-3-0.7-5.9-1.4-8.8-2.1c-1.8-0.4-5.2-1.7-6.2,0.7c-0.1,0.4,0.4,0.7,0.5,0.3
			c0.6-1.3,2.1-1.2,3.2-1c1.2,0.3,2.5,0.6,3.7,0.9l7.4,1.8C523.4,346.1,523.6,345.5,523.2,345.4L523.2,345.4L523.2,345.4z"/>
		<path class="st23" d="M521.2,349.1c-0.7-1.4-2-2.5-3.2-3.5c-1.2-1.1-2.5-2.2-4-3c-2.6-1.5-5.9-2.2-8.7-0.8c-0.3,0.2,0,0.7,0.3,0.5
			c2.8-1.4,6-0.5,8.5,1.1c1.3,0.8,2.4,1.8,3.5,2.8s2.3,2,3,3.3C520.9,349.7,521.4,349.4,521.2,349.1L521.2,349.1L521.2,349.1z"/>
		<path class="st23" d="M507.8,350.3c-1.5-0.1-3,0.5-4,1.7c-0.2,0.3,0.2,0.7,0.4,0.4c0.9-1,2.2-1.6,3.6-1.5c0.2,0,0.3-0.1,0.3-0.3
			C508.1,350.4,508,350.3,507.8,350.3L507.8,350.3L507.8,350.3z"/>
		<path class="st23" d="M590.3,346.5c-0.7-0.6,2.1-1.9,2.4-2c0.9-0.5,1.7-0.9,2.6-1.4c0.7-0.4,1.5-0.8,2.2-1.2
			c0.9-0.5,1.8-1.1,2.8-1.4c0.9-0.3,1.8-0.1,2.8,0c0.8,0.1,1.7,0.2,2.5,0.2c1.8,0.2,3.8,0.1,5.3,1.2c0.3,0.2,0.6-0.3,0.3-0.5
			c-1.6-1.2-3.9-1.1-5.8-1.3c-1.2-0.1-2.5-0.3-3.7-0.4c-1.1-0.1-1.9,0.2-2.8,0.8c-2.3,1.2-4.6,2.5-6.8,3.7c-0.7,0.4-3.6,1.5-2.1,2.8
			C590.1,347.2,590.6,346.7,590.3,346.5L590.3,346.5L590.3,346.5z"/>
		<path class="st23" d="M607,347.5c-0.4-0.6,2-0.9,2.2-0.9c0.8-0.1,1.6-0.2,2.4-0.4c1.5-0.2,3-0.5,4.4-0.7s2.7-0.4,3.8,0.7
			c0.9,0.8,1.4,1.9,1.9,2.9c0.2,0.4,0.7,0,0.5-0.3c-0.6-1.2-1.2-2.5-2.3-3.4c-1.4-1-2.9-0.7-4.5-0.5c-2.1,0.3-4.1,0.7-6.2,1
			c-0.7,0.1-3.7,0.3-2.7,1.8C606.7,348.2,607.2,347.9,607,347.5L607,347.5L607,347.5z"/>
		<path class="st23" d="M616.1,352.7c6.2,0.3,12.4,0.3,18.6,0.2c0.4,0,0.4-0.6,0-0.6c-6.2,0.1-12.4,0.1-18.6-0.2
			C615.7,352.1,615.7,352.7,616.1,352.7L616.1,352.7z"/>
		<path class="st23" d="M583.6,342.8c-0.6-1.2,0.2-2.4,1-3.2s1.7-1.6,2.7-2.1c1-0.6,2.1-0.7,3.2-0.3c1,0.3,2,0.8,3.1,0.7
			c0.4,0,0.4-0.6,0-0.6c-1.3,0.1-2.5-0.7-3.8-0.9s-2.4,0.3-3.4,1c-1.7,1.2-4.5,3.4-3.3,5.8C583.3,343.4,583.8,343.1,583.6,342.8
			L583.6,342.8L583.6,342.8z"/>
		<path class="st23" d="M562.8,349.5c-0.3-2-0.7-4-1.9-5.7c-1.1-1.5-2.9-2.3-4.7-2.6c-4.7-0.9-9.8-0.4-14.5,0.7
			c-0.4,0.1-0.2,0.7,0.2,0.6c4.3-1,9-1.4,13.4-0.8c2,0.3,4.1,0.9,5.3,2.7c1,1.5,1.4,3.5,1.7,5.3C562.3,350,562.9,349.8,562.8,349.5
			L562.8,349.5L562.8,349.5z"/>
		<path class="st23" d="M572.4,350.2c-0.8-2.3-1.4-5.4,0.8-7.1c1.8-1.4,4.3-1.4,6.4-1.5c5.8-0.2,11.6-0.4,17.4-0.5
			c0.4,0,0.4-0.6,0-0.6c-3.5,0.1-7,0.2-10.4,0.3c-3.2,0.1-6.4,0-9.5,0.4c-1.9,0.2-3.9,0.8-5.1,2.4c-1.5,2-0.9,4.7-0.1,6.9
			C572,350.8,572.5,350.6,572.4,350.2L572.4,350.2L572.4,350.2z"/>
	</g>
</g>
<g id="chicken">
	<path class="st24" d="M364.9,345.9c2.8-5.3,4.1-7.9,4.2-10.4c0-0.6,0-4.1-2.3-7.1c-1.1-1.4-2.2-2.1-2.8-2.6
		c-5.6-4-7.7-12.4-9.2-18.4c-1.2-4.7-1.8-7.2-0.8-9.4c0.8-1.9,2.1-2.8,3.6-6.4c1.3-3.2,1-4.1,0.8-4.6c-0.9-1.8-3.7-2.3-4.2-2.4
		c-0.7-0.1-1.2-0.1-1.6-0.1c1.2-0.5,2.2-1.2,2.8-2.3c2.3-4.3-3.3-13.8-11.2-16.3c-7.9-2.5-16.4,2.6-19.9,8.2
		c-1.3,2.1-1.9,5.1-3.1,11c-1.6,8.4-0.8,10.7-3.1,16.6c-0.5,1.3-2,5.2-5.6,8.4c-1.5,1.3-2.2,2-3.3,2c0,0-2.5,0.1-9.2-11.5
		c0,0-1-2.3-2.3-2.6c-1.1-0.2-2.2,0.9-2.8,1.5c-0.5,0.5-1.7,1.8-1.5,3.3c0.1,1,0.8,1.8,1.3,2.3c1.5,1.5,5.4,5.6,5.6,5.4
		c0.2-0.2-6.3-3.7-10-11.5c-1.7-3.6-2.1-6.7-3.8-6.9c-1.7-0.1-3.2,2.8-3.4,3.3c-0.4,0.7-1.3,2.8-0.8,7.5c0.5,4.5,2.1,8,2,8
		c0,0-0.5-1.8-1.4-3.6c-0.2-0.5-3.2-6.5-5.7-6.1c-2.1,0.3-3.1,4.6-4.5,10.1c-0.5,2.2-1.1,4.7-1.4,8.2c-0.1,1.6-0.5,7.5,1.3,15.6
		c0.6,2.5,2,9,4.9,13.8c6.2,10.5,19.2,13.4,29.2,15.7c17.4,3.9,32.9,1.1,42.1-3.2c2.8-1.3,9.7-4.6,13.8-11
		C363.1,349.3,363.8,347.9,364.9,345.9z"/>
	<path class="st25" d="M364.9,345.9c2.8-5.3,4.1-7.9,4.2-10.4c0-0.6,0-4.1-2.3-7.1c-1.1-1.4-2.2-2.1-2.8-2.6
		c-5.6-4-7.7-12.4-9.2-18.4c-1.2-4.7-1.8-7.2-0.8-9.4c0.8-1.9,2.1-2.8,3.6-6.4c1.3-3.2,1-4.1,0.8-4.6c-0.9-1.8-3.7-2.3-4.2-2.4
		c-0.7-0.1-1.2-0.1-1.6-0.1c1.2-0.5,2.2-1.2,2.8-2.3c2.3-4.3-3.3-13.8-11.2-16.3c-7.9-2.5-16.4,2.6-19.9,8.2
		c-1.3,2.1-1.9,5.1-3.1,11c-1.6,8.4-0.8,10.7-3.1,16.6c-0.5,1.3-2,5.2-5.6,8.4c-1.5,1.3-2.2,2-3.3,2c0,0-2.5,0.1-9.2-11.5
		c0,0-1-2.3-2.3-2.6c-1.1-0.2-2.2,0.9-2.8,1.5c-0.5,0.5-1.7,1.8-1.5,3.3c0.1,1,0.8,1.8,1.3,2.3c1.5,1.5,5.4,5.6,5.6,5.4
		c0.2-0.2-6.3-3.7-10-11.5c-1.7-3.6-2.1-6.7-3.8-6.9c-1.7-0.1-3.2,2.8-3.4,3.3c-0.4,0.7-1.3,2.8-0.8,7.5c0.5,4.5,2.1,8,2,8
		c0,0-0.5-1.8-1.4-3.6c-0.2-0.5-3.2-6.5-5.7-6.1c-2.1,0.3-3.1,4.6-4.5,10.1c-0.5,2.2-1.1,4.7-1.4,8.2c-0.1,1.6-0.5,7.5,1.3,15.6
		c0.6,2.5,2,9,4.9,13.8c6.2,10.5,19.2,13.4,29.2,15.7c17.4,3.9,32.9,1.1,42.1-3.2c2.8-1.3,9.7-4.6,13.8-11
		C363.1,349.3,363.8,347.9,364.9,345.9z"/>
	<path class="st26" d="M309,311.9c-0.3,1.3-0.5,3.1,0.4,3.7c1.4,0.9,4.6-1.7,5-1.1c0.3,0.4-2.4,2.2-2.6,4.7
		c-0.2,1.9,1.2,3.5,1.8,4.2c4.3,5,15.2,3,16.1,2.8c-1.3,3.3-0.6,4.5-0.3,4.9c1.5,1.8,6.5,0.8,12.6-2.7c0.1,0.5,1.3,4.5,4.6,5.5
		c3.6,1.1,8.1-1.7,9.2-4.6c0.2-0.6,0.3-1.3,0.9-1.5c1.3-0.6,3,1.9,4.6,1.5c0.8-0.2,1.7-1.2,2.2-4.6"/>
	<path class="st27" d="M293.6,323c-2.6-2-5.5-5-6.9-9.3c-0.9-2.6-0.7-4.2-1-4.2c-0.9,0-3.9,13.3,1.4,17.2c1,0.7,2.4,1.3,2.6,1
		c0.4-0.6-6.8-8-8.8-6.8c-2.3,1.4,0.7,14.6,6.5,15.8c0.6,0.1-2.5-0.9-2.4-1.3c0.3-0.8-0.9-2.6-5.9-5c-0.7,6.5,2.6,12.4,7.7,14.4
		c4.5,1.8,8.8-0.1,9.8-0.5"/>
	<path class="st27" d="M312.6,353.8c0.8,0.6,4.7-2,6.6-5.7c0.2-0.5,2.9-5.8,0.5-10.7c-3.1-6.5-12.8-7.8-17.2-7.7c-1.6,0-2.3,0.3-4,0
		c-6.3-1-8.8-6.5-9.8-5.9c-1.7,0.9,1.9,15.2,8,15.7c0.9,0.1,1.7-0.2,2.4-0.5c-8.1-5.5-10.7-5.8-11.6-5c-1.9,1.8,2.1,11.6,8.3,12.9
		c1.8,0.4,3.9,0,4-0.4c0.1-1.1-13.6-4.6-14.7-2.3c-0.8,1.6,4.9,6.3,10.5,8.7c7.1,3,14.4,2.6,15.7,0.4c0.1-0.2,0.6-1.2,0.9-1.1
		C312.6,352.2,312.2,353.5,312.6,353.8z"/>
</g>
<g id="face">
	
		<ellipse transform="matrix(0.2436 -0.9699 0.9699 0.2436 -17.6334 539.0917)" class="st28" cx="336.8" cy="280.9" rx="6.1" ry="5.1"/>
	
		<ellipse transform="matrix(0.9882 -0.1529 0.1529 0.9882 -38.7416 56.4828)" class="st28" cx="347.9" cy="280.1" rx="3.5" ry="5.2"/>
	<ellipse cx="337.6" cy="280.9" rx="1.1" ry="2.3"/>
	<ellipse cx="347" cy="280.9" rx="1.1" ry="2.3"/>
	<g>
		<path d="M333.4,273.4c1.8-1.1,3.4-2.4,5.4-3.1c1.4-0.2,2.4,1.2,2.8,2.3c0,0-0.2,0.1-0.2,0.1c-0.5-1-1.3-2.1-2.5-2
			C337,271.4,335.2,272.9,333.4,273.4L333.4,273.4z"/>
	</g>
	<g>
		<path d="M345.2,272.7c2-2.5,5.8-1.9,5.8,1.7c0,0-0.2,0-0.2,0c-0.3-3.3-3.2-3.4-5.4-1.5C345.4,272.9,345.2,272.7,345.2,272.7
			L345.2,272.7z"/>
	</g>
	<g>
		<path d="M327.9,274.2c1.2,1.5,3.3,2.4,5.2,2.3c0,0,0.1,0.7,0.1,0.7C331.1,277.3,329,276,327.9,274.2
			C327.8,274.3,327.9,274.2,327.9,274.2L327.9,274.2z"/>
	</g>
	<g>
		<path d="M326.7,276.2c1.5,1.4,3.8,1.8,5.7,1.3c0,0,0.2,0.7,0.2,0.7C330.5,278.6,328.1,277.9,326.7,276.2L326.7,276.2z"/>
	</g>
	<g>
		<path d="M325.9,277.4c1.1,2.1,3.8,2.7,5.8,1.9c0,0,0.3,0.7,0.3,0.7C329.7,280.7,326.8,279.7,325.9,277.4L325.9,277.4z"/>
	</g>
	<g>
		<path d="M354.1,276.6c-0.4,1.3-1.9,2.2-3.3,1.8c0,0,0.3-0.7,0.3-0.7c1,0.4,2.4-0.1,2.9-1.1C354,276.5,354.1,276.6,354.1,276.6
			L354.1,276.6z"/>
	</g>
	<g>
		<path d="M354.8,278c-0.6,1.4-2.5,1.9-3.9,1.2c0,0,0.4-0.6,0.4-0.6C352.4,279.3,354,279.1,354.8,278L354.8,278z"/>
	</g>
	<g>
		<path d="M326.9,294.7c-4.8-3.8-1.1-12.1,4.9-10.6c1.8,0.4,3.2,1.8,4,3.4l-0.7,0.3c-0.7-1.4-2-2.5-3.5-2.9
			C326,283.7,323.4,290.7,326.9,294.7L326.9,294.7z"/>
	</g>
	<path class="st29" d="M336,287.2c0.3-1,1.8-1.1,4.6-2.2c3.3-1.2,3-1.7,4.6-1.9c0.2,0,4.5-0.6,6.4,2c1.5,2,0.7,4.8,0,7.1
		c-1.4,4.7-4.8,9.1-6.2,8.6c-1.4-0.5,0.9-5.2-1.8-7.8c-1.9-1.8-4.5-1-6.9-3.8C335.8,288,335.9,287.3,336,287.2z"/>
	<path class="st30" d="M336,287.2c0.3-1,1.8-1.1,4.6-2.2c3.3-1.2,3-1.7,4.6-1.9c0.2,0,4.5-0.6,6.4,2c1.5,2,0.7,4.8,0,7.1
		c-1.4,4.7-4.8,9.1-6.2,8.6c-1.4-0.5,0.9-5.2-1.8-7.8c-1.9-1.8-4.5-1-6.9-3.8C335.8,288,335.9,287.3,336,287.2z"/>
	<path class="st29" d="M335.1,288c-0.4,0.7-0.9,2.7,0,5c1.1,2.7,3.8,4.8,6.6,5c0.7,0.1,2.6,0.2,3.2-0.8c0.8-1.2-0.5-3.8-2.4-5.1
		c-2-1.4-3.6-0.4-5.1-2c-0.9-1-1.3-2.4-1.9-2.3C335.3,287.7,335.2,287.8,335.1,288z"/>
	<path class="st30" d="M335.1,288c-0.4,0.7-0.9,2.7,0,5c1.1,2.7,3.8,4.8,6.6,5c0.7,0.1,2.6,0.2,3.2-0.8c0.8-1.2-0.5-3.8-2.4-5.1
		c-2-1.4-3.6-0.4-5.1-2c-0.9-1-1.3-2.4-1.9-2.3C335.3,287.7,335.2,287.8,335.1,288z"/>
	<path class="st30" d="M345.3,288.3c0.1,0,0.4,0.1,0.7,0.3c0.4,0.4,0.3,1,0.3,1.1"/>
	<path class="st30" d="M346.9,287.9c0.1,0,0.4,0.1,0.7,0.3c0.4,0.4,0.3,1,0.3,1.1"/>
	<path class="st31" d="M345.5,266.7c1-0.1,1.6-1.8,1.8-2.6c0.5-2.7-2.8-6.3-6.4-7.8c-4.4-1.8-10.3-0.9-12,2.1c-0.5,1-1,2.8-0.2,3.8
		c0.7,0.9,1.9,0.5,2.5,1.6c0,0.1,0.5,1,0.1,1.8c-0.1,0.2-0.2,0.3-0.2,0.4c-0.6,0.8-1.9,1-2,0.8c-0.1-0.3,1.4-0.8,1.4-1.6
		c0-1.1-2.6-2.1-4.8-2.4c-1-0.1-4.3-0.5-6.7,1.6c-1.1,1-2.6,3-2,4.7c0.3,0.9,1.2,1.5,1.8,1.9c1.5,1,2.7,0.8,3.3,1.9
		c0.3,0.5,0.4,1,0.4,1.1c0.1,0.8-0.1,1.3-0.2,1.6c-0.4,1-1.1,1.7-1.2,1.6c-0.2-0.1,1.1-1.7,0.5-2.6c-0.4-0.6-1.4-0.7-2-0.6
		c-1.5,0.2-2.7,1.6-3.1,3c-0.6,2.1,0.6,4.2,1.9,5.3c1.2,1,3.2,1.9,4.2,1.2c0.9-0.7,0-2.4,0.1-4.6c0.2-5.2,5.6-8.9,7.1-9.9
		c0,0,5.2-3.5,11.4-3.1c1.8,0.1,2.7,0.2,3.5,0.6C344.9,266.5,345.2,266.7,345.5,266.7z"/>
</g>
<g id="Layer_2" class="st32">
	
		<image style="display:inline;overflow:visible;opacity:0.4;" width="1000" height="707" xlink:href="../hna.jpg"  transform="matrix(0.2851 0 0 0.2851 245.1093 199.2553)">
	</image>
</g>
</svg>
