<?xml version="1.0" encoding="UTF-8"?>
<svg xmlns="http://www.w3.org/2000/svg" viewBox="0 0 777.06 502.19">
  <defs>
    <style>
      .cls-1, .cls-2, .cls-3, .cls-4, .cls-5, .cls-6, .cls-7, .cls-8, .cls-9, .cls-10, .cls-11, .cls-12, .cls-13, .cls-14, .cls-15, .cls-16, .cls-17, .cls-18, .cls-19, .cls-20, .cls-21, .cls-22 {
        stroke-miterlimit: 10;
      }

      .cls-1, .cls-2, .cls-4, .cls-8, .cls-9, .cls-11, .cls-12, .cls-23, .cls-14, .cls-16, .cls-17, .cls-18, .cls-20, .cls-22 {
        fill: none;
      }

      .cls-1, .cls-11 {
        stroke: #754c24;
      }

      .cls-1, .cls-12, .cls-21 {
        stroke-width: 3px;
      }

      .cls-2, .cls-5, .cls-6, .cls-7, .cls-8, .cls-9, .cls-13, .cls-19, .cls-24 {
        stroke: #000;
      }

      .cls-3, .cls-4, .cls-18 {
        stroke-width: 5px;
      }

      .cls-3, .cls-4, .cls-20, .cls-21 {
        stroke: #42210b;
      }

      .cls-3, .cls-25 {
        fill: #754c24;
      }

      .cls-26 {
        fill: #998675;
      }

      .cls-27, .cls-21 {
        fill: #c7b299;
      }

      .cls-5 {
        fill: #fff;
      }

      .cls-5, .cls-7, .cls-9, .cls-13 {
        stroke-width: .25px;
      }

      .cls-6 {
        fill: #534741;
      }

      .cls-6, .cls-8, .cls-19, .cls-24, .cls-20 {
        stroke-linecap: round;
      }

      .cls-6, .cls-8, .cls-19, .cls-20 {
        stroke-width: 2px;
      }

      .cls-7 {
        fill: #a80800;
      }

      .cls-28 {
        fill: #a67c52;
      }

      .cls-29 {
        fill: #603813;
      }

      .cls-30, .cls-10 {
        fill: #c69c6d;
      }

      .cls-31, .cls-13 {
        fill: #ffce61;
      }

      .cls-10 {
        stroke: #c69c6d;
      }

      .cls-32 {
        fill: #736357;
      }

      .cls-12, .cls-18 {
        stroke: #603813;
      }

      .cls-14 {
        stroke: #72563b;
      }

      .cls-15 {
        fill: #b3b3b3;
      }

      .cls-15, .cls-16 {
        stroke: gray;
      }

      .cls-17 {
        stroke-width: .75px;
      }

      .cls-17, .cls-22 {
        stroke: #684523;
      }

      .cls-24 {
        stroke-miterlimit: 10;
        stroke-width: 2px;
      }
    </style>
  </defs>
  <g id="Layer_1" data-name="Layer 1">
    <g>
      <rect class="cls-30" x=".56" y="1.69" width="775.95" height="499"/>
      <path class="cls-30" d="M775.95,2.19V500.19H1.11V2.19H775.95m1.11-1H0V501.19H777.06V1.19h0Z"/>
    </g>
    <g>
      <polygon class="cls-25" points="127.88 501.69 161.27 418.69 318.95 418.69 350.05 501.69 127.88 501.69"/>
      <path class="cls-29" d="M318.52,419.19l30.72,82H128.69l33-82h156.84m.85-1H160.85l-33.8,84h223.79l-31.47-84h.01Z"/>
    </g>
    <g>
      <polygon class="cls-25" points="482.44 501.69 515.83 418.69 673.51 418.69 704.61 501.69 482.44 501.69"/>
      <path class="cls-29" d="M673.09,419.19l30.72,82h-220.55l33-82h156.84m.85-1h-158.52l-33.8,84h223.79l-31.47-84h0Z"/>
    </g>
    <g>
      <polygon class="cls-28" points="533.44 446.69 536.62 436.69 646.51 435.69 651.85 446.69 533.44 446.69"/>
      <path class="cls-29" d="M646.13,436.2l4.85,9.99h-116.78l2.87-9.01,109.06-.98m.77-1.01l-110.73,1-3.5,11h120.06l-5.83-12h0Z"/>
    </g>
    <g>
      <polygon class="cls-28" points="538.08 481.69 541.29 470.69 648.85 470.69 654.18 481.69 538.08 481.69"/>
      <path class="cls-29" d="M648.46,471.19l4.86,10h-114.48l2.91-10h106.71m.78-1h-108.4l-3.5,12h117.72l-5.83-12h0Z"/>
    </g>
    <g>
      <polygon class="cls-28" points="187.86 444.69 191.06 433.69 298.61 433.69 303.95 444.69 187.86 444.69"/>
      <path class="cls-29" d="M298.23,434.19l4.86,10h-114.48l2.91-10h106.71m.78-1h-108.4l-3.5,12h117.72l-5.83-12h0Z"/>
    </g>
    <g>
      <polygon class="cls-28" points="186.7 477.69 189.89 467.69 299.78 466.69 305.11 477.69 186.7 477.69"/>
      <path class="cls-29" d="M299.39,467.2l4.85,9.99h-116.78l2.87-9.01,109.06-.98m.77-1.01l-110.73,1-3.5,11h120.06l-5.83-12h0Z"/>
    </g>
    <g id="Layer_2" data-name="Layer 2">
      <rect class="cls-3" x="149.66" y="164.06" width="567" height="251"/>
      <polygon class="cls-3" points="653.66 92.4 86.66 92.4 86.76 78.4 653.76 80.4 653.66 92.4"/>
      <rect class="cls-29" x="239.66" y="182.06" width="176.5" height="177"/>
      <line class="cls-18" x1="149.66" y1="411.06" x2="239.66" y2="359.06"/>
      <line class="cls-18" x1="149.66" y1="168.06" x2="245.66" y2="185.06"/>
      <line class="cls-18" x1="716.66" y1="415.06" x2="640.66" y2="356.06"/>
      <line class="cls-18" x1="716.66" y1="167.06" x2="638.66" y2="185.06"/>
      <line class="cls-18" x1="428.66" y1="411.06" x2="410.66" y2="353.06"/>
      <line class="cls-18" x1="471.66" y1="354.06" x2="442.66" y2="411.06"/>
      <rect class="cls-29" x="468.06" y="180.38" width="176.5" height="177"/>
      <line class="cls-23" x1="430.16" y1="174.56" x2="416.16" y2="182.56"/>
      <line class="cls-23" x1="444.16" y1="170.56" x2="468.16" y2="180.56"/>
      <line class="cls-1" x1="411.66" y1="186.06" x2="433.16" y2="169.56"/>
      <line class="cls-11" x1="467.66" y1="180.06" x2="433.66" y2="169.06"/>
      <line class="cls-12" x1="467.57" y1="182.32" x2="435.66" y2="167.06"/>
      <line class="cls-12" x1="430.66" y1="168.06" x2="412.52" y2="182.72"/>
      <line class="cls-4" x1="433.66" y1="411.06" x2="433.66" y2="164.06"/>
      <rect class="cls-21" x="105.76" y="15.4" width="148" height="55"/>
      <line class="cls-20" x1="123.26" y1="26.9" x2="123.26" y2="62.9"/>
      <line class="cls-20" x1="135.26" y1="26.9" x2="135.26" y2="62.9"/>
      <line class="cls-20" x1="129.26" y1="25.9" x2="129.26" y2="61.9"/>
      <line class="cls-20" x1="117.26" y1="25.9" x2="117.26" y2="61.9"/>
      <line class="cls-20" x1="141.26" y1="25.9" x2="141.26" y2="61.9"/>
      <line class="cls-20" x1="146.26" y1="26.9" x2="146.26" y2="62.9"/>
      <rect class="cls-19" x="117.26" y="71.9" width="13" height="3"/>
      <rect class="cls-19" x="228.26" y="71.9" width="13" height="3"/>
      <line class="cls-8" x1="202.26" y1="12.9" x2="243.26" y2="3.9"/>
      <rect class="cls-24" x="241.26" y="1.91" width="7" height="3" transform="translate(4.96 52.55) rotate(-12.38)"/>
      <circle class="cls-6" cx="200.76" cy="43.4" r="17.5"/>
      <circle class="cls-15" cx="236.76" cy="39.4" r="4"/>
      <circle class="cls-15" cx="236.76" cy="51.4" r="5"/>
      <line class="cls-16" x1="238.76" y1="32.4" x2="237.76" y2="35.4"/>
      <line class="cls-16" x1="238.76" y1="47.4" x2="239.76" y2="44.4"/>
    </g>
    <g id="hen">
      <g>
        <ellipse class="cls-26" cx="318.6" cy="376.19" rx="64" ry="17.5"/>
        <path class="cls-26" d="M318.6,359.19c37.98,0,63.5,8.79,63.5,17s-25.52,17-63.5,17-63.5-8.79-63.5-17,25.52-17,63.5-17m0-1c-35.62,0-64.5,8.06-64.5,18s28.88,18,64.5,18,64.5-8.06,64.5-18-28.88-18-64.5-18h0Z"/>
      </g>
      <g>
        <ellipse class="cls-27" cx="319.6" cy="358.19" rx="64" ry="17.5"/>
        <path class="cls-27" d="M319.6,341.19c37.98,0,63.5,8.79,63.5,17s-25.52,17-63.5,17-63.5-8.79-63.5-17,25.52-17,63.5-17m0-1c-35.62,0-64.5,8.06-64.5,18s28.88,18,64.5,18,64.5-8.06,64.5-18-28.88-18-64.5-18h0Z"/>
      </g>
      <path class="cls-26" d="M382.96,362.72c-.72,1.65-2.04,2.74-3.67,3.43-1.93,.82-4.27,1-6.41,1.17-.81,.06-1.5,.64-1.5,1.5,0,.76,.69,1.56,1.5,1.5,2.67-.21,5.35-.45,7.83-1.54,2.05-.9,3.94-2.47,4.84-4.55,.32-.74,.22-1.61-.54-2.05-.64-.37-1.73-.21-2.05,.54h0Z"/>
      <path class="cls-30" d="M254.07,350.67c1.42,3.46,3.2,7.33,6.96,8.69,3.38,1.22,7.11,.48,10.54,1.54,.92,.29,1.32-1.16,.4-1.45-3.13-.97-6.45-.48-9.6-1.26-1.65-.41-3.02-1.27-4.04-2.65-1.18-1.59-2.06-3.45-2.8-5.27-.36-.88-1.81-.5-1.45,.4h0Z"/>
      <path class="cls-30" d="M252.62,356.85c-1.97,8.16,7.83,11.88,13.97,13.35,8.21,1.97,16.74,1.77,25.11,1.41,.96-.04,.97-1.54,0-1.5-7.49,.32-15.1,.54-22.51-.88-3.46-.67-7.05-1.6-10.15-3.31s-5.89-4.89-4.97-8.67c.23-.94-1.22-1.34-1.45-.4h0Z"/>
      <path class="cls-30" d="M387.37,349.41c.85,3.09,1.89,7.26-.74,9.81-1.38,1.33-3.45,2.07-5.17,2.83-1.87,.84-3.78,1.6-5.71,2.29-7.49,2.67-15.34,4.24-23.28,4.66-.96,.05-.97,1.55,0,1.5,8.83-.47,17.56-2.3,25.8-5.5,2.03-.79,4.04-1.65,6-2.6,1.61-.78,3.24-1.62,4.28-3.14,2.05-2.99,1.14-7.01,.26-10.24-.25-.93-1.7-.54-1.45,.4h.01Z"/>
      <path class="cls-30" d="M350.68,372.5c6.92,2.5,14.58,2.66,21.64,.63,3.48-1,6.84-2.54,9.84-4.57,1.35-.92,2.95-1.93,3.88-3.3,1.09-1.6,.72-3.69,1.8-5.27,.55-.8-.75-1.55-1.3-.76-.92,1.35-.81,2.95-1.36,4.43-.63,1.69-2.66,2.87-4.1,3.82-2.93,1.93-6.15,3.38-9.53,4.31-6.72,1.85-13.9,1.64-20.47-.73-.91-.33-1.3,1.12-.4,1.45h0Z"/>
      <path class="cls-30" d="M370.16,376.58c3.02,.63,6.08,.73,9.13,.25,1.25-.19,2.57-.45,3.61-1.23s1.71-1.93,2.38-2.99c3.11-4.88,5.13-10.42,5.94-16.14,.13-.94-1.31-1.35-1.45-.4-.73,5.14-2.43,10.11-5.06,14.59-.64,1.09-1.29,2.24-2.13,3.19s-2.08,1.26-3.31,1.47c-2.88,.5-5.85,.4-8.71-.19-.94-.2-1.34,1.25-.4,1.45h0Z"/>
      <path class="cls-30" d="M371.1,385.34c3.32,.26,6.58,.27,9.35-1.84,2.54-1.93,4.41-4.79,6.3-7.32,4.02-5.38,7.65-11.24,8.34-18.06,.1-.96-1.4-.95-1.5,0-.63,6.23-3.99,11.68-7.63,16.61-1.73,2.35-3.45,4.89-5.6,6.88-2.66,2.47-5.84,2.5-9.27,2.22-.96-.08-.96,1.42,0,1.5h.01Z"/>
      <path class="cls-30" d="M343.75,362.95c-8.57,3.84-18.22,4.44-27.47,4.84-4.77,.21-9.56,.07-14.09-1.58-4.31-1.57-8.16-4.18-11.94-6.73-.8-.54-1.55,.76-.76,1.3,6.17,4.16,12.34,7.87,19.92,8.47,3.98,.32,7.99,.02,11.97-.24,3.7-.24,7.4-.58,11.06-1.2,4.16-.7,8.22-1.83,12.07-3.56,.88-.39,.12-1.69-.76-1.3h0Z"/>
      <path class="cls-30" d="M259.93,346.43c-1.03,3.69-2.03,7.73-.39,11.4,1.34,3.01,4.19,5.05,7.07,6.46,7.1,3.46,15.2,4.61,23.01,5.01,4.69,.24,9.38,.19,14.08,.13,.96-.01,.97-1.51,0-1.5-9.54,.12-19.26,.24-28.57-2.18-4.11-1.07-8.69-2.52-11.9-5.44-1.75-1.6-2.87-3.62-3.05-6.01-.19-2.54,.52-5.05,1.19-7.46,.26-.93-1.19-1.33-1.45-.4h.01Z"/>
      <path class="cls-30" d="M250.04,363.92c-.89,3.01-.03,6.16,1.82,8.63,1.98,2.65,4.9,4.26,8.01,5.23,3.67,1.14,7.59,1.55,11.4,1.96,4.18,.46,8.38,.73,12.59,.81,4.85,.1,9.71-.07,14.54-.46,.96-.08,.96-1.58,0-1.5-9.76,.8-19.58,.61-29.3-.6-4.34-.54-9.02-1.09-12.82-3.42-3.42-2.1-6-6.17-4.78-10.25,.28-.93-1.17-1.32-1.45-.4h-.01Z"/>
      <path class="cls-30" d="M263.92,381.58c5.29,3.26,11.3,4.96,17.34,6.21,6.65,1.38,13.36,2.5,20.08,3.44,13.66,1.91,27.46,2.95,41.26,2.78,6.85-.08,13.99-.17,20.29-3.22,.87-.42,.11-1.72-.76-1.3-5.6,2.72-11.96,2.89-18.07,3-6.74,.12-13.48-.05-20.21-.47-13.37-.83-26.68-2.65-39.83-5.21-6.71-1.3-13.46-2.91-19.34-6.54-.82-.51-1.58,.79-.76,1.3h0Z"/>
      <path class="cls-30" d="M369.3,372.59c-3.04,8.24-11.5,12.54-19.65,14.13-4.74,.92-9.63,1.18-14.46,1.27s-9.79-.23-14.27-2.2c-.88-.38-1.64,.91-.76,1.3,7.29,3.2,15.75,2.65,23.5,1.96s14.82-2.39,20.65-7.17c2.88-2.36,5.14-5.37,6.43-8.88,.33-.91-1.11-1.3-1.45-.4h.01Z"/>
      <path class="cls-30" d="M346.41,374.27c3.97,.76,8.01,1.07,12.05,.83,1.97-.12,3.93-.35,5.87-.71,1.6-.29,3.26-.66,4.52-1.78s1.83-2.61,2.39-4.08c.67-1.77,1.16-3.6,1.34-5.48,.31-3.32-.57-6.7-2.91-9.14-.67-.7-1.73,.36-1.06,1.06,2.12,2.22,2.78,5.32,2.45,8.3-.19,1.74-.71,3.44-1.34,5.07-.57,1.46-1.26,2.98-2.72,3.73-1.34,.69-2.99,.88-4.46,1.1-1.74,.26-3.49,.41-5.25,.47-3.51,.12-7.01-.17-10.46-.83-.94-.18-1.35,1.26-.4,1.45h-.02Z"/>
      <path class="cls-30" d="M373.74,348.9c1.95,4.94,.12,10.58-3.54,14.24-3.99,3.98-9.71,5.66-15.19,6.16-.95,.09-.96,1.59,0,1.5,5.97-.55,12.21-2.39,16.48-6.83,3.85-4.01,5.8-10.15,3.7-15.47-.35-.89-1.8-.5-1.45,.4h0Z"/>
      <path class="cls-30" d="M383.26,360.9c.69-5.22,3.71-10.2,2.2-15.57-.26-.93-1.71-.53-1.45,.4,1.44,5.11-1.59,10.17-2.25,15.17-.13,.95,1.37,.94,1.5,0h0Z"/>
      <path class="cls-30" d="M280.15,342.05c-1.51-.87-3.69-.68-5.37-.75-2.32-.1-4.65-.12-6.98-.06-4.48,.13-8.94,.58-13.36,1.32-.95,.16-.55,1.6,.4,1.45,4.13-.69,8.3-1.11,12.48-1.25,2-.07,4.01-.07,6.02-.01,.96,.03,1.92,.07,2.89,.13s2.28-.04,3.17,.47c.84,.48,1.59-.81,.76-1.3h-.01Z"/>
      <path class="cls-30" d="M251.65,346.67c-2.14,1.78-3.33,4.05-1.55,6.59,1.63,2.33,4.51,4.01,6.95,5.35,5.56,3.06,11.75,4.71,17.85,6.31,.93,.25,1.33-1.2,.4-1.45-5.17-1.36-10.4-2.73-15.26-5.02-2.39-1.13-4.71-2.47-6.79-4.13-.99-.79-2.11-1.74-2.48-2.99-.47-1.58,.84-2.7,1.93-3.6,.74-.62-.32-1.68-1.06-1.06h.01Z"/>
      <path class="cls-30" d="M259.48,369.06c-3.96-2.42-8.48-5.25-9.45-10.17-.19-.95-1.63-.55-1.45,.4,1.06,5.31,5.85,8.44,10.14,11.07,.83,.5,1.58-.79,.76-1.3h0Z"/>
      <path class="cls-30" d="M244.69,359.59c-.26,5.07,1.9,9.88,5.24,13.62,3.52,3.95,8.31,6.48,13.23,8.25,5.7,2.04,11.72,3.28,17.68,4.27s12.14,1.6,18.26,1.8c7.17,.23,14.34-.1,21.46-.97,.95-.12,.96-1.62,0-1.5-11.87,1.45-23.92,1.4-35.77-.24-5.77-.8-11.54-1.92-17.15-3.51-5.13-1.45-10.3-3.45-14.4-6.95-4.3-3.67-7.35-8.99-7.05-14.76,.05-.96-1.45-.96-1.5,0h0Z"/>
      <path class="cls-30" d="M302.72,378.51c7.55,2.45,15.31,4.17,23.19,5.11,3.98,.48,7.99,.75,12,.83,3.22,.06,6.81,.33,9.52-1.74s3.98-5.45,6.97-7.08c.85-.46,.09-1.76-.76-1.3-3.19,1.74-4.46,5.39-7.39,7.39-1.96,1.34-4.41,1.26-6.69,1.25-2.44-.01-4.87-.1-7.31-.26-9.91-.66-19.7-2.58-29.13-5.65-.92-.3-1.31,1.15-.4,1.45h0Z"/>
      <path class="cls-30" d="M328.44,372.32c-4.27-.5-8.54-.99-12.8-1.49l-6.4-.74c-2.03-.24-4.12-.4-5.98-1.32-.86-.43-1.62,.87-.76,1.3,1.69,.83,3.47,1.14,5.33,1.36,2.27,.28,4.55,.53,6.83,.79,4.6,.53,9.19,1.07,13.79,1.6,.96,.11,.95-1.39,0-1.5h0Z"/>
      <path class="cls-30" d="M320.04,372.53c7.88-.43,15.72-1.37,23.47-2.84,3.7-.7,7.43-1.44,11.05-2.49,2.63-.76,5.24-1.95,6.64-4.43,.48-.84-.82-1.6-1.3-.76-1.45,2.56-4.43,3.43-7.11,4.11-3.52,.89-7.07,1.65-10.63,2.3-7.31,1.35-14.7,2.2-22.12,2.61-.96,.05-.97,1.55,0,1.5h0Z"/>
      <path class="cls-30" d="M357.63,360.34c2.82,.68,5.7,.8,8.6,.71,2.67-.09,5.36-.21,8-.59,2.39-.34,4.79-.99,6.81-2.34s3.59-3.46,5.03-5.5c.56-.79-.74-1.54-1.3-.76-1.36,1.93-2.78,3.91-4.83,5.18s-4.4,1.78-6.73,2.05c-4.94,.58-10.32,.99-15.18-.19-.94-.23-1.34,1.22-.4,1.45h0Z"/>
      <path class="cls-30" d="M386.32,347c-2.19,3.86-6.22,6.07-10.25,7.59-4.95,1.86-10.16,2.94-15.43,3.26-.96,.06-.97,1.56,0,1.5,5.65-.35,11.27-1.5,16.54-3.59,4.15-1.64,8.18-4.01,10.44-8,.48-.84-.82-1.6-1.3-.76h0Z"/>
      <path class="cls-30" d="M361.48,365.39c5.21,1.92,10.44,3.85,15.89,4.98,4.22,.87,9.73,1.54,12.32-2.8,.5-.83-.8-1.59-1.3-.76-2.59,4.34-9,2.56-12.91,1.59-4.64-1.15-9.13-2.8-13.61-4.46-.91-.33-1.3,1.11-.4,1.45h0Z"/>
      <path class="cls-30" d="M367.85,368.05c.26,2.43,2.26,3.84,4.53,4.32,2.98,.62,6.22,.54,9.23,.25,4.65-.45,11.47-1.61,12.03-7.38,.09-.96-1.41-.95-1.5,0-.46,4.73-6.86,5.53-10.53,5.88-2.3,.22-4.63,.24-6.93,.05-2-.17-5.06-.6-5.33-3.11-.1-.95-1.6-.96-1.5,0h0Z"/>
      <path class="cls-30" d="M389.11,369.5c-13.61,8.72-30.24,8.88-45.85,8.91-.97,0-.97,1.5,0,1.5,15.87-.03,32.78-.25,46.61-9.11,.81-.52,.06-1.82-.76-1.3h0Z"/>
      <path class="cls-30" d="M327.63,376.66c1.96,4.26,7.17,5.9,11.41,6.78,5.36,1.11,10.92,.91,16.2-.52,.93-.25,.54-1.7-.4-1.45-4.87,1.32-10,1.57-14.96,.61-3.99-.77-9.1-2.14-10.96-6.18-.4-.88-1.7-.11-1.3,.76h0Z"/>
      <path class="cls-30" d="M374.2,377.22c-8.77,.59-17.56,.87-26.35,.83-4.13-.02-8.55,.26-12.31-1.75-3.05-1.63-5.6-4.03-8.93-5.14-.92-.31-1.31,1.14-.4,1.45,3.43,1.15,6.03,3.81,9.26,5.34,3.7,1.75,7.88,1.57,11.88,1.6,8.95,.05,17.91-.23,26.84-.83,.96-.06,.97-1.56,0-1.5h0Z"/>
      <path class="cls-30" d="M329.75,374.9c2.64,1.93,5.3,3.86,8.32,5.16s6.21,1.75,9.46,1.63c6.92-.26,13.56-2.71,20.51-2.63,.97,0,.97-1.49,0-1.5-6.66-.07-13.03,2.16-19.64,2.59-3.3,.21-6.59-.12-9.66-1.42s-5.63-3.21-8.23-5.12c-.78-.57-1.53,.73-.76,1.3h0Z"/>
      <path class="cls-30" d="M382.55,374.4c-.09,3.73-5.63,4.08-8.32,4.64-3.61,.76-7.22,1.52-10.86,2.15-7,1.2-14.32,1.75-21.09-.83-.9-.34-1.29,1.1-.4,1.45,7.45,2.85,15.56,1.99,23.22,.59,4.12-.75,8.23-1.62,12.33-2.51,2.96-.64,6.53-1.9,6.61-5.49,.02-.97-1.48-.97-1.5,0h.01Z"/>
      <path class="cls-30" d="M338.28,387.2c1.65,2.67,4.51,3.99,7.5,4.6,3.75,.76,7.71,.74,11.51,.67,4.18-.07,8.4-.39,12.53-1.09,3.38-.58,6.77-1.65,9.19-4.2,.67-.7-.39-1.76-1.06-1.06-2.25,2.37-5.4,3.28-8.53,3.82-3.84,.65-7.76,.94-11.65,1.02-3.55,.08-7.21,.11-10.72-.45-2.88-.46-5.86-1.46-7.47-4.06-.51-.82-1.8-.07-1.3,.76h0Z"/>
      <path class="cls-30" d="M366,380.91c-18.57,4.96-38.3,4.87-56.83-.25-.93-.26-1.33,1.19-.4,1.45,18.78,5.19,38.8,5.28,57.62,.25,.93-.25,.54-1.7-.4-1.45h.01Z"/>
      <path class="cls-30" d="M315.65,371.08c1.87-.42,3.75-.83,5.62-1.25,.4-.09,.63-.55,.52-.92-.11-.41-.53-.61-.92-.52-1.87,.42-3.75,.83-5.62,1.25-.4,.09-.63,.55-.52,.92,.11,.41,.53,.61,.92,.52h0Z"/>
      <path class="cls-30" d="M330.85,363.56c-4.02,6.57-11.77,9.29-18.81,11.27-8.5,2.38-17.78,4.32-26.29,.97-.9-.35-1.29,1.1-.4,1.45,6.82,2.68,14.27,2.05,21.27,.5,6.28-1.39,12.92-3.13,18.45-6.53,2.85-1.76,5.33-4.03,7.08-6.9,.51-.83-.79-1.58-1.3-.76h0Z"/>
      <path class="cls-30" d="M289.17,380.34c14.12,3.54,29.65,7.12,43.4,.32,.87-.43,.11-1.72-.76-1.3-13.35,6.6-28.57,2.95-42.24-.47-.94-.23-1.34,1.21-.4,1.45h0Z"/>
      <path class="cls-30" d="M339.57,374.21c-12.65,3.42-26.14,2.87-38.47-1.54-.91-.33-1.3,1.12-.4,1.45,12.58,4.49,26.38,5.02,39.27,1.54,.93-.25,.54-1.7-.4-1.45h0Z"/>
      <path class="cls-30" d="M297.62,372.9c16.9,2.34,34.08,2.27,50.96-.28,4.89-.74,9.75-1.69,14.56-2.83,.94-.22,.54-1.67-.4-1.45-16.4,3.9-33.32,5.43-50.15,4.51-4.87-.26-9.73-.73-14.56-1.4-.94-.13-1.35,1.31-.4,1.45h-.01Z"/>
      <path class="cls-30" d="M372.81,361.32c-2.65,2.37-5.81,4.03-9.04,5.46s-6.87,2.75-10.41,3.78c-7.1,2.06-14.43,3.15-21.82,3.3-.96,.02-.97,1.52,0,1.5,7.67-.15,15.3-1.31,22.66-3.48,6.84-2.02,14.28-4.68,19.68-9.5,.72-.64-.34-1.7-1.06-1.06h0Z"/>
      <path class="cls-30" d="M341.42,375.23c3.9,1.87,7.87,3.77,12.14,4.61,3.13,.61,7.46,1.07,9.7-1.77,.59-.75-.46-1.82-1.06-1.06-2.1,2.67-6.52,1.83-9.35,1.14-3.73-.9-7.22-2.56-10.67-4.21-.87-.41-1.63,.88-.76,1.3h0Z"/>
      <path class="cls-30" d="M341.6,382.39c-11.44,2.42-23.15,3.29-34.83,2.62-.96-.06-.96,1.44,0,1.5,11.81,.68,23.66-.23,35.23-2.67,.94-.2,.54-1.65-.4-1.45h0Z"/>
      <path class="cls-30" d="M283.02,377.7c5.83,.13,11.65-.85,17.11-2.9,.9-.34,.51-1.79-.4-1.45-5.35,2.01-11,2.97-16.71,2.85-.97-.02-.97,1.48,0,1.5h0Z"/>
      <path class="cls-30" d="M297.74,372.58c-10.55,4.53-22.33,5.98-33.66,4.14-.94-.15-1.35,1.29-.4,1.45,11.78,1.91,23.86,.42,34.82-4.29,.88-.38,.12-1.67-.76-1.3h0Z"/>
      <path class="cls-30" d="M261.64,375.56c5.51,.88,11.08,1.22,16.66,.96,2.52-.12,5.07-.31,7.56-.74,2-.34,3.99-1.02,5.3-2.65,.6-.74-.45-1.81-1.06-1.06-1.35,1.68-3.47,2.12-5.51,2.39-2.41,.32-4.83,.51-7.26,.59-5.11,.18-10.24-.14-15.29-.94-.94-.15-1.35,1.3-.4,1.45h0Z"/>
      <path class="cls-30" d="M288.69,370.13c-2.68,.69-5.38,1.31-8.1,1.85s-5.73,1.21-8.59,1.39c-2.68,.17-5.43-1.17-7.88-2.11-2.67-1.02-5.29-2.16-7.88-3.38-.87-.41-1.63,.88-.76,1.3,2.56,1.21,5.15,2.34,7.79,3.36s5.45,2.4,8.27,2.36,5.73-.75,8.48-1.28c3.04-.58,6.06-1.26,9.06-2.04,.93-.24,.54-1.69-.4-1.45h.01Z"/>
      <path class="cls-30" d="M255.74,368.08c5.5,.76,11.06,.55,16.49-.63,.94-.21,.54-1.65-.4-1.45-5.15,1.12-10.47,1.35-15.69,.63-.94-.13-1.35,1.32-.4,1.45h0Z"/>
      <path class="cls-30" d="M285.34,361.85c-5.63,1.47-11.34,2.61-17.11,3.4-2.9,.4-5.8,.7-8.72,.92s-5.89,.48-8.75-.3c-.93-.25-1.33,1.19-.4,1.45,2.76,.75,5.6,.6,8.43,.4,3.06-.21,6.12-.53,9.16-.93,6-.8,11.93-1.97,17.79-3.5,.93-.24,.54-1.69-.4-1.45h0Z"/>
      <path class="cls-30" d="M254.16,368.36c13.95,1.26,28,1.09,41.92-.52,.95-.11,.96-1.61,0-1.5-13.92,1.6-27.97,1.78-41.92,.52-.96-.09-.96,1.41,0,1.5h0Z"/>
      <path class="cls-30" d="M291.13,373.49c-2.89,5.5-9.7,5.84-15.16,5.89-6.42,.07-12.83,.12-19.25,.18-.96,0-.97,1.51,0,1.5,7.02-.07,14.05-.04,21.07-.21,5.5-.13,11.83-1.26,14.64-6.61,.45-.85-.85-1.61-1.3-.76h0Z"/>
      <path class="cls-30" d="M255.36,382.14c7.15,3.71,15.24,5.36,23.27,4.65s16.41-3.62,24.81-4.18c.96-.06,.97-1.56,0-1.5-8.1,.54-15.84,3.22-23.89,4.09-8.08,.87-16.21-.6-23.43-4.35-.86-.44-1.62,.85-.76,1.3h0Z"/>
      <path class="cls-30" d="M307.03,379.9c-18.96,4.74-38.83,5.46-58.08,2.05-.94-.17-1.35,1.28-.4,1.45,19.52,3.45,39.65,2.76,58.88-2.05,.94-.23,.54-1.68-.4-1.45h0Z"/>
      <path class="cls-30" d="M246.06,376.91c3.38,6.02,9.7,9.58,16.23,11.21,8.44,2.11,17.25,1.11,25.84,1.38,.97,.03,.96-1.47,0-1.5-8.21-.26-16.63,.69-24.71-1.15-6.43-1.47-12.74-4.78-16.07-10.7-.47-.84-1.77-.09-1.3,.76h0Z"/>
      <path class="cls-30" d="M289.05,388.57c1.69,2.65,4.77,3.39,7.73,3.63,4.21,.34,8.48,.31,12.7,.42,9.14,.23,18.28,.31,27.42-.1,.96-.04,.97-1.54,0-1.5-8.47,.38-16.95,.34-25.42,.15-4.15-.1-8.31-.22-12.46-.36-2.99-.1-6.87-.18-8.67-3-.52-.81-1.82-.06-1.3,.76h0Z"/>
      <path class="cls-30" d="M334.13,388.92c-8.95,1.1-17.85-.53-26.62-2.2-.94-.18-1.35,1.27-.4,1.45,8.89,1.69,17.94,3.37,27.02,2.25,.95-.12,.96-1.62,0-1.5h0Z"/>
      <path class="cls-30" d="M310.31,390.02c10.02,1.12,20.08,1.91,30.16,2.38,5.12,.24,10.24,.39,15.37,.45,4.85,.06,9.83,.32,14.66-.12s8.5-3.3,11.99-6.65c.7-.67-.36-1.73-1.06-1.06-3.25,3.12-6.49,5.85-11.16,6.23s-9.65,.17-14.43,.1c-9.67-.12-19.34-.55-28.98-1.28-5.52-.42-11.04-.94-16.54-1.55-.96-.11-.95,1.39,0,1.5h0Z"/>
      <path class="cls-30" d="M368.23,380.02c-2.21,1.09-4.63,1.69-7.09,1.77-.96,.03-.97,1.53,0,1.5,2.73-.09,5.39-.76,7.84-1.97,.36-.18,.46-.69,.27-1.03-.22-.37-.66-.45-1.03-.27h.01Z"/>
      <path class="cls-30" d="M360.95,386.38c13.52,2.25,27.5,.76,40.21-4.38,.88-.36,.5-1.81-.4-1.45-12.45,5.03-26.16,6.59-39.42,4.38-.94-.16-1.35,1.29-.4,1.45h0Z"/>
      <path class="cls-30" d="M379.53,379.08c3.46-.06,6.91-.39,10.31-1.02,1.69-.31,3.38-.7,5.04-1.16,1.19-.33,2.36-.77,2.78-2.03,.31-.92-1.14-1.31-1.45-.4-.33,.99-2.5,1.19-3.34,1.4-1.46,.36-2.93,.66-4.41,.91-2.95,.5-5.93,.75-8.93,.8-.96,.02-.97,1.52,0,1.5h0Z"/>
      <path class="cls-30" d="M396.47,373.27c-4.04,1.65-8.36,2.04-12.67,2.31s-9.04,.52-13.56,.74c-9.15,.43-18.31,.74-27.47,.93-.96,.02-.97,1.52,0,1.5,9.33-.19,18.65-.5,27.97-.95,4.58-.22,9.17-.46,13.75-.75,4.21-.27,8.45-.71,12.39-2.32,.88-.36,.5-1.81-.4-1.45h-.01Z"/>
      <path class="cls-30" d="M334.72,378.9c-2.02,2.89-5.66,3.9-8.88,4.82-3.77,1.08-7.6,1.93-11.46,2.56-7.83,1.26-15.8,1.54-23.7,.91-.96-.08-.96,1.42,0,1.5,8.35,.67,16.77,.3,25.03-1.12,4.14-.71,8.25-1.67,12.25-2.91,3.1-.96,6.14-2.27,8.06-5,.56-.79-.74-1.54-1.3-.76h0Z"/>
      <path class="cls-30" d="M292.95,386.75c-8.29,3.81-18.22,3.26-26.08-1.35-.83-.49-1.59,.81-.76,1.3,8.35,4.9,18.8,5.38,27.59,1.35,.88-.4,.12-1.7-.76-1.3h.01Z"/>
      <path class="cls-30" d="M245.73,355.67c1.4,3.9,5.41,5.24,9.19,5.71,5,.62,10.08,.57,15.08,0,.95-.11,.96-1.61,0-1.5-4.28,.49-8.6,.58-12.9,.23-3.61-.3-8.49-.85-9.92-4.83-.32-.9-1.77-.51-1.45,.4h0Z"/>
      <path class="cls-30" d="M256.94,346.95c3.99-2.75,8.98-1.84,13.36-.67,.93,.25,1.33-1.2,.4-1.45-4.74-1.27-10.19-2.16-14.51,.82-.79,.54-.04,1.84,.76,1.3h0Z"/>
      <path class="cls-30" d="M276.14,342.08c6.2,.69,12.41,1.37,18.61,2.06,.96,.11,.95-1.39,0-1.5-6.2-.69-12.41-1.37-18.61-2.06-.96-.11-.95,1.39,0,1.5h0Z"/>
      <path class="cls-30" d="M281.97,346.34c-1.83-.47-3.7-.8-5.59-.95-1.69-.13-3.56-.28-5.18,.33s-3.27,1.6-4.87,2.42c-1.75,.89-3.49,1.78-5.24,2.67-.86,.44-.1,1.73,.76,1.3,3.1-1.58,6.17-3.26,9.32-4.74,1.51-.71,3.19-.6,4.82-.5,1.89,.12,3.75,.45,5.58,.92,.94,.24,1.33-1.2,.4-1.45h0Z"/>
      <path class="cls-30" d="M354,344.76c4.09,.17,8.22-1.09,12.29-.42,3.64,.6,6.7,2.97,10.43,3.24,.96,.07,.96-1.43,0-1.5-3.76-.27-6.91-2.79-10.64-3.27-4.03-.52-8.04,.62-12.08,.46-.97-.04-.96,1.46,0,1.5h0Z"/>
      <path class="cls-30" d="M360.39,346.76c3.89,.34,7.86-1.29,11.7-.26,1.71,.46,3.38,1.32,4.92,2.19s2.89,1.87,3.48,3.51c.32,.9,1.77,.51,1.45-.4-1.21-3.43-5.2-5.22-8.37-6.4-4.33-1.63-8.73,.24-13.17-.14-.96-.08-.96,1.42,0,1.5h-.01Z"/>
      <path class="cls-30" d="M337.76,343.9c4.02-2.86,8.91-3.84,13.77-3.95,5.51-.12,11.04,.66,16.35,2.1,.93,.25,1.33-1.19,.4-1.45-5.56-1.5-11.39-2.32-17.16-2.14-4.97,.16-10.01,1.21-14.12,4.14-.78,.56-.03,1.86,.76,1.3h0Z"/>
      <path class="cls-30" d="M319.47,344.48c9.69-1.86,19.59-2.32,29.41-1.39,.96,.09,.95-1.41,0-1.5-9.96-.94-19.99-.44-29.81,1.45-.95,.18-.55,1.63,.4,1.45h0Z"/>
      <path class="cls-30" d="M302.41,340.12c-9.22-2.91-19.06-3.34-28.5-1.29-.94,.21-.54,1.65,.4,1.45,9.19-2,18.74-1.54,27.71,1.29,.92,.29,1.32-1.16,.4-1.45h0Z"/>
      <path class="cls-30" d="M311.88,343.57c.64-4.05-4.4-4.37-7.18-4.65-4.41-.43-8.85-.52-13.27-.27-8.77,.5-17.43,2.33-25.65,5.4-.9,.34-.51,1.79,.4,1.45,7.23-2.71,14.81-4.47,22.51-5.15,3.8-.34,7.63-.42,11.44-.25,1.83,.08,3.66,.22,5.48,.42,1.48,.16,5.2,.3,4.83,2.65-.15,.94,1.3,1.35,1.45,.4h-.01Z"/>
      <path class="cls-30" d="M321.21,343.66c8.67-1.3,17.38-2.34,26.11-3.1,6.79-.59,14.82-1.39,20.47,3.25,.74,.61,1.81-.45,1.06-1.06-5.75-4.72-13.55-4.36-20.55-3.77-9.2,.78-18.37,1.87-27.5,3.24-.95,.14-.55,1.59,.4,1.45h0Z"/>
      <path class="cls-30" d="M269.01,348.45c-3.48,.85-7.2-.04-10.61,1.22-2.77,1.02-5.13,3.71-4.36,6.83,.23,.94,1.68,.54,1.45-.4-.72-2.93,2.27-4.87,4.73-5.38,3.03-.63,6.17-.08,9.2-.82,.94-.23,.54-1.68-.4-1.45h-.01Z"/>
      <path class="cls-30" d="M263.49,356.69c-1.77-1.8-4.44-2.66-6.93-2.54s-4.91,1.46-5.45,3.98c-.2,.94,1.25,1.34,1.45,.4,.43-2.02,2.49-2.89,4.38-2.89,1.99,0,4.07,.67,5.49,2.11,.68,.69,1.74-.37,1.06-1.06h0Z"/>
      <path class="cls-30" d="M369.97,362.7c2.25,1.02,4.82,.2,6.53-1.48,1.87-1.85,2.58-4.54,3.15-7.02,.22-.94-1.23-1.34-1.45-.4-.49,2.11-1.02,4.43-2.51,6.09-1.18,1.31-3.23,2.3-4.97,1.52-.37-.17-.81-.11-1.03,.27-.19,.32-.1,.86,.27,1.03h.01Z"/>
      <path class="cls-30" d="M379.01,346.78c3.62-.43,7.27-.16,10.78,.82,.93,.26,1.33-1.19,.4-1.45-3.63-1.01-7.43-1.32-11.18-.87-.41,.05-.75,.31-.75,.75,0,.37,.35,.8,.75,.75h0Z"/>
      <path class="cls-30" d="M349.82,348.76c10.6-2.09,21.66-4.19,32.32-1.34,.93,.25,1.33-1.2,.4-1.45-10.93-2.93-22.25-.81-33.12,1.34-.95,.19-.55,1.63,.4,1.45h0Z"/>
      <path class="cls-30" d="M379.53,358.57c6.31-.05,12.61,.21,18.89,.77,.96,.09,.96-1.41,0-1.5-6.28-.57-12.59-.82-18.89-.77-.96,0-.97,1.51,0,1.5h0Z"/>
      <path class="cls-30" d="M371.61,369.09c4.05,.45,8.55,.64,11.98-1.96s3.44-6.55,4.71-10.16c.32-.91-1.13-1.31-1.45-.4-1.13,3.24-1.21,7.2-4.21,9.41-3.17,2.33-7.34,2.02-11.03,1.61-.96-.11-.95,1.39,0,1.5h0Z"/>
      <path class="cls-30" d="M244.52,345.82c0,1.3-.63,2.49-.71,3.79-.07,1.21,.2,2.45,.61,3.59,.69,1.92,1.76,3.68,3.12,5.2,2.75,3.09,6.61,5.04,10.71,5.45,.96,.09,.95-1.41,0-1.5-3.71-.37-7.18-2.23-9.65-5.01-1.24-1.4-2.24-3.05-2.83-4.82-.37-1.1-.59-2.29-.4-3.45s.64-2.11,.65-3.25c0-.97-1.49-.97-1.5,0h0Z"/>
      <path class="cls-30" d="M258.18,349.17c-.77,3.65,1.47,6.93,4.26,9.06,2.97,2.27,6.57,3.54,10.24,4.08,8.29,1.21,17.07-.65,24.87-3.41,.9-.32,.51-1.77-.4-1.45-7.04,2.5-14.78,4.2-22.29,3.6-3.38-.27-6.77-1.09-9.72-2.81s-6.32-4.88-5.52-8.68c.2-.94-1.25-1.34-1.45-.4h.01Z"/>
      <path class="cls-30" d="M280.99,366.38c8,1.84,16.23,2.67,24.44,2.39,6.74-.23,13.84-1.14,19.2-5.58,.74-.62-.32-1.67-1.06-1.06-5.28,4.37-12.53,5.01-19.11,5.17-7.76,.19-15.51-.62-23.08-2.36-.94-.22-1.34,1.23-.4,1.45h0Z"/>
      <path class="cls-30" d="M317.78,380.81c12.56,5.25,27.33,4.29,39.32-2.04,3.41-1.8,6.56-4.05,9.39-6.67,.71-.66-.35-1.72-1.06-1.06-9.73,9.01-23.6,13.11-36.69,11.24-3.63-.52-7.18-1.5-10.56-2.92-.89-.37-1.28,1.08-.4,1.45h0Z"/>
      <path class="cls-30" d="M349.18,381.1c7.7,1.93,15.56,3.25,23.47,3.9,3.51,.29,7.09,.31,10.31-1.31,2.99-1.5,5.3-4.03,7.51-6.47,.65-.71-.41-1.78-1.06-1.06-2.13,2.35-4.33,4.8-7.2,6.24-3.26,1.63-6.99,1.34-10.51,1.02-7.46-.67-14.85-1.95-22.11-3.77-.94-.23-1.34,1.21-.4,1.45h0Z"/>
      <path class="cls-30" d="M259.1,372.53c-4.38,.8-8.79,1.4-13.24,1.61-3.48,.16-9,.5-10.23-3.75-.27-.93-1.72-.53-1.45,.4,1.24,4.28,5.98,4.99,9.81,4.92,5.21-.1,10.39-.8,15.5-1.73,.95-.17,.55-1.62-.4-1.45h.01Z"/>
      <path class="cls-30" d="M242.88,374.48c5.08,3.59,10.14,6.75,16.46,7.4,6.61,.68,13.51,.1,20.11-.54,.95-.09,.96-1.59,0-1.5-6.32,.61-12.83,1.1-19.17,.62-3.16-.24-6.16-1.01-9-2.43s-5.18-3.11-7.65-4.85c-.79-.56-1.54,.74-.76,1.3h0Z"/>
      <path class="cls-30" d="M278.41,381.4c-4.59,2.25-9.68,3.29-14.79,3.06-.97-.04-.96,1.46,0,1.5,5.37,.24,10.72-.9,15.54-3.27,.87-.42,.11-1.72-.76-1.3h.01Z"/>
      <path class="cls-32" d="M245.56,349.37c.16,4.98,4.64,7.95,8.46,10.27,.33,.2,.63-.32,.3-.52-3.62-2.2-8.01-5.02-8.16-9.75,0-.39-.61-.39-.6,0h0Z"/>
      <path class="cls-32" d="M257.98,345.29c-.42-.02-.7,.27-.83,.65-.16,.48-.06,.97,.03,1.45,.25,1.39,.5,2.77,.76,4.16,.07,.38,.65,.22,.58-.16-.2-1.12-.41-2.24-.61-3.36-.05-.26-.57-2.17,.08-2.13,.39,.02,.38-.58,0-.6h-.01Z"/>
      <path class="cls-32" d="M280.61,369.9c-2.34,1.08-5.07,.88-7.58,.84-2.67-.04-5.33-.17-7.99-.4s-5.23-.44-7.78-.98-4.93-1.7-5.85-4.21c-.13-.36-.71-.2-.58,.16,1.8,4.96,8.36,5.07,12.75,5.5,3.14,.31,6.29,.49,9.44,.53,2.64,.04,5.43,.21,7.89-.93,.35-.16,.05-.68-.3-.52h0Z"/>
      <path class="cls-32" d="M249.54,374.07c4.65,6.27,13.2,4.36,19.56,2.53,.37-.11,.21-.69-.16-.58-6.04,1.74-14.43,3.76-18.88-2.25-.23-.31-.75,0-.52,.3h0Z"/>
      <path class="cls-32" d="M279.72,375.59c3.22,1.96,6.83,3.19,10.58,3.56,2.84,.28,6.46,.29,8.29-2.3,.22-.32-.3-.62-.52-.3-1.82,2.58-5.79,2.28-8.53,1.92-3.38-.45-6.61-1.62-9.51-3.39-.33-.2-.63,.32-.3,.52h-.01Z"/>
      <path class="cls-32" d="M300.72,367.18c2.68,3.44,7.08,4.75,11.3,4.77,5.56,.02,10.86-2.14,16.29-3.02,.38-.06,.22-.64-.16-.58-5.15,.83-10.15,2.82-15.4,2.99-4.3,.13-8.87-1.05-11.61-4.58-.24-.3-.66,.12-.42,.42h0Z"/>
      <path class="cls-32" d="M328.36,374.59c2.51,.45,5.06,.7,7.61,.69,1.24,0,2.49-.05,3.72-.18,.99-.1,1.95-.28,2.77-.87,.31-.22,.01-.75-.3-.52-.87,.63-1.91,.75-2.95,.83-1.17,.1-2.34,.14-3.51,.13-2.41-.01-4.81-.24-7.18-.67-.38-.07-.54,.51-.16,.58h0Z"/>
      <path class="cls-32" d="M377.87,370.32c4.97-1.1,9.68-3.26,13.72-6.37,3.51-2.71,7.09-6.47,6.9-11.23-.02-.38-.62-.39-.6,0,.2,4.88-3.77,8.68-7.42,11.32s-8.16,4.69-12.75,5.7c-.38,.08-.22,.66,.16,.58h0Z"/>
      <path class="cls-32" d="M395.7,351.54c-2.26,2-4.69,3.79-7.27,5.35-1.26,.76-2.56,1.46-3.88,2.11-.66,.32-1.33,.63-2.01,.92-.62,.27-1.71,.9-2.3,.27-.27-.28-.69,.14-.42,.42,.89,.95,2.32,.13,3.28-.29,1.6-.7,3.17-1.49,4.69-2.36,2.98-1.7,5.77-3.72,8.34-6,.29-.26-.14-.68-.42-.42h0Z"/>
      <path class="cls-32" d="M392.04,356.64c4.25-4.38,3.19-10.86,2.09-16.26-.08-.38-.66-.22-.58,.16,1.05,5.18,2.15,11.47-1.94,15.68-.27,.28,.15,.7,.42,.42h0Z"/>
      <path class="cls-32" d="M373.4,342.89c3.96-.05,7.85,1.17,11.08,3.45,.32,.22,.62-.3,.3-.52-3.32-2.34-7.33-3.58-11.39-3.53-.39,0-.39,.6,0,.6h.01Z"/>
      <path class="cls-32" d="M364.21,344.67c3.2-.07,6.41-.14,9.61-.21,1.57-.03,3.14-.07,4.71-.1,.5,0,1.08-.07,1.53,.2,.4,.24,.65,.7,.9,1.07,.48,.69,.95,1.4,1.42,2.1,.22,.32,.74,.02,.52-.3-.54-.8-1.07-1.61-1.62-2.4-.32-.46-.65-.9-1.19-1.12-.65-.26-1.42-.16-2.1-.15l-2.72,.06c-3.69,.08-7.37,.16-11.06,.24-.39,0-.39,.61,0,.6h0Z"/>
      <path class="cls-32" d="M374.14,362.69c.01,1.23,1.82,1.06,2.63,1.06,1.61-.01,3.23-.16,4.82-.45,2.15-.39,6.58-1.1,6.19-4.2-.05-.38-.65-.38-.6,0,.33,2.59-3.45,3.17-5.27,3.53-.73,.14-7.15,1.19-7.16,.06,0-.39-.6-.39-.6,0h-.01Z"/>
      <path class="cls-32" d="M374.07,371.12c.21,2.38,1.89,4.94,4.59,4.19,1.59-.44,2.98-1.69,4.3-2.62,1.52-1.07,3.04-2.14,4.56-3.2,.31-.22,.01-.74-.3-.52-1.24,.87-2.49,1.75-3.73,2.62s-2.38,1.76-3.64,2.52c-1.18,.71-2.61,1.11-3.76,.13-.89-.76-1.32-1.98-1.42-3.12-.03-.38-.63-.39-.6,0h0Z"/>
      <path class="cls-32" d="M360.77,378.61c.44,1.45,1.99,1.82,3.34,1.94,2.54,.22,5.16,.32,7.71,.08,4.05-.37,8.1-1.87,10.58-5.25,.23-.31-.29-.61-.52-.3-2.25,3.08-5.98,4.51-9.66,4.91-2.01,.22-4.03,.18-6.04,.08-1.44-.07-4.29,.16-4.83-1.62-.11-.37-.69-.21-.58,.16h0Z"/>
      <path class="cls-32" d="M362.17,372.68c4.65,.34,9.35,.59,13.99-.02,1.72-.23,3.86-.38,5.38-1.32,1.42-.88,1.34-2.4,1.01-3.86-.08-.38-.66-.22-.58,.16,.25,1.11,.45,2.36-.62,3.11-.6,.42-1.37,.58-2.07,.75-1.9,.44-3.84,.69-5.78,.82-3.77,.25-7.56,.03-11.32-.24-.39-.03-.38,.57,0,.6h-.01Z"/>
      <path class="cls-32" d="M363.64,369.09c-6.05,2.18-12.4,3.34-18.83,3.43-.39,0-.39,.61,0,.6,6.48-.09,12.9-1.25,18.99-3.45,.36-.13,.21-.71-.16-.58h0Z"/>
      <path class="cls-32" d="M343.51,373.3c1.83,3.64,6.17,4.99,9.89,5.74,4.78,.96,9.71,.8,14.42-.4,.37-.1,.22-.67-.16-.58-4.47,1.14-9.13,1.33-13.67,.48-3.69-.69-8.14-1.92-9.97-5.54-.17-.34-.69-.04-.52,.3h0Z"/>
      <path class="cls-32" d="M347.1,378.94c-4.78,.2-9.57,0-14.32-.58-.38-.05-.38,.55,0,.6,4.75,.58,9.53,.78,14.32,.58,.38-.02,.39-.62,0-.6h0Z"/>
      <path class="cls-32" d="M327.11,373.18c5.2,.84,10.6-2.23,12.52-7.14,.14-.36-.44-.52-.58-.16-1.79,4.58-6.93,7.51-11.78,6.72-.38-.06-.54,.52-.16,.58h0Z"/>
      <path class="cls-32" d="M334.32,370.83c-3.27,3.49-7.77,5.24-12.36,6.22s-10.08,1.99-14.24-.65c-.33-.21-.63,.31-.3,.52,4.21,2.66,9.7,1.73,14.31,.79s9.58-2.79,13.01-6.45c.26-.28-.16-.71-.42-.42h0Z"/>
      <path class="cls-32" d="M295.96,372.82c1.49,3.51,4.39,6.31,7.93,7.73,.36,.14,.51-.44,.16-.58-3.39-1.36-6.14-4.09-7.57-7.45-.15-.35-.67-.05-.52,.3h0Z"/>
      <path class="cls-32" d="M305.46,372.15c2.3,2.21,4.6,4.43,6.89,6.64,.28,.27,.7-.16,.42-.42l-6.89-6.64c-.28-.27-.7,.16-.42,.42h0Z"/>
      <path class="cls-32" d="M319.15,380.23c4.72,2.13,10.18,2.25,14.98,.28,.35-.14,.2-.73-.16-.58-4.64,1.91-9.94,1.85-14.51-.22-.35-.16-.65,.36-.3,.52h-.01Z"/>
      <path class="cls-32" d="M335.4,380.95c-6.98,4.25-15.11,6.27-23.27,5.81-.39-.02-.38,.58,0,.6,8.26,.47,16.5-1.6,23.57-5.89,.33-.2,.03-.72-.3-.52h0Z"/>
      <path class="cls-32" d="M307.48,383.92c4.7,4.47,11.33,6.52,17.73,5.51,.38-.06,.22-.64-.16-.58-6.18,.97-12.62-1.05-17.15-5.36-.28-.27-.7,.16-.42,.42h0Z"/>
      <path class="cls-32" d="M325.9,386.2c-11.67-1.13-23.02-4.59-33.35-10.14-.34-.18-.64,.33-.3,.52,10.42,5.61,21.87,9.08,33.65,10.22,.38,.04,.38-.56,0-.6h0Z"/>
      <path class="cls-32" d="M289.75,373.34c-7.26-2.97-13.68-7.72-18.67-13.77-.25-.3-.67,.13-.42,.42,5.06,6.13,11.58,10.92,18.93,13.92,.36,.15,.51-.43,.16-.58h0Z"/>
      <path class="cls-32" d="M270.63,363.27c2,3.32,4.67,6.19,7.84,8.43,.32,.22,.62-.3,.3-.52-3.08-2.18-5.68-4.99-7.63-8.22-.2-.33-.72-.03-.52,.3h.01Z"/>
      <path class="cls-32" d="M268.48,368.49c-9.11-2.6-17.05-8.59-22.05-16.64-.2-.33-.72-.03-.52,.3,5.09,8.18,13.15,14.26,22.41,16.91,.37,.11,.53-.47,.16-.58h0Z"/>
      <path class="cls-32" d="M247.43,353.49c.92,4.89,2.57,10.36,7.38,12.74,.35,.17,.65-.35,.3-.52-4.68-2.31-6.22-7.64-7.11-12.38-.07-.38-.65-.22-.58,.16h0Z"/>
      <path class="cls-32" d="M259.02,366.34c-2.74-.35-5.45,.41-8.19,.17-2.14-.18-4.44-1.1-5.32-3.2-.15-.35-.67-.05-.52,.3,.88,2.08,3.06,3.11,5.19,3.42,2.94,.43,5.89-.48,8.84-.1,.38,.05,.38-.55,0-.6h0Z"/>
      <path class="cls-32" d="M243.81,367.01c.13,1.19,.96,2,1.79,2.78,1.04,.99,2.12,1.93,3.24,2.83,2.17,1.75,4.47,3.34,6.88,4.75,.33,.2,.64-.32,.3-.52-2.24-1.31-4.4-2.78-6.43-4.39-.99-.78-1.95-1.6-2.88-2.45-.87-.8-2.17-1.74-2.31-3-.04-.38-.64-.38-.6,0h.01Z"/>
      <path class="cls-32" d="M269.77,377.5c-.27,2.05-2.57,3.09-4.2,3.92-2.16,1.1-4.37,2.09-6.63,2.95-.36,.14-.2,.72,.16,.58,2.5-.96,4.95-2.06,7.33-3.3,1.72-.9,3.66-2.04,3.94-4.15,.05-.38-.55-.38-.6,0h0Z"/>
      <path class="cls-32" d="M283.97,384.72c5.75,1.47,10.83-2.33,16.02-4.09,.36-.12,.21-.7-.16-.58-5.05,1.71-10.1,5.52-15.7,4.09-.37-.1-.53,.48-.16,.58h0Z"/>
      <path class="cls-32" d="M277.71,375.11c-1.33,2.7,1.12,4.83,3.34,5.89,3.21,1.52,6.66,2.56,10.14,3.3,7.21,1.52,14.61,1.7,21.96,1.86,.39,0,.39-.59,0-.6-6.4-.14-12.84-.29-19.17-1.34-2.99-.5-5.96-1.2-8.83-2.2-2.45-.85-8.79-2.81-6.92-6.6,.17-.35-.35-.65-.52-.3h0Z"/>
      <path class="cls-32" d="M325.9,387.86c5.14,.54,10.31,.72,15.47,.52,4.37-.17,8.95-.41,12.82-2.65,.33-.19,.03-.71-.3-.52-4.05,2.34-8.93,2.46-13.49,2.6-4.84,.14-9.69-.05-14.5-.55-.38-.04-.38,.56,0,.6h0Z"/>
      <path class="cls-32" d="M358.7,382.34c-11.2,6.62-25.83,6.33-36.76-.71-.33-.21-.63,.31-.3,.52,11.11,7.15,26,7.43,37.37,.71,.33-.2,.03-.72-.3-.52h-.01Z"/>
      <path class="cls-32" d="M277.48,342.75l-8.08-2.07c-1.38-.35-5.05-1.75-5.21,.82-.03,.39,.58,.38,.6,0,.1-1.47,2.15-.84,2.98-.62l3.18,.82,6.37,1.63c.37,.1,.53-.48,.16-.58h0Z"/>
      <path class="cls-32" d="M291.53,343.72c-5.71-1.45-11.56-2.3-17.45-2.55-.39-.02-.39,.58,0,.6,5.84,.24,11.63,1.09,17.29,2.53,.37,.1,.53-.48,.16-.58h0Z"/>
      <path class="cls-32" d="M293.02,353.49c-.15-3.02-1.56-5.93-3.9-7.86s-5.63-2.81-8.72-2.3c-.38,.06-.22,.64,.16,.58,2.92-.48,6.02,.34,8.28,2.27,2.14,1.83,3.43,4.51,3.58,7.31,.02,.38,.62,.39,.6,0h0Z"/>
      <path class="cls-32" d="M277.23,349.62c-2.95-.69-5.89-1.39-8.84-2.08-1.85-.44-5.18-1.69-6.24,.73-.15,.35,.36,.66,.52,.3,.57-1.29,2.06-1.24,3.24-.99,1.25,.26,2.49,.58,3.73,.87l7.43,1.75c.38,.09,.54-.49,.16-.58h0Z"/>
      <path class="cls-32" d="M275.22,353.25c-.73-1.43-2-2.46-3.17-3.52-1.24-1.12-2.53-2.2-3.97-3.05-2.61-1.54-5.88-2.21-8.69-.78-.34,.18-.04,.69,.3,.52,2.79-1.43,6.03-.54,8.53,1.06,1.26,.8,2.39,1.78,3.49,2.77s2.29,1.96,2.98,3.31c.17,.34,.69,.04,.52-.3h.01Z"/>
      <path class="cls-32" d="M261.83,354.45c-1.5-.14-3.05,.5-4.01,1.66-.25,.29,.18,.72,.42,.42,.88-1.05,2.23-1.61,3.59-1.48,.16,.01,.3-.15,.3-.3,0-.17-.14-.29-.3-.3h0Z"/>
      <path class="cls-32" d="M344.27,350.68c-.69-.61,2.07-1.87,2.38-2.04,.86-.47,1.73-.94,2.59-1.4,.74-.4,1.48-.8,2.22-1.2,.88-.48,1.82-1.13,2.78-1.44,.89-.29,1.85-.08,2.76,0,.85,.08,1.7,.17,2.55,.25,1.78,.18,3.81,.12,5.31,1.21,.31,.23,.61-.29,.3-.52-1.63-1.19-3.89-1.12-5.81-1.31-1.23-.12-2.48-.3-3.71-.37-1.09-.06-1.86,.24-2.81,.75-2.28,1.23-4.56,2.47-6.84,3.71-.73,.4-3.56,1.53-2.14,2.79,.29,.25,.71-.17,.42-.42h0Z"/>
      <path class="cls-32" d="M360.96,351.74c-.42-.63,2.01-.85,2.23-.88,.79-.13,1.57-.25,2.36-.38,1.47-.24,2.95-.47,4.42-.71s2.67-.37,3.79,.68c.86,.8,1.4,1.89,1.89,2.94,.16,.35,.68,.04,.52-.3-.58-1.23-1.25-2.52-2.35-3.37-1.36-1.05-2.88-.71-4.45-.46-2.06,.33-4.13,.66-6.19,.99-.72,.11-3.72,.29-2.73,1.79,.21,.32,.73,.02,.52-.3h0Z"/>
      <path class="cls-32" d="M370.08,356.9c6.21,.26,12.43,.32,18.64,.19,.39,0,.39-.61,0-.6-6.21,.13-12.43,.07-18.64-.19-.39-.02-.39,.58,0,.6h0Z"/>
      <path class="cls-32" d="M337.63,346.97c-.6-1.17,.16-2.39,.99-3.21s1.69-1.56,2.66-2.12c1.05-.6,2.09-.7,3.24-.34,1.02,.32,2,.8,3.09,.7,.38-.04,.38-.64,0-.6-1.35,.13-2.51-.69-3.81-.89s-2.39,.28-3.39,.98c-1.72,1.2-4.53,3.38-3.3,5.79,.18,.34,.69,.04,.52-.3h0Z"/>
      <path class="cls-32" d="M316.79,353.66c-.31-1.97-.67-4.05-1.88-5.69-1.13-1.53-2.89-2.29-4.72-2.63-4.71-.88-9.85-.36-14.5,.67-.38,.08-.22,.66,.16,.58,4.34-.96,8.97-1.37,13.4-.79,2.04,.27,4.11,.94,5.32,2.72,1.05,1.55,1.36,3.48,1.65,5.3,.06,.38,.64,.22,.58-.16h0Z"/>
      <path class="cls-32" d="M326.4,354.42c-.84-2.33-1.44-5.35,.76-7.13,1.75-1.42,4.26-1.44,6.4-1.5,5.79-.18,11.58-.36,17.37-.53,.39-.01,.39-.61,0-.6-3.47,.11-6.95,.21-10.42,.32-3.15,.1-6.37,0-9.5,.36-1.89,.21-3.91,.76-5.07,2.38-1.46,2.03-.89,4.7-.11,6.87,.13,.36,.71,.2,.58-.16h0Z"/>
      <g>
        <ellipse class="cls-26" cx="564.6" cy="372.19" rx="64" ry="17.5"/>
        <path class="cls-26" d="M564.6,355.19c37.98,0,63.5,8.79,63.5,17s-25.52,17-63.5,17-63.5-8.79-63.5-17,25.52-17,63.5-17m0-1c-35.62,0-64.5,8.06-64.5,18s28.88,18,64.5,18,64.5-8.06,64.5-18-28.88-18-64.5-18h0Z"/>
      </g>
      <g>
        <ellipse class="cls-27" cx="565.6" cy="354.19" rx="64" ry="17.5"/>
        <path class="cls-27" d="M565.6,337.19c37.98,0,63.5,8.79,63.5,17s-25.52,17-63.5,17-63.5-8.79-63.5-17,25.52-17,63.5-17m0-1c-35.62,0-64.5,8.06-64.5,18s28.88,18,64.5,18,64.5-8.06,64.5-18-28.88-18-64.5-18h0Z"/>
      </g>
      <path class="cls-26" d="M628.96,358.72c-.72,1.65-2.04,2.74-3.67,3.43-1.93,.82-4.27,1-6.41,1.17-.81,.06-1.5,.64-1.5,1.5,0,.76,.69,1.56,1.5,1.5,2.67-.21,5.35-.45,7.83-1.54,2.05-.9,3.94-2.47,4.84-4.55,.32-.74,.22-1.61-.54-2.05-.64-.37-1.73-.21-2.05,.54h0Z"/>
      <path class="cls-30" d="M500.07,346.67c1.42,3.46,3.2,7.33,6.96,8.69,3.38,1.22,7.11,.48,10.54,1.54,.92,.29,1.32-1.16,.4-1.45-3.13-.97-6.45-.48-9.6-1.26-1.65-.41-3.02-1.27-4.04-2.65-1.18-1.59-2.06-3.45-2.8-5.27-.36-.88-1.81-.5-1.45,.4h-.01Z"/>
      <path class="cls-30" d="M498.62,352.85c-1.97,8.16,7.83,11.88,13.97,13.35,8.21,1.97,16.74,1.77,25.11,1.41,.96-.04,.97-1.54,0-1.5-7.49,.32-15.1,.54-22.51-.88-3.46-.67-7.05-1.6-10.15-3.31s-5.89-4.89-4.97-8.67c.23-.94-1.22-1.34-1.45-.4h0Z"/>
      <path class="cls-30" d="M633.37,345.41c.85,3.09,1.89,7.26-.74,9.81-1.38,1.33-3.45,2.07-5.17,2.83-1.87,.84-3.78,1.6-5.71,2.29-7.49,2.67-15.34,4.24-23.28,4.66-.96,.05-.97,1.55,0,1.5,8.83-.47,17.56-2.3,25.8-5.5,2.03-.79,4.04-1.65,6-2.6,1.61-.78,3.24-1.62,4.28-3.14,2.05-2.99,1.14-7.01,.26-10.24-.25-.93-1.7-.54-1.45,.4h.01Z"/>
      <path class="cls-30" d="M596.68,368.5c6.92,2.5,14.58,2.66,21.64,.63,3.48-1,6.84-2.54,9.84-4.57,1.35-.92,2.95-1.93,3.88-3.3,1.09-1.6,.72-3.69,1.8-5.27,.55-.8-.75-1.55-1.3-.76-.92,1.35-.81,2.95-1.36,4.43-.63,1.69-2.66,2.87-4.1,3.82-2.93,1.93-6.15,3.38-9.53,4.31-6.72,1.85-13.9,1.64-20.47-.73-.91-.33-1.3,1.12-.4,1.45h0Z"/>
      <path class="cls-30" d="M616.16,372.58c3.02,.63,6.08,.73,9.13,.25,1.25-.19,2.57-.45,3.61-1.23s1.71-1.93,2.38-2.99c3.11-4.88,5.13-10.42,5.94-16.14,.13-.94-1.31-1.35-1.45-.4-.73,5.14-2.43,10.11-5.06,14.59-.64,1.09-1.29,2.24-2.13,3.19s-2.08,1.26-3.31,1.47c-2.88,.5-5.85,.4-8.71-.19-.94-.2-1.34,1.25-.4,1.45h0Z"/>
      <path class="cls-30" d="M617.1,381.34c3.32,.26,6.58,.27,9.35-1.84,2.54-1.93,4.41-4.79,6.3-7.32,4.02-5.38,7.65-11.24,8.34-18.06,.1-.96-1.4-.95-1.5,0-.63,6.23-3.99,11.68-7.63,16.61-1.73,2.35-3.45,4.89-5.6,6.88-2.66,2.47-5.84,2.5-9.27,2.22-.96-.08-.96,1.42,0,1.5h.01Z"/>
      <path class="cls-30" d="M589.75,358.95c-8.57,3.84-18.22,4.44-27.47,4.84-4.77,.21-9.56,.07-14.09-1.58s-8.16-4.18-11.94-6.73c-.8-.54-1.55,.76-.76,1.3,6.17,4.16,12.34,7.87,19.92,8.47,3.98,.32,7.99,.02,11.97-.24,3.7-.24,7.4-.58,11.06-1.2,4.16-.7,8.22-1.83,12.07-3.56,.88-.39,.12-1.69-.76-1.3h0Z"/>
      <path class="cls-30" d="M505.93,342.43c-1.03,3.69-2.03,7.73-.39,11.4,1.34,3.01,4.19,5.05,7.07,6.46,7.1,3.46,15.2,4.61,23.01,5.01,4.69,.24,9.38,.19,14.08,.13,.96-.01,.97-1.51,0-1.5-9.54,.12-19.26,.24-28.57-2.18-4.11-1.07-8.69-2.52-11.9-5.44-1.75-1.6-2.87-3.62-3.05-6.01-.19-2.54,.52-5.05,1.19-7.46,.26-.93-1.19-1.33-1.45-.4h0Z"/>
      <path class="cls-30" d="M496.04,359.92c-.89,3.01-.03,6.16,1.82,8.63,1.98,2.65,4.9,4.26,8.01,5.23,3.67,1.14,7.59,1.55,11.4,1.96,4.18,.46,8.38,.73,12.59,.81,4.85,.1,9.71-.07,14.54-.46,.96-.08,.96-1.58,0-1.5-9.76,.8-19.58,.61-29.3-.6-4.34-.54-9.02-1.09-12.82-3.42-3.42-2.1-6-6.17-4.78-10.25,.28-.93-1.17-1.32-1.45-.4h-.01Z"/>
      <path class="cls-30" d="M509.92,377.58c5.29,3.26,11.3,4.96,17.34,6.21,6.65,1.38,13.36,2.5,20.08,3.44,13.66,1.91,27.46,2.95,41.26,2.78,6.85-.08,13.99-.17,20.29-3.22,.87-.42,.11-1.72-.76-1.3-5.6,2.72-11.96,2.89-18.07,3-6.74,.12-13.48-.05-20.21-.47-13.37-.83-26.68-2.65-39.83-5.21-6.71-1.3-13.46-2.91-19.34-6.54-.82-.51-1.58,.79-.76,1.3h0Z"/>
      <path class="cls-30" d="M615.3,368.59c-3.04,8.24-11.5,12.54-19.65,14.13-4.74,.92-9.63,1.18-14.46,1.27s-9.79-.23-14.27-2.2c-.88-.38-1.64,.91-.76,1.3,7.29,3.2,15.75,2.65,23.5,1.96s14.82-2.39,20.65-7.17c2.88-2.36,5.14-5.37,6.43-8.88,.33-.91-1.11-1.3-1.45-.4h.01Z"/>
      <path class="cls-30" d="M592.41,370.27c3.97,.76,8.01,1.07,12.05,.83,1.97-.12,3.93-.35,5.87-.71,1.6-.29,3.26-.66,4.52-1.78s1.83-2.61,2.39-4.08c.67-1.77,1.16-3.6,1.34-5.48,.31-3.32-.57-6.7-2.91-9.14-.67-.7-1.73,.36-1.06,1.06,2.12,2.22,2.78,5.32,2.45,8.3-.19,1.74-.71,3.44-1.34,5.07-.57,1.46-1.26,2.98-2.72,3.73-1.34,.69-2.99,.88-4.46,1.1-1.74,.26-3.49,.41-5.25,.47-3.51,.12-7.01-.17-10.46-.83-.94-.18-1.35,1.26-.4,1.45h-.02Z"/>
      <path class="cls-30" d="M619.74,344.9c1.95,4.94,.12,10.58-3.54,14.24-3.99,3.98-9.71,5.66-15.19,6.16-.95,.09-.96,1.59,0,1.5,5.97-.55,12.21-2.39,16.48-6.83,3.85-4.01,5.8-10.15,3.7-15.47-.35-.89-1.8-.5-1.45,.4h0Z"/>
      <path class="cls-30" d="M629.26,356.9c.69-5.22,3.71-10.2,2.2-15.57-.26-.93-1.71-.53-1.45,.4,1.44,5.11-1.59,10.17-2.25,15.17-.13,.95,1.37,.94,1.5,0h0Z"/>
      <path class="cls-30" d="M526.15,338.05c-1.51-.87-3.69-.68-5.37-.75-2.32-.1-4.65-.12-6.98-.06-4.48,.13-8.94,.58-13.36,1.32-.95,.16-.55,1.6,.4,1.45,4.13-.69,8.3-1.11,12.48-1.25,2-.07,4.01-.07,6.02-.01,.96,.03,1.92,.07,2.89,.13s2.28-.04,3.17,.47c.84,.48,1.59-.81,.76-1.3h-.01Z"/>
      <path class="cls-30" d="M497.65,342.67c-2.14,1.78-3.33,4.05-1.55,6.59,1.63,2.33,4.51,4.01,6.95,5.35,5.56,3.06,11.75,4.71,17.85,6.31,.93,.25,1.33-1.2,.4-1.45-5.17-1.36-10.4-2.73-15.26-5.02-2.39-1.13-4.71-2.47-6.79-4.13-.99-.79-2.11-1.74-2.48-2.99-.47-1.58,.84-2.7,1.93-3.6,.74-.62-.32-1.68-1.06-1.06h0Z"/>
      <path class="cls-30" d="M505.48,365.06c-3.96-2.42-8.48-5.25-9.45-10.17-.19-.95-1.63-.55-1.45,.4,1.06,5.31,5.85,8.44,10.14,11.07,.83,.5,1.58-.79,.76-1.3h0Z"/>
      <path class="cls-30" d="M490.69,355.59c-.26,5.07,1.9,9.88,5.24,13.62,3.52,3.95,8.31,6.48,13.23,8.25,5.7,2.04,11.72,3.28,17.68,4.27s12.14,1.6,18.26,1.8c7.17,.23,14.34-.1,21.46-.97,.95-.12,.96-1.62,0-1.5-11.87,1.45-23.92,1.4-35.77-.24-5.77-.8-11.54-1.92-17.15-3.51-5.13-1.45-10.3-3.45-14.4-6.95-4.3-3.67-7.35-8.99-7.05-14.76,.05-.96-1.45-.96-1.5,0h0Z"/>
      <path class="cls-30" d="M548.72,374.51c7.55,2.45,15.31,4.17,23.19,5.11,3.98,.48,7.99,.75,12,.83,3.22,.06,6.81,.33,9.52-1.74s3.98-5.45,6.97-7.08c.85-.46,.09-1.76-.76-1.3-3.19,1.74-4.46,5.39-7.39,7.39-1.96,1.34-4.41,1.26-6.69,1.25-2.44-.01-4.87-.1-7.31-.26-9.91-.66-19.7-2.58-29.13-5.65-.92-.3-1.31,1.15-.4,1.45h0Z"/>
      <path class="cls-30" d="M574.44,368.32c-4.27-.5-8.54-.99-12.8-1.49l-6.4-.74c-2.03-.24-4.12-.4-5.98-1.32-.86-.43-1.62,.87-.76,1.3,1.69,.83,3.47,1.14,5.33,1.36,2.27,.28,4.55,.53,6.83,.79,4.6,.53,9.19,1.07,13.79,1.6,.96,.11,.95-1.39,0-1.5h-.01Z"/>
      <path class="cls-30" d="M566.04,368.53c7.88-.43,15.72-1.37,23.47-2.84,3.7-.7,7.43-1.44,11.05-2.49,2.63-.76,5.24-1.95,6.64-4.43,.48-.84-.82-1.6-1.3-.76-1.45,2.56-4.43,3.43-7.11,4.11-3.52,.89-7.07,1.65-10.63,2.3-7.31,1.35-14.7,2.2-22.12,2.61-.96,.05-.97,1.55,0,1.5h0Z"/>
      <path class="cls-30" d="M603.63,356.34c2.82,.68,5.7,.8,8.6,.71,2.67-.09,5.36-.21,8-.59,2.39-.34,4.79-.99,6.81-2.34s3.59-3.46,5.03-5.5c.56-.79-.74-1.54-1.3-.76-1.36,1.93-2.78,3.91-4.83,5.18s-4.4,1.78-6.73,2.05c-4.94,.58-10.32,.99-15.18-.19-.94-.23-1.34,1.22-.4,1.45h0Z"/>
      <path class="cls-30" d="M632.32,343c-2.19,3.86-6.22,6.07-10.25,7.59-4.95,1.86-10.16,2.94-15.43,3.26-.96,.06-.97,1.56,0,1.5,5.65-.35,11.27-1.5,16.54-3.59,4.15-1.64,8.18-4.01,10.44-8,.48-.84-.82-1.6-1.3-.76h0Z"/>
      <path class="cls-30" d="M607.48,361.39c5.21,1.92,10.44,3.85,15.89,4.98,4.22,.87,9.73,1.54,12.32-2.8,.5-.83-.8-1.59-1.3-.76-2.59,4.34-9,2.56-12.91,1.59-4.64-1.15-9.13-2.8-13.61-4.46-.91-.33-1.3,1.11-.4,1.45h0Z"/>
      <path class="cls-30" d="M613.85,364.05c.26,2.43,2.26,3.84,4.53,4.32,2.98,.62,6.22,.54,9.23,.25,4.65-.45,11.47-1.61,12.03-7.38,.09-.96-1.41-.95-1.5,0-.46,4.73-6.86,5.53-10.53,5.88-2.3,.22-4.63,.24-6.93,.05-2-.17-5.06-.6-5.33-3.11-.1-.95-1.6-.96-1.5,0h0Z"/>
      <path class="cls-30" d="M635.11,365.5c-13.61,8.72-30.24,8.88-45.85,8.91-.97,0-.97,1.5,0,1.5,15.87-.03,32.78-.25,46.61-9.11,.81-.52,.06-1.82-.76-1.3h0Z"/>
      <path class="cls-30" d="M573.63,372.66c1.96,4.26,7.17,5.9,11.41,6.78,5.36,1.11,10.92,.91,16.2-.52,.93-.25,.54-1.7-.4-1.45-4.87,1.32-10,1.57-14.96,.61-3.99-.77-9.1-2.14-10.96-6.18-.4-.88-1.7-.11-1.3,.76h.01Z"/>
      <path class="cls-30" d="M620.2,373.22c-8.77,.59-17.56,.87-26.35,.83-4.13-.02-8.55,.26-12.31-1.75-3.05-1.63-5.6-4.03-8.93-5.14-.92-.31-1.31,1.14-.4,1.45,3.43,1.15,6.03,3.81,9.26,5.34,3.7,1.75,7.88,1.57,11.88,1.6,8.95,.05,17.91-.23,26.84-.83,.96-.06,.97-1.56,0-1.5h0Z"/>
      <path class="cls-30" d="M575.75,370.9c2.64,1.93,5.3,3.86,8.32,5.16s6.21,1.75,9.46,1.63c6.92-.26,13.56-2.71,20.51-2.63,.97,0,.97-1.49,0-1.5-6.66-.07-13.03,2.16-19.64,2.59-3.3,.21-6.59-.12-9.66-1.42s-5.63-3.21-8.23-5.12c-.78-.57-1.53,.73-.76,1.3h0Z"/>
      <path class="cls-30" d="M628.55,370.4c-.09,3.73-5.63,4.08-8.32,4.64-3.61,.76-7.22,1.52-10.86,2.15-7,1.2-14.32,1.75-21.09-.83-.9-.34-1.29,1.1-.4,1.45,7.45,2.85,15.56,1.99,23.22,.59,4.12-.75,8.23-1.62,12.33-2.51,2.96-.64,6.53-1.9,6.61-5.49,.02-.97-1.48-.97-1.5,0h.01Z"/>
      <path class="cls-30" d="M584.28,383.2c1.65,2.67,4.51,3.99,7.5,4.6,3.75,.76,7.71,.74,11.51,.67,4.18-.07,8.4-.39,12.53-1.09,3.38-.58,6.77-1.65,9.19-4.2,.67-.7-.39-1.76-1.06-1.06-2.25,2.37-5.4,3.28-8.53,3.82-3.84,.65-7.76,.94-11.65,1.02-3.55,.08-7.21,.11-10.72-.45-2.88-.46-5.86-1.46-7.47-4.06-.51-.82-1.8-.07-1.3,.76h0Z"/>
      <path class="cls-30" d="M612,376.91c-18.57,4.96-38.3,4.87-56.83-.25-.93-.26-1.33,1.19-.4,1.45,18.78,5.19,38.8,5.28,57.62,.25,.93-.25,.54-1.7-.4-1.45h.01Z"/>
      <path class="cls-30" d="M561.65,367.08c1.87-.42,3.75-.83,5.62-1.25,.4-.09,.63-.55,.52-.92-.11-.41-.53-.61-.92-.52-1.87,.42-3.75,.83-5.62,1.25-.4,.09-.63,.55-.52,.92,.11,.41,.53,.61,.92,.52h0Z"/>
      <path class="cls-30" d="M576.85,359.56c-4.02,6.57-11.77,9.29-18.81,11.27-8.5,2.38-17.78,4.32-26.29,.97-.9-.35-1.29,1.1-.4,1.45,6.82,2.68,14.27,2.05,21.27,.5,6.28-1.39,12.92-3.13,18.45-6.53,2.85-1.76,5.33-4.03,7.08-6.9,.51-.83-.79-1.58-1.3-.76h0Z"/>
      <path class="cls-30" d="M535.17,376.34c14.12,3.54,29.65,7.12,43.4,.32,.87-.43,.11-1.72-.76-1.3-13.35,6.6-28.57,2.95-42.24-.47-.94-.23-1.34,1.21-.4,1.45h0Z"/>
      <path class="cls-30" d="M585.57,370.21c-12.65,3.42-26.14,2.87-38.47-1.54-.91-.33-1.3,1.12-.4,1.45,12.58,4.49,26.38,5.02,39.27,1.54,.93-.25,.54-1.7-.4-1.45h0Z"/>
      <path class="cls-30" d="M543.62,368.9c16.9,2.34,34.08,2.27,50.96-.28,4.89-.74,9.75-1.69,14.56-2.83,.94-.22,.54-1.67-.4-1.45-16.4,3.9-33.32,5.43-50.15,4.51-4.87-.26-9.73-.73-14.56-1.4-.94-.13-1.35,1.31-.4,1.45h0Z"/>
      <path class="cls-30" d="M618.81,357.32c-2.65,2.37-5.81,4.03-9.04,5.46s-6.87,2.75-10.41,3.78c-7.1,2.06-14.43,3.15-21.82,3.3-.96,.02-.97,1.52,0,1.5,7.67-.15,15.3-1.31,22.66-3.48,6.84-2.02,14.28-4.68,19.68-9.5,.72-.64-.34-1.7-1.06-1.06h-.01Z"/>
      <path class="cls-30" d="M587.42,371.23c3.9,1.87,7.87,3.77,12.14,4.61,3.13,.61,7.46,1.07,9.7-1.77,.59-.75-.46-1.82-1.06-1.06-2.1,2.67-6.52,1.83-9.35,1.14-3.73-.9-7.22-2.56-10.67-4.21-.87-.41-1.63,.88-.76,1.3h0Z"/>
      <path class="cls-30" d="M587.6,378.39c-11.44,2.42-23.15,3.29-34.83,2.62-.96-.06-.96,1.44,0,1.5,11.81,.68,23.66-.23,35.23-2.67,.94-.2,.54-1.65-.4-1.45h0Z"/>
      <path class="cls-30" d="M529.02,373.7c5.83,.13,11.65-.85,17.11-2.9,.9-.34,.51-1.79-.4-1.45-5.35,2.01-11,2.97-16.71,2.85-.97-.02-.97,1.48,0,1.5h0Z"/>
      <path class="cls-30" d="M543.74,368.58c-10.55,4.53-22.33,5.98-33.66,4.14-.94-.15-1.35,1.29-.4,1.45,11.78,1.91,23.86,.42,34.82-4.29,.88-.38,.12-1.67-.76-1.3h0Z"/>
      <path class="cls-30" d="M507.64,371.56c5.51,.88,11.08,1.22,16.66,.96,2.52-.12,5.07-.31,7.56-.74,2-.34,3.99-1.02,5.3-2.65,.6-.74-.45-1.81-1.06-1.06-1.35,1.68-3.47,2.12-5.51,2.39-2.41,.32-4.83,.51-7.26,.59-5.11,.18-10.24-.14-15.29-.94-.94-.15-1.35,1.3-.4,1.45h0Z"/>
      <path class="cls-30" d="M534.69,366.13c-2.68,.69-5.38,1.31-8.1,1.85s-5.73,1.21-8.59,1.39c-2.68,.17-5.43-1.17-7.88-2.11-2.67-1.02-5.29-2.16-7.88-3.38-.87-.41-1.63,.88-.76,1.3,2.56,1.21,5.15,2.34,7.79,3.36s5.45,2.4,8.27,2.36,5.73-.75,8.48-1.28c3.04-.58,6.06-1.26,9.06-2.04,.93-.24,.54-1.69-.4-1.45h.01Z"/>
      <path class="cls-30" d="M501.74,364.08c5.5,.76,11.06,.55,16.49-.63,.94-.21,.54-1.65-.4-1.45-5.15,1.12-10.47,1.35-15.69,.63-.94-.13-1.35,1.32-.4,1.45h0Z"/>
      <path class="cls-30" d="M531.34,357.85c-5.63,1.47-11.34,2.61-17.11,3.4-2.9,.4-5.8,.7-8.72,.92s-5.89,.48-8.75-.3c-.93-.25-1.33,1.19-.4,1.45,2.76,.75,5.6,.6,8.43,.4,3.06-.21,6.12-.53,9.16-.93,6-.8,11.93-1.97,17.79-3.5,.93-.24,.54-1.69-.4-1.45h0Z"/>
      <path class="cls-30" d="M500.16,364.36c13.95,1.26,28,1.09,41.92-.52,.95-.11,.96-1.61,0-1.5-13.92,1.6-27.97,1.78-41.92,.52-.96-.09-.96,1.41,0,1.5h0Z"/>
      <path class="cls-30" d="M537.13,369.49c-2.89,5.5-9.7,5.84-15.16,5.89-6.42,.07-12.83,.12-19.25,.18-.96,0-.97,1.51,0,1.5,7.02-.07,14.05-.04,21.07-.21,5.5-.13,11.83-1.26,14.64-6.61,.45-.85-.85-1.61-1.3-.76h0Z"/>
      <path class="cls-30" d="M501.36,378.14c7.15,3.71,15.24,5.36,23.27,4.65s16.41-3.62,24.81-4.18c.96-.06,.97-1.56,0-1.5-8.1,.54-15.84,3.22-23.89,4.09-8.08,.87-16.21-.6-23.43-4.35-.86-.44-1.62,.85-.76,1.3h0Z"/>
      <path class="cls-30" d="M553.03,375.9c-18.96,4.74-38.83,5.46-58.08,2.05-.94-.17-1.35,1.28-.4,1.45,19.52,3.45,39.65,2.76,58.88-2.05,.94-.23,.54-1.68-.4-1.45h0Z"/>
      <path class="cls-30" d="M492.06,372.91c3.38,6.02,9.7,9.58,16.23,11.21,8.44,2.11,17.25,1.11,25.84,1.38,.97,.03,.96-1.47,0-1.5-8.21-.26-16.63,.69-24.71-1.15-6.43-1.47-12.74-4.78-16.07-10.7-.47-.84-1.77-.09-1.3,.76h0Z"/>
      <path class="cls-30" d="M535.05,384.57c1.69,2.65,4.77,3.39,7.73,3.63,4.21,.34,8.48,.31,12.7,.42,9.14,.23,18.28,.31,27.42-.1,.96-.04,.97-1.54,0-1.5-8.47,.38-16.95,.34-25.42,.15-4.15-.1-8.31-.22-12.46-.36-2.99-.1-6.87-.18-8.67-3-.52-.81-1.82-.06-1.3,.76h0Z"/>
      <path class="cls-30" d="M580.13,384.92c-8.95,1.1-17.85-.53-26.62-2.2-.94-.18-1.35,1.27-.4,1.45,8.89,1.69,17.94,3.37,27.02,2.25,.95-.12,.96-1.62,0-1.5h0Z"/>
      <path class="cls-30" d="M556.31,386.02c10.02,1.12,20.08,1.91,30.16,2.38,5.12,.24,10.24,.39,15.37,.45,4.85,.06,9.83,.32,14.66-.12s8.5-3.3,11.99-6.65c.7-.67-.36-1.73-1.06-1.06-3.25,3.12-6.49,5.85-11.16,6.23s-9.65,.17-14.43,.1c-9.67-.12-19.34-.55-28.98-1.28-5.52-.42-11.04-.94-16.54-1.55-.96-.11-.95,1.39,0,1.5h-.01Z"/>
      <path class="cls-30" d="M614.23,376.02c-2.21,1.09-4.63,1.69-7.09,1.77-.96,.03-.97,1.53,0,1.5,2.73-.09,5.39-.76,7.84-1.97,.36-.18,.46-.69,.27-1.03-.22-.37-.66-.45-1.03-.27h.01Z"/>
      <path class="cls-30" d="M606.95,382.38c13.52,2.25,27.5,.76,40.21-4.38,.88-.36,.5-1.81-.4-1.45-12.45,5.03-26.16,6.59-39.42,4.38-.94-.16-1.35,1.29-.4,1.45h.01Z"/>
      <path class="cls-30" d="M625.53,375.08c3.46-.06,6.91-.39,10.31-1.02,1.69-.31,3.38-.7,5.04-1.16,1.19-.33,2.36-.77,2.78-2.03,.31-.92-1.14-1.31-1.45-.4-.33,.99-2.5,1.19-3.34,1.4-1.46,.36-2.93,.66-4.41,.91-2.95,.5-5.93,.75-8.93,.8-.96,.02-.97,1.52,0,1.5h0Z"/>
      <path class="cls-30" d="M642.47,369.27c-4.04,1.65-8.36,2.04-12.67,2.31s-9.04,.52-13.56,.74c-9.15,.43-18.31,.74-27.47,.93-.96,.02-.97,1.52,0,1.5,9.33-.19,18.65-.5,27.97-.95,4.58-.22,9.17-.46,13.75-.75,4.21-.27,8.45-.71,12.39-2.32,.88-.36,.5-1.81-.4-1.45h-.01Z"/>
      <path class="cls-30" d="M580.72,374.9c-2.02,2.89-5.66,3.9-8.88,4.82-3.77,1.08-7.6,1.93-11.46,2.56-7.83,1.26-15.8,1.54-23.7,.91-.96-.08-.96,1.42,0,1.5,8.35,.67,16.77,.3,25.03-1.12,4.14-.71,8.25-1.67,12.25-2.91,3.1-.96,6.14-2.27,8.06-5,.56-.79-.74-1.54-1.3-.76h0Z"/>
      <path class="cls-30" d="M538.95,382.75c-8.29,3.81-18.22,3.26-26.08-1.35-.83-.49-1.59,.81-.76,1.3,8.35,4.9,18.8,5.38,27.59,1.35,.88-.4,.12-1.7-.76-1.3h.01Z"/>
      <path class="cls-30" d="M491.73,351.67c1.4,3.9,5.41,5.24,9.19,5.71,5,.62,10.08,.57,15.08,0,.95-.11,.96-1.61,0-1.5-4.28,.49-8.6,.58-12.9,.23-3.61-.3-8.49-.85-9.92-4.83-.32-.9-1.77-.51-1.45,.4h0Z"/>
      <path class="cls-30" d="M502.94,342.95c3.99-2.75,8.98-1.84,13.36-.67,.93,.25,1.33-1.2,.4-1.45-4.74-1.27-10.19-2.16-14.51,.82-.79,.54-.04,1.84,.76,1.3h-.01Z"/>
      <path class="cls-30" d="M522.14,338.08c6.2,.69,12.41,1.37,18.61,2.06,.96,.11,.95-1.39,0-1.5-6.2-.69-12.41-1.37-18.61-2.06-.96-.11-.95,1.39,0,1.5h0Z"/>
      <path class="cls-30" d="M527.97,342.34c-1.83-.47-3.7-.8-5.59-.95-1.69-.13-3.56-.28-5.18,.33s-3.27,1.6-4.87,2.42c-1.75,.89-3.49,1.78-5.24,2.67-.86,.44-.1,1.73,.76,1.3,3.1-1.58,6.17-3.26,9.32-4.74,1.51-.71,3.19-.6,4.82-.5,1.89,.12,3.75,.45,5.58,.92,.94,.24,1.33-1.2,.4-1.45h0Z"/>
      <path class="cls-30" d="M600,340.76c4.09,.17,8.22-1.09,12.29-.42,3.64,.6,6.7,2.97,10.43,3.24,.96,.07,.96-1.43,0-1.5-3.76-.27-6.91-2.79-10.64-3.27-4.03-.52-8.04,.62-12.08,.46-.97-.04-.96,1.46,0,1.5h0Z"/>
      <path class="cls-30" d="M606.39,342.76c3.89,.34,7.86-1.29,11.7-.26,1.71,.46,3.38,1.32,4.92,2.19s2.89,1.87,3.48,3.51c.32,.9,1.77,.51,1.45-.4-1.21-3.43-5.2-5.22-8.37-6.4-4.33-1.63-8.73,.24-13.17-.14-.96-.08-.96,1.42,0,1.5h-.01Z"/>
      <path class="cls-30" d="M583.76,339.9c4.02-2.86,8.91-3.84,13.77-3.95,5.51-.12,11.04,.66,16.35,2.1,.93,.25,1.33-1.19,.4-1.45-5.56-1.5-11.39-2.32-17.16-2.14-4.97,.16-10.01,1.21-14.12,4.14-.78,.56-.03,1.86,.76,1.3h0Z"/>
      <path class="cls-30" d="M565.47,340.48c9.69-1.86,19.59-2.32,29.41-1.39,.96,.09,.95-1.41,0-1.5-9.96-.94-19.99-.44-29.81,1.45-.95,.18-.55,1.63,.4,1.45h0Z"/>
      <path class="cls-30" d="M548.41,336.12c-9.22-2.91-19.06-3.34-28.5-1.29-.94,.21-.54,1.65,.4,1.45,9.19-2,18.74-1.54,27.71,1.29,.92,.29,1.32-1.16,.4-1.45h-.01Z"/>
      <path class="cls-30" d="M557.88,339.57c.64-4.05-4.4-4.37-7.18-4.65-4.41-.43-8.85-.52-13.27-.27-8.77,.5-17.43,2.33-25.65,5.4-.9,.34-.51,1.79,.4,1.45,7.23-2.71,14.81-4.47,22.51-5.15,3.8-.34,7.63-.42,11.44-.25,1.83,.08,3.66,.22,5.48,.42,1.48,.16,5.2,.3,4.83,2.65-.15,.94,1.3,1.35,1.45,.4h-.01Z"/>
      <path class="cls-30" d="M567.21,339.66c8.67-1.3,17.38-2.34,26.11-3.1,6.79-.59,14.82-1.39,20.47,3.25,.74,.61,1.81-.45,1.06-1.06-5.75-4.72-13.55-4.36-20.55-3.77-9.2,.78-18.37,1.87-27.5,3.24-.95,.14-.55,1.59,.4,1.45h.01Z"/>
      <path class="cls-30" d="M515.01,344.45c-3.48,.85-7.2-.04-10.61,1.22-2.77,1.02-5.13,3.71-4.36,6.83,.23,.94,1.68,.54,1.45-.4-.72-2.93,2.27-4.87,4.73-5.38,3.03-.63,6.17-.08,9.2-.82,.94-.23,.54-1.68-.4-1.45h-.01Z"/>
      <path class="cls-30" d="M509.49,352.69c-1.77-1.8-4.44-2.66-6.93-2.54s-4.91,1.46-5.45,3.98c-.2,.94,1.25,1.34,1.45,.4,.43-2.02,2.49-2.89,4.38-2.89,1.99,0,4.07,.67,5.49,2.11,.68,.69,1.74-.37,1.06-1.06h0Z"/>
      <path class="cls-30" d="M615.97,358.7c2.25,1.02,4.82,.2,6.53-1.48,1.87-1.85,2.58-4.54,3.15-7.02,.22-.94-1.23-1.34-1.45-.4-.49,2.11-1.02,4.43-2.51,6.09-1.18,1.31-3.23,2.3-4.97,1.52-.37-.17-.81-.11-1.03,.27-.19,.32-.1,.86,.27,1.03h0Z"/>
      <path class="cls-30" d="M625.01,342.78c3.62-.43,7.27-.16,10.78,.82,.93,.26,1.33-1.19,.4-1.45-3.63-1.01-7.43-1.32-11.18-.87-.41,.05-.75,.31-.75,.75,0,.37,.35,.8,.75,.75h0Z"/>
      <path class="cls-30" d="M595.82,344.76c10.6-2.09,21.66-4.19,32.32-1.34,.93,.25,1.33-1.2,.4-1.45-10.93-2.93-22.25-.81-33.12,1.34-.95,.19-.55,1.63,.4,1.45h0Z"/>
      <path class="cls-30" d="M625.53,354.57c6.31-.05,12.61,.21,18.89,.77,.96,.09,.96-1.41,0-1.5-6.28-.57-12.59-.82-18.89-.77-.96,0-.97,1.51,0,1.5h0Z"/>
      <path class="cls-30" d="M617.61,365.09c4.05,.45,8.55,.64,11.98-1.96s3.44-6.55,4.71-10.16c.32-.91-1.13-1.31-1.45-.4-1.13,3.24-1.21,7.2-4.21,9.41-3.17,2.33-7.34,2.02-11.03,1.61-.96-.11-.95,1.39,0,1.5h0Z"/>
      <path class="cls-30" d="M490.52,341.82c0,1.3-.63,2.49-.71,3.79-.07,1.21,.2,2.45,.61,3.59,.69,1.92,1.76,3.68,3.12,5.2,2.75,3.09,6.61,5.04,10.71,5.45,.96,.09,.95-1.41,0-1.5-3.71-.37-7.18-2.23-9.65-5.01-1.24-1.4-2.24-3.05-2.83-4.82-.37-1.1-.59-2.29-.4-3.45s.64-2.11,.65-3.25c0-.97-1.49-.97-1.5,0h0Z"/>
      <path class="cls-30" d="M504.18,345.17c-.77,3.65,1.47,6.93,4.26,9.06,2.97,2.27,6.57,3.54,10.24,4.08,8.29,1.21,17.07-.65,24.87-3.41,.9-.32,.51-1.77-.4-1.45-7.04,2.5-14.78,4.2-22.29,3.6-3.38-.27-6.77-1.09-9.72-2.81s-6.32-4.88-5.52-8.68c.2-.94-1.25-1.34-1.45-.4h.01Z"/>
      <path class="cls-30" d="M526.99,362.38c8,1.84,16.23,2.67,24.44,2.39,6.74-.23,13.84-1.14,19.2-5.58,.74-.62-.32-1.67-1.06-1.06-5.28,4.37-12.53,5.01-19.11,5.17-7.76,.19-15.51-.62-23.08-2.36-.94-.22-1.34,1.23-.4,1.45h.01Z"/>
      <path class="cls-30" d="M563.78,376.81c12.56,5.25,27.33,4.29,39.32-2.04,3.41-1.8,6.56-4.05,9.39-6.67,.71-.66-.35-1.72-1.06-1.06-9.73,9.01-23.6,13.11-36.69,11.24-3.63-.52-7.18-1.5-10.56-2.92-.89-.37-1.28,1.08-.4,1.45h0Z"/>
      <path class="cls-30" d="M595.18,377.1c7.7,1.93,15.56,3.25,23.47,3.9,3.51,.29,7.09,.31,10.31-1.31,2.99-1.5,5.3-4.03,7.51-6.47,.65-.71-.41-1.78-1.06-1.06-2.13,2.35-4.33,4.8-7.2,6.24-3.26,1.63-6.99,1.34-10.51,1.02-7.46-.67-14.85-1.95-22.11-3.77-.94-.23-1.34,1.21-.4,1.45h0Z"/>
      <path class="cls-30" d="M505.1,368.53c-4.38,.8-8.79,1.4-13.24,1.61-3.48,.16-9,.5-10.23-3.75-.27-.93-1.72-.53-1.45,.4,1.24,4.28,5.98,4.99,9.81,4.92,5.21-.1,10.39-.8,15.5-1.73,.95-.17,.55-1.62-.4-1.45h.01Z"/>
      <path class="cls-30" d="M488.88,370.48c5.08,3.59,10.14,6.75,16.46,7.4,6.61,.68,13.51,.1,20.11-.54,.95-.09,.96-1.59,0-1.5-6.32,.61-12.83,1.1-19.17,.62-3.16-.24-6.16-1.01-9-2.43s-5.18-3.11-7.65-4.85c-.79-.56-1.54,.74-.76,1.3h.01Z"/>
      <path class="cls-30" d="M524.41,377.4c-4.59,2.25-9.68,3.29-14.79,3.06-.97-.04-.96,1.46,0,1.5,5.37,.24,10.72-.9,15.54-3.27,.87-.42,.11-1.72-.76-1.3h.01Z"/>
      <path class="cls-32" d="M491.56,345.37c.16,4.98,4.64,7.95,8.46,10.27,.33,.2,.63-.32,.3-.52-3.62-2.2-8.01-5.02-8.16-9.75-.01-.39-.61-.39-.6,0h0Z"/>
      <path class="cls-32" d="M503.98,341.29c-.42-.02-.7,.27-.83,.65-.16,.48-.06,.97,.03,1.45,.25,1.39,.5,2.77,.76,4.16,.07,.38,.65,.22,.58-.16-.2-1.12-.41-2.24-.61-3.36-.05-.26-.57-2.17,.08-2.13,.39,.02,.38-.58,0-.6h-.01Z"/>
      <path class="cls-32" d="M526.61,365.9c-2.34,1.08-5.07,.88-7.58,.84-2.67-.04-5.33-.17-7.99-.4s-5.23-.44-7.78-.98-4.93-1.7-5.85-4.21c-.13-.36-.71-.2-.58,.16,1.8,4.96,8.36,5.07,12.75,5.5,3.14,.31,6.29,.49,9.44,.53,2.64,.04,5.43,.21,7.89-.93,.35-.16,.05-.68-.3-.52h0Z"/>
      <path class="cls-32" d="M495.54,370.07c4.65,6.27,13.2,4.36,19.56,2.53,.37-.11,.21-.69-.16-.58-6.04,1.74-14.43,3.76-18.88-2.25-.23-.31-.75,0-.52,.3h0Z"/>
      <path class="cls-32" d="M525.72,371.59c3.22,1.96,6.83,3.19,10.58,3.56,2.84,.28,6.46,.29,8.29-2.3,.22-.32-.3-.62-.52-.3-1.82,2.58-5.79,2.28-8.53,1.92-3.38-.45-6.61-1.62-9.51-3.39-.33-.2-.63,.32-.3,.52h0Z"/>
      <path class="cls-32" d="M546.72,363.18c2.68,3.44,7.08,4.75,11.3,4.77,5.56,.02,10.86-2.14,16.29-3.02,.38-.06,.22-.64-.16-.58-5.15,.83-10.15,2.82-15.4,2.99-4.3,.13-8.87-1.05-11.61-4.58-.24-.3-.66,.12-.42,.42h0Z"/>
      <path class="cls-32" d="M574.36,370.59c2.51,.45,5.06,.7,7.61,.69,1.24,0,2.49-.05,3.72-.18,.99-.1,1.95-.28,2.77-.87,.31-.22,.01-.75-.3-.52-.87,.63-1.91,.75-2.95,.83-1.17,.1-2.34,.14-3.51,.13-2.41-.01-4.81-.24-7.18-.67-.38-.07-.54,.51-.16,.58h0Z"/>
      <path class="cls-32" d="M623.87,366.32c4.97-1.1,9.68-3.26,13.72-6.37,3.51-2.71,7.09-6.47,6.9-11.23-.02-.38-.62-.39-.6,0,.2,4.88-3.77,8.68-7.42,11.32s-8.16,4.69-12.75,5.7c-.38,.08-.22,.66,.16,.58h-.01Z"/>
      <path class="cls-32" d="M641.7,347.54c-2.26,2-4.69,3.79-7.27,5.35-1.26,.76-2.56,1.46-3.88,2.11-.66,.32-1.33,.63-2.01,.92-.62,.27-1.71,.9-2.3,.27-.27-.28-.69,.14-.42,.42,.89,.95,2.32,.13,3.28-.29,1.6-.7,3.17-1.49,4.69-2.36,2.98-1.7,5.77-3.72,8.34-6,.29-.26-.14-.68-.42-.42h-.01Z"/>
      <path class="cls-32" d="M638.04,352.64c4.25-4.38,3.19-10.86,2.09-16.26-.08-.38-.66-.22-.58,.16,1.05,5.18,2.15,11.47-1.94,15.68-.27,.28,.15,.7,.42,.42h.01Z"/>
      <path class="cls-32" d="M619.4,338.89c3.96-.05,7.85,1.17,11.08,3.45,.32,.22,.62-.3,.3-.52-3.32-2.34-7.33-3.58-11.39-3.53-.39,0-.39,.6,0,.6h.01Z"/>
      <path class="cls-32" d="M610.21,340.67c3.2-.07,6.41-.14,9.61-.21,1.57-.03,3.14-.07,4.71-.1,.5,0,1.08-.07,1.53,.2,.4,.24,.65,.7,.9,1.07,.48,.69,.95,1.4,1.42,2.1,.22,.32,.74,.02,.52-.3-.54-.8-1.07-1.61-1.62-2.4-.32-.46-.65-.9-1.19-1.12-.65-.26-1.42-.16-2.1-.15l-2.72,.06c-3.69,.08-7.37,.16-11.06,.24-.39,0-.39,.61,0,.6h0Z"/>
      <path class="cls-32" d="M620.14,358.69c.01,1.23,1.82,1.06,2.63,1.06,1.61-.01,3.23-.16,4.82-.45,2.15-.39,6.58-1.1,6.19-4.2-.05-.38-.65-.38-.6,0,.33,2.59-3.45,3.17-5.27,3.53-.73,.14-7.15,1.19-7.16,.06,0-.39-.6-.39-.6,0h-.01Z"/>
      <path class="cls-32" d="M620.07,367.12c.21,2.38,1.89,4.94,4.59,4.19,1.59-.44,2.98-1.69,4.3-2.62,1.52-1.07,3.04-2.14,4.56-3.2,.31-.22,.01-.74-.3-.52-1.24,.87-2.49,1.75-3.73,2.62s-2.38,1.76-3.64,2.52c-1.18,.71-2.61,1.11-3.76,.13-.89-.76-1.32-1.98-1.42-3.12-.03-.38-.63-.39-.6,0h0Z"/>
      <path class="cls-32" d="M606.77,374.61c.44,1.45,1.99,1.82,3.34,1.94,2.54,.22,5.16,.32,7.71,.08,4.05-.37,8.1-1.87,10.58-5.25,.23-.31-.29-.61-.52-.3-2.25,3.08-5.98,4.51-9.66,4.91-2.01,.22-4.03,.18-6.04,.08-1.44-.07-4.29,.16-4.83-1.62-.11-.37-.69-.21-.58,.16h0Z"/>
      <path class="cls-32" d="M608.17,368.68c4.65,.34,9.35,.59,13.99-.02,1.72-.23,3.86-.38,5.38-1.32,1.42-.88,1.34-2.4,1.01-3.86-.08-.38-.66-.22-.58,.16,.25,1.11,.45,2.36-.62,3.11-.6,.42-1.37,.58-2.07,.75-1.9,.44-3.84,.69-5.78,.82-3.77,.25-7.56,.03-11.32-.24-.39-.03-.38,.57,0,.6h0Z"/>
      <path class="cls-32" d="M609.64,365.09c-6.05,2.18-12.4,3.34-18.83,3.43-.39,0-.39,.61,0,.6,6.48-.09,12.9-1.25,18.99-3.45,.36-.13,.21-.71-.16-.58h0Z"/>
      <path class="cls-32" d="M589.51,369.3c1.83,3.64,6.17,4.99,9.89,5.74,4.78,.96,9.71,.8,14.42-.4,.37-.1,.22-.67-.16-.58-4.47,1.14-9.13,1.33-13.67,.48-3.69-.69-8.14-1.92-9.97-5.54-.17-.34-.69-.04-.52,.3h0Z"/>
      <path class="cls-32" d="M593.1,374.94c-4.78,.2-9.57,0-14.32-.58-.38-.05-.38,.55,0,.6,4.75,.58,9.53,.78,14.32,.58,.38-.02,.39-.62,0-.6h0Z"/>
      <path class="cls-32" d="M573.11,369.18c5.2,.84,10.6-2.23,12.52-7.14,.14-.36-.44-.52-.58-.16-1.79,4.58-6.93,7.51-11.78,6.72-.38-.06-.54,.52-.16,.58h0Z"/>
      <path class="cls-32" d="M580.32,366.83c-3.27,3.49-7.77,5.24-12.36,6.22s-10.08,1.99-14.24-.65c-.33-.21-.63,.31-.3,.52,4.21,2.66,9.7,1.73,14.31,.79s9.58-2.79,13.01-6.45c.26-.28-.16-.71-.42-.42h0Z"/>
      <path class="cls-32" d="M541.96,368.82c1.49,3.51,4.39,6.31,7.93,7.73,.36,.14,.51-.44,.16-.58-3.39-1.36-6.14-4.09-7.57-7.45-.15-.35-.67-.05-.52,.3h0Z"/>
      <path class="cls-32" d="M551.46,368.15c2.3,2.21,4.6,4.43,6.89,6.64,.28,.27,.7-.16,.42-.42-2.3-2.21-4.6-4.43-6.89-6.64-.28-.27-.7,.16-.42,.42h0Z"/>
      <path class="cls-32" d="M565.15,376.23c4.72,2.13,10.18,2.25,14.98,.28,.35-.14,.2-.73-.16-.58-4.64,1.91-9.94,1.85-14.51-.22-.35-.16-.65,.36-.3,.52h-.01Z"/>
      <path class="cls-32" d="M581.4,376.95c-6.98,4.25-15.11,6.27-23.27,5.81-.39-.02-.38,.58,0,.6,8.26,.47,16.5-1.6,23.57-5.89,.33-.2,.03-.72-.3-.52h0Z"/>
      <path class="cls-32" d="M553.48,379.92c4.7,4.47,11.33,6.52,17.73,5.51,.38-.06,.22-.64-.16-.58-6.18,.97-12.62-1.05-17.15-5.36-.28-.27-.7,.16-.42,.42h0Z"/>
      <path class="cls-32" d="M571.9,382.2c-11.67-1.13-23.02-4.59-33.35-10.14-.34-.18-.64,.33-.3,.52,10.42,5.61,21.87,9.08,33.65,10.22,.38,.04,.38-.56,0-.6h0Z"/>
      <path class="cls-32" d="M535.75,369.34c-7.26-2.97-13.68-7.72-18.67-13.77-.25-.3-.67,.13-.42,.42,5.06,6.13,11.58,10.92,18.93,13.92,.36,.15,.51-.43,.16-.58h0Z"/>
      <path class="cls-32" d="M516.63,359.27c2,3.32,4.67,6.19,7.84,8.43,.32,.22,.62-.3,.3-.52-3.08-2.18-5.68-4.99-7.63-8.22-.2-.33-.72-.03-.52,.3h.01Z"/>
      <path class="cls-32" d="M514.48,364.49c-9.11-2.6-17.05-8.59-22.05-16.64-.2-.33-.72-.03-.52,.3,5.09,8.18,13.15,14.26,22.41,16.91,.37,.11,.53-.47,.16-.58h0Z"/>
      <path class="cls-32" d="M493.43,349.49c.92,4.89,2.57,10.36,7.38,12.74,.35,.17,.65-.35,.3-.52-4.68-2.31-6.22-7.64-7.11-12.38-.07-.38-.65-.22-.58,.16h0Z"/>
      <path class="cls-32" d="M505.02,362.34c-2.74-.35-5.45,.41-8.19,.17-2.14-.18-4.44-1.1-5.32-3.2-.15-.35-.67-.05-.52,.3,.88,2.08,3.06,3.11,5.19,3.42,2.94,.43,5.89-.48,8.84-.1,.38,.05,.38-.55,0-.6h0Z"/>
      <path class="cls-32" d="M489.81,363.01c.13,1.19,.96,2,1.79,2.78,1.04,.99,2.12,1.93,3.24,2.83,2.17,1.75,4.47,3.34,6.88,4.75,.33,.2,.64-.32,.3-.52-2.24-1.31-4.4-2.78-6.43-4.39-.99-.78-1.95-1.6-2.88-2.45-.87-.8-2.17-1.74-2.31-3-.04-.38-.64-.38-.6,0h.01Z"/>
      <path class="cls-32" d="M515.77,373.5c-.27,2.05-2.57,3.09-4.2,3.92-2.16,1.1-4.37,2.09-6.63,2.95-.36,.14-.2,.72,.16,.58,2.5-.96,4.95-2.06,7.33-3.3,1.72-.9,3.66-2.04,3.94-4.15,.05-.38-.55-.38-.6,0h0Z"/>
      <path class="cls-32" d="M529.97,380.72c5.75,1.47,10.83-2.33,16.02-4.09,.36-.12,.21-.7-.16-.58-5.05,1.71-10.1,5.52-15.7,4.09-.37-.1-.53,.48-.16,.58h0Z"/>
      <path class="cls-32" d="M523.71,371.11c-1.33,2.7,1.12,4.83,3.34,5.89,3.21,1.52,6.66,2.56,10.14,3.3,7.21,1.52,14.61,1.7,21.96,1.86,.39,0,.39-.59,0-.6-6.4-.14-12.84-.29-19.17-1.34-2.99-.5-5.96-1.2-8.83-2.2-2.45-.85-8.79-2.81-6.92-6.6,.17-.35-.35-.65-.52-.3h0Z"/>
      <path class="cls-32" d="M571.9,383.86c5.14,.54,10.31,.72,15.47,.52,4.37-.17,8.95-.41,12.82-2.65,.33-.19,.03-.71-.3-.52-4.05,2.34-8.93,2.46-13.49,2.6-4.84,.14-9.69-.05-14.5-.55-.38-.04-.38,.56,0,.6h0Z"/>
      <path class="cls-32" d="M604.7,378.34c-11.2,6.62-25.83,6.33-36.76-.71-.33-.21-.63,.31-.3,.52,11.11,7.15,26,7.43,37.37,.71,.33-.2,.03-.72-.3-.52h-.01Z"/>
      <path class="cls-32" d="M523.48,338.75c-2.69-.69-5.39-1.38-8.08-2.07-1.38-.35-5.05-1.75-5.21,.82-.03,.39,.58,.38,.6,0,.1-1.47,2.15-.84,2.98-.62l3.18,.82,6.37,1.63c.37,.1,.53-.48,.16-.58h0Z"/>
      <path class="cls-32" d="M537.53,339.72c-5.71-1.45-11.56-2.3-17.45-2.55-.39-.02-.39,.58,0,.6,5.84,.24,11.63,1.09,17.29,2.53,.37,.1,.53-.48,.16-.58h0Z"/>
      <path class="cls-32" d="M539.02,349.49c-.15-3.02-1.56-5.93-3.9-7.86s-5.63-2.81-8.72-2.3c-.38,.06-.22,.64,.16,.58,2.92-.48,6.02,.34,8.28,2.27,2.14,1.83,3.43,4.51,3.58,7.31,.02,.38,.62,.39,.6,0h0Z"/>
      <path class="cls-32" d="M523.23,345.62c-2.95-.69-5.89-1.39-8.84-2.08-1.85-.44-5.18-1.69-6.24,.73-.15,.35,.36,.66,.52,.3,.57-1.29,2.06-1.24,3.24-.99,1.25,.26,2.49,.58,3.73,.87l7.43,1.75c.38,.09,.54-.49,.16-.58h0Z"/>
      <path class="cls-32" d="M521.22,349.25c-.73-1.43-2-2.46-3.17-3.52-1.24-1.12-2.53-2.2-3.97-3.05-2.61-1.54-5.88-2.21-8.69-.78-.34,.18-.04,.69,.3,.52,2.79-1.43,6.03-.54,8.53,1.06,1.26,.8,2.39,1.78,3.49,2.77s2.29,1.96,2.98,3.31c.17,.34,.69,.04,.52-.3h0Z"/>
      <path class="cls-32" d="M507.83,350.45c-1.5-.14-3.05,.5-4.01,1.66-.25,.29,.18,.72,.42,.42,.88-1.05,2.23-1.61,3.59-1.48,.16,.01,.3-.15,.3-.3,0-.17-.14-.29-.3-.3h0Z"/>
      <path class="cls-32" d="M590.27,346.68c-.69-.61,2.07-1.87,2.38-2.04,.86-.47,1.73-.94,2.59-1.4,.74-.4,1.48-.8,2.22-1.2,.88-.48,1.82-1.13,2.78-1.44,.89-.29,1.85-.08,2.76,0,.85,.08,1.7,.17,2.55,.25,1.78,.18,3.81,.12,5.31,1.21,.31,.23,.61-.29,.3-.52-1.63-1.19-3.89-1.12-5.81-1.31-1.23-.12-2.48-.3-3.71-.37-1.09-.06-1.86,.24-2.81,.75-2.28,1.23-4.56,2.47-6.84,3.71-.73,.4-3.56,1.53-2.14,2.79,.29,.25,.71-.17,.42-.42h0Z"/>
      <path class="cls-32" d="M606.96,347.74c-.42-.63,2.01-.85,2.23-.88,.79-.13,1.57-.25,2.36-.38,1.47-.24,2.95-.47,4.42-.71s2.67-.37,3.79,.68c.86,.8,1.4,1.89,1.89,2.94,.16,.35,.68,.04,.52-.3-.58-1.23-1.25-2.52-2.35-3.37-1.36-1.05-2.88-.71-4.45-.46-2.06,.33-4.13,.66-6.19,.99-.72,.11-3.72,.29-2.73,1.79,.21,.32,.73,.02,.52-.3h-.01Z"/>
      <path class="cls-32" d="M616.08,352.9c6.21,.26,12.43,.32,18.64,.19,.39,0,.39-.61,0-.6-6.21,.13-12.43,.07-18.64-.19-.39-.02-.39,.58,0,.6h0Z"/>
      <path class="cls-32" d="M583.63,342.97c-.6-1.17,.16-2.39,.99-3.21s1.69-1.56,2.66-2.12c1.05-.6,2.09-.7,3.24-.34,1.02,.32,2,.8,3.09,.7,.38-.04,.38-.64,0-.6-1.35,.13-2.51-.69-3.81-.89s-2.39,.28-3.39,.98c-1.72,1.2-4.53,3.38-3.3,5.79,.18,.34,.69,.04,.52-.3h0Z"/>
      <path class="cls-32" d="M562.79,349.66c-.31-1.97-.67-4.05-1.88-5.69-1.13-1.53-2.89-2.29-4.72-2.63-4.71-.88-9.85-.36-14.5,.67-.38,.08-.22,.66,.16,.58,4.34-.96,8.97-1.37,13.4-.79,2.04,.27,4.11,.94,5.32,2.72,1.05,1.55,1.36,3.48,1.65,5.3,.06,.38,.64,.22,.58-.16h-.01Z"/>
      <path class="cls-32" d="M572.4,350.42c-.84-2.33-1.44-5.35,.76-7.13,1.75-1.42,4.26-1.44,6.4-1.5,5.79-.18,11.58-.36,17.37-.53,.39-.01,.39-.61,0-.6-3.47,.11-6.95,.21-10.42,.32-3.15,.1-6.37,0-9.5,.36-1.89,.21-3.91,.76-5.07,2.38-1.46,2.03-.89,4.7-.11,6.87,.13,.36,.71,.2,.58-.16h-.01Z"/>
    </g>
    <line class="cls-2" x1="415.42" y1="57.5" x2="414.34" y2="32.04"/>
    <line class="cls-2" x1="441.58" y1="56.48" x2="440.26" y2="31.53"/>
    <line class="cls-2" x1="414.34" y1="32.04" x2="440.26" y2="31.53"/>
    <line class="cls-2" x1="482" y1="50.55" x2="481.36" y2="24.73"/>
    <line class="cls-2" x1="488.64" y1="25.79" x2="481.36" y2="24.73"/>
  </g>
  <g id="legs">
    <path class="cls-13" d="M289.63,292.73c-2.69,.77,2.13,18.34-1.19,26.89-.25,.65-1.12,2.71-1.02,5.45,.09,2.63,1.02,4.52,1.36,5.28,2.8,6.23,2.72,18.37,0,26.55-.51,1.52-1.63,4.48-.34,5.79,.7,.71,2.09,.9,3.06,.51,5.35-2.14,.17-22.59,4.09-32.51,.25-.64,1.11-2.67,1.19-5.45,.1-3.3-.95-5.71-1.36-6.81-3.54-9.4,2.08-21.84-1.02-23.83-1.21-.78-2.89-1.36-2.89-1.36-1.1-.38-1.65-.57-1.87-.51Z"/>
    <path class="cls-13" d="M343.42,293.41c-2.69,.77,2.13,18.34-1.19,26.89-.25,.65-1.12,2.71-1.02,5.45,.09,2.63,1.02,4.52,1.36,5.28,2.8,6.23,2.72,18.37,0,26.55-.51,1.52-1.63,4.48-.34,5.79,.7,.71,2.09,.9,3.06,.51,5.35-2.14,.17-22.59,4.09-32.51,.25-.64,1.11-2.67,1.19-5.45,.1-3.3-.95-5.71-1.36-6.81-3.54-9.4,2.08-21.84-1.02-23.83-1.21-.78-2.89-1.36-2.89-1.36-1.1-.38-1.65-.57-1.87-.51Z"/>
    <path class="cls-13" d="M290.89,326.68c-.06-.08-1.62-2.07-.77-4.09,.34-.8,.92-1.29,1.28-1.53"/>
    <path class="cls-13" d="M345.63,328.06c.06-.08,1.62-2.07,.77-4.09-.34-.8-.92-1.29-1.28-1.53"/>
  </g>
  <g id="music">
    <circle cx="294.36" cy="47.98" r="5.08"/>
    <circle cx="322.83" cy="44.86" r="5.08"/>
    <circle cx="367.57" cy="51.4" r="5.08"/>
    <circle cx="411.66" cy="60.9" r="5.08"/>
    <circle cx="439.08" cy="60.9" r="5.08"/>
    <circle cx="478.55" cy="53.06" r="5.08"/>
    <line class="cls-2" x1="297.45" y1="44.4" x2="297.45" y2="21.74"/>
    <line class="cls-2" x1="325.92" y1="41.45" x2="325.92" y2="20.38"/>
    <line class="cls-2" x1="373.23" y1="24.73" x2="370.14" y2="24.73"/>
    <line class="cls-2" x1="297.45" y1="21.74" x2="325.92" y2="20.89"/>
    <line class="cls-2" x1="370.21" y1="24.77" x2="371.32" y2="49.94"/>
  </g>
  <g id="face">
    <path class="cls-10" d="M363.86,279.39c2.76-5.25,4.13-7.93,4.16-10.44,0-.6,0-4.13-2.3-7.15-1.07-1.4-2.19-2.12-2.81-2.55-5.61-3.97-7.7-12.38-9.19-18.38-1.18-4.75-1.75-7.17-.77-9.45,.81-1.87,2.1-2.8,3.57-6.38,1.3-3.16,1-4.12,.77-4.6-.9-1.82-3.74-2.34-4.25-2.43-.67-.12-1.23-.13-1.62-.12,1.22-.49,2.25-1.22,2.81-2.3,2.25-4.33-3.29-13.83-11.23-16.34-7.94-2.51-16.35,2.58-19.91,8.17-1.34,2.1-1.91,5.06-3.06,10.98-1.63,8.37-.85,10.65-3.06,16.6-.5,1.34-2.02,5.18-5.62,8.43-1.49,1.34-2.24,2.02-3.32,2.04,0,0-2.47,.06-9.19-11.49,0,0-.96-2.26-2.3-2.55-1.11-.24-2.23,.93-2.81,1.53-.47,.49-1.68,1.76-1.53,3.32,.1,1.04,.76,1.76,1.28,2.3,1.47,1.54,5.42,5.58,5.62,5.36,.22-.25-6.28-3.72-9.96-11.49-1.7-3.6-2.15-6.75-3.83-6.89-1.69-.15-3.2,2.84-3.45,3.32-.36,.71-1.32,2.83-.77,7.53,.54,4.53,2.08,8.03,2.04,8.04-.03,0-.51-1.77-1.4-3.57-.24-.49-3.2-6.45-5.74-6.13-2.08,.26-3.14,4.62-4.47,10.09-.54,2.23-1.13,4.68-1.4,8.17-.13,1.6-.52,7.53,1.28,15.57,.56,2.5,2,8.96,4.85,13.79,2.18,3.69,7.75,5.88,11.18,10,2.17,2.61,2.06,7.61,4.33,8.8,.88,.46,1.94-4.62,7.15-4.66,3.67-.03,3.36,.84,6.58,1.56,14.85,3.34,27.84,1.98,37.21-1.24,.8-.27,2.47,7.19,3.21,6.89s2.42-8.11,3.09-8.43c.5-.24,.88-.6,1.6-.96,3.34-1.69,7.47-5.16,10.81-10.43,.7-1.11,1.41-2.46,2.48-4.49Z"/>
    <path class="cls-22" d="M363.86,279.39c2.76-5.25,4.13-7.93,4.16-10.44,0-.6,0-4.13-2.3-7.15-1.07-1.4-2.19-2.12-2.81-2.55-5.61-3.97-7.7-12.38-9.19-18.38-1.18-4.75-1.75-7.17-.77-9.45,.81-1.87,2.1-2.8,3.57-6.38,1.3-3.16,1-4.12,.77-4.6-.9-1.82-3.74-2.34-4.25-2.43-.67-.12-1.23-.13-1.62-.12,1.22-.49,2.25-1.22,2.81-2.3,2.25-4.33-3.29-13.83-11.23-16.34-7.94-2.51-16.35,2.58-19.91,8.17-1.34,2.1-1.91,5.06-3.06,10.98-1.63,8.37-.85,10.65-3.06,16.6-.5,1.34-2.02,5.18-5.62,8.43-1.49,1.34-2.24,2.02-3.32,2.04,0,0-2.47,.06-9.19-11.49,0,0-.96-2.26-2.3-2.55-1.11-.24-2.23,.93-2.81,1.53-.47,.49-1.68,1.76-1.53,3.32,.1,1.04,.76,1.76,1.28,2.3,1.47,1.54,5.42,5.58,5.62,5.36,.22-.25-6.28-3.72-9.96-11.49-1.7-3.6-2.15-6.75-3.83-6.89-1.69-.15-3.2,2.84-3.45,3.32-.36,.71-1.32,2.83-.77,7.53,.54,4.53,2.08,8.03,2.04,8.04-.03,0-.51-1.77-1.4-3.57-.24-.49-3.2-6.45-5.74-6.13-2.08,.26-3.14,4.62-4.47,10.09-.54,2.23-1.13,4.68-1.4,8.17-.13,1.6-.52,7.53,1.28,15.57,.56,2.5,2,8.96,4.85,13.79,2.86,4.84,7.14,8.07,11.91,10.37,1.08,.52,1.28,11.73,3.59,8.43,2.89-4.12,9.35-4.08,13.73-3.09,14.99,3.37,27.74,2.85,37.12-.43,0,0,2.71,7.46,3.3,7.23,.47-.19,3.26-8.36,3.71-8.55,.32-.14,.4-.62,.71-.77,2.84-1.34,7.03-5.24,11.08-11.65,.7-1.11,1.41-2.46,2.48-4.49Z"/>
    <path class="cls-17" d="M308.02,245.46c-.27,1.29-.49,3.1,.38,3.7,1.36,.94,4.59-1.66,4.98-1.15,.34,.44-2.35,2.16-2.55,4.72-.15,1.92,1.16,3.47,1.79,4.21,4.26,5.04,15.18,2.99,16.09,2.81-1.31,3.27-.57,4.47-.26,4.85,1.52,1.83,6.54,.82,12.64-2.68,.13,.49,1.3,4.46,4.6,5.49,3.57,1.12,8.14-1.7,9.19-4.6,.21-.57,.32-1.25,.89-1.53,1.34-.65,3.04,1.92,4.6,1.53,.77-.19,1.67-1.16,2.17-4.6"/>
    <path class="cls-14" d="M292.55,256.51c-2.57-2.03-5.46-5.03-6.89-9.32-.88-2.63-.71-4.21-1.02-4.21-.91,0-3.88,13.29,1.4,17.23,.97,.73,2.39,1.26,2.55,1.02,.43-.62-6.75-8-8.81-6.77-2.33,1.4,.73,14.58,6.51,15.83,.65,.14-2.52-.92-2.39-1.27,.32-.84-.89-2.56-5.91-4.98-.69,6.51,2.58,12.38,7.66,14.43,4.52,1.82,8.84-.05,9.83-.51"/>
    <ellipse class="cls-5" cx="335.81" cy="214.37" rx="6.06" ry="5.11" transform="translate(46.09 487.84) rotate(-75.9)"/>
    <ellipse class="cls-5" cx="346.9" cy="213.67" rx="3.47" ry="5.23" transform="translate(-28.59 55.55) rotate(-8.79)"/>
    <ellipse cx="336.62" cy="214.37" rx="1.14" ry="2.28"/>
    <ellipse cx="346.03" cy="214.37" rx="1.14" ry="2.28"/>
    <path d="M332.35,206.97c1.78-1.07,3.43-2.38,5.4-3.07,1.42-.22,2.4,1.2,2.82,2.32,0,0-.23,.1-.23,.1-.52-.99-1.31-2.15-2.52-2-1.85,.65-3.65,2.06-5.46,2.66h0Z"/>
    <path d="M344.23,206.23c2.02-2.49,5.84-1.88,5.83,1.7,0,0-.25,.01-.25,.01-.33-3.29-3.25-3.36-5.4-1.54,0,0-.18-.17-.18-.17h0Z"/>
    <path d="M326.92,207.77c1.23,1.48,3.33,2.44,5.23,2.28,0,0,.12,.74,.12,.74-2.15-.01-4.23-1.23-5.44-2.96,0,0,.09-.07,.09-.07h0Z"/>
    <path d="M325.72,209.76c1.49,1.36,3.8,1.82,5.69,1.29,0,0,.24,.71,.24,.71-2.14,.36-4.5-.38-5.93-2h0Z"/>
    <path d="M324.9,210.93c1.06,2.06,3.78,2.72,5.82,1.85,0,0,.27,.7,.27,.7-2.31,.7-5.16-.22-6.09-2.55h0Z"/>
    <path d="M353.1,210.12c-.42,1.29-1.93,2.16-3.28,1.8,0,0,.29-.69,.29-.69,1.02,.44,2.39-.13,2.89-1.15,0,0,.11,.05,.11,.05h0Z"/>
    <path d="M353.81,211.5c-.64,1.38-2.5,1.86-3.87,1.24,0,0,.39-.64,.39-.64,1.06,.7,2.71,.52,3.48-.6h0Z"/>
    <path d="M325.9,228.18c-4.78-3.76-1.13-12.09,4.95-10.58,1.78,.45,3.23,1.78,3.99,3.4l-.68,.32c-.7-1.43-2.01-2.52-3.52-2.92-5.62-1.16-8.24,5.8-4.74,9.78h0Z"/>
    <path class="cls-31" d="M333.97,223.14c-.03-1.03,1.38-1.57,3.82-3.35,2.86-2.09,2.46-2.46,3.89-3.11,.22-.1,4.13-1.81,6.72,.11,2.04,1.52,2.02,4.4,2.01,6.86-.03,4.91-2.06,10.08-3.56,9.96-1.49-.12-.61-5.26-3.87-7.03-2.3-1.25-4.64,.27-7.63-1.75-1.31-.89-1.36-1.52-1.37-1.69Z"/>
    <path class="cls-9" d="M334.06,222.83c0-1.03,1.43-1.52,3.93-3.22,2.93-1.99,2.54-2.37,4-2.97,.22-.09,4.19-1.67,6.71,.35,1.99,1.59,1.87,4.47,1.77,6.93-.2,4.91-2.41,10.01-3.91,9.83-1.48-.17-.43-5.28-3.63-7.16-2.26-1.33-4.64,.11-7.56-2.02-1.28-.93-1.31-1.57-1.31-1.73Z"/>
    <path class="cls-31" d="M334.11,221.5c-.42,.72-.94,2.72-.04,4.98,1.08,2.7,3.79,4.76,6.64,4.98,.68,.05,2.57,.2,3.19-.81,.76-1.22-.54-3.83-2.43-5.11-2.04-1.39-3.59-.42-5.06-2.04-.89-.99-1.32-2.45-1.91-2.34-.17,.03-.29,.19-.38,.34Z"/>
    <path class="cls-9" d="M334.11,221.5c-.42,.72-.94,2.72-.04,4.98,1.08,2.7,3.79,4.76,6.64,4.98,.68,.05,2.57,.2,3.19-.81,.76-1.22-.54-3.83-2.43-5.11-2.04-1.39-3.59-.42-5.06-2.04-.89-.99-1.32-2.45-1.91-2.34-.17,.03-.29,.19-.38,.34Z"/>
    <path class="cls-9" d="M344.28,221.8c.12,.02,.43,.08,.68,.34,.43,.44,.31,1.05,.3,1.11"/>
    <path class="cls-9" d="M345.9,221.45c.12,.02,.43,.08,.68,.34,.43,.44,.31,1.05,.3,1.11"/>
    <path class="cls-7" d="M344.49,200.18c.99-.12,1.64-1.82,1.79-2.64,.49-2.74-2.79-6.34-6.38-7.83-4.39-1.82-10.34-.94-12,2.13-.53,.98-.98,2.84-.17,3.83,.7,.85,1.91,.53,2.47,1.62,.04,.08,.49,.98,.12,1.84-.07,.18-.16,.3-.21,.37-.62,.83-1.93,1-2.04,.77-.13-.26,1.45-.78,1.45-1.62,0-1.08-2.64-2.11-4.77-2.38-1.05-.13-4.29-.55-6.72,1.62-1.12,.99-2.62,3.02-2.04,4.68,.32,.91,1.18,1.47,1.79,1.87,1.5,.98,2.67,.77,3.32,1.87,.28,.47,.36,.99,.37,1.13,.1,.75-.11,1.33-.2,1.59-.35,.96-1.06,1.69-1.19,1.62-.19-.11,1.08-1.71,.51-2.64-.37-.61-1.38-.67-1.96-.6-1.5,.19-2.67,1.63-3.06,2.98-.62,2.13,.63,4.2,1.87,5.28,1.16,1,3.22,1.94,4.17,1.19,.92-.72,.02-2.41,.09-4.6,.16-5.16,5.6-8.88,7.06-9.87,0,0,5.15-3.51,11.4-3.06,1.8,.13,2.7,.19,3.49,.6,.27,.14,.52,.29,.85,.26Z"/>
  </g>
</svg>