<?xml version="1.0" encoding="UTF-8"?>
<svg xmlns="http://www.w3.org/2000/svg" viewBox="0 0 708 500.13">
  <defs>
    <style>
      .cls-1, .cls-2, .cls-3 {
        fill: #fff;
      }

      .cls-4, .cls-5, .cls-6, .cls-7, .cls-8, .cls-9, .cls-2, .cls-10, .cls-11, .cls-3, .cls-12, .cls-13 {
        stroke-miterlimit: 10;
      }

      .cls-4, .cls-6, .cls-7, .cls-10, .cls-11, .cls-12, .cls-13 {
        fill: none;
      }

      .cls-4, .cls-7, .cls-12 {
        stroke-width: .5px;
      }

      .cls-4, .cls-9, .cls-2 {
        stroke: #4d4d4d;
      }

      .cls-14 {
        fill: #4d4d4d;
      }

      .cls-15 {
        fill: #e6e6e6;
      }

      .cls-16 {
        fill: gray;
      }

      .cls-17 {
        fill: #f8ffcb;
      }

      .cls-5 {
        stroke-width: 5px;
      }

      .cls-5, .cls-6, .cls-11 {
        stroke: #6b6a6a;
      }

      .cls-5, .cls-6, .cls-11, .cls-3, .cls-13 {
        stroke-linecap: round;
      }

      .cls-7 {
        stroke: #999;
      }

      .cls-8 {
        fill: #c7b299;
        stroke: #8c6239;
      }

      .cls-18 {
        fill: #999;
      }

      .cls-19 {
        fill: #ffd78f;
      }

      .cls-20 {
        fill: #754c24;
      }

      .cls-10 {
        stroke-width: 4px;
      }

      .cls-10, .cls-13 {
        stroke: #fff;
      }

      .cls-21 {
        font-family: InkFree, 'Ink Free';
        font-size: 5px;
      }

      .cls-11, .cls-13 {
        stroke-width: 3px;
      }

      .cls-3 {
        stroke: #000;
      }

      .cls-22 {
        fill: #fdff8a;
      }

      .cls-12 {
        stroke: gray;
      }

      .cls-23 {
        fill: #ff6489;
      }
    </style>
  </defs>
  <g id="Layer_1" data-name="Layer 1">
    <g>
      <rect class="cls-17" x="8.5" y=".63" width="699" height="330"/>
      <path class="cls-22" d="M707,1.13V330.13H9V1.13H707m1-1H8V331.13H708V.13h0Z"/>
    </g>
    <g>
      <rect class="cls-19" x="8.5" y="331.63" width="699" height="168"/>
      <path class="cls-22" d="M707,332.13v167H9v-167H707m1-1H8v169H708v-169h0Z"/>
    </g>
    <line class="cls-10" x1="505.5" y1="282.63" x2="602.5" y2="282.63"/>
  </g>
  <g id="kontakt">
    <g>
      <rect class="cls-1" x="657.15" y="297.28" width="20.7" height="25.7" rx=".85" ry=".85"/>
      <path class="cls-14" d="M677,297.43c.39,0,.7,.31,.7,.7v24c0,.39-.31,.7-.7,.7h-19c-.39,0-.7-.31-.7-.7v-24c0-.39,.31-.7,.7-.7h19m0-.3h-19c-.55,0-1,.45-1,1v24c0,.55,.45,1,1,1h19c.55,0,1-.45,1-1v-24c0-.55-.45-1-1-1h0Z"/>
    </g>
    <g>
      <circle class="cls-1" cx="667.5" cy="304.63" r="4.35"/>
      <path class="cls-14" d="M667.5,300.43c2.32,0,4.2,1.88,4.2,4.2s-1.88,4.2-4.2,4.2-4.2-1.88-4.2-4.2,1.88-4.2,4.2-4.2m0-.3c-2.49,0-4.5,2.01-4.5,4.5s2.01,4.5,4.5,4.5,4.5-2.01,4.5-4.5-2.01-4.5-4.5-4.5h0Z"/>
    </g>
    <g>
      <circle class="cls-1" cx="667.5" cy="314.63" r="4.35"/>
      <path class="cls-14" d="M667.5,310.43c2.32,0,4.2,1.88,4.2,4.2s-1.88,4.2-4.2,4.2-4.2-1.88-4.2-4.2,1.88-4.2,4.2-4.2m0-.3c-2.49,0-4.5,2.01-4.5,4.5s2.01,4.5,4.5,4.5,4.5-2.01,4.5-4.5-2.01-4.5-4.5-4.5h0Z"/>
    </g>
    <g>
      <circle cx="666.5" cy="304.63" r=".35"/>
      <path d="M666.5,304.43c.11,0,.2,.09,.2,.2s-.09,.2-.2,.2-.2-.09-.2-.2,.09-.2,.2-.2m0-.3c-.28,0-.5,.22-.5,.5s.22,.5,.5,.5,.5-.22,.5-.5-.22-.5-.5-.5h0Z"/>
    </g>
    <g>
      <circle cx="668.5" cy="304.63" r=".35"/>
      <path d="M668.5,304.43c.11,0,.2,.09,.2,.2s-.09,.2-.2,.2-.2-.09-.2-.2,.09-.2,.2-.2m0-.3c-.28,0-.5,.22-.5,.5s.22,.5,.5,.5,.5-.22,.5-.5-.22-.5-.5-.5h0Z"/>
    </g>
    <g>
      <circle cx="666.5" cy="314.63" r=".35"/>
      <path d="M666.5,314.43c.11,0,.2,.09,.2,.2s-.09,.2-.2,.2-.2-.09-.2-.2,.09-.2,.2-.2m0-.3c-.28,0-.5,.22-.5,.5s.22,.5,.5,.5,.5-.22,.5-.5-.22-.5-.5-.5h0Z"/>
    </g>
    <g>
      <circle cx="668.5" cy="314.63" r=".35"/>
      <path d="M668.5,314.43c.11,0,.2,.09,.2,.2s-.09,.2-.2,.2-.2-.09-.2-.2,.09-.2,.2-.2m0-.3c-.28,0-.5,.22-.5,.5s.22,.5,.5,.5,.5-.22,.5-.5-.22-.5-.5-.5h0Z"/>
    </g>
  </g>
  <g id="fridge">
    <rect class="cls-1" x="55" y="80.13" width="128" height="302" rx="8.93" ry="8.93"/>
    <line class="cls-11" x1="57.5" y1="364.63" x2="181.5" y2="363.63"/>
    <line class="cls-6" x1="55" y1="89.63" x2="183" y2="88.63"/>
    <line class="cls-11" x1="57.5" y1="160.63" x2="181.5" y2="159.63"/>
    <line class="cls-3" x1="64.48" y1="203.35" x2="64.49" y2="272.22"/>
    <line class="cls-5" x1="64.49" y1="199.13" x2="64.5" y2="328.63"/>
    <line class="cls-5" x1="64.5" y1="105.12" x2="64.5" y2="145.13"/>
    <line class="cls-3" x1="64.49" y1="107.23" x2="64.5" y2="141.63"/>
    <line class="cls-3" x1="64.48" y1="203.03" x2="64.5" y2="328.63"/>
    <rect class="cls-16" x="64" y="382.13" width="19" height="6" rx="1.43" ry="1.43"/>
    <rect class="cls-16" x="155" y="382.13" width="19" height="6" rx="1.43" ry="1.43"/>
  </g>
  <g id="recept">
    <g>
      <rect class="cls-17" x="114.26" y="186.5" width="43.5" height="71.5" transform="translate(-34.84 25.52) rotate(-9.51)"/>
      <path class="cls-22" d="M151.35,183.69l11.73,70.02-42.41,7.1-11.73-70.02,42.41-7.1m.41-.58l-43.4,7.27,11.89,71.01,43.4-7.27-11.89-71.01h0Z"/>
    </g>
    <text class="cls-21" transform="translate(111.47 196.83) rotate(-9.51)"><tspan x="0" y="0">RECIPE PANCAKE</tspan></text>
    <text class="cls-21" transform="translate(127.56 214.16) rotate(-9.51)"><tspan x="0" y="0">MILK</tspan></text>
    <text class="cls-21" transform="translate(129.54 225.99) rotate(-9.51)"><tspan x="0" y="0">EGGS</tspan></text>
    <text class="cls-21" transform="translate(131.44 237.34) rotate(-9.51)"><tspan x="0" y="0">FLOUR</tspan></text>
    <line class="cls-12" x1="127.87" y1="216.01" x2="152.52" y2="211.88"/>
    <line class="cls-12" x1="129.85" y1="227.85" x2="154.51" y2="223.72"/>
    <line class="cls-12" x1="131.83" y1="239.68" x2="156.49" y2="235.55"/>
    <g>
      <rect class="cls-17" x="115.73" y="211.13" width="7.5" height="6.5" transform="translate(-33.77 22.68) rotate(-9.51)"/>
      <path class="cls-18" d="M122.44,210.84l.99,5.92-6.9,1.16-.99-5.92,6.9-1.16m.41-.58l-7.89,1.32,1.16,6.9,7.89-1.32-1.16-6.9h0Z"/>
    </g>
    <g>
      <rect class="cls-17" x="117.71" y="222.96" width="7.5" height="6.5" transform="translate(-35.7 23.17) rotate(-9.51)"/>
      <path class="cls-18" d="M124.42,222.67l.99,5.92-6.9,1.16-.99-5.92,6.9-1.16m.41-.58l-7.89,1.32,1.16,6.9,7.89-1.32-1.16-6.9h0Z"/>
    </g>
    <g>
      <rect class="cls-17" x="119.7" y="234.8" width="7.5" height="6.5" transform="translate(-37.61 23.65) rotate(-9.5)"/>
      <path class="cls-18" d="M126.4,234.51l.99,5.92-6.9,1.16-.99-5.92,6.9-1.16m.41-.58l-7.89,1.32,1.16,6.9,7.89-1.32-1.16-6.9h0Z"/>
    </g>
    <path class="cls-7" d="M114.87,201.97c.03-.51,.14-1.34,.66-2.14,2.41-3.75,9.9-.9,21.86-2.65,2.35-.34,6.4-1.09,10.52-3.79,.8-.53,1.42-1.01,1.81-1.32"/>
    <text/>
    <path class="cls-23" d="M136.8,184.18c.47,0,.91,.25,1.15,.66,.18,.31,.22,.66,.13,1-.09,.34-.31,.63-.62,.8-.2,.12-.43,.18-.66,.18-.47,0-.91-.25-1.15-.66-.18-.31-.22-.66-.13-1,.09-.34,.31-.63,.62-.8,.2-.12,.43-.18,.66-.18m0-1c-.39,0-.79,.1-1.16,.31-1.11,.64-1.49,2.06-.85,3.17,.43,.75,1.21,1.16,2.01,1.16,.39,0,.79-.1,1.16-.31,1.11-.64,1.49-2.06,.85-3.17-.43-.75-1.21-1.16-2.01-1.16h0Z"/>
  </g>
  <g id="skåp">
    <rect class="cls-8" x="206" y="238.13" width="257.5" height="147"/>
    <rect class="cls-8" x="217.5" y="250.63" width="108" height="123"/>
    <rect class="cls-8" x="336.5" y="250.63" width="108" height="22"/>
    <rect class="cls-8" x="336.5" y="282.63" width="108" height="22"/>
    <rect class="cls-8" x="336.5" y="314.63" width="108" height="22"/>
    <rect class="cls-8" x="336.5" y="346.63" width="108" height="22"/>
    <g>
      <circle class="cls-20" cx="390" cy="262.13" r="2.5"/>
      <path class="cls-20" d="M390,260.13c1.1,0,2,.9,2,2s-.9,2-2,2-2-.9-2-2,.9-2,2-2m0-1c-1.66,0-3,1.34-3,3s1.34,3,3,3,3-1.34,3-3-1.34-3-3-3h0Z"/>
    </g>
    <g>
      <circle class="cls-20" cx="390" cy="294.13" r="2.5"/>
      <path class="cls-20" d="M390,292.13c1.1,0,2,.9,2,2s-.9,2-2,2-2-.9-2-2,.9-2,2-2m0-1c-1.66,0-3,1.34-3,3s1.34,3,3,3,3-1.34,3-3-1.34-3-3-3h0Z"/>
    </g>
    <g>
      <circle class="cls-20" cx="390" cy="326.13" r="2.5"/>
      <path class="cls-20" d="M390,324.13c1.1,0,2,.9,2,2s-.9,2-2,2-2-.9-2-2,.9-2,2-2m0-1c-1.66,0-3,1.34-3,3s1.34,3,3,3,3-1.34,3-3-1.34-3-3-3h0Z"/>
    </g>
    <g>
      <circle class="cls-20" cx="390" cy="359.13" r="2.5"/>
      <path class="cls-20" d="M390,357.13c1.1,0,2,.9,2,2s-.9,2-2,2-2-.9-2-2,.9-2,2-2m0-1c-1.66,0-3,1.34-3,3s1.34,3,3,3,3-1.34,3-3-1.34-3-3-3h0Z"/>
    </g>
    <g>
      <circle class="cls-20" cx="311.5" cy="274.63" r="4"/>
      <path class="cls-20" d="M311.5,271.13c1.93,0,3.5,1.57,3.5,3.5s-1.57,3.5-3.5,3.5-3.5-1.57-3.5-3.5,1.57-3.5,3.5-3.5m0-1c-2.49,0-4.5,2.01-4.5,4.5s2.01,4.5,4.5,4.5,4.5-2.01,4.5-4.5-2.01-4.5-4.5-4.5h0Z"/>
    </g>
    <rect class="cls-8" x="208.19" y=".5" width="257.5" height="147"/>
    <rect class="cls-8" x="219.69" y="13" width="108" height="123"/>
    <g>
      <circle class="cls-20" cx="313.69" cy="37" r="4"/>
      <path class="cls-20" d="M313.69,33.5c1.93,0,3.5,1.57,3.5,3.5s-1.57,3.5-3.5,3.5-3.5-1.57-3.5-3.5,1.57-3.5,3.5-3.5m0-1c-2.49,0-4.5,2.01-4.5,4.5s2.01,4.5,4.5,4.5,4.5-2.01,4.5-4.5-2.01-4.5-4.5-4.5h0Z"/>
    </g>
    <rect class="cls-8" x="344.5" y="12.63" width="108" height="123"/>
    <g>
      <circle class="cls-20" cx="438.5" cy="36.63" r="4"/>
      <path class="cls-20" d="M438.5,33.13c1.93,0,3.5,1.57,3.5,3.5s-1.57,3.5-3.5,3.5-3.5-1.57-3.5-3.5,1.57-3.5,3.5-3.5m0-1c-2.49,0-4.5,2.01-4.5,4.5s2.01,4.5,4.5,4.5,4.5-2.01,4.5-4.5-2.01-4.5-4.5-4.5h0Z"/>
    </g>
  </g>
  <g id="spis">
    <rect class="cls-2" x="470.5" y="237.63" width="164" height="144" rx="5.61" ry="5.61"/>
    <rect class="cls-16" x="481" y="382.13" width="19" height="6" rx="1.43" ry="1.43"/>
    <rect class="cls-16" x="602" y="382.13" width="19" height="6" rx="1.43" ry="1.43"/>
    <rect class="cls-9" x="487.5" y="267.63" width="130" height="75" rx="5.64" ry="5.64"/>
    <line class="cls-4" x1="526.5" y1="278.63" x2="496.5" y2="325.63"/>
    <line class="cls-4" x1="554.5" y1="278.63" x2="525.5" y2="325.63"/>
    <line class="cls-4" x1="607.82" y1="280.67" x2="578.82" y2="327.67"/>
    <line class="cls-4" x1="579.82" y1="280.67" x2="550.82" y2="327.67"/>
    <line class="cls-13" x1="499" y1="275.63" x2="606.5" y2="276.63"/>
    <g>
      <g>
        <circle class="cls-15" cx="501.5" cy="254.63" r="5.25"/>
        <path class="cls-16" d="M501.5,249.63c2.76,0,5,2.24,5,5s-2.24,5-5,5-5-2.24-5-5,2.24-5,5-5m0-.5c-3.04,0-5.5,2.46-5.5,5.5s2.46,5.5,5.5,5.5,5.5-2.46,5.5-5.5-2.46-5.5-5.5-5.5h0Z"/>
      </g>
      <line class="cls-4" x1="493.5" y1="250.63" x2="495.5" y2="251.63"/>
      <line class="cls-4" x1="495.63" y1="247.9" x2="497.05" y2="249.63"/>
      <line class="cls-4" x1="499.11" y1="245.89" x2="499.91" y2="247.98"/>
      <line class="cls-4" x1="503.13" y1="247.99" x2="503.9" y2="245.89"/>
      <line class="cls-4" x1="507.37" y1="248.22" x2="505.65" y2="249.65"/>
      <line class="cls-4" x1="507.42" y1="252.18" x2="509.6" y2="251.69"/>
    </g>
    <g>
      <g>
        <path class="cls-15" d="M526.5,259.88c-2.89,0-5.25-2.36-5.25-5.25s2.36-5.25,5.25-5.25,5.25,2.35,5.25,5.25-2.36,5.25-5.25,5.25Z"/>
        <path class="cls-16" d="M526.5,249.63c2.76,0,5,2.24,5,5s-2.24,5-5,5-5-2.24-5-5,2.24-5,5-5m0-.5c-3.04,0-5.5,2.46-5.5,5.5s2.46,5.5,5.5,5.5,5.5-2.46,5.5-5.5-2.46-5.5-5.5-5.5h0Z"/>
      </g>
      <line class="cls-4" x1="518.5" y1="250.63" x2="520.5" y2="251.63"/>
      <line class="cls-4" x1="520.63" y1="247.9" x2="522.05" y2="249.63"/>
      <line class="cls-4" x1="524.11" y1="245.89" x2="524.91" y2="247.98"/>
      <line class="cls-4" x1="528.13" y1="247.99" x2="528.9" y2="245.89"/>
      <line class="cls-4" x1="532.37" y1="248.22" x2="530.65" y2="249.65"/>
      <line class="cls-4" x1="532.42" y1="252.18" x2="534.6" y2="251.69"/>
    </g>
    <g>
      <g>
        <circle class="cls-15" cx="574.32" cy="254.94" r="5.25"/>
        <path class="cls-16" d="M574.32,249.94c2.76,0,5,2.24,5,5s-2.24,5-5,5-5-2.24-5-5,2.24-5,5-5m0-.5c-3.04,0-5.5,2.46-5.5,5.5s2.46,5.5,5.5,5.5,5.5-2.46,5.5-5.5-2.46-5.5-5.5-5.5h0Z"/>
      </g>
      <line class="cls-4" x1="566.32" y1="250.94" x2="568.32" y2="251.94"/>
      <line class="cls-4" x1="568.45" y1="248.21" x2="569.86" y2="249.95"/>
      <line class="cls-4" x1="571.93" y1="246.21" x2="572.73" y2="248.29"/>
      <line class="cls-4" x1="575.94" y1="248.3" x2="576.71" y2="246.2"/>
      <line class="cls-4" x1="580.19" y1="248.53" x2="578.47" y2="249.97"/>
      <line class="cls-4" x1="580.24" y1="252.49" x2="582.42" y2="252"/>
    </g>
    <g>
      <g>
        <circle class="cls-15" cx="597.5" cy="255.63" r="5.25"/>
        <path class="cls-16" d="M597.5,250.63c2.76,0,5,2.24,5,5s-2.24,5-5,5-5-2.24-5-5,2.24-5,5-5m0-.5c-3.04,0-5.5,2.46-5.5,5.5s2.46,5.5,5.5,5.5,5.5-2.46,5.5-5.5-2.46-5.5-5.5-5.5h0Z"/>
      </g>
      <line class="cls-4" x1="589.5" y1="251.63" x2="591.5" y2="252.63"/>
      <line class="cls-4" x1="591.63" y1="248.9" x2="593.05" y2="250.63"/>
      <line class="cls-4" x1="595.11" y1="246.89" x2="595.91" y2="248.98"/>
      <line class="cls-4" x1="599.13" y1="248.99" x2="599.9" y2="246.89"/>
      <line class="cls-4" x1="603.37" y1="249.22" x2="601.65" y2="250.65"/>
      <line class="cls-4" x1="603.42" y1="253.18" x2="605.6" y2="252.69"/>
    </g>
    <rect class="cls-9" x="487.5" y="232.63" width="49" height="3" rx="1.5" ry="1.5"/>
    <rect class="cls-9" x="561.5" y="232.63" width="49" height="3" rx="1.5" ry="1.5"/>
  </g>
</svg>