<?xml version="1.0" encoding="UTF-8"?>
<svg xmlns="http://www.w3.org/2000/svg" viewBox="0 0 534.07 238">
  <defs>
    <style>
      .cls-1 {
        fill: #c1272d;
      }

      .cls-1, .cls-2, .cls-3, .cls-4, .cls-5, .cls-6 {
        stroke-miterlimit: 10;
      }

      .cls-1, .cls-3, .cls-4, .cls-6 {
        stroke-width: 2px;
      }

      .cls-1, .cls-3, .cls-6 {
        stroke: #ed1c24;
      }

      .cls-7 {
        fill: #c69c6d;
      }

      .cls-2 {
        fill: #f7931e;
      }

      .cls-2, .cls-4 {
        stroke: #000;
      }

      .cls-2, .cls-5 {
        font-family: HighTowerText-Reg, 'High Tower Text';
        font-size: 24px;
        stroke-width: .25px;
      }

      .cls-3, .cls-4 {
        fill: #fff;
      }

      .cls-8 {
        fill: #ffd072;
      }

      .cls-5 {
        fill: #39b54a;
        stroke: #006837;
      }

      .cls-6 {
        fill: none;
      }
    </style>
  </defs>
  <g id="frame">
    <rect class="cls-1" x="1" y="1" width="532.07" height="236"/>
    <line class="cls-6" x1="37.9" y1="23.31" x2="1" y2="1"/>
    <line class="cls-6" x1="37.9" y1="212.11" x2="1" y2="237"/>
    <line class="cls-6" x1="500.46" y1="212.11" x2="533.07" y2="237"/>
    <line class="cls-6" x1="500.46" y1="23.31" x2="533.07" y2="1"/>
    <rect class="cls-3" x="37.9" y="23.31" width="462.56" height="188.8"/>
    <ellipse class="cls-4" cx="406.38" cy="172" rx="90" ry="18"/>
  </g>
  <g id="sten_vänster" data-name="sten vänster">
    <text class="cls-5" transform="translate(62.46 154.69)"><tspan x="0" y="0">YOU FINISHED THE </tspan><tspan x="81.07" y="28.8">GAME!</tspan></text>
    <text class="cls-2" transform="translate(50.41 75.58)"><tspan x="0" y="0">CONGRATULATIONS!</tspan></text>
    <g>
      <ellipse class="cls-8" cx="406.38" cy="172" rx="68.5" ry="11.5"/>
      <path class="cls-7" d="M406.38,161c18.37,0,35.64,1.24,48.62,3.5,14.31,2.49,19.38,5.6,19.38,7.5s-5.08,5.01-19.38,7.5c-12.98,2.26-30.24,3.5-48.62,3.5s-35.64-1.24-48.62-3.5c-14.31-2.49-19.38-5.6-19.38-7.5s5.08-5.01,19.38-7.5c12.98-2.26,30.24-3.5,48.62-3.5m0-1c-38.11,0-69,5.37-69,12s30.89,12,69,12,69-5.37,69-12-30.89-12-69-12h0Z"/>
    </g>
    <g>
      <ellipse class="cls-8" cx="406.38" cy="160" rx="68.5" ry="11.5"/>
      <path class="cls-7" d="M406.38,149c18.37,0,35.64,1.24,48.62,3.5,14.31,2.49,19.38,5.6,19.38,7.5s-5.08,5.01-19.38,7.5c-12.98,2.26-30.24,3.5-48.62,3.5s-35.64-1.24-48.62-3.5c-14.31-2.49-19.38-5.6-19.38-7.5s5.08-5.01,19.38-7.5c12.98-2.26,30.24-3.5,48.62-3.5m0-1c-38.11,0-69,5.37-69,12s30.89,12,69,12,69-5.37,69-12-30.89-12-69-12h0Z"/>
    </g>
    <g>
      <ellipse class="cls-8" cx="400.38" cy="151" rx="68.5" ry="11.5"/>
      <path class="cls-7" d="M400.38,140c18.37,0,35.64,1.24,48.62,3.5,14.31,2.49,19.38,5.6,19.38,7.5s-5.08,5.01-19.38,7.5c-12.98,2.26-30.24,3.5-48.62,3.5s-35.64-1.24-48.62-3.5c-14.31-2.49-19.38-5.6-19.38-7.5s5.08-5.01,19.38-7.5c12.98-2.26,30.24-3.5,48.62-3.5m0-1c-38.11,0-69,5.37-69,12s30.89,12,69,12,69-5.37,69-12-30.89-12-69-12h0Z"/>
    </g>
    <g>
      <ellipse class="cls-8" cx="406.38" cy="145" rx="68.5" ry="11.5"/>
      <path class="cls-7" d="M406.38,134c18.37,0,35.64,1.24,48.62,3.5,14.31,2.49,19.38,5.6,19.38,7.5s-5.08,5.01-19.38,7.5c-12.98,2.26-30.24,3.5-48.62,3.5s-35.64-1.24-48.62-3.5c-14.31-2.49-19.38-5.6-19.38-7.5s5.08-5.01,19.38-7.5c12.98-2.26,30.24-3.5,48.62-3.5m0-1c-38.11,0-69,5.37-69,12s30.89,12,69,12,69-5.37,69-12-30.89-12-69-12h0Z"/>
    </g>
    <g>
      <ellipse class="cls-8" cx="412.38" cy="135" rx="68.5" ry="11.5"/>
      <path class="cls-7" d="M412.38,124c18.37,0,35.64,1.24,48.62,3.5,14.31,2.49,19.38,5.6,19.38,7.5s-5.08,5.01-19.38,7.5c-12.98,2.26-30.24,3.5-48.62,3.5s-35.64-1.24-48.62-3.5c-14.31-2.49-19.38-5.6-19.38-7.5s5.08-5.01,19.38-7.5c12.98-2.26,30.24-3.5,48.62-3.5m0-1c-38.11,0-69,5.37-69,12s30.89,12,69,12,69-5.37,69-12-30.89-12-69-12h0Z"/>
    </g>
    <g>
      <ellipse class="cls-8" cx="412.38" cy="124" rx="62.5" ry="11.5"/>
      <path class="cls-7" d="M412.38,113c16.77,0,32.52,1.24,44.36,3.5,13.01,2.48,17.64,5.5,17.64,7.5s-4.63,5.03-17.64,7.5c-11.84,2.26-27.59,3.5-44.36,3.5s-32.52-1.24-44.36-3.5c-13.01-2.48-17.64-5.5-17.64-7.5s4.63-5.03,17.64-7.5c11.84-2.26,27.59-3.5,44.36-3.5m0-1c-34.79,0-63,5.37-63,12s28.21,12,63,12,63-5.37,63-12-28.21-12-63-12h0Z"/>
    </g>
    <g>
      <path class="cls-8" d="M414.21,123.21c-32.69,0-54.65-5.95-54.65-11.5s21.96-11.5,54.65-11.5,54.65,5.95,54.65,11.5-21.96,11.5-54.65,11.5Z"/>
      <path class="cls-7" d="M414.21,100.71c31.91,0,54.15,5.8,54.15,11s-22.24,11-54.15,11-54.15-5.8-54.15-11,22.24-11,54.15-11m0-1c-30.46,0-55.15,5.37-55.15,12s24.69,12,55.15,12,55.15-5.37,55.15-12-24.69-12-55.15-12h0Z"/>
    </g>
  </g>
</svg>